G04 #@! TF.GenerationSoftware,KiCad,Pcbnew,6.0.2-378541a8eb~116~ubuntu20.04.1*
G04 #@! TF.CreationDate,2022-03-12T17:42:15-05:00*
G04 #@! TF.ProjectId,sidekickvco_b1,73696465-6b69-4636-9b76-636f5f62312e,rev?*
G04 #@! TF.SameCoordinates,Original*
G04 #@! TF.FileFunction,Soldermask,Top*
G04 #@! TF.FilePolarity,Negative*
%FSLAX46Y46*%
G04 Gerber Fmt 4.6, Leading zero omitted, Abs format (unit mm)*
G04 Created by KiCad (PCBNEW 6.0.2-378541a8eb~116~ubuntu20.04.1) date 2022-03-12 17:42:15*
%MOMM*%
%LPD*%
G01*
G04 APERTURE LIST*
G04 Aperture macros list*
%AMRoundRect*
0 Rectangle with rounded corners*
0 $1 Rounding radius*
0 $2 $3 $4 $5 $6 $7 $8 $9 X,Y pos of 4 corners*
0 Add a 4 corners polygon primitive as box body*
4,1,4,$2,$3,$4,$5,$6,$7,$8,$9,$2,$3,0*
0 Add four circle primitives for the rounded corners*
1,1,$1+$1,$2,$3*
1,1,$1+$1,$4,$5*
1,1,$1+$1,$6,$7*
1,1,$1+$1,$8,$9*
0 Add four rect primitives between the rounded corners*
20,1,$1+$1,$2,$3,$4,$5,0*
20,1,$1+$1,$4,$5,$6,$7,0*
20,1,$1+$1,$6,$7,$8,$9,0*
20,1,$1+$1,$8,$9,$2,$3,0*%
G04 Aperture macros list end*
%ADD10C,1.700000*%
%ADD11O,1.700000X1.700000*%
%ADD12RoundRect,0.300000X-0.850000X0.620000X-0.850000X-0.620000X0.850000X-0.620000X0.850000X0.620000X0*%
%ADD13O,2.300000X1.840000*%
%ADD14C,1.540000*%
%ADD15RoundRect,0.050000X0.750000X-0.750000X0.750000X0.750000X-0.750000X0.750000X-0.750000X-0.750000X0*%
%ADD16C,1.600000*%
%ADD17RoundRect,0.050000X-1.200000X-0.800000X1.200000X-0.800000X1.200000X0.800000X-1.200000X0.800000X0*%
%ADD18O,2.500000X1.700000*%
%ADD19RoundRect,0.050000X-1.100000X1.100000X-1.100000X-1.100000X1.100000X-1.100000X1.100000X1.100000X0*%
%ADD20O,2.300000X2.300000*%
%ADD21C,3.100000*%
%ADD22RoundRect,0.050000X-0.800000X-0.800000X0.800000X-0.800000X0.800000X0.800000X-0.800000X0.800000X0*%
%ADD23RoundRect,0.050000X0.863600X0.863600X-0.863600X0.863600X-0.863600X-0.863600X0.863600X-0.863600X0*%
%ADD24O,1.827200X1.827200*%
%ADD25RoundRect,0.050000X0.800000X0.800000X-0.800000X0.800000X-0.800000X-0.800000X0.800000X-0.800000X0*%
%ADD26RoundRect,0.300000X-0.620000X-0.850000X0.620000X-0.850000X0.620000X0.850000X-0.620000X0.850000X0*%
%ADD27O,1.840000X2.300000*%
%ADD28RoundRect,0.050000X0.750000X0.750000X-0.750000X0.750000X-0.750000X-0.750000X0.750000X-0.750000X0*%
%ADD29RoundRect,0.050000X1.100000X-1.100000X1.100000X1.100000X-1.100000X1.100000X-1.100000X-1.100000X0*%
%ADD30RoundRect,0.300000X-0.620000X-0.845000X0.620000X-0.845000X0.620000X0.845000X-0.620000X0.845000X0*%
%ADD31O,1.840000X2.290000*%
%ADD32RoundRect,0.050000X1.200000X0.800000X-1.200000X0.800000X-1.200000X-0.800000X1.200000X-0.800000X0*%
%ADD33RoundRect,0.300000X0.600000X0.600000X-0.600000X0.600000X-0.600000X-0.600000X0.600000X-0.600000X0*%
%ADD34C,1.800000*%
G04 APERTURE END LIST*
D10*
G04 #@! TO.C,R37*
X120590000Y-119420000D03*
D11*
X110430000Y-119420000D03*
G04 #@! TD*
D10*
G04 #@! TO.C,R12*
X156230000Y-80050000D03*
D11*
X166390000Y-80050000D03*
G04 #@! TD*
D10*
G04 #@! TO.C,C4*
X151070000Y-90200000D03*
X146070000Y-90200000D03*
G04 #@! TD*
G04 #@! TO.C,R1*
X121940000Y-38130000D03*
D11*
X111780000Y-38130000D03*
G04 #@! TD*
D12*
G04 #@! TO.C,J6*
X105340000Y-94010000D03*
D13*
X105340000Y-96550000D03*
G04 #@! TD*
D10*
G04 #@! TO.C,C9*
X144720000Y-69880000D03*
X139720000Y-69880000D03*
G04 #@! TD*
D14*
G04 #@! TO.C,RV4*
X176300000Y-69000000D03*
X178840000Y-66460000D03*
X176300000Y-63920000D03*
G04 #@! TD*
D10*
G04 #@! TO.C,R13*
X149800000Y-60990000D03*
D11*
X139640000Y-60990000D03*
G04 #@! TD*
D14*
G04 #@! TO.C,RV6*
X105340000Y-109260000D03*
X105340000Y-106720000D03*
X105340000Y-104180000D03*
G04 #@! TD*
D10*
G04 #@! TO.C,R4*
X139640000Y-52100000D03*
D11*
X149800000Y-52100000D03*
G04 #@! TD*
D10*
G04 #@! TO.C,R48*
X125590000Y-116880000D03*
D11*
X135750000Y-116880000D03*
G04 #@! TD*
D10*
G04 #@! TO.C,R50*
X151060000Y-101630000D03*
D11*
X140900000Y-101630000D03*
G04 #@! TD*
D10*
G04 #@! TO.C,R38*
X120590000Y-139740000D03*
D11*
X110430000Y-139740000D03*
G04 #@! TD*
D15*
G04 #@! TO.C,U4*
X119320000Y-25790000D03*
D16*
X121860000Y-25790000D03*
X124400000Y-25790000D03*
G04 #@! TD*
D17*
G04 #@! TO.C,U2*
X126950000Y-57180000D03*
D18*
X126950000Y-59720000D03*
X126950000Y-62260000D03*
X126950000Y-64800000D03*
X126950000Y-67340000D03*
X126950000Y-69880000D03*
X126950000Y-72420000D03*
X126950000Y-74960000D03*
X134570000Y-74960000D03*
X134570000Y-72420000D03*
X134570000Y-69880000D03*
X134570000Y-67340000D03*
X134570000Y-64800000D03*
X134570000Y-62260000D03*
X134570000Y-59720000D03*
X134570000Y-57180000D03*
G04 #@! TD*
D10*
G04 #@! TO.C,R55*
X151060000Y-147350000D03*
D11*
X140900000Y-147350000D03*
G04 #@! TD*
D10*
G04 #@! TO.C,R16*
X166390000Y-60990000D03*
D11*
X156230000Y-60990000D03*
G04 #@! TD*
D10*
G04 #@! TO.C,C11*
X166390000Y-83850000D03*
X161390000Y-83850000D03*
G04 #@! TD*
G04 #@! TO.C,R11*
X121860000Y-43210000D03*
D11*
X111700000Y-43210000D03*
G04 #@! TD*
D19*
G04 #@! TO.C,D3*
X126940000Y-154980000D03*
D20*
X126940000Y-165140000D03*
G04 #@! TD*
D10*
G04 #@! TO.C,R9*
X156230000Y-68610000D03*
D11*
X166390000Y-68610000D03*
G04 #@! TD*
D10*
G04 #@! TO.C,R10*
X121860000Y-50830000D03*
D11*
X111700000Y-50830000D03*
G04 #@! TD*
D10*
G04 #@! TO.C,R29*
X149800000Y-31780000D03*
D11*
X139640000Y-31780000D03*
G04 #@! TD*
D10*
G04 #@! TO.C,R7*
X120590000Y-57180000D03*
D11*
X110430000Y-57180000D03*
G04 #@! TD*
D21*
G04 #@! TO.C,J18*
X170815000Y-113885000D03*
X170815000Y-130085000D03*
X177115000Y-113885000D03*
X177115000Y-130085000D03*
X164515000Y-113885000D03*
X164515000Y-130085000D03*
G04 #@! TD*
D14*
G04 #@! TO.C,RV3*
X176300000Y-45000000D03*
X178840000Y-42460000D03*
X176300000Y-39920000D03*
G04 #@! TD*
D10*
G04 #@! TO.C,R20*
X125670000Y-83850000D03*
D11*
X135830000Y-83850000D03*
G04 #@! TD*
D22*
G04 #@! TO.C,D2*
X102810000Y-68610000D03*
D11*
X110430000Y-68610000D03*
G04 #@! TD*
D10*
G04 #@! TO.C,C10*
X166360000Y-72420000D03*
X161360000Y-72420000D03*
G04 #@! TD*
G04 #@! TO.C,R18*
X156230000Y-64800000D03*
D11*
X166390000Y-64800000D03*
G04 #@! TD*
D21*
G04 #@! TO.C,J22*
X170815000Y-163885000D03*
X170815000Y-180085000D03*
X177115000Y-163885000D03*
X177115000Y-180085000D03*
X164515000Y-163885000D03*
X164515000Y-180085000D03*
G04 #@! TD*
D10*
G04 #@! TO.C,R44*
X140900000Y-132110000D03*
D11*
X151060000Y-132110000D03*
G04 #@! TD*
D10*
G04 #@! TO.C,R45*
X140900000Y-124490000D03*
D11*
X151060000Y-124490000D03*
G04 #@! TD*
D23*
G04 #@! TO.C,J20*
X120590000Y-171490000D03*
D24*
X118050000Y-171490000D03*
X120590000Y-168950000D03*
X118050000Y-168950000D03*
X120590000Y-166410000D03*
X118050000Y-166410000D03*
X120590000Y-163870000D03*
X118050000Y-163870000D03*
X120590000Y-161330000D03*
X118050000Y-161330000D03*
G04 #@! TD*
D10*
G04 #@! TO.C,C2*
X134550000Y-31780000D03*
X132050000Y-31780000D03*
G04 #@! TD*
D25*
G04 #@! TO.C,D1*
X133290000Y-80040000D03*
D11*
X125670000Y-80040000D03*
G04 #@! TD*
D10*
G04 #@! TO.C,R24*
X111780000Y-30510000D03*
D11*
X121940000Y-30510000D03*
G04 #@! TD*
D10*
G04 #@! TO.C,R26*
X139640000Y-43210000D03*
D11*
X149800000Y-43210000D03*
G04 #@! TD*
D15*
G04 #@! TO.C,Q1*
X110430000Y-128310000D03*
D16*
X112970000Y-128310000D03*
X115510000Y-128310000D03*
G04 #@! TD*
D10*
G04 #@! TO.C,R19*
X156230000Y-48290000D03*
D11*
X166390000Y-48290000D03*
G04 #@! TD*
D10*
G04 #@! TO.C,R56*
X140900000Y-113060000D03*
D11*
X151060000Y-113060000D03*
G04 #@! TD*
D10*
G04 #@! TO.C,R27*
X139640000Y-35590000D03*
D11*
X149800000Y-35590000D03*
G04 #@! TD*
D10*
G04 #@! TO.C,R25*
X149800000Y-39400000D03*
D11*
X139640000Y-39400000D03*
G04 #@! TD*
D26*
G04 #@! TO.C,J7*
X148510000Y-162580000D03*
D27*
X151050000Y-162580000D03*
G04 #@! TD*
D10*
G04 #@! TO.C,R21*
X139640000Y-74960000D03*
D11*
X149800000Y-74960000D03*
G04 #@! TD*
D10*
G04 #@! TO.C,R14*
X156230000Y-52100000D03*
D11*
X166390000Y-52100000D03*
G04 #@! TD*
D10*
G04 #@! TO.C,R6*
X140910000Y-94010000D03*
D11*
X151070000Y-94010000D03*
G04 #@! TD*
D25*
G04 #@! TO.C,C14*
X128130000Y-144820000D03*
D10*
X125630000Y-144820000D03*
G04 #@! TD*
D14*
G04 #@! TO.C,RV7*
X105340000Y-124490000D03*
X105340000Y-121950000D03*
X105340000Y-119410000D03*
G04 #@! TD*
D28*
G04 #@! TO.C,U5*
X116780000Y-69245000D03*
D16*
X116780000Y-66705000D03*
X116780000Y-64165000D03*
G04 #@! TD*
D10*
G04 #@! TO.C,R40*
X110430000Y-106720000D03*
D11*
X120590000Y-106720000D03*
G04 #@! TD*
D14*
G04 #@! TO.C,RV2*
X176300000Y-81000000D03*
X178840000Y-78460000D03*
X176300000Y-75920000D03*
G04 #@! TD*
D10*
G04 #@! TO.C,R54*
X110350000Y-102910000D03*
D11*
X120510000Y-102910000D03*
G04 #@! TD*
D10*
G04 #@! TO.C,R46*
X140900000Y-135920000D03*
D11*
X151060000Y-135920000D03*
G04 #@! TD*
D29*
G04 #@! TO.C,D4*
X126940000Y-179110000D03*
D20*
X126940000Y-168950000D03*
G04 #@! TD*
D10*
G04 #@! TO.C,C8*
X149800000Y-57180000D03*
X144800000Y-57180000D03*
G04 #@! TD*
G04 #@! TO.C,R57*
X120590000Y-99100000D03*
D11*
X110430000Y-99100000D03*
G04 #@! TD*
D10*
G04 #@! TO.C,R2*
X121940000Y-34320000D03*
D11*
X111780000Y-34320000D03*
G04 #@! TD*
D10*
G04 #@! TO.C,R43*
X110430000Y-151170000D03*
D11*
X120590000Y-151170000D03*
G04 #@! TD*
D10*
G04 #@! TO.C,C16*
X119320000Y-128310000D03*
X121820000Y-128310000D03*
G04 #@! TD*
G04 #@! TO.C,R17*
X156230000Y-76240000D03*
D11*
X166390000Y-76240000D03*
G04 #@! TD*
D15*
G04 #@! TO.C,U3*
X110430000Y-25790000D03*
D16*
X112970000Y-25790000D03*
X115510000Y-25790000D03*
G04 #@! TD*
D30*
G04 #@! TO.C,J4*
X142180000Y-82580000D03*
D31*
X144720000Y-82580000D03*
X147260000Y-82580000D03*
X149800000Y-82580000D03*
G04 #@! TD*
D10*
G04 #@! TO.C,R28*
X166390000Y-57180000D03*
D11*
X156230000Y-57180000D03*
G04 #@! TD*
D12*
G04 #@! TO.C,J3*
X104140000Y-34320000D03*
D13*
X104140000Y-36860000D03*
X104140000Y-39400000D03*
G04 #@! TD*
D14*
G04 #@! TO.C,RV8*
X105340000Y-151160000D03*
X105340000Y-148620000D03*
X105340000Y-146080000D03*
G04 #@! TD*
D10*
G04 #@! TO.C,R8*
X111700000Y-47020000D03*
D11*
X121860000Y-47020000D03*
G04 #@! TD*
D10*
G04 #@! TO.C,R52*
X140900000Y-143540000D03*
D11*
X151060000Y-143540000D03*
G04 #@! TD*
D10*
G04 #@! TO.C,R49*
X140900000Y-139730000D03*
D11*
X151060000Y-139730000D03*
G04 #@! TD*
D10*
G04 #@! TO.C,C6*
X139640000Y-57190000D03*
X142140000Y-57190000D03*
G04 #@! TD*
D15*
G04 #@! TO.C,Q2*
X110430000Y-115610000D03*
D16*
X112970000Y-115610000D03*
X115510000Y-115610000D03*
G04 #@! TD*
D10*
G04 #@! TO.C,C18*
X140900000Y-116870000D03*
X145900000Y-116870000D03*
G04 #@! TD*
G04 #@! TO.C,R23*
X140890000Y-97810000D03*
D11*
X151050000Y-97810000D03*
G04 #@! TD*
D21*
G04 #@! TO.C,J19*
X170815000Y-88885000D03*
X170815000Y-105085000D03*
X177115000Y-88885000D03*
X177115000Y-105085000D03*
X164515000Y-88885000D03*
X164515000Y-105085000D03*
G04 #@! TD*
D10*
G04 #@! TO.C,R39*
X120590000Y-123230000D03*
D11*
X110430000Y-123230000D03*
G04 #@! TD*
D10*
G04 #@! TO.C,R53*
X151060000Y-109250000D03*
D11*
X140900000Y-109250000D03*
G04 #@! TD*
D10*
G04 #@! TO.C,R15*
X139640000Y-64800000D03*
D11*
X149800000Y-64800000D03*
G04 #@! TD*
D10*
G04 #@! TO.C,R35*
X110430000Y-132120000D03*
D11*
X120590000Y-132120000D03*
G04 #@! TD*
D10*
G04 #@! TO.C,R51*
X125590000Y-113070000D03*
D11*
X135750000Y-113070000D03*
G04 #@! TD*
D26*
G04 #@! TO.C,J5*
X132020000Y-100995000D03*
D27*
X134560000Y-100995000D03*
G04 #@! TD*
D32*
G04 #@! TO.C,U6*
X134560000Y-135930000D03*
D18*
X134560000Y-133390000D03*
X134560000Y-130850000D03*
X134560000Y-128310000D03*
X134560000Y-125770000D03*
X134560000Y-123230000D03*
X134560000Y-120690000D03*
X126940000Y-120690000D03*
X126940000Y-123230000D03*
X126940000Y-125770000D03*
X126940000Y-128310000D03*
X126940000Y-130850000D03*
X126940000Y-133390000D03*
X126940000Y-135930000D03*
G04 #@! TD*
D10*
G04 #@! TO.C,C7*
X130710000Y-92740000D03*
X125710000Y-92740000D03*
G04 #@! TD*
G04 #@! TO.C,C3*
X129480000Y-47020000D03*
X126980000Y-47020000D03*
G04 #@! TD*
G04 #@! TO.C,R47*
X140900000Y-120680000D03*
D11*
X151060000Y-120680000D03*
G04 #@! TD*
D10*
G04 #@! TO.C,C12*
X105350000Y-64800000D03*
X110350000Y-64800000D03*
G04 #@! TD*
G04 #@! TO.C,R34*
X110430000Y-110530000D03*
D11*
X120590000Y-110530000D03*
G04 #@! TD*
D22*
G04 #@! TO.C,C13*
X134480000Y-144820000D03*
D10*
X136980000Y-144820000D03*
G04 #@! TD*
D21*
G04 #@! TO.C,J21*
X170815000Y-138885000D03*
X170815000Y-155085000D03*
X177115000Y-138885000D03*
X177115000Y-155085000D03*
X164515000Y-138885000D03*
X164515000Y-155085000D03*
G04 #@! TD*
D10*
G04 #@! TO.C,R5*
X120590000Y-60990000D03*
D11*
X110430000Y-60990000D03*
G04 #@! TD*
D10*
G04 #@! TO.C,R41*
X110430000Y-143550000D03*
D11*
X120590000Y-143550000D03*
G04 #@! TD*
D33*
G04 #@! TO.C,J1*
X115510000Y-88930000D03*
D34*
X112970000Y-88930000D03*
X115510000Y-86390000D03*
X112970000Y-86390000D03*
X115510000Y-83850000D03*
X112970000Y-83850000D03*
X115510000Y-81310000D03*
X112970000Y-81310000D03*
G04 #@! TD*
D10*
G04 #@! TO.C,C1*
X123130000Y-64800000D03*
X123130000Y-67300000D03*
G04 #@! TD*
G04 #@! TO.C,C17*
X145990000Y-151160000D03*
X140990000Y-151160000D03*
G04 #@! TD*
D14*
G04 #@! TO.C,RV1*
X176300000Y-57000000D03*
X178840000Y-54460000D03*
X176300000Y-51920000D03*
G04 #@! TD*
D17*
G04 #@! TO.C,U1*
X126940000Y-35600000D03*
D18*
X126940000Y-38140000D03*
X126940000Y-40680000D03*
X126940000Y-43220000D03*
X134560000Y-43220000D03*
X134560000Y-40680000D03*
X134560000Y-38140000D03*
X134560000Y-35600000D03*
G04 #@! TD*
D10*
G04 #@! TO.C,R58*
X151060000Y-154970000D03*
D11*
X140900000Y-154970000D03*
G04 #@! TD*
D10*
G04 #@! TO.C,R42*
X120590000Y-147360000D03*
D11*
X110430000Y-147360000D03*
G04 #@! TD*
D10*
G04 #@! TO.C,R22*
X135830000Y-87660000D03*
D11*
X125670000Y-87660000D03*
G04 #@! TD*
D10*
G04 #@! TO.C,R36*
X120590000Y-135930000D03*
D11*
X110430000Y-135930000D03*
G04 #@! TD*
D10*
G04 #@! TO.C,C15*
X139640000Y-128310000D03*
X142140000Y-128310000D03*
G04 #@! TD*
D12*
G04 #@! TO.C,J2*
X104080000Y-44480000D03*
D13*
X104080000Y-47020000D03*
X104080000Y-49560000D03*
G04 #@! TD*
D10*
G04 #@! TO.C,R3*
X110430000Y-72420000D03*
D11*
X120590000Y-72420000D03*
G04 #@! TD*
D10*
G04 #@! TO.C,C5*
X134520000Y-52100000D03*
X129520000Y-52100000D03*
G04 #@! TD*
G04 #@! TO.C,R59*
X151060000Y-105440000D03*
D11*
X140900000Y-105440000D03*
G04 #@! TD*
D16*
G04 #@! TO.C,TP1*
X102810000Y-60990000D03*
G04 #@! TD*
G04 #@! TO.C,TP3*
X102810000Y-73690000D03*
G04 #@! TD*
G04 #@! TO.C,TP2*
X102810000Y-55910000D03*
G04 #@! TD*
G04 #@! TO.C,TP4*
X102800000Y-158780000D03*
G04 #@! TD*
D15*
G04 #@! TO.C,TP6*
X102800000Y-166400000D03*
G04 #@! TD*
D16*
G04 #@! TO.C,TP5*
X102800000Y-174020000D03*
G04 #@! TD*
M02*
