G04 #@! TF.GenerationSoftware,KiCad,Pcbnew,6.0.5-a6ca702e91~116~ubuntu20.04.1*
G04 #@! TF.CreationDate,2022-06-19T14:06:22-04:00*
G04 #@! TF.ProjectId,sidekickvco_b1,73696465-6b69-4636-9b76-636f5f62312e,rev?*
G04 #@! TF.SameCoordinates,Original*
G04 #@! TF.FileFunction,Soldermask,Bot*
G04 #@! TF.FilePolarity,Negative*
%FSLAX46Y46*%
G04 Gerber Fmt 4.6, Leading zero omitted, Abs format (unit mm)*
G04 Created by KiCad (PCBNEW 6.0.5-a6ca702e91~116~ubuntu20.04.1) date 2022-06-19 14:06:22*
%MOMM*%
%LPD*%
G01*
G04 APERTURE LIST*
G04 Aperture macros list*
%AMRoundRect*
0 Rectangle with rounded corners*
0 $1 Rounding radius*
0 $2 $3 $4 $5 $6 $7 $8 $9 X,Y pos of 4 corners*
0 Add a 4 corners polygon primitive as box body*
4,1,4,$2,$3,$4,$5,$6,$7,$8,$9,$2,$3,0*
0 Add four circle primitives for the rounded corners*
1,1,$1+$1,$2,$3*
1,1,$1+$1,$4,$5*
1,1,$1+$1,$6,$7*
1,1,$1+$1,$8,$9*
0 Add four rect primitives between the rounded corners*
20,1,$1+$1,$2,$3,$4,$5,0*
20,1,$1+$1,$4,$5,$6,$7,0*
20,1,$1+$1,$6,$7,$8,$9,0*
20,1,$1+$1,$8,$9,$2,$3,0*%
G04 Aperture macros list end*
%ADD10RoundRect,0.050000X0.800000X0.800000X-0.800000X0.800000X-0.800000X-0.800000X0.800000X-0.800000X0*%
%ADD11O,1.700000X1.700000*%
%ADD12C,1.700000*%
%ADD13RoundRect,0.050000X0.863600X0.863600X-0.863600X0.863600X-0.863600X-0.863600X0.863600X-0.863600X0*%
%ADD14O,1.827200X1.827200*%
%ADD15RoundRect,0.050000X-1.100000X1.100000X-1.100000X-1.100000X1.100000X-1.100000X1.100000X1.100000X0*%
%ADD16O,2.300000X2.300000*%
%ADD17RoundRect,0.050000X0.750000X-0.750000X0.750000X0.750000X-0.750000X0.750000X-0.750000X-0.750000X0*%
%ADD18C,1.600000*%
%ADD19RoundRect,0.300000X-0.850000X0.620000X-0.850000X-0.620000X0.850000X-0.620000X0.850000X0.620000X0*%
%ADD20O,2.300000X1.840000*%
%ADD21RoundRect,0.050000X-0.800000X-0.800000X0.800000X-0.800000X0.800000X0.800000X-0.800000X0.800000X0*%
%ADD22C,1.540000*%
%ADD23RoundRect,0.300000X-0.620000X-0.845000X0.620000X-0.845000X0.620000X0.845000X-0.620000X0.845000X0*%
%ADD24O,1.840000X2.290000*%
%ADD25RoundRect,0.050000X-1.200000X-0.800000X1.200000X-0.800000X1.200000X0.800000X-1.200000X0.800000X0*%
%ADD26O,2.500000X1.700000*%
%ADD27RoundRect,0.050000X0.750000X0.750000X-0.750000X0.750000X-0.750000X-0.750000X0.750000X-0.750000X0*%
%ADD28RoundRect,0.050000X1.200000X0.800000X-1.200000X0.800000X-1.200000X-0.800000X1.200000X-0.800000X0*%
%ADD29RoundRect,0.300000X0.600000X0.600000X-0.600000X0.600000X-0.600000X-0.600000X0.600000X-0.600000X0*%
%ADD30C,1.800000*%
%ADD31RoundRect,0.300000X-0.620000X-0.850000X0.620000X-0.850000X0.620000X0.850000X-0.620000X0.850000X0*%
%ADD32O,1.840000X2.300000*%
%ADD33RoundRect,0.050000X1.100000X-1.100000X1.100000X1.100000X-1.100000X1.100000X-1.100000X-1.100000X0*%
G04 APERTURE END LIST*
D10*
G04 #@! TO.C,D1*
X142490000Y-77540000D03*
D11*
X134870000Y-77540000D03*
G04 #@! TD*
D12*
G04 #@! TO.C,C10*
X175560000Y-69920000D03*
X170560000Y-69920000D03*
G04 #@! TD*
D13*
G04 #@! TO.C,J20*
X129790000Y-168990000D03*
D14*
X127250000Y-168990000D03*
X129790000Y-166450000D03*
X127250000Y-166450000D03*
X129790000Y-163910000D03*
X127250000Y-163910000D03*
X129790000Y-161370000D03*
X127250000Y-161370000D03*
X129790000Y-158830000D03*
X127250000Y-158830000D03*
G04 #@! TD*
D15*
G04 #@! TO.C,D3*
X136140000Y-152480000D03*
D16*
X136140000Y-162640000D03*
G04 #@! TD*
D17*
G04 #@! TO.C,Q2*
X119630000Y-113110000D03*
D18*
X122170000Y-113110000D03*
X124710000Y-113110000D03*
G04 #@! TD*
D12*
G04 #@! TO.C,R37*
X129790000Y-116920000D03*
D11*
X119630000Y-116920000D03*
G04 #@! TD*
D12*
G04 #@! TO.C,C4*
X160270000Y-91510000D03*
X155270000Y-91510000D03*
G04 #@! TD*
G04 #@! TO.C,R40*
X119630000Y-104220000D03*
D11*
X129790000Y-104220000D03*
G04 #@! TD*
D19*
G04 #@! TO.C,J2*
X113280000Y-41980000D03*
D20*
X113280000Y-44520000D03*
X113280000Y-47060000D03*
G04 #@! TD*
D12*
G04 #@! TO.C,R5*
X129790000Y-58490000D03*
D11*
X119630000Y-58490000D03*
G04 #@! TD*
D12*
G04 #@! TO.C,R44*
X150100000Y-129610000D03*
D11*
X160260000Y-129610000D03*
G04 #@! TD*
D12*
G04 #@! TO.C,C1*
X132330000Y-62300000D03*
X132330000Y-64800000D03*
G04 #@! TD*
G04 #@! TO.C,R49*
X150100000Y-137230000D03*
D11*
X160260000Y-137230000D03*
G04 #@! TD*
D12*
G04 #@! TO.C,R9*
X165430000Y-66110000D03*
D11*
X175590000Y-66110000D03*
G04 #@! TD*
D21*
G04 #@! TO.C,C13*
X143680000Y-142320000D03*
D12*
X146180000Y-142320000D03*
G04 #@! TD*
G04 #@! TO.C,R59*
X160260000Y-102940000D03*
D11*
X150100000Y-102940000D03*
G04 #@! TD*
D12*
G04 #@! TO.C,R13*
X159000000Y-58490000D03*
D11*
X148840000Y-58490000D03*
G04 #@! TD*
D12*
G04 #@! TO.C,C11*
X175590000Y-81350000D03*
X170590000Y-81350000D03*
G04 #@! TD*
G04 #@! TO.C,R23*
X148920000Y-29280000D03*
D11*
X159080000Y-29280000D03*
G04 #@! TD*
D22*
G04 #@! TO.C,RV6*
X114540000Y-106760000D03*
X114540000Y-104220000D03*
X114540000Y-101680000D03*
G04 #@! TD*
D12*
G04 #@! TO.C,R14*
X165430000Y-49600000D03*
D11*
X175590000Y-49600000D03*
G04 #@! TD*
D12*
G04 #@! TO.C,C6*
X148840000Y-54690000D03*
X151340000Y-54690000D03*
G04 #@! TD*
G04 #@! TO.C,R38*
X129790000Y-137240000D03*
D11*
X119630000Y-137240000D03*
G04 #@! TD*
D23*
G04 #@! TO.C,J4*
X151380000Y-80080000D03*
D24*
X153920000Y-80080000D03*
X156460000Y-80080000D03*
X159000000Y-80080000D03*
G04 #@! TD*
D12*
G04 #@! TO.C,R39*
X129790000Y-120730000D03*
D11*
X119630000Y-120730000D03*
G04 #@! TD*
D12*
G04 #@! TO.C,R45*
X150100000Y-121990000D03*
D11*
X160260000Y-121990000D03*
G04 #@! TD*
D12*
G04 #@! TO.C,R41*
X119630000Y-141050000D03*
D11*
X129790000Y-141050000D03*
G04 #@! TD*
D19*
G04 #@! TO.C,J6*
X114540000Y-91510000D03*
D20*
X114540000Y-94050000D03*
G04 #@! TD*
D12*
G04 #@! TO.C,R22*
X145030000Y-85160000D03*
D11*
X134870000Y-85160000D03*
G04 #@! TD*
D12*
G04 #@! TO.C,R2*
X131140000Y-31820000D03*
D11*
X120980000Y-31820000D03*
G04 #@! TD*
D12*
G04 #@! TO.C,R47*
X150100000Y-118180000D03*
D11*
X160260000Y-118180000D03*
G04 #@! TD*
D12*
G04 #@! TO.C,R50*
X160260000Y-99130000D03*
D11*
X150100000Y-99130000D03*
G04 #@! TD*
D12*
G04 #@! TO.C,R26*
X148840000Y-44520000D03*
D11*
X159000000Y-44520000D03*
G04 #@! TD*
D12*
G04 #@! TO.C,R36*
X129790000Y-133430000D03*
D11*
X119630000Y-133430000D03*
G04 #@! TD*
D25*
G04 #@! TO.C,U2*
X136150000Y-54680000D03*
D26*
X136150000Y-57220000D03*
X136150000Y-59760000D03*
X136150000Y-62300000D03*
X136150000Y-64840000D03*
X136150000Y-67380000D03*
X136150000Y-69920000D03*
X136150000Y-72460000D03*
X143770000Y-72460000D03*
X143770000Y-69920000D03*
X143770000Y-67380000D03*
X143770000Y-64840000D03*
X143770000Y-62300000D03*
X143770000Y-59760000D03*
X143770000Y-57220000D03*
X143770000Y-54680000D03*
G04 #@! TD*
D12*
G04 #@! TO.C,R8*
X120900000Y-44520000D03*
D11*
X131060000Y-44520000D03*
G04 #@! TD*
D12*
G04 #@! TO.C,R18*
X165430000Y-62300000D03*
D11*
X175590000Y-62300000D03*
G04 #@! TD*
D27*
G04 #@! TO.C,U5*
X125980000Y-66745000D03*
D18*
X125980000Y-64205000D03*
X125980000Y-61665000D03*
G04 #@! TD*
D12*
G04 #@! TO.C,R46*
X150100000Y-133420000D03*
D11*
X160260000Y-133420000D03*
G04 #@! TD*
D12*
G04 #@! TO.C,C8*
X159000000Y-54680000D03*
X154000000Y-54680000D03*
G04 #@! TD*
G04 #@! TO.C,C17*
X155190000Y-148660000D03*
X150190000Y-148660000D03*
G04 #@! TD*
G04 #@! TO.C,C16*
X128520000Y-125810000D03*
X131020000Y-125810000D03*
G04 #@! TD*
G04 #@! TO.C,R53*
X160260000Y-106750000D03*
D11*
X150100000Y-106750000D03*
G04 #@! TD*
D25*
G04 #@! TO.C,U1*
X136140000Y-33100000D03*
D26*
X136140000Y-35640000D03*
X136140000Y-38180000D03*
X136140000Y-40720000D03*
X143760000Y-40720000D03*
X143760000Y-38180000D03*
X143760000Y-35640000D03*
X143760000Y-33100000D03*
G04 #@! TD*
D12*
G04 #@! TO.C,R7*
X129790000Y-54680000D03*
D11*
X119630000Y-54680000D03*
G04 #@! TD*
D12*
G04 #@! TO.C,C2*
X143750000Y-29280000D03*
X141250000Y-29280000D03*
G04 #@! TD*
D28*
G04 #@! TO.C,U6*
X143760000Y-133430000D03*
D26*
X143760000Y-130890000D03*
X143760000Y-128350000D03*
X143760000Y-125810000D03*
X143760000Y-123270000D03*
X143760000Y-120730000D03*
X143760000Y-118190000D03*
X136140000Y-118190000D03*
X136140000Y-120730000D03*
X136140000Y-123270000D03*
X136140000Y-125810000D03*
X136140000Y-128350000D03*
X136140000Y-130890000D03*
X136140000Y-133430000D03*
G04 #@! TD*
D12*
G04 #@! TO.C,R19*
X165430000Y-45790000D03*
D11*
X175590000Y-45790000D03*
G04 #@! TD*
D12*
G04 #@! TO.C,R58*
X160260000Y-152470000D03*
D11*
X150100000Y-152470000D03*
G04 #@! TD*
D12*
G04 #@! TO.C,R52*
X150100000Y-141040000D03*
D11*
X160260000Y-141040000D03*
G04 #@! TD*
D12*
G04 #@! TO.C,R48*
X134790000Y-114380000D03*
D11*
X144950000Y-114380000D03*
G04 #@! TD*
D12*
G04 #@! TO.C,R34*
X119630000Y-108030000D03*
D11*
X129790000Y-108030000D03*
G04 #@! TD*
D12*
G04 #@! TO.C,R54*
X119550000Y-100410000D03*
D11*
X129710000Y-100410000D03*
G04 #@! TD*
D12*
G04 #@! TO.C,R17*
X165430000Y-73740000D03*
D11*
X175590000Y-73740000D03*
G04 #@! TD*
D12*
G04 #@! TO.C,C7*
X139910000Y-90240000D03*
X134910000Y-90240000D03*
G04 #@! TD*
G04 #@! TO.C,R27*
X148840000Y-36900000D03*
D11*
X159000000Y-36900000D03*
G04 #@! TD*
D22*
G04 #@! TO.C,RV8*
X114540000Y-148660000D03*
X114540000Y-146120000D03*
X114540000Y-143580000D03*
G04 #@! TD*
D12*
G04 #@! TO.C,C12*
X114550000Y-62300000D03*
X119550000Y-62300000D03*
G04 #@! TD*
G04 #@! TO.C,C3*
X138680000Y-44520000D03*
X136180000Y-44520000D03*
G04 #@! TD*
G04 #@! TO.C,R3*
X119630000Y-69920000D03*
D11*
X129790000Y-69920000D03*
G04 #@! TD*
D17*
G04 #@! TO.C,U3*
X128600000Y-23290000D03*
D18*
X131140000Y-23290000D03*
X133680000Y-23290000D03*
G04 #@! TD*
D10*
G04 #@! TO.C,C14*
X137330000Y-142320000D03*
D12*
X134830000Y-142320000D03*
G04 #@! TD*
G04 #@! TO.C,R35*
X119630000Y-129620000D03*
D11*
X129790000Y-129620000D03*
G04 #@! TD*
D12*
G04 #@! TO.C,C5*
X143720000Y-49600000D03*
X138720000Y-49600000D03*
G04 #@! TD*
G04 #@! TO.C,R42*
X129790000Y-144860000D03*
D11*
X119630000Y-144860000D03*
G04 #@! TD*
D12*
G04 #@! TO.C,R25*
X159000000Y-40710000D03*
D11*
X148840000Y-40710000D03*
G04 #@! TD*
D12*
G04 #@! TO.C,C9*
X153920000Y-67380000D03*
X148920000Y-67380000D03*
G04 #@! TD*
G04 #@! TO.C,R12*
X165430000Y-77550000D03*
D11*
X175590000Y-77550000D03*
G04 #@! TD*
D29*
G04 #@! TO.C,J1*
X124710000Y-86430000D03*
D30*
X122170000Y-86430000D03*
X124710000Y-83890000D03*
X122170000Y-83890000D03*
X124710000Y-81350000D03*
X122170000Y-81350000D03*
X124710000Y-78810000D03*
X122170000Y-78810000D03*
G04 #@! TD*
D12*
G04 #@! TO.C,R51*
X134790000Y-110570000D03*
D11*
X144950000Y-110570000D03*
G04 #@! TD*
D12*
G04 #@! TO.C,R20*
X134870000Y-81350000D03*
D11*
X145030000Y-81350000D03*
G04 #@! TD*
D17*
G04 #@! TO.C,Q1*
X119630000Y-125810000D03*
D18*
X122170000Y-125810000D03*
X124710000Y-125810000D03*
G04 #@! TD*
D12*
G04 #@! TO.C,R28*
X175590000Y-54680000D03*
D11*
X165430000Y-54680000D03*
G04 #@! TD*
D12*
G04 #@! TO.C,R16*
X175590000Y-58490000D03*
D11*
X165430000Y-58490000D03*
G04 #@! TD*
D12*
G04 #@! TO.C,R6*
X150110000Y-95320000D03*
D11*
X160270000Y-95320000D03*
G04 #@! TD*
D12*
G04 #@! TO.C,R15*
X148840000Y-62300000D03*
D11*
X159000000Y-62300000D03*
G04 #@! TD*
D12*
G04 #@! TO.C,R21*
X148840000Y-72460000D03*
D11*
X159000000Y-72460000D03*
G04 #@! TD*
D19*
G04 #@! TO.C,J3*
X113340000Y-31820000D03*
D20*
X113340000Y-34360000D03*
X113340000Y-36900000D03*
G04 #@! TD*
D12*
G04 #@! TO.C,R24*
X120980000Y-28010000D03*
D11*
X131140000Y-28010000D03*
G04 #@! TD*
D12*
G04 #@! TO.C,R11*
X131060000Y-40710000D03*
D11*
X120900000Y-40710000D03*
G04 #@! TD*
D22*
G04 #@! TO.C,RV7*
X114540000Y-121990000D03*
X114540000Y-119450000D03*
X114540000Y-116910000D03*
G04 #@! TD*
D12*
G04 #@! TO.C,R4*
X148840000Y-49600000D03*
D11*
X159000000Y-49600000D03*
G04 #@! TD*
D12*
G04 #@! TO.C,R56*
X150100000Y-110560000D03*
D11*
X160260000Y-110560000D03*
G04 #@! TD*
D31*
G04 #@! TO.C,J7*
X157710000Y-160080000D03*
D32*
X160250000Y-160080000D03*
G04 #@! TD*
D12*
G04 #@! TO.C,R10*
X131060000Y-48330000D03*
D11*
X120900000Y-48330000D03*
G04 #@! TD*
D12*
G04 #@! TO.C,R57*
X129790000Y-96600000D03*
D11*
X119630000Y-96600000D03*
G04 #@! TD*
D12*
G04 #@! TO.C,R43*
X119630000Y-148670000D03*
D11*
X129790000Y-148670000D03*
G04 #@! TD*
D31*
G04 #@! TO.C,J5*
X141220000Y-98495000D03*
D32*
X143760000Y-98495000D03*
G04 #@! TD*
D17*
G04 #@! TO.C,U4*
X119710000Y-23290000D03*
D18*
X122250000Y-23290000D03*
X124790000Y-23290000D03*
G04 #@! TD*
D21*
G04 #@! TO.C,D2*
X112010000Y-66110000D03*
D11*
X119630000Y-66110000D03*
G04 #@! TD*
D12*
G04 #@! TO.C,R55*
X160260000Y-144850000D03*
D11*
X150100000Y-144850000D03*
G04 #@! TD*
D33*
G04 #@! TO.C,D4*
X136140000Y-176610000D03*
D16*
X136140000Y-166450000D03*
G04 #@! TD*
D12*
G04 #@! TO.C,C18*
X150100000Y-114370000D03*
X155100000Y-114370000D03*
G04 #@! TD*
G04 #@! TO.C,R29*
X159000000Y-33090000D03*
D11*
X148840000Y-33090000D03*
G04 #@! TD*
D12*
G04 #@! TO.C,C15*
X148840000Y-125810000D03*
X151340000Y-125810000D03*
G04 #@! TD*
G04 #@! TO.C,R1*
X131140000Y-35630000D03*
D11*
X120980000Y-35630000D03*
G04 #@! TD*
D18*
G04 #@! TO.C,TP5*
X112000000Y-171520000D03*
G04 #@! TD*
G04 #@! TO.C,TP4*
X112000000Y-156280000D03*
G04 #@! TD*
G04 #@! TO.C,TP3*
X112010000Y-71190000D03*
G04 #@! TD*
G04 #@! TO.C,TP1*
X112010000Y-58490000D03*
G04 #@! TD*
G04 #@! TO.C,TP2*
X112010000Y-53410000D03*
G04 #@! TD*
D17*
G04 #@! TO.C,TP6*
X112000000Y-163900000D03*
G04 #@! TD*
M02*
