M48
; DRILL file {KiCad 6.0.2-378541a8eb~116~ubuntu20.04.1} date Sat Mar 12 17:42:15 2022
; FORMAT={-:-/ absolute / metric / decimal}
; #@! TF.CreationDate,2022-03-12T17:42:15-05:00
; #@! TF.GenerationSoftware,Kicad,Pcbnew,6.0.2-378541a8eb~116~ubuntu20.04.1
; #@! TF.FileFunction,MixedPlating,1,2
FMAT,2
METRIC
; #@! TA.AperFunction,Plated,PTH,ViaDrill
T1C0.400
; #@! TA.AperFunction,Plated,PTH,ComponentDrill
T2C0.700
; #@! TA.AperFunction,Plated,PTH,ComponentDrill
T3C0.800
; #@! TA.AperFunction,Plated,PTH,ComponentDrill
T4C1.000
; #@! TA.AperFunction,Plated,PTH,ComponentDrill
T5C1.016
; #@! TA.AperFunction,Plated,PTH,ComponentDrill
T6C1.100
; #@! TA.AperFunction,Plated,PTH,ComponentDrill
T7C1.190
; #@! TA.AperFunction,Plated,PTH,ComponentDrill
T8C1.200
; #@! TA.AperFunction,Plated,PTH,ComponentDrill
T9C1.600
%
G90
G05
T1
X115.509Y-54.692
X124.4Y-95.026
X128.21Y-95.026
T2
X102.8Y-158.78
X102.8Y-166.4
X102.8Y-174.02
X102.81Y-55.91
X102.81Y-60.99
X102.81Y-73.69
T3
X102.81Y-68.61
X105.34Y-104.18
X105.34Y-106.72
X105.34Y-109.26
X105.34Y-119.41
X105.34Y-121.95
X105.34Y-124.49
X105.34Y-146.08
X105.34Y-148.62
X105.34Y-151.16
X105.35Y-64.8
X110.35Y-64.8
X110.35Y-102.91
X110.43Y-25.79
X110.43Y-57.18
X110.43Y-60.99
X110.43Y-68.61
X110.43Y-72.42
X110.43Y-99.1
X110.43Y-106.72
X110.43Y-110.53
X110.43Y-115.61
X110.43Y-119.42
X110.43Y-123.23
X110.43Y-128.31
X110.43Y-132.12
X110.43Y-135.93
X110.43Y-139.74
X110.43Y-143.55
X110.43Y-147.36
X110.43Y-151.17
X111.7Y-43.21
X111.7Y-47.02
X111.7Y-50.83
X111.78Y-30.51
X111.78Y-34.32
X111.78Y-38.13
X112.97Y-25.79
X112.97Y-115.61
X112.97Y-128.31
X115.51Y-25.79
X115.51Y-115.61
X115.51Y-128.31
X116.78Y-64.165
X116.78Y-66.705
X116.78Y-69.245
X119.32Y-25.79
X119.32Y-128.31
X120.51Y-102.91
X120.59Y-57.18
X120.59Y-60.99
X120.59Y-72.42
X120.59Y-99.1
X120.59Y-106.72
X120.59Y-110.53
X120.59Y-119.42
X120.59Y-123.23
X120.59Y-132.12
X120.59Y-135.93
X120.59Y-139.74
X120.59Y-143.55
X120.59Y-147.36
X120.59Y-151.17
X121.82Y-128.31
X121.86Y-25.79
X121.86Y-43.21
X121.86Y-47.02
X121.86Y-50.83
X121.94Y-30.51
X121.94Y-34.32
X121.94Y-38.13
X123.13Y-64.8
X123.13Y-67.3
X124.4Y-25.79
X125.59Y-113.07
X125.59Y-116.88
X125.63Y-144.82
X125.67Y-80.04
X125.67Y-83.85
X125.67Y-87.66
X125.71Y-92.74
X126.94Y-35.6
X126.94Y-38.14
X126.94Y-40.68
X126.94Y-43.22
X126.94Y-120.69
X126.94Y-123.23
X126.94Y-125.77
X126.94Y-128.31
X126.94Y-130.85
X126.94Y-133.39
X126.94Y-135.93
X126.95Y-57.18
X126.95Y-59.72
X126.95Y-62.26
X126.95Y-64.8
X126.95Y-67.34
X126.95Y-69.88
X126.95Y-72.42
X126.95Y-74.96
X126.98Y-47.02
X128.13Y-144.82
X129.48Y-47.02
X129.52Y-52.1
X130.71Y-92.74
X132.05Y-31.78
X133.29Y-80.04
X134.48Y-144.82
X134.52Y-52.1
X134.55Y-31.78
X134.56Y-35.6
X134.56Y-38.14
X134.56Y-40.68
X134.56Y-43.22
X134.56Y-120.69
X134.56Y-123.23
X134.56Y-125.77
X134.56Y-128.31
X134.56Y-130.85
X134.56Y-133.39
X134.56Y-135.93
X134.57Y-57.18
X134.57Y-59.72
X134.57Y-62.26
X134.57Y-64.8
X134.57Y-67.34
X134.57Y-69.88
X134.57Y-72.42
X134.57Y-74.96
X135.75Y-113.07
X135.75Y-116.88
X135.83Y-83.85
X135.83Y-87.66
X136.98Y-144.82
X139.64Y-31.78
X139.64Y-35.59
X139.64Y-39.4
X139.64Y-43.21
X139.64Y-52.1
X139.64Y-57.19
X139.64Y-60.99
X139.64Y-64.8
X139.64Y-74.96
X139.64Y-128.31
X139.72Y-69.88
X140.89Y-97.81
X140.9Y-101.63
X140.9Y-105.44
X140.9Y-109.25
X140.9Y-113.06
X140.9Y-116.87
X140.9Y-120.68
X140.9Y-124.49
X140.9Y-132.11
X140.9Y-135.92
X140.9Y-139.73
X140.9Y-143.54
X140.9Y-147.35
X140.9Y-154.97
X140.91Y-94.01
X140.99Y-151.16
X142.14Y-57.19
X142.14Y-128.31
X144.72Y-69.88
X144.8Y-57.18
X145.9Y-116.87
X145.99Y-151.16
X146.07Y-90.2
X149.8Y-31.78
X149.8Y-35.59
X149.8Y-39.4
X149.8Y-43.21
X149.8Y-52.1
X149.8Y-57.18
X149.8Y-60.99
X149.8Y-64.8
X149.8Y-74.96
X151.05Y-97.81
X151.06Y-101.63
X151.06Y-105.44
X151.06Y-109.25
X151.06Y-113.06
X151.06Y-120.68
X151.06Y-124.49
X151.06Y-132.11
X151.06Y-135.92
X151.06Y-139.73
X151.06Y-143.54
X151.06Y-147.35
X151.06Y-154.97
X151.07Y-90.2
X151.07Y-94.01
X156.23Y-48.29
X156.23Y-52.1
X156.23Y-57.18
X156.23Y-60.99
X156.23Y-64.8
X156.23Y-68.61
X156.23Y-76.24
X156.23Y-80.05
X161.36Y-72.42
X161.39Y-83.85
X166.36Y-72.42
X166.39Y-48.29
X166.39Y-52.1
X166.39Y-57.18
X166.39Y-60.99
X166.39Y-64.8
X166.39Y-68.61
X166.39Y-76.24
X166.39Y-80.05
X166.39Y-83.85
X176.3Y-39.92
X176.3Y-45.0
X176.3Y-51.92
X176.3Y-57.0
X176.3Y-63.92
X176.3Y-69.0
X176.3Y-75.92
X176.3Y-81.0
X178.84Y-42.46
X178.84Y-54.46
X178.84Y-66.46
X178.84Y-78.46
T4
X112.97Y-81.31
X112.97Y-83.85
X112.97Y-86.39
X112.97Y-88.93
X115.51Y-81.31
X115.51Y-83.85
X115.51Y-86.39
X115.51Y-88.93
T5
X118.05Y-161.33
X118.05Y-163.87
X118.05Y-166.41
X118.05Y-168.95
X118.05Y-171.49
X120.59Y-161.33
X120.59Y-163.87
X120.59Y-166.41
X120.59Y-168.95
X120.59Y-171.49
T6
X126.94Y-154.98
X126.94Y-165.14
X126.94Y-168.95
X126.94Y-179.11
T7
X142.18Y-82.58
X144.72Y-82.58
X147.26Y-82.58
X149.8Y-82.58
T8
X104.08Y-44.48
X104.08Y-47.02
X104.08Y-49.56
X104.14Y-34.32
X104.14Y-36.86
X104.14Y-39.4
X105.34Y-94.01
X105.34Y-96.55
X132.02Y-100.995
X134.56Y-100.995
X148.51Y-162.58
X151.05Y-162.58
T9
X164.515Y-88.885
X164.515Y-105.085
X164.515Y-113.885
X164.515Y-130.085
X164.515Y-138.885
X164.515Y-155.085
X164.515Y-163.885
X164.515Y-180.085
X170.815Y-88.885
X170.815Y-105.085
X170.815Y-113.885
X170.815Y-130.085
X170.815Y-138.885
X170.815Y-155.085
X170.815Y-163.885
X170.815Y-180.085
X177.115Y-88.885
X177.115Y-105.085
X177.115Y-113.885
X177.115Y-130.085
X177.115Y-138.885
X177.115Y-155.085
X177.115Y-163.885
X177.115Y-180.085
T0
M30
