M48
; DRILL file {KiCad 6.0.5-a6ca702e91~116~ubuntu20.04.1} date Thu Jun 23 15:41:41 2022
; FORMAT={-:-/ absolute / metric / decimal}
; #@! TF.CreationDate,2022-06-23T15:41:41-04:00
; #@! TF.GenerationSoftware,Kicad,Pcbnew,6.0.5-a6ca702e91~116~ubuntu20.04.1
; #@! TF.FileFunction,MixedPlating,1,2
FMAT,2
METRIC
; #@! TA.AperFunction,Plated,PTH,ViaDrill
T1C0.400
; #@! TA.AperFunction,Plated,PTH,ComponentDrill
T2C0.700
; #@! TA.AperFunction,Plated,PTH,ComponentDrill
T3C0.800
; #@! TA.AperFunction,Plated,PTH,ComponentDrill
T4C1.000
; #@! TA.AperFunction,Plated,PTH,ComponentDrill
T5C1.016
; #@! TA.AperFunction,Plated,PTH,ComponentDrill
T6C1.100
; #@! TA.AperFunction,Plated,PTH,ComponentDrill
T7C1.190
; #@! TA.AperFunction,Plated,PTH,ComponentDrill
T8C1.200
%
G90
G05
T1
X124.709Y-52.192
X133.6Y-92.526
X137.41Y-92.526
T2
X112.0Y-156.28
X112.0Y-163.9
X112.0Y-171.52
X112.01Y-53.41
X112.01Y-58.49
X112.01Y-71.19
T3
X112.01Y-66.11
X114.54Y-101.68
X114.54Y-104.22
X114.54Y-106.76
X114.54Y-116.91
X114.54Y-119.45
X114.54Y-121.99
X114.54Y-143.58
X114.54Y-146.12
X114.54Y-148.66
X114.55Y-62.3
X119.55Y-62.3
X119.55Y-100.41
X119.63Y-58.49
X119.63Y-66.11
X119.63Y-69.92
X119.63Y-96.6
X119.63Y-104.22
X119.63Y-108.03
X119.63Y-113.11
X119.63Y-116.92
X119.63Y-120.73
X119.63Y-125.81
X119.63Y-129.62
X119.63Y-133.43
X119.63Y-137.24
X119.63Y-141.05
X119.63Y-144.86
X119.63Y-148.67
X119.71Y-23.29
X119.71Y-54.68
X120.9Y-40.71
X120.9Y-44.52
X120.9Y-48.33
X120.98Y-28.01
X120.98Y-31.82
X120.98Y-35.63
X122.17Y-113.11
X122.17Y-125.81
X122.25Y-23.29
X124.71Y-113.11
X124.71Y-125.81
X124.79Y-23.29
X125.98Y-61.665
X125.98Y-64.205
X125.98Y-66.745
X128.52Y-125.81
X128.6Y-23.29
X129.71Y-100.41
X129.79Y-58.49
X129.79Y-69.92
X129.79Y-96.6
X129.79Y-104.22
X129.79Y-108.03
X129.79Y-116.92
X129.79Y-120.73
X129.79Y-129.62
X129.79Y-133.43
X129.79Y-137.24
X129.79Y-141.05
X129.79Y-144.86
X129.79Y-148.67
X129.87Y-54.68
X131.02Y-125.81
X131.06Y-40.71
X131.06Y-44.52
X131.06Y-48.33
X131.14Y-23.29
X131.14Y-28.01
X131.14Y-31.82
X131.14Y-35.63
X132.33Y-62.3
X132.33Y-64.8
X133.68Y-23.29
X134.79Y-110.57
X134.79Y-114.38
X134.83Y-142.32
X134.87Y-77.54
X134.87Y-81.35
X134.87Y-85.16
X134.91Y-90.24
X136.14Y-33.1
X136.14Y-35.64
X136.14Y-38.18
X136.14Y-40.72
X136.14Y-118.19
X136.14Y-120.73
X136.14Y-123.27
X136.14Y-125.81
X136.14Y-128.35
X136.14Y-130.89
X136.14Y-133.43
X136.15Y-54.68
X136.15Y-57.22
X136.15Y-59.76
X136.15Y-62.3
X136.15Y-64.84
X136.15Y-67.38
X136.15Y-69.92
X136.15Y-72.46
X136.18Y-44.52
X137.33Y-142.32
X138.68Y-44.52
X138.72Y-49.6
X139.91Y-90.24
X141.25Y-29.28
X142.49Y-77.54
X143.68Y-142.32
X143.72Y-49.6
X143.75Y-29.28
X143.76Y-33.1
X143.76Y-35.64
X143.76Y-38.18
X143.76Y-40.72
X143.76Y-118.19
X143.76Y-120.73
X143.76Y-123.27
X143.76Y-125.81
X143.76Y-128.35
X143.76Y-130.89
X143.76Y-133.43
X143.77Y-54.68
X143.77Y-57.22
X143.77Y-59.76
X143.77Y-62.3
X143.77Y-64.84
X143.77Y-67.38
X143.77Y-69.92
X143.77Y-72.46
X144.95Y-110.57
X144.95Y-114.38
X145.03Y-81.35
X145.03Y-85.16
X146.18Y-142.32
X148.84Y-33.09
X148.84Y-36.9
X148.84Y-40.71
X148.84Y-44.52
X148.84Y-49.6
X148.84Y-54.69
X148.84Y-58.49
X148.84Y-62.3
X148.84Y-72.46
X148.84Y-125.81
X148.92Y-29.28
X148.92Y-67.38
X150.1Y-99.13
X150.1Y-102.94
X150.1Y-106.75
X150.1Y-110.56
X150.1Y-114.37
X150.1Y-118.18
X150.1Y-121.99
X150.1Y-129.61
X150.1Y-133.42
X150.1Y-137.23
X150.1Y-141.04
X150.1Y-144.85
X150.1Y-152.47
X150.11Y-95.32
X150.19Y-148.66
X151.34Y-54.69
X151.34Y-125.81
X153.92Y-67.38
X154.0Y-54.68
X155.1Y-114.37
X155.19Y-148.66
X155.27Y-91.51
X159.0Y-33.09
X159.0Y-36.9
X159.0Y-40.71
X159.0Y-44.52
X159.0Y-49.6
X159.0Y-54.68
X159.0Y-58.49
X159.0Y-62.3
X159.0Y-72.46
X159.08Y-29.28
X160.26Y-99.13
X160.26Y-102.94
X160.26Y-106.75
X160.26Y-110.56
X160.26Y-118.18
X160.26Y-121.99
X160.26Y-129.61
X160.26Y-133.42
X160.26Y-137.23
X160.26Y-141.04
X160.26Y-144.85
X160.26Y-152.47
X160.27Y-91.51
X160.27Y-95.32
X165.43Y-45.79
X165.43Y-49.6
X165.43Y-54.68
X165.43Y-58.49
X165.43Y-62.3
X165.43Y-66.11
X165.43Y-73.74
X165.43Y-77.55
X170.56Y-69.92
X170.59Y-81.35
X175.56Y-69.92
X175.59Y-45.79
X175.59Y-49.6
X175.59Y-54.68
X175.59Y-58.49
X175.59Y-62.3
X175.59Y-66.11
X175.59Y-73.74
X175.59Y-77.55
X175.59Y-81.35
T4
X122.17Y-78.81
X122.17Y-81.35
X122.17Y-83.89
X122.17Y-86.43
X124.71Y-78.81
X124.71Y-81.35
X124.71Y-83.89
X124.71Y-86.43
T5
X127.25Y-158.83
X127.25Y-161.37
X127.25Y-163.91
X127.25Y-166.45
X127.25Y-168.99
X129.79Y-158.83
X129.79Y-161.37
X129.79Y-163.91
X129.79Y-166.45
X129.79Y-168.99
T6
X136.14Y-152.48
X136.14Y-162.64
X136.14Y-166.45
X136.14Y-176.61
T7
X151.38Y-80.08
X153.92Y-80.08
X156.46Y-80.08
X159.0Y-80.08
T8
X113.28Y-41.98
X113.28Y-44.52
X113.28Y-47.06
X113.34Y-31.82
X113.34Y-34.36
X113.34Y-36.9
X114.54Y-91.51
X114.54Y-94.05
X141.22Y-98.495
X143.76Y-98.495
X157.71Y-160.08
X160.25Y-160.08
T0
M30
