G04 #@! TF.GenerationSoftware,KiCad,Pcbnew,6.0.6-3a73a75311~116~ubuntu20.04.1*
G04 #@! TF.CreationDate,2022-07-02T20:41:12-04:00*
G04 #@! TF.ProjectId,sidekickvco_b1,73696465-6b69-4636-9b76-636f5f62312e,rev?*
G04 #@! TF.SameCoordinates,Original*
G04 #@! TF.FileFunction,Soldermask,Top*
G04 #@! TF.FilePolarity,Negative*
%FSLAX46Y46*%
G04 Gerber Fmt 4.6, Leading zero omitted, Abs format (unit mm)*
G04 Created by KiCad (PCBNEW 6.0.6-3a73a75311~116~ubuntu20.04.1) date 2022-07-02 20:41:12*
%MOMM*%
%LPD*%
G01*
G04 APERTURE LIST*
G04 Aperture macros list*
%AMRoundRect*
0 Rectangle with rounded corners*
0 $1 Rounding radius*
0 $2 $3 $4 $5 $6 $7 $8 $9 X,Y pos of 4 corners*
0 Add a 4 corners polygon primitive as box body*
4,1,4,$2,$3,$4,$5,$6,$7,$8,$9,$2,$3,0*
0 Add four circle primitives for the rounded corners*
1,1,$1+$1,$2,$3*
1,1,$1+$1,$4,$5*
1,1,$1+$1,$6,$7*
1,1,$1+$1,$8,$9*
0 Add four rect primitives between the rounded corners*
20,1,$1+$1,$2,$3,$4,$5,0*
20,1,$1+$1,$4,$5,$6,$7,0*
20,1,$1+$1,$6,$7,$8,$9,0*
20,1,$1+$1,$8,$9,$2,$3,0*%
G04 Aperture macros list end*
%ADD10C,1.700000*%
%ADD11RoundRect,0.050000X-1.200000X-0.800000X1.200000X-0.800000X1.200000X0.800000X-1.200000X0.800000X0*%
%ADD12O,2.500000X1.700000*%
%ADD13RoundRect,0.050000X-0.800000X-0.800000X0.800000X-0.800000X0.800000X0.800000X-0.800000X0.800000X0*%
%ADD14O,1.700000X1.700000*%
%ADD15RoundRect,0.050000X-1.100000X1.100000X-1.100000X-1.100000X1.100000X-1.100000X1.100000X1.100000X0*%
%ADD16O,2.300000X2.300000*%
%ADD17C,1.540000*%
%ADD18RoundRect,0.300000X-0.850000X0.620000X-0.850000X-0.620000X0.850000X-0.620000X0.850000X0.620000X0*%
%ADD19O,2.300000X1.840000*%
%ADD20RoundRect,0.050000X0.800000X0.800000X-0.800000X0.800000X-0.800000X-0.800000X0.800000X-0.800000X0*%
%ADD21RoundRect,0.050000X0.750000X0.750000X-0.750000X0.750000X-0.750000X-0.750000X0.750000X-0.750000X0*%
%ADD22C,1.600000*%
%ADD23C,3.100000*%
%ADD24RoundRect,0.050000X0.750000X-0.750000X0.750000X0.750000X-0.750000X0.750000X-0.750000X-0.750000X0*%
%ADD25RoundRect,0.300000X-0.620000X-0.850000X0.620000X-0.850000X0.620000X0.850000X-0.620000X0.850000X0*%
%ADD26O,1.840000X2.300000*%
%ADD27RoundRect,0.050000X1.100000X-1.100000X1.100000X1.100000X-1.100000X1.100000X-1.100000X-1.100000X0*%
%ADD28RoundRect,0.300000X0.600000X0.600000X-0.600000X0.600000X-0.600000X-0.600000X0.600000X-0.600000X0*%
%ADD29C,1.800000*%
%ADD30RoundRect,0.050000X1.200000X0.800000X-1.200000X0.800000X-1.200000X-0.800000X1.200000X-0.800000X0*%
%ADD31RoundRect,0.050000X0.863600X0.863600X-0.863600X0.863600X-0.863600X-0.863600X0.863600X-0.863600X0*%
%ADD32O,1.827200X1.827200*%
%ADD33RoundRect,0.300000X-0.620000X-0.845000X0.620000X-0.845000X0.620000X0.845000X-0.620000X0.845000X0*%
%ADD34O,1.840000X2.290000*%
G04 APERTURE END LIST*
D10*
G04 #@! TO.C,C3*
X134480000Y-47020000D03*
X131980000Y-47020000D03*
G04 #@! TD*
D11*
G04 #@! TO.C,U1*
X131940000Y-35600000D03*
D12*
X131940000Y-38140000D03*
X131940000Y-40680000D03*
X131940000Y-43220000D03*
X139560000Y-43220000D03*
X139560000Y-40680000D03*
X139560000Y-38140000D03*
X139560000Y-35600000D03*
G04 #@! TD*
D13*
G04 #@! TO.C,C13*
X139480000Y-144820000D03*
D10*
X141980000Y-144820000D03*
G04 #@! TD*
G04 #@! TO.C,R19*
X161230000Y-48290000D03*
D14*
X171390000Y-48290000D03*
G04 #@! TD*
D10*
G04 #@! TO.C,C6*
X144640000Y-57190000D03*
X147140000Y-57190000D03*
G04 #@! TD*
G04 #@! TO.C,R35*
X115430000Y-132120000D03*
D14*
X125590000Y-132120000D03*
G04 #@! TD*
D10*
G04 #@! TO.C,R56*
X145900000Y-113060000D03*
D14*
X156060000Y-113060000D03*
G04 #@! TD*
D15*
G04 #@! TO.C,D3*
X131940000Y-154980000D03*
D16*
X131940000Y-165140000D03*
G04 #@! TD*
D10*
G04 #@! TO.C,R26*
X144640000Y-47020000D03*
D14*
X154800000Y-47020000D03*
G04 #@! TD*
D17*
G04 #@! TO.C,RV4*
X182300000Y-69000000D03*
X184840000Y-66460000D03*
X182300000Y-63920000D03*
G04 #@! TD*
D10*
G04 #@! TO.C,R51*
X130590000Y-113070000D03*
D14*
X140750000Y-113070000D03*
G04 #@! TD*
D10*
G04 #@! TO.C,R5*
X125590000Y-60990000D03*
D14*
X115430000Y-60990000D03*
G04 #@! TD*
D10*
G04 #@! TO.C,C1*
X128130000Y-64800000D03*
X128130000Y-67300000D03*
G04 #@! TD*
D18*
G04 #@! TO.C,J2*
X109080000Y-44480000D03*
D19*
X109080000Y-47020000D03*
X109080000Y-49560000D03*
G04 #@! TD*
D10*
G04 #@! TO.C,C7*
X135710000Y-92740000D03*
X130710000Y-92740000D03*
G04 #@! TD*
D20*
G04 #@! TO.C,C14*
X133130000Y-144820000D03*
D10*
X130630000Y-144820000D03*
G04 #@! TD*
G04 #@! TO.C,R37*
X125590000Y-119420000D03*
D14*
X115430000Y-119420000D03*
G04 #@! TD*
D10*
G04 #@! TO.C,R21*
X144640000Y-74960000D03*
D14*
X154800000Y-74960000D03*
G04 #@! TD*
D10*
G04 #@! TO.C,R38*
X125590000Y-139740000D03*
D14*
X115430000Y-139740000D03*
G04 #@! TD*
D10*
G04 #@! TO.C,R25*
X154800000Y-43210000D03*
D14*
X144640000Y-43210000D03*
G04 #@! TD*
D10*
G04 #@! TO.C,R29*
X154800000Y-35590000D03*
D14*
X144640000Y-35590000D03*
G04 #@! TD*
D10*
G04 #@! TO.C,R16*
X171390000Y-60990000D03*
D14*
X161230000Y-60990000D03*
G04 #@! TD*
D10*
G04 #@! TO.C,C8*
X154800000Y-57180000D03*
X149800000Y-57180000D03*
G04 #@! TD*
G04 #@! TO.C,R34*
X115430000Y-110530000D03*
D14*
X125590000Y-110530000D03*
G04 #@! TD*
D21*
G04 #@! TO.C,U5*
X121780000Y-69245000D03*
D22*
X121780000Y-66705000D03*
X121780000Y-64165000D03*
G04 #@! TD*
D23*
G04 #@! TO.C,J22*
X175815000Y-163885000D03*
X175815000Y-180085000D03*
X182115000Y-163885000D03*
X182115000Y-180085000D03*
X169515000Y-163885000D03*
X169515000Y-180085000D03*
G04 #@! TD*
D10*
G04 #@! TO.C,C5*
X139520000Y-52100000D03*
X134520000Y-52100000D03*
G04 #@! TD*
G04 #@! TO.C,R24*
X116780000Y-30510000D03*
D14*
X126940000Y-30510000D03*
G04 #@! TD*
D10*
G04 #@! TO.C,R46*
X145900000Y-135920000D03*
D14*
X156060000Y-135920000D03*
G04 #@! TD*
D10*
G04 #@! TO.C,R17*
X161230000Y-76240000D03*
D14*
X171390000Y-76240000D03*
G04 #@! TD*
D10*
G04 #@! TO.C,R3*
X115430000Y-72420000D03*
D14*
X125590000Y-72420000D03*
G04 #@! TD*
D10*
G04 #@! TO.C,R36*
X125590000Y-135930000D03*
D14*
X115430000Y-135930000D03*
G04 #@! TD*
D10*
G04 #@! TO.C,C16*
X124320000Y-128310000D03*
X126820000Y-128310000D03*
G04 #@! TD*
G04 #@! TO.C,R9*
X161230000Y-68610000D03*
D14*
X171390000Y-68610000D03*
G04 #@! TD*
D10*
G04 #@! TO.C,R54*
X115350000Y-102910000D03*
D14*
X125510000Y-102910000D03*
G04 #@! TD*
D10*
G04 #@! TO.C,R12*
X161230000Y-80050000D03*
D14*
X171390000Y-80050000D03*
G04 #@! TD*
D10*
G04 #@! TO.C,R18*
X161230000Y-64800000D03*
D14*
X171390000Y-64800000D03*
G04 #@! TD*
D10*
G04 #@! TO.C,R41*
X115430000Y-143550000D03*
D14*
X125590000Y-143550000D03*
G04 #@! TD*
D10*
G04 #@! TO.C,R42*
X125590000Y-147360000D03*
D14*
X115430000Y-147360000D03*
G04 #@! TD*
D10*
G04 #@! TO.C,R45*
X145900000Y-124490000D03*
D14*
X156060000Y-124490000D03*
G04 #@! TD*
D10*
G04 #@! TO.C,R50*
X156060000Y-101630000D03*
D14*
X145900000Y-101630000D03*
G04 #@! TD*
D24*
G04 #@! TO.C,Q1*
X115430000Y-128310000D03*
D22*
X117970000Y-128310000D03*
X120510000Y-128310000D03*
G04 #@! TD*
D17*
G04 #@! TO.C,RV3*
X182300000Y-45000000D03*
X184840000Y-42460000D03*
X182300000Y-39920000D03*
G04 #@! TD*
D10*
G04 #@! TO.C,C10*
X171360000Y-72420000D03*
X166360000Y-72420000D03*
G04 #@! TD*
G04 #@! TO.C,R20*
X130670000Y-83850000D03*
D14*
X140830000Y-83850000D03*
G04 #@! TD*
D25*
G04 #@! TO.C,J5*
X137020000Y-100995000D03*
D26*
X139560000Y-100995000D03*
G04 #@! TD*
D10*
G04 #@! TO.C,C11*
X171390000Y-83850000D03*
X166390000Y-83850000D03*
G04 #@! TD*
G04 #@! TO.C,R47*
X145900000Y-120680000D03*
D14*
X156060000Y-120680000D03*
G04 #@! TD*
D10*
G04 #@! TO.C,R6*
X145910000Y-97820000D03*
D14*
X156070000Y-97820000D03*
G04 #@! TD*
D10*
G04 #@! TO.C,R39*
X125590000Y-123230000D03*
D14*
X115430000Y-123230000D03*
G04 #@! TD*
D10*
G04 #@! TO.C,C15*
X144640000Y-128310000D03*
X147140000Y-128310000D03*
G04 #@! TD*
G04 #@! TO.C,C2*
X139550000Y-31780000D03*
X137050000Y-31780000D03*
G04 #@! TD*
G04 #@! TO.C,R8*
X116700000Y-47020000D03*
D14*
X126860000Y-47020000D03*
G04 #@! TD*
D10*
G04 #@! TO.C,R49*
X145900000Y-139730000D03*
D14*
X156060000Y-139730000D03*
G04 #@! TD*
D10*
G04 #@! TO.C,R1*
X126940000Y-38130000D03*
D14*
X116780000Y-38130000D03*
G04 #@! TD*
D10*
G04 #@! TO.C,R53*
X156060000Y-109250000D03*
D14*
X145900000Y-109250000D03*
G04 #@! TD*
D23*
G04 #@! TO.C,J19*
X175815000Y-88885000D03*
X175815000Y-105085000D03*
X182115000Y-88885000D03*
X182115000Y-105085000D03*
X169515000Y-88885000D03*
X169515000Y-105085000D03*
G04 #@! TD*
D10*
G04 #@! TO.C,R58*
X156060000Y-154970000D03*
D14*
X145900000Y-154970000D03*
G04 #@! TD*
D10*
G04 #@! TO.C,C18*
X145900000Y-116870000D03*
X150900000Y-116870000D03*
G04 #@! TD*
D17*
G04 #@! TO.C,RV2*
X182300000Y-81000000D03*
X184840000Y-78460000D03*
X182300000Y-75920000D03*
G04 #@! TD*
D10*
G04 #@! TO.C,R10*
X126860000Y-50830000D03*
D14*
X116700000Y-50830000D03*
G04 #@! TD*
D27*
G04 #@! TO.C,D4*
X131940000Y-179110000D03*
D16*
X131940000Y-168950000D03*
G04 #@! TD*
D28*
G04 #@! TO.C,J1*
X120510000Y-88930000D03*
D29*
X117970000Y-88930000D03*
X120510000Y-86390000D03*
X117970000Y-86390000D03*
X120510000Y-83850000D03*
X117970000Y-83850000D03*
X120510000Y-81310000D03*
X117970000Y-81310000D03*
G04 #@! TD*
D10*
G04 #@! TO.C,R11*
X126860000Y-43210000D03*
D14*
X116700000Y-43210000D03*
G04 #@! TD*
D30*
G04 #@! TO.C,U6*
X139560000Y-135930000D03*
D12*
X139560000Y-133390000D03*
X139560000Y-130850000D03*
X139560000Y-128310000D03*
X139560000Y-125770000D03*
X139560000Y-123230000D03*
X139560000Y-120690000D03*
X131940000Y-120690000D03*
X131940000Y-123230000D03*
X131940000Y-125770000D03*
X131940000Y-128310000D03*
X131940000Y-130850000D03*
X131940000Y-133390000D03*
X131940000Y-135930000D03*
G04 #@! TD*
D10*
G04 #@! TO.C,R57*
X125590000Y-99100000D03*
D14*
X115430000Y-99100000D03*
G04 #@! TD*
D10*
G04 #@! TO.C,R15*
X144640000Y-64800000D03*
D14*
X154800000Y-64800000D03*
G04 #@! TD*
D10*
G04 #@! TO.C,C9*
X149720000Y-69880000D03*
X144720000Y-69880000D03*
G04 #@! TD*
D24*
G04 #@! TO.C,Q2*
X115430000Y-115610000D03*
D22*
X117970000Y-115610000D03*
X120510000Y-115610000D03*
G04 #@! TD*
D10*
G04 #@! TO.C,C4*
X156070000Y-94010000D03*
X151070000Y-94010000D03*
G04 #@! TD*
G04 #@! TO.C,R2*
X126940000Y-34320000D03*
D14*
X116780000Y-34320000D03*
G04 #@! TD*
D13*
G04 #@! TO.C,D2*
X107810000Y-68610000D03*
D14*
X115430000Y-68610000D03*
G04 #@! TD*
D24*
G04 #@! TO.C,U4*
X115510000Y-25790000D03*
D22*
X118050000Y-25790000D03*
X120590000Y-25790000D03*
G04 #@! TD*
D17*
G04 #@! TO.C,RV1*
X182300000Y-57000000D03*
X184840000Y-54460000D03*
X182300000Y-51920000D03*
G04 #@! TD*
G04 #@! TO.C,RV8*
X110340000Y-151160000D03*
X110340000Y-148620000D03*
X110340000Y-146080000D03*
G04 #@! TD*
D10*
G04 #@! TO.C,R28*
X171390000Y-57180000D03*
D14*
X161230000Y-57180000D03*
G04 #@! TD*
D10*
G04 #@! TO.C,C17*
X150990000Y-151160000D03*
X145990000Y-151160000D03*
G04 #@! TD*
G04 #@! TO.C,R59*
X156060000Y-105440000D03*
D14*
X145900000Y-105440000D03*
G04 #@! TD*
D10*
G04 #@! TO.C,R43*
X115430000Y-151170000D03*
D14*
X125590000Y-151170000D03*
G04 #@! TD*
D10*
G04 #@! TO.C,R14*
X161230000Y-52100000D03*
D14*
X171390000Y-52100000D03*
G04 #@! TD*
D18*
G04 #@! TO.C,J3*
X109140000Y-34320000D03*
D19*
X109140000Y-36860000D03*
X109140000Y-39400000D03*
G04 #@! TD*
D10*
G04 #@! TO.C,R40*
X115430000Y-106720000D03*
D14*
X125590000Y-106720000D03*
G04 #@! TD*
D11*
G04 #@! TO.C,U2*
X131950000Y-57180000D03*
D12*
X131950000Y-59720000D03*
X131950000Y-62260000D03*
X131950000Y-64800000D03*
X131950000Y-67340000D03*
X131950000Y-69880000D03*
X131950000Y-72420000D03*
X131950000Y-74960000D03*
X139570000Y-74960000D03*
X139570000Y-72420000D03*
X139570000Y-69880000D03*
X139570000Y-67340000D03*
X139570000Y-64800000D03*
X139570000Y-62260000D03*
X139570000Y-59720000D03*
X139570000Y-57180000D03*
G04 #@! TD*
D23*
G04 #@! TO.C,J18*
X175815000Y-113885000D03*
X175815000Y-130085000D03*
X182115000Y-113885000D03*
X182115000Y-130085000D03*
X169515000Y-113885000D03*
X169515000Y-130085000D03*
G04 #@! TD*
D31*
G04 #@! TO.C,J20*
X125590000Y-171490000D03*
D32*
X123050000Y-171490000D03*
X125590000Y-168950000D03*
X123050000Y-168950000D03*
X125590000Y-166410000D03*
X123050000Y-166410000D03*
X125590000Y-163870000D03*
X123050000Y-163870000D03*
X125590000Y-161330000D03*
X123050000Y-161330000D03*
G04 #@! TD*
D20*
G04 #@! TO.C,D1*
X138290000Y-80040000D03*
D14*
X130670000Y-80040000D03*
G04 #@! TD*
D33*
G04 #@! TO.C,J4*
X147180000Y-82580000D03*
D34*
X149720000Y-82580000D03*
X152260000Y-82580000D03*
X154800000Y-82580000D03*
G04 #@! TD*
D18*
G04 #@! TO.C,J6*
X110340000Y-94010000D03*
D19*
X110340000Y-96550000D03*
G04 #@! TD*
D10*
G04 #@! TO.C,R22*
X140830000Y-87660000D03*
D14*
X130670000Y-87660000D03*
G04 #@! TD*
D17*
G04 #@! TO.C,RV7*
X110340000Y-124490000D03*
X110340000Y-121950000D03*
X110340000Y-119410000D03*
G04 #@! TD*
D10*
G04 #@! TO.C,R13*
X154800000Y-60990000D03*
D14*
X144640000Y-60990000D03*
G04 #@! TD*
D10*
G04 #@! TO.C,R23*
X144720000Y-31780000D03*
D14*
X154880000Y-31780000D03*
G04 #@! TD*
D10*
G04 #@! TO.C,R44*
X145900000Y-132110000D03*
D14*
X156060000Y-132110000D03*
G04 #@! TD*
D17*
G04 #@! TO.C,RV6*
X110340000Y-109260000D03*
X110340000Y-106720000D03*
X110340000Y-104180000D03*
G04 #@! TD*
D10*
G04 #@! TO.C,R4*
X144640000Y-52100000D03*
D14*
X154800000Y-52100000D03*
G04 #@! TD*
D10*
G04 #@! TO.C,C12*
X110350000Y-64800000D03*
X115350000Y-64800000D03*
G04 #@! TD*
D25*
G04 #@! TO.C,J7*
X153510000Y-162580000D03*
D26*
X156050000Y-162580000D03*
G04 #@! TD*
D10*
G04 #@! TO.C,R7*
X125670000Y-57180000D03*
D14*
X115510000Y-57180000D03*
G04 #@! TD*
D24*
G04 #@! TO.C,U3*
X124400000Y-25790000D03*
D22*
X126940000Y-25790000D03*
X129480000Y-25790000D03*
G04 #@! TD*
D10*
G04 #@! TO.C,R48*
X130590000Y-116880000D03*
D14*
X140750000Y-116880000D03*
G04 #@! TD*
D10*
G04 #@! TO.C,R52*
X145900000Y-143540000D03*
D14*
X156060000Y-143540000D03*
G04 #@! TD*
D10*
G04 #@! TO.C,R55*
X156060000Y-147350000D03*
D14*
X145900000Y-147350000D03*
G04 #@! TD*
D23*
G04 #@! TO.C,J21*
X175815000Y-138885000D03*
X175815000Y-155085000D03*
X182115000Y-138885000D03*
X182115000Y-155085000D03*
X169515000Y-138885000D03*
X169515000Y-155085000D03*
G04 #@! TD*
D10*
G04 #@! TO.C,R27*
X144640000Y-39400000D03*
D14*
X154800000Y-39400000D03*
G04 #@! TD*
D22*
G04 #@! TO.C,TP4*
X107800000Y-158780000D03*
G04 #@! TD*
G04 #@! TO.C,TP1*
X107810000Y-60990000D03*
G04 #@! TD*
G04 #@! TO.C,TP2*
X107810000Y-55910000D03*
G04 #@! TD*
G04 #@! TO.C,TP5*
X107800000Y-174020000D03*
G04 #@! TD*
D24*
G04 #@! TO.C,TP6*
X107800000Y-166400000D03*
G04 #@! TD*
D22*
G04 #@! TO.C,TP3*
X107810000Y-73690000D03*
G04 #@! TD*
M02*
