M48
; DRILL file {KiCad 6.0.6-3a73a75311~116~ubuntu20.04.1} date Sat Jul  2 20:41:12 2022
; FORMAT={-:-/ absolute / metric / decimal}
; #@! TF.CreationDate,2022-07-02T20:41:12-04:00
; #@! TF.GenerationSoftware,Kicad,Pcbnew,6.0.6-3a73a75311~116~ubuntu20.04.1
; #@! TF.FileFunction,MixedPlating,1,2
FMAT,2
METRIC
; #@! TA.AperFunction,Plated,PTH,ViaDrill
T1C0.400
; #@! TA.AperFunction,Plated,PTH,ComponentDrill
T2C0.700
; #@! TA.AperFunction,Plated,PTH,ComponentDrill
T3C0.800
; #@! TA.AperFunction,Plated,PTH,ComponentDrill
T4C1.000
; #@! TA.AperFunction,Plated,PTH,ComponentDrill
T5C1.016
; #@! TA.AperFunction,Plated,PTH,ComponentDrill
T6C1.100
; #@! TA.AperFunction,Plated,PTH,ComponentDrill
T7C1.190
; #@! TA.AperFunction,Plated,PTH,ComponentDrill
T8C1.200
; #@! TA.AperFunction,Plated,PTH,ComponentDrill
T9C1.600
%
G90
G05
T1
X120.509Y-54.692
X129.4Y-95.026
X133.21Y-95.026
T2
X107.8Y-158.78
X107.8Y-166.4
X107.8Y-174.02
X107.81Y-55.91
X107.81Y-60.99
X107.81Y-73.69
T3
X107.81Y-68.61
X110.34Y-104.18
X110.34Y-106.72
X110.34Y-109.26
X110.34Y-119.41
X110.34Y-121.95
X110.34Y-124.49
X110.34Y-146.08
X110.34Y-148.62
X110.34Y-151.16
X110.35Y-64.8
X115.35Y-64.8
X115.35Y-102.91
X115.43Y-60.99
X115.43Y-68.61
X115.43Y-72.42
X115.43Y-99.1
X115.43Y-106.72
X115.43Y-110.53
X115.43Y-115.61
X115.43Y-119.42
X115.43Y-123.23
X115.43Y-128.31
X115.43Y-132.12
X115.43Y-135.93
X115.43Y-139.74
X115.43Y-143.55
X115.43Y-147.36
X115.43Y-151.17
X115.51Y-25.79
X115.51Y-57.18
X116.7Y-43.21
X116.7Y-47.02
X116.7Y-50.83
X116.78Y-30.51
X116.78Y-34.32
X116.78Y-38.13
X117.97Y-115.61
X117.97Y-128.31
X118.05Y-25.79
X120.51Y-115.61
X120.51Y-128.31
X120.59Y-25.79
X121.78Y-64.165
X121.78Y-66.705
X121.78Y-69.245
X124.32Y-128.31
X124.4Y-25.79
X125.51Y-102.91
X125.59Y-60.99
X125.59Y-72.42
X125.59Y-99.1
X125.59Y-106.72
X125.59Y-110.53
X125.59Y-119.42
X125.59Y-123.23
X125.59Y-132.12
X125.59Y-135.93
X125.59Y-139.74
X125.59Y-143.55
X125.59Y-147.36
X125.59Y-151.17
X125.67Y-57.18
X126.82Y-128.31
X126.86Y-43.21
X126.86Y-47.02
X126.86Y-50.83
X126.94Y-25.79
X126.94Y-30.51
X126.94Y-34.32
X126.94Y-38.13
X128.13Y-64.8
X128.13Y-67.3
X129.48Y-25.79
X130.59Y-113.07
X130.59Y-116.88
X130.63Y-144.82
X130.67Y-80.04
X130.67Y-83.85
X130.67Y-87.66
X130.71Y-92.74
X131.94Y-35.6
X131.94Y-38.14
X131.94Y-40.68
X131.94Y-43.22
X131.94Y-120.69
X131.94Y-123.23
X131.94Y-125.77
X131.94Y-128.31
X131.94Y-130.85
X131.94Y-133.39
X131.94Y-135.93
X131.95Y-57.18
X131.95Y-59.72
X131.95Y-62.26
X131.95Y-64.8
X131.95Y-67.34
X131.95Y-69.88
X131.95Y-72.42
X131.95Y-74.96
X131.98Y-47.02
X133.13Y-144.82
X134.48Y-47.02
X134.52Y-52.1
X135.71Y-92.74
X137.05Y-31.78
X138.29Y-80.04
X139.48Y-144.82
X139.52Y-52.1
X139.55Y-31.78
X139.56Y-35.6
X139.56Y-38.14
X139.56Y-40.68
X139.56Y-43.22
X139.56Y-120.69
X139.56Y-123.23
X139.56Y-125.77
X139.56Y-128.31
X139.56Y-130.85
X139.56Y-133.39
X139.56Y-135.93
X139.57Y-57.18
X139.57Y-59.72
X139.57Y-62.26
X139.57Y-64.8
X139.57Y-67.34
X139.57Y-69.88
X139.57Y-72.42
X139.57Y-74.96
X140.75Y-113.07
X140.75Y-116.88
X140.83Y-83.85
X140.83Y-87.66
X141.98Y-144.82
X144.64Y-35.59
X144.64Y-39.4
X144.64Y-43.21
X144.64Y-47.02
X144.64Y-52.1
X144.64Y-57.19
X144.64Y-60.99
X144.64Y-64.8
X144.64Y-74.96
X144.64Y-128.31
X144.72Y-31.78
X144.72Y-69.88
X145.9Y-101.63
X145.9Y-105.44
X145.9Y-109.25
X145.9Y-113.06
X145.9Y-116.87
X145.9Y-120.68
X145.9Y-124.49
X145.9Y-132.11
X145.9Y-135.92
X145.9Y-139.73
X145.9Y-143.54
X145.9Y-147.35
X145.9Y-154.97
X145.91Y-97.82
X145.99Y-151.16
X147.14Y-57.19
X147.14Y-128.31
X149.72Y-69.88
X149.8Y-57.18
X150.9Y-116.87
X150.99Y-151.16
X151.07Y-94.01
X154.8Y-35.59
X154.8Y-39.4
X154.8Y-43.21
X154.8Y-47.02
X154.8Y-52.1
X154.8Y-57.18
X154.8Y-60.99
X154.8Y-64.8
X154.8Y-74.96
X154.88Y-31.78
X156.06Y-101.63
X156.06Y-105.44
X156.06Y-109.25
X156.06Y-113.06
X156.06Y-120.68
X156.06Y-124.49
X156.06Y-132.11
X156.06Y-135.92
X156.06Y-139.73
X156.06Y-143.54
X156.06Y-147.35
X156.06Y-154.97
X156.07Y-94.01
X156.07Y-97.82
X161.23Y-48.29
X161.23Y-52.1
X161.23Y-57.18
X161.23Y-60.99
X161.23Y-64.8
X161.23Y-68.61
X161.23Y-76.24
X161.23Y-80.05
X166.36Y-72.42
X166.39Y-83.85
X171.36Y-72.42
X171.39Y-48.29
X171.39Y-52.1
X171.39Y-57.18
X171.39Y-60.99
X171.39Y-64.8
X171.39Y-68.61
X171.39Y-76.24
X171.39Y-80.05
X171.39Y-83.85
X182.3Y-39.92
X182.3Y-45.0
X182.3Y-51.92
X182.3Y-57.0
X182.3Y-63.92
X182.3Y-69.0
X182.3Y-75.92
X182.3Y-81.0
X184.84Y-42.46
X184.84Y-54.46
X184.84Y-66.46
X184.84Y-78.46
T4
X117.97Y-81.31
X117.97Y-83.85
X117.97Y-86.39
X117.97Y-88.93
X120.51Y-81.31
X120.51Y-83.85
X120.51Y-86.39
X120.51Y-88.93
T5
X123.05Y-161.33
X123.05Y-163.87
X123.05Y-166.41
X123.05Y-168.95
X123.05Y-171.49
X125.59Y-161.33
X125.59Y-163.87
X125.59Y-166.41
X125.59Y-168.95
X125.59Y-171.49
T6
X131.94Y-154.98
X131.94Y-165.14
X131.94Y-168.95
X131.94Y-179.11
T7
X147.18Y-82.58
X149.72Y-82.58
X152.26Y-82.58
X154.8Y-82.58
T8
X109.08Y-44.48
X109.08Y-47.02
X109.08Y-49.56
X109.14Y-34.32
X109.14Y-36.86
X109.14Y-39.4
X110.34Y-94.01
X110.34Y-96.55
X137.02Y-100.995
X139.56Y-100.995
X153.51Y-162.58
X156.05Y-162.58
T9
X169.515Y-88.885
X169.515Y-105.085
X169.515Y-113.885
X169.515Y-130.085
X169.515Y-138.885
X169.515Y-155.085
X169.515Y-163.885
X169.515Y-180.085
X175.815Y-88.885
X175.815Y-105.085
X175.815Y-113.885
X175.815Y-130.085
X175.815Y-138.885
X175.815Y-155.085
X175.815Y-163.885
X175.815Y-180.085
X182.115Y-88.885
X182.115Y-105.085
X182.115Y-113.885
X182.115Y-130.085
X182.115Y-138.885
X182.115Y-155.085
X182.115Y-163.885
X182.115Y-180.085
T0
M30
