G04 #@! TF.GenerationSoftware,KiCad,Pcbnew,6.0.5-a6ca702e91~116~ubuntu20.04.1*
G04 #@! TF.CreationDate,2022-06-23T09:08:15-04:00*
G04 #@! TF.ProjectId,sidekickvco_b2,73696465-6b69-4636-9b76-636f5f62322e,rev?*
G04 #@! TF.SameCoordinates,Original*
G04 #@! TF.FileFunction,Legend,Top*
G04 #@! TF.FilePolarity,Positive*
%FSLAX46Y46*%
G04 Gerber Fmt 4.6, Leading zero omitted, Abs format (unit mm)*
G04 Created by KiCad (PCBNEW 6.0.5-a6ca702e91~116~ubuntu20.04.1) date 2022-06-23 09:08:15*
%MOMM*%
%LPD*%
G01*
G04 APERTURE LIST*
%ADD10C,0.150000*%
%ADD11C,0.120000*%
G04 APERTURE END LIST*
D10*
X145055951Y-107802379D02*
X145055951Y-106802379D01*
X145294046Y-106802379D01*
X145436903Y-106849999D01*
X145532141Y-106945237D01*
X145579760Y-107040475D01*
X145627379Y-107230951D01*
X145627379Y-107373808D01*
X145579760Y-107564284D01*
X145532141Y-107659522D01*
X145436903Y-107754760D01*
X145294046Y-107802379D01*
X145055951Y-107802379D01*
X146055951Y-107802379D02*
X146055951Y-106802379D01*
X146436903Y-106802379D01*
X146532141Y-106849999D01*
X146579760Y-106897618D01*
X146627379Y-106992856D01*
X146627379Y-107135713D01*
X146579760Y-107230951D01*
X146532141Y-107278570D01*
X146436903Y-107326189D01*
X146055951Y-107326189D01*
X146960713Y-106802379D02*
X147579760Y-106802379D01*
X147246427Y-107183332D01*
X147389284Y-107183332D01*
X147484522Y-107230951D01*
X147532141Y-107278570D01*
X147579760Y-107373808D01*
X147579760Y-107611903D01*
X147532141Y-107707141D01*
X147484522Y-107754760D01*
X147389284Y-107802379D01*
X147103570Y-107802379D01*
X147008332Y-107754760D01*
X146960713Y-107707141D01*
X147865475Y-106802379D02*
X148436903Y-106802379D01*
X148151189Y-107802379D02*
X148151189Y-106802379D01*
X141936903Y-109412379D02*
X141936903Y-108412379D01*
X141936903Y-109364760D02*
X141841665Y-109412379D01*
X141651189Y-109412379D01*
X141555951Y-109364760D01*
X141508332Y-109317141D01*
X141460713Y-109221903D01*
X141460713Y-108936189D01*
X141508332Y-108840951D01*
X141555951Y-108793332D01*
X141651189Y-108745713D01*
X141841665Y-108745713D01*
X141936903Y-108793332D01*
X142841665Y-109412379D02*
X142841665Y-108888570D01*
X142794046Y-108793332D01*
X142698808Y-108745713D01*
X142508332Y-108745713D01*
X142413094Y-108793332D01*
X142841665Y-109364760D02*
X142746427Y-109412379D01*
X142508332Y-109412379D01*
X142413094Y-109364760D01*
X142365475Y-109269522D01*
X142365475Y-109174284D01*
X142413094Y-109079046D01*
X142508332Y-109031427D01*
X142746427Y-109031427D01*
X142841665Y-108983808D01*
X143746427Y-108745713D02*
X143746427Y-109412379D01*
X143317856Y-108745713D02*
X143317856Y-109269522D01*
X143365475Y-109364760D01*
X143460713Y-109412379D01*
X143603570Y-109412379D01*
X143698808Y-109364760D01*
X143746427Y-109317141D01*
X144651189Y-108745713D02*
X144651189Y-109555237D01*
X144603570Y-109650475D01*
X144555951Y-109698094D01*
X144460713Y-109745713D01*
X144317856Y-109745713D01*
X144222618Y-109698094D01*
X144651189Y-109364760D02*
X144555951Y-109412379D01*
X144365475Y-109412379D01*
X144270237Y-109364760D01*
X144222618Y-109317141D01*
X144174999Y-109221903D01*
X144174999Y-108936189D01*
X144222618Y-108840951D01*
X144270237Y-108793332D01*
X144365475Y-108745713D01*
X144555951Y-108745713D01*
X144651189Y-108793332D01*
X145127379Y-109412379D02*
X145127379Y-108412379D01*
X145555951Y-109412379D02*
X145555951Y-108888570D01*
X145508332Y-108793332D01*
X145413094Y-108745713D01*
X145270237Y-108745713D01*
X145174999Y-108793332D01*
X145127379Y-108840951D01*
X145889284Y-108745713D02*
X146270237Y-108745713D01*
X146032141Y-108412379D02*
X146032141Y-109269522D01*
X146079760Y-109364760D01*
X146174999Y-109412379D01*
X146270237Y-109412379D01*
X146984522Y-109364760D02*
X146889284Y-109412379D01*
X146698808Y-109412379D01*
X146603570Y-109364760D01*
X146555951Y-109269522D01*
X146555951Y-108888570D01*
X146603570Y-108793332D01*
X146698808Y-108745713D01*
X146889284Y-108745713D01*
X146984522Y-108793332D01*
X147032141Y-108888570D01*
X147032141Y-108983808D01*
X146555951Y-109079046D01*
X147460713Y-109412379D02*
X147460713Y-108745713D01*
X147460713Y-108936189D02*
X147508332Y-108840951D01*
X147555951Y-108793332D01*
X147651189Y-108745713D01*
X147746427Y-108745713D01*
X148079760Y-109412379D02*
X148079760Y-108412379D01*
X148079760Y-108793332D02*
X148174999Y-108745713D01*
X148365475Y-108745713D01*
X148460713Y-108793332D01*
X148508332Y-108840951D01*
X148555951Y-108936189D01*
X148555951Y-109221903D01*
X148508332Y-109317141D01*
X148460713Y-109364760D01*
X148365475Y-109412379D01*
X148174999Y-109412379D01*
X148079760Y-109364760D01*
X149127379Y-109412379D02*
X149032141Y-109364760D01*
X148984522Y-109317141D01*
X148936903Y-109221903D01*
X148936903Y-108936189D01*
X148984522Y-108840951D01*
X149032141Y-108793332D01*
X149127379Y-108745713D01*
X149270237Y-108745713D01*
X149365475Y-108793332D01*
X149413094Y-108840951D01*
X149460713Y-108936189D01*
X149460713Y-109221903D01*
X149413094Y-109317141D01*
X149365475Y-109364760D01*
X149270237Y-109412379D01*
X149127379Y-109412379D01*
X150317856Y-109412379D02*
X150317856Y-108888570D01*
X150270237Y-108793332D01*
X150174999Y-108745713D01*
X149984522Y-108745713D01*
X149889284Y-108793332D01*
X150317856Y-109364760D02*
X150222618Y-109412379D01*
X149984522Y-109412379D01*
X149889284Y-109364760D01*
X149841665Y-109269522D01*
X149841665Y-109174284D01*
X149889284Y-109079046D01*
X149984522Y-109031427D01*
X150222618Y-109031427D01*
X150317856Y-108983808D01*
X150794046Y-109412379D02*
X150794046Y-108745713D01*
X150794046Y-108936189D02*
X150841665Y-108840951D01*
X150889284Y-108793332D01*
X150984522Y-108745713D01*
X151079760Y-108745713D01*
X151841665Y-109412379D02*
X151841665Y-108412379D01*
X151841665Y-109364760D02*
X151746427Y-109412379D01*
X151555951Y-109412379D01*
X151460713Y-109364760D01*
X151413094Y-109317141D01*
X151365475Y-109221903D01*
X151365475Y-108936189D01*
X151413094Y-108840951D01*
X151460713Y-108793332D01*
X151555951Y-108745713D01*
X151746427Y-108745713D01*
X151841665Y-108793332D01*
X160414760Y-94726784D02*
X160462379Y-94583927D01*
X160462379Y-94345832D01*
X160414760Y-94250594D01*
X160367141Y-94202975D01*
X160271903Y-94155356D01*
X160176665Y-94155356D01*
X160081427Y-94202975D01*
X160033808Y-94250594D01*
X159986189Y-94345832D01*
X159938570Y-94536308D01*
X159890951Y-94631546D01*
X159843332Y-94679165D01*
X159748094Y-94726784D01*
X159652856Y-94726784D01*
X159557618Y-94679165D01*
X159509999Y-94631546D01*
X159462379Y-94536308D01*
X159462379Y-94298213D01*
X159509999Y-94155356D01*
X160414760Y-93774403D02*
X160462379Y-93631546D01*
X160462379Y-93393451D01*
X160414760Y-93298213D01*
X160367141Y-93250594D01*
X160271903Y-93202975D01*
X160176665Y-93202975D01*
X160081427Y-93250594D01*
X160033808Y-93298213D01*
X159986189Y-93393451D01*
X159938570Y-93583927D01*
X159890951Y-93679165D01*
X159843332Y-93726784D01*
X159748094Y-93774403D01*
X159652856Y-93774403D01*
X159557618Y-93726784D01*
X159509999Y-93679165D01*
X159462379Y-93583927D01*
X159462379Y-93345832D01*
X159509999Y-93202975D01*
X149032379Y-94774403D02*
X148032379Y-94774403D01*
X148508570Y-94774403D02*
X148508570Y-94202975D01*
X149032379Y-94202975D02*
X148032379Y-94202975D01*
X148984760Y-93774403D02*
X149032379Y-93631546D01*
X149032379Y-93393451D01*
X148984760Y-93298213D01*
X148937141Y-93250594D01*
X148841903Y-93202975D01*
X148746665Y-93202975D01*
X148651427Y-93250594D01*
X148603808Y-93298213D01*
X148556189Y-93393451D01*
X148508570Y-93583927D01*
X148460951Y-93679165D01*
X148413332Y-93726784D01*
X148318094Y-93774403D01*
X148222856Y-93774403D01*
X148127618Y-93726784D01*
X148079999Y-93679165D01*
X148032379Y-93583927D01*
X148032379Y-93345832D01*
X148079999Y-93202975D01*
X155799760Y-94726784D02*
X155847379Y-94583927D01*
X155847379Y-94345832D01*
X155799760Y-94250594D01*
X155752141Y-94202975D01*
X155656903Y-94155356D01*
X155561665Y-94155356D01*
X155466427Y-94202975D01*
X155418808Y-94250594D01*
X155371189Y-94345832D01*
X155323570Y-94536308D01*
X155275951Y-94631546D01*
X155228332Y-94679165D01*
X155133094Y-94726784D01*
X155037856Y-94726784D01*
X154942618Y-94679165D01*
X154894999Y-94631546D01*
X154847379Y-94536308D01*
X154847379Y-94298213D01*
X154894999Y-94155356D01*
X155799760Y-93774403D02*
X155847379Y-93631546D01*
X155847379Y-93393451D01*
X155799760Y-93298213D01*
X155752141Y-93250594D01*
X155656903Y-93202975D01*
X155561665Y-93202975D01*
X155466427Y-93250594D01*
X155418808Y-93298213D01*
X155371189Y-93393451D01*
X155323570Y-93583927D01*
X155275951Y-93679165D01*
X155228332Y-93726784D01*
X155133094Y-93774403D01*
X155037856Y-93774403D01*
X154942618Y-93726784D01*
X154894999Y-93679165D01*
X154847379Y-93583927D01*
X154847379Y-93345832D01*
X154894999Y-93202975D01*
X157457379Y-94679165D02*
X157409760Y-94774403D01*
X157362141Y-94822022D01*
X157266903Y-94869641D01*
X156981189Y-94869641D01*
X156885951Y-94822022D01*
X156838332Y-94774403D01*
X156790713Y-94679165D01*
X156790713Y-94536308D01*
X156838332Y-94441070D01*
X156885951Y-94393451D01*
X156981189Y-94345832D01*
X157266903Y-94345832D01*
X157362141Y-94393451D01*
X157409760Y-94441070D01*
X157457379Y-94536308D01*
X157457379Y-94679165D01*
X156790713Y-94060118D02*
X156790713Y-93679165D01*
X157457379Y-93917260D02*
X156600237Y-93917260D01*
X156504999Y-93869641D01*
X156457379Y-93774403D01*
X156457379Y-93679165D01*
X156790713Y-93488689D02*
X156790713Y-93107737D01*
X157457379Y-93345832D02*
X156600237Y-93345832D01*
X156504999Y-93298213D01*
X156457379Y-93202975D01*
X156457379Y-93107737D01*
X151989760Y-93774403D02*
X152037379Y-93631546D01*
X152037379Y-93393451D01*
X151989760Y-93298213D01*
X151942141Y-93250594D01*
X151846903Y-93202975D01*
X151751665Y-93202975D01*
X151656427Y-93250594D01*
X151608808Y-93298213D01*
X151561189Y-93393451D01*
X151513570Y-93583927D01*
X151465951Y-93679165D01*
X151418332Y-93726784D01*
X151323094Y-93774403D01*
X151227856Y-93774403D01*
X151132618Y-93726784D01*
X151084999Y-93679165D01*
X151037379Y-93583927D01*
X151037379Y-93345832D01*
X151084999Y-93202975D01*
X153647379Y-94155356D02*
X152980713Y-94155356D01*
X152647379Y-94155356D02*
X152694999Y-94202975D01*
X152742618Y-94155356D01*
X152694999Y-94107737D01*
X152647379Y-94155356D01*
X152742618Y-94155356D01*
X152980713Y-93679165D02*
X153647379Y-93679165D01*
X153075951Y-93679165D02*
X153028332Y-93631546D01*
X152980713Y-93536308D01*
X152980713Y-93393451D01*
X153028332Y-93298213D01*
X153123570Y-93250594D01*
X153647379Y-93250594D01*
G04 #@! TO.C,J14*
X147770475Y-88212379D02*
X147770475Y-88926665D01*
X147722856Y-89069522D01*
X147627618Y-89164760D01*
X147484760Y-89212379D01*
X147389522Y-89212379D01*
X148770475Y-89212379D02*
X148199046Y-89212379D01*
X148484760Y-89212379D02*
X148484760Y-88212379D01*
X148389522Y-88355237D01*
X148294284Y-88450475D01*
X148199046Y-88498094D01*
X149627618Y-88545713D02*
X149627618Y-89212379D01*
X149389522Y-88164760D02*
X149151427Y-88879046D01*
X149770475Y-88879046D01*
G04 #@! TO.C,SW2*
X146149865Y-98000160D02*
X146292722Y-98047779D01*
X146530818Y-98047779D01*
X146626056Y-98000160D01*
X146673675Y-97952541D01*
X146721294Y-97857303D01*
X146721294Y-97762065D01*
X146673675Y-97666827D01*
X146626056Y-97619208D01*
X146530818Y-97571589D01*
X146340341Y-97523970D01*
X146245103Y-97476351D01*
X146197484Y-97428732D01*
X146149865Y-97333494D01*
X146149865Y-97238256D01*
X146197484Y-97143018D01*
X146245103Y-97095399D01*
X146340341Y-97047779D01*
X146578437Y-97047779D01*
X146721294Y-97095399D01*
X147054627Y-97047779D02*
X147292722Y-98047779D01*
X147483199Y-97333494D01*
X147673675Y-98047779D01*
X147911770Y-97047779D01*
X148245103Y-97143018D02*
X148292722Y-97095399D01*
X148387960Y-97047779D01*
X148626056Y-97047779D01*
X148721294Y-97095399D01*
X148768913Y-97143018D01*
X148816532Y-97238256D01*
X148816532Y-97333494D01*
X148768913Y-97476351D01*
X148197484Y-98047779D01*
X148816532Y-98047779D01*
G04 #@! TO.C,J15*
X151580475Y-88212379D02*
X151580475Y-88926665D01*
X151532856Y-89069522D01*
X151437618Y-89164760D01*
X151294760Y-89212379D01*
X151199522Y-89212379D01*
X152580475Y-89212379D02*
X152009046Y-89212379D01*
X152294760Y-89212379D02*
X152294760Y-88212379D01*
X152199522Y-88355237D01*
X152104284Y-88450475D01*
X152009046Y-88498094D01*
X153485237Y-88212379D02*
X153009046Y-88212379D01*
X152961427Y-88688570D01*
X153009046Y-88640951D01*
X153104284Y-88593332D01*
X153342379Y-88593332D01*
X153437618Y-88640951D01*
X153485237Y-88688570D01*
X153532856Y-88783808D01*
X153532856Y-89021903D01*
X153485237Y-89117141D01*
X153437618Y-89164760D01*
X153342379Y-89212379D01*
X153104284Y-89212379D01*
X153009046Y-89164760D01*
X152961427Y-89117141D01*
G04 #@! TO.C,J17*
X159200475Y-88212379D02*
X159200475Y-88926665D01*
X159152856Y-89069522D01*
X159057618Y-89164760D01*
X158914760Y-89212379D01*
X158819522Y-89212379D01*
X160200475Y-89212379D02*
X159629046Y-89212379D01*
X159914760Y-89212379D02*
X159914760Y-88212379D01*
X159819522Y-88355237D01*
X159724284Y-88450475D01*
X159629046Y-88498094D01*
X160533808Y-88212379D02*
X161200475Y-88212379D01*
X160771903Y-89212379D01*
G04 #@! TO.C,J16*
X155390475Y-88212379D02*
X155390475Y-88926665D01*
X155342856Y-89069522D01*
X155247618Y-89164760D01*
X155104760Y-89212379D01*
X155009522Y-89212379D01*
X156390475Y-89212379D02*
X155819046Y-89212379D01*
X156104760Y-89212379D02*
X156104760Y-88212379D01*
X156009522Y-88355237D01*
X155914284Y-88450475D01*
X155819046Y-88498094D01*
X157247618Y-88212379D02*
X157057141Y-88212379D01*
X156961903Y-88259999D01*
X156914284Y-88307618D01*
X156819046Y-88450475D01*
X156771427Y-88640951D01*
X156771427Y-89021903D01*
X156819046Y-89117141D01*
X156866665Y-89164760D01*
X156961903Y-89212379D01*
X157152379Y-89212379D01*
X157247618Y-89164760D01*
X157295237Y-89117141D01*
X157342856Y-89021903D01*
X157342856Y-88783808D01*
X157295237Y-88688570D01*
X157247618Y-88640951D01*
X157152379Y-88593332D01*
X156961903Y-88593332D01*
X156866665Y-88640951D01*
X156819046Y-88688570D01*
X156771427Y-88783808D01*
D11*
G04 #@! TO.C,SW2*
X138138199Y-102820399D02*
X138138199Y-104020399D01*
X139788199Y-105120399D02*
X155638199Y-105120399D01*
X155638199Y-105120399D02*
X155638199Y-100020399D01*
X139788199Y-105420399D02*
X140988199Y-105420399D01*
X138438199Y-98920399D02*
X138438199Y-104020399D01*
X138438199Y-98920399D02*
X154288199Y-98920399D01*
G04 #@! TD*
M02*
