G04 #@! TF.GenerationSoftware,KiCad,Pcbnew,6.0.2-378541a8eb~116~ubuntu20.04.1*
G04 #@! TF.CreationDate,2022-03-12T17:16:05-05:00*
G04 #@! TF.ProjectId,sidekick_panel,73696465-6b69-4636-9b5f-70616e656c2e,rev?*
G04 #@! TF.SameCoordinates,Original*
G04 #@! TF.FileFunction,Legend,Top*
G04 #@! TF.FilePolarity,Positive*
%FSLAX46Y46*%
G04 Gerber Fmt 4.6, Leading zero omitted, Abs format (unit mm)*
G04 Created by KiCad (PCBNEW 6.0.2-378541a8eb~116~ubuntu20.04.1) date 2022-03-12 17:16:05*
%MOMM*%
%LPD*%
G01*
G04 APERTURE LIST*
G04 APERTURE END LIST*
G04 #@! TO.C,GRAF2*
G36*
X46202690Y-131375480D02*
G01*
X46324773Y-130778679D01*
X46494171Y-130197106D01*
X46710010Y-129632878D01*
X46971414Y-129088111D01*
X47277507Y-128564921D01*
X47627413Y-128065426D01*
X48020259Y-127591742D01*
X48300055Y-127296855D01*
X48754868Y-126877219D01*
X49236883Y-126499611D01*
X49743594Y-126164850D01*
X50272494Y-125873758D01*
X50821077Y-125627155D01*
X51386837Y-125425861D01*
X51967266Y-125270698D01*
X52559859Y-125162484D01*
X53162108Y-125102041D01*
X53771508Y-125090189D01*
X54385551Y-125127748D01*
X54775162Y-125177382D01*
X55376130Y-125294899D01*
X55961630Y-125460364D01*
X56529522Y-125672706D01*
X57077668Y-125930852D01*
X57603926Y-126233731D01*
X58106159Y-126580269D01*
X58582226Y-126969396D01*
X58851188Y-127219715D01*
X59283785Y-127675830D01*
X59671573Y-128155867D01*
X60014484Y-128659692D01*
X60312454Y-129187173D01*
X60565418Y-129738179D01*
X60773310Y-130312577D01*
X60936063Y-130910235D01*
X61053614Y-131531021D01*
X61079488Y-131717300D01*
X61096830Y-131892257D01*
X61109759Y-132103170D01*
X61118167Y-132337199D01*
X61121948Y-132581508D01*
X61120993Y-132823260D01*
X61115196Y-133049617D01*
X61104450Y-133247742D01*
X61093287Y-133368300D01*
X61005123Y-133956983D01*
X60880543Y-134515711D01*
X60717366Y-135052060D01*
X60513412Y-135573603D01*
X60368210Y-135887377D01*
X60072634Y-136434405D01*
X59738347Y-136949594D01*
X59367330Y-137431514D01*
X58961565Y-137878733D01*
X58523036Y-138289819D01*
X58053724Y-138663341D01*
X57555613Y-138997868D01*
X57030684Y-139291967D01*
X56480921Y-139544207D01*
X55908306Y-139753157D01*
X55314822Y-139917386D01*
X54702451Y-140035461D01*
X54603415Y-140049896D01*
X54496841Y-140061289D01*
X54351288Y-140071948D01*
X54177046Y-140081568D01*
X53984402Y-140089845D01*
X53783644Y-140096473D01*
X53585061Y-140101148D01*
X53398940Y-140103564D01*
X53235571Y-140103415D01*
X53105242Y-140100398D01*
X53038000Y-140096311D01*
X52640482Y-140049194D01*
X52226806Y-139979328D01*
X51816465Y-139890644D01*
X51428954Y-139787072D01*
X51288403Y-139743550D01*
X50806777Y-139566648D01*
X50321785Y-139348008D01*
X49845693Y-139094228D01*
X49390766Y-138811904D01*
X48969268Y-138507635D01*
X48923200Y-138471301D01*
X48802248Y-138369149D01*
X48657718Y-138237701D01*
X48497593Y-138085066D01*
X48329855Y-137919352D01*
X48162489Y-137748668D01*
X48003477Y-137581121D01*
X47860803Y-137424821D01*
X47742449Y-137287875D01*
X47675170Y-137203700D01*
X47310416Y-136683184D01*
X46993101Y-136145658D01*
X46723556Y-135592092D01*
X46502113Y-135023455D01*
X46329102Y-134440716D01*
X46204856Y-133844846D01*
X46129705Y-133236815D01*
X46103981Y-132617592D01*
X46103973Y-132606300D01*
X46108364Y-132496468D01*
X46131167Y-132496468D01*
X46146467Y-133096378D01*
X46210045Y-133694808D01*
X46322303Y-134288647D01*
X46483643Y-134874786D01*
X46510085Y-134955800D01*
X46727172Y-135528654D01*
X46988737Y-136078629D01*
X47292849Y-136603500D01*
X47637574Y-137101039D01*
X48020979Y-137569020D01*
X48441132Y-138005219D01*
X48896099Y-138407408D01*
X49383947Y-138773361D01*
X49902744Y-139100852D01*
X50290772Y-139309784D01*
X50489697Y-139403288D01*
X50721524Y-139501946D01*
X50969687Y-139599365D01*
X51217617Y-139689148D01*
X51448747Y-139764901D01*
X51539400Y-139791728D01*
X51777556Y-139856193D01*
X52004544Y-139910248D01*
X52232304Y-139956032D01*
X52472783Y-139995685D01*
X52737922Y-140031344D01*
X53039666Y-140065149D01*
X53101500Y-140071477D01*
X53192778Y-140076591D01*
X53324578Y-140078488D01*
X53486747Y-140077502D01*
X53669132Y-140073965D01*
X53861579Y-140068210D01*
X54053935Y-140060569D01*
X54236045Y-140051375D01*
X54397758Y-140040962D01*
X54528918Y-140029662D01*
X54587400Y-140022776D01*
X55199108Y-139914580D01*
X55799794Y-139759609D01*
X56230098Y-139616754D01*
X56417757Y-139541948D01*
X56635097Y-139444940D01*
X56869763Y-139332047D01*
X57109396Y-139209589D01*
X57341640Y-139083884D01*
X57554140Y-138961251D01*
X57734538Y-138848009D01*
X57738252Y-138845539D01*
X57948772Y-138702295D01*
X58132798Y-138569596D01*
X58301169Y-138438452D01*
X58464726Y-138299876D01*
X58634311Y-138144879D01*
X58820765Y-137964473D01*
X58919257Y-137866396D01*
X59341840Y-137407757D01*
X59720572Y-136923730D01*
X60054907Y-136415444D01*
X60344297Y-135884031D01*
X60588195Y-135330620D01*
X60786054Y-134756343D01*
X60937328Y-134162331D01*
X61041470Y-133549714D01*
X61053071Y-133455614D01*
X61073367Y-133229077D01*
X61086391Y-132967859D01*
X61092141Y-132687209D01*
X61090614Y-132402379D01*
X61081810Y-132128618D01*
X61065725Y-131881177D01*
X61053279Y-131757584D01*
X60961126Y-131161879D01*
X60826903Y-130590614D01*
X60648583Y-130036968D01*
X60424140Y-129494122D01*
X60310208Y-129256846D01*
X60012888Y-128718375D01*
X59676386Y-128210862D01*
X59302970Y-127735898D01*
X58894906Y-127295071D01*
X58454464Y-126889972D01*
X57983910Y-126522189D01*
X57485513Y-126193312D01*
X56961539Y-125904931D01*
X56414257Y-125658635D01*
X55845935Y-125456014D01*
X55258839Y-125298656D01*
X54655239Y-125188153D01*
X54471632Y-125164417D01*
X54267472Y-125146208D01*
X54027108Y-125134000D01*
X53764778Y-125127796D01*
X53494721Y-125127598D01*
X53231178Y-125133409D01*
X52988386Y-125145230D01*
X52780587Y-125163064D01*
X52771144Y-125164140D01*
X52153999Y-125259983D01*
X51557021Y-125402422D01*
X50980702Y-125591219D01*
X50425533Y-125826136D01*
X49892007Y-126106932D01*
X49380616Y-126433369D01*
X48891853Y-126805209D01*
X48426211Y-127222212D01*
X48325486Y-127321428D01*
X48096189Y-127557106D01*
X47898228Y-127774622D01*
X47721908Y-127985761D01*
X47557531Y-128202312D01*
X47395403Y-128436060D01*
X47342098Y-128516900D01*
X47030704Y-129040088D01*
X46764774Y-129583568D01*
X46544712Y-130144228D01*
X46370918Y-130718958D01*
X46243795Y-131304648D01*
X46163744Y-131898188D01*
X46131167Y-132496468D01*
X46108364Y-132496468D01*
X46128798Y-131985392D01*
X46202690Y-131375480D01*
G37*
G36*
X62118500Y-78631300D02*
G01*
X62132296Y-79609200D01*
X59997600Y-79609200D01*
X59997600Y-79253600D01*
X61775600Y-79253600D01*
X61775600Y-78616278D01*
X62118500Y-78631300D01*
G37*
G36*
X32413200Y-98456000D02*
G01*
X31803600Y-98456000D01*
X31803600Y-94747600D01*
X32413200Y-94747600D01*
X32413200Y-98456000D01*
G37*
G36*
X25731920Y-61296285D02*
G01*
X25803338Y-61007424D01*
X25919544Y-60737670D01*
X26078224Y-60490678D01*
X26277068Y-60270100D01*
X26513762Y-60079591D01*
X26761700Y-59934646D01*
X26981477Y-59839884D01*
X27193333Y-59780672D01*
X27415326Y-59753259D01*
X27638000Y-59752646D01*
X27928369Y-59785484D01*
X28196160Y-59860620D01*
X28446424Y-59980312D01*
X28684212Y-60146817D01*
X28846013Y-60292500D01*
X29054006Y-60529668D01*
X29215076Y-60785112D01*
X29328654Y-61057363D01*
X29394168Y-61344950D01*
X29411051Y-61646405D01*
X29406682Y-61737425D01*
X29361207Y-62028062D01*
X29269126Y-62306061D01*
X29134091Y-62566182D01*
X28959756Y-62803184D01*
X28749771Y-63011826D01*
X28507790Y-63186867D01*
X28329745Y-63282660D01*
X28209736Y-63333802D01*
X28081312Y-63380144D01*
X27968564Y-63413149D01*
X27948745Y-63417670D01*
X27762094Y-63444158D01*
X27553996Y-63452270D01*
X27345504Y-63442358D01*
X27157673Y-63414777D01*
X27110277Y-63403577D01*
X26821706Y-63303052D01*
X26559018Y-63161709D01*
X26325487Y-62983757D01*
X26124389Y-62773405D01*
X25958998Y-62534863D01*
X25832589Y-62272341D01*
X25748437Y-61990047D01*
X25709817Y-61692193D01*
X25707664Y-61603233D01*
X26313870Y-61603233D01*
X26325306Y-61776735D01*
X26353123Y-61935397D01*
X26365976Y-61981600D01*
X26460183Y-62202156D01*
X26593318Y-62395739D01*
X26759377Y-62559077D01*
X26952357Y-62688896D01*
X27166252Y-62781926D01*
X27395060Y-62834894D01*
X27632776Y-62844528D01*
X27873397Y-62807556D01*
X27878908Y-62806134D01*
X28102781Y-62722539D01*
X28303928Y-62597530D01*
X28477687Y-62437174D01*
X28619398Y-62247537D01*
X28724397Y-62034684D01*
X28788024Y-61804683D01*
X28806098Y-61599586D01*
X28782800Y-61359227D01*
X28715360Y-61135514D01*
X28608804Y-60932327D01*
X28468161Y-60753546D01*
X28298458Y-60603051D01*
X28104722Y-60484722D01*
X27891980Y-60402438D01*
X27665261Y-60360080D01*
X27429590Y-60361528D01*
X27245188Y-60394935D01*
X27024543Y-60477771D01*
X26821277Y-60603402D01*
X26642329Y-60764908D01*
X26494640Y-60955369D01*
X26385151Y-61167862D01*
X26342924Y-61294593D01*
X26319511Y-61435612D01*
X26313870Y-61603233D01*
X25707664Y-61603233D01*
X25707600Y-61600600D01*
X25731920Y-61296285D01*
G37*
G36*
X46174791Y-106561465D02*
G01*
X46282031Y-105969108D01*
X46435836Y-105388661D01*
X46635174Y-104822946D01*
X46879011Y-104274787D01*
X47166313Y-103747005D01*
X47496046Y-103242423D01*
X47867177Y-102763865D01*
X48278671Y-102314151D01*
X48413719Y-102181565D01*
X48881028Y-101768462D01*
X49373946Y-101399128D01*
X49892002Y-101073847D01*
X50434728Y-100792900D01*
X51001655Y-100556570D01*
X51260000Y-100466348D01*
X51850299Y-100298258D01*
X52447141Y-100179610D01*
X53047679Y-100109925D01*
X53649063Y-100088719D01*
X54248446Y-100115513D01*
X54842978Y-100189824D01*
X55429812Y-100311172D01*
X56006100Y-100479074D01*
X56568992Y-100693050D01*
X57115641Y-100952619D01*
X57643198Y-101257298D01*
X58148815Y-101606607D01*
X58189355Y-101637323D01*
X58625591Y-101999964D01*
X59039879Y-102403820D01*
X59426431Y-102841943D01*
X59779462Y-103307387D01*
X60093182Y-103793204D01*
X60303257Y-104174714D01*
X60561687Y-104736414D01*
X60771848Y-105311242D01*
X60933740Y-105896493D01*
X61047361Y-106489464D01*
X61112713Y-107087448D01*
X61129796Y-107687743D01*
X61098609Y-108287642D01*
X61019152Y-108884441D01*
X60891426Y-109475436D01*
X60715430Y-110057922D01*
X60491165Y-110629193D01*
X60303257Y-111025285D01*
X60007062Y-111551075D01*
X59669902Y-112049062D01*
X59294524Y-112517149D01*
X58883678Y-112953240D01*
X58440111Y-113355240D01*
X57966572Y-113721051D01*
X57465809Y-114048578D01*
X56940572Y-114335726D01*
X56393607Y-114580397D01*
X55827665Y-114780496D01*
X55245493Y-114933927D01*
X55151978Y-114953809D01*
X54777542Y-115019249D01*
X54379013Y-115067966D01*
X53971828Y-115098974D01*
X53571423Y-115111288D01*
X53193236Y-115103925D01*
X52999900Y-115091096D01*
X52392177Y-115014339D01*
X51800552Y-114890890D01*
X51226982Y-114722664D01*
X50673423Y-114511576D01*
X50141833Y-114259540D01*
X49634168Y-113968470D01*
X49152385Y-113640282D01*
X48698441Y-113276890D01*
X48274292Y-112880208D01*
X47881896Y-112452152D01*
X47523209Y-111994635D01*
X47200188Y-111509573D01*
X46914789Y-110998880D01*
X46668971Y-110464471D01*
X46464688Y-109908260D01*
X46303898Y-109332162D01*
X46188559Y-108738092D01*
X46142810Y-108381772D01*
X46104148Y-107770620D01*
X46109309Y-107485585D01*
X46143069Y-107485585D01*
X46143073Y-107715100D01*
X46146313Y-107938964D01*
X46152788Y-108145906D01*
X46162497Y-108324657D01*
X46175398Y-108463600D01*
X46277149Y-109081280D01*
X46424793Y-109680749D01*
X46617586Y-110259555D01*
X46854786Y-110815242D01*
X46941388Y-110990600D01*
X47242535Y-111525329D01*
X47582609Y-112029098D01*
X47959221Y-112500324D01*
X48369983Y-112937421D01*
X48812507Y-113338805D01*
X49284407Y-113702892D01*
X49783293Y-114028099D01*
X50306778Y-114312840D01*
X50852475Y-114555532D01*
X51417996Y-114754589D01*
X52000952Y-114908429D01*
X52598957Y-115015466D01*
X53084004Y-115066149D01*
X53312361Y-115080403D01*
X53511538Y-115087288D01*
X53702098Y-115086804D01*
X53904607Y-115078954D01*
X54104800Y-115066257D01*
X54574035Y-115021048D01*
X55013328Y-114953063D01*
X55439632Y-114859067D01*
X55869896Y-114735821D01*
X55920900Y-114719463D01*
X56498150Y-114507140D01*
X57046905Y-114253249D01*
X57568830Y-113956770D01*
X58065590Y-113616679D01*
X58538851Y-113231953D01*
X58907607Y-112885407D01*
X59330706Y-112427620D01*
X59709660Y-111944788D01*
X60044212Y-111437449D01*
X60334106Y-110906142D01*
X60579085Y-110351406D01*
X60778893Y-109773777D01*
X60933272Y-109173795D01*
X61041965Y-108551997D01*
X61065546Y-108362000D01*
X61074148Y-108258852D01*
X61081632Y-108117844D01*
X61087534Y-107951911D01*
X61091394Y-107773990D01*
X61092749Y-107600000D01*
X61082930Y-107156969D01*
X61052196Y-106745362D01*
X60998627Y-106349487D01*
X60920306Y-105953652D01*
X60862565Y-105717065D01*
X60684010Y-105129187D01*
X60459330Y-104562165D01*
X60189324Y-104017386D01*
X59874788Y-103496239D01*
X59516518Y-103000109D01*
X59115312Y-102530384D01*
X58907607Y-102314592D01*
X58452231Y-101892808D01*
X57974711Y-101516490D01*
X57473381Y-101184616D01*
X56946575Y-100896163D01*
X56392628Y-100650108D01*
X55920900Y-100480536D01*
X55341998Y-100318892D01*
X54752202Y-100204686D01*
X54155618Y-100137777D01*
X53556353Y-100118022D01*
X52958516Y-100145281D01*
X52366215Y-100219411D01*
X51783556Y-100340273D01*
X51214648Y-100507723D01*
X50817968Y-100656190D01*
X50251370Y-100914894D01*
X49714439Y-101213914D01*
X49208667Y-101551297D01*
X48735547Y-101925087D01*
X48296570Y-102333332D01*
X47893228Y-102774076D01*
X47527015Y-103245366D01*
X47199421Y-103745247D01*
X46911939Y-104271765D01*
X46666062Y-104822966D01*
X46463280Y-105396896D01*
X46305088Y-105991600D01*
X46192975Y-106605124D01*
X46175398Y-106736400D01*
X46162463Y-106875825D01*
X46152763Y-107054677D01*
X46146299Y-107261687D01*
X46143069Y-107485585D01*
X46109309Y-107485585D01*
X46115152Y-107162910D01*
X46174791Y-106561465D01*
G37*
G36*
X39042600Y-107371400D02*
G01*
X38229800Y-107371400D01*
X38229800Y-107523800D01*
X39093400Y-107523800D01*
X39093400Y-107955600D01*
X38229800Y-107955600D01*
X38229800Y-109606600D01*
X37798000Y-109606600D01*
X37798000Y-107955600D01*
X37620200Y-107955600D01*
X37620200Y-107523800D01*
X37798000Y-107523800D01*
X37798000Y-106939600D01*
X39042600Y-106939600D01*
X39042600Y-107371400D01*
G37*
G36*
X53839338Y-10883242D02*
G01*
X54025172Y-10911493D01*
X54028600Y-10912243D01*
X54154372Y-10946870D01*
X54291530Y-10995799D01*
X54426280Y-11052986D01*
X54544827Y-11112386D01*
X54633377Y-11167956D01*
X54657250Y-11187702D01*
X54704894Y-11255507D01*
X54710681Y-11322108D01*
X54674941Y-11375364D01*
X54651774Y-11389023D01*
X54618380Y-11402412D01*
X54588993Y-11403998D01*
X54553207Y-11389039D01*
X54500611Y-11352790D01*
X54420797Y-11290510D01*
X54400885Y-11274698D01*
X54288396Y-11206297D01*
X54139072Y-11145370D01*
X53966691Y-11095051D01*
X53785034Y-11058474D01*
X53607879Y-11038776D01*
X53449006Y-11039090D01*
X53393600Y-11045531D01*
X53253900Y-11067772D01*
X53247354Y-12607372D01*
X53240808Y-14146971D01*
X53320379Y-14162885D01*
X53447298Y-14177029D01*
X53603324Y-14177788D01*
X53768841Y-14166145D01*
X53924231Y-14143085D01*
X53984381Y-14129564D01*
X54164544Y-14075249D01*
X54308652Y-14011139D01*
X54431403Y-13929658D01*
X54514298Y-13856481D01*
X54604916Y-13781568D01*
X54677006Y-13749092D01*
X54728046Y-13759267D01*
X54755515Y-13812305D01*
X54758725Y-13835900D01*
X54756747Y-13894646D01*
X54735006Y-13944810D01*
X54686004Y-13995695D01*
X54602242Y-14056606D01*
X54557205Y-14085938D01*
X54384712Y-14183237D01*
X54205429Y-14255436D01*
X53998970Y-14310546D01*
X53969672Y-14316748D01*
X53839154Y-14336025D01*
X53679010Y-14348252D01*
X53506367Y-14353182D01*
X53338353Y-14350570D01*
X53192095Y-14340171D01*
X53116109Y-14328983D01*
X52835507Y-14250752D01*
X52574963Y-14132098D01*
X52340196Y-13977138D01*
X52136924Y-13789989D01*
X51970866Y-13574768D01*
X51902028Y-13454900D01*
X51814267Y-13263349D01*
X51754669Y-13079709D01*
X51717753Y-12883550D01*
X51700977Y-12705600D01*
X51705399Y-12406343D01*
X51756391Y-12123958D01*
X51851614Y-11861589D01*
X51988729Y-11622379D01*
X52165397Y-11409472D01*
X52379277Y-11226011D01*
X52628031Y-11075140D01*
X52909320Y-10960003D01*
X53025300Y-10925999D01*
X53202306Y-10892454D01*
X53409351Y-10873976D01*
X53627880Y-10870821D01*
X53839338Y-10883242D01*
G37*
G36*
X60810400Y-56165000D02*
G01*
X62131200Y-56165000D01*
X62131200Y-56495200D01*
X60810400Y-56495200D01*
X60810400Y-56647600D01*
X60454800Y-56647600D01*
X60454800Y-56495200D01*
X59997600Y-56495200D01*
X59997600Y-55504600D01*
X60326282Y-55504600D01*
X60333391Y-55828450D01*
X60336700Y-55961676D01*
X60340812Y-56052524D01*
X60347356Y-56109410D01*
X60357960Y-56140749D01*
X60374254Y-56154956D01*
X60397650Y-56160416D01*
X60420529Y-56162208D01*
X60436306Y-56154768D01*
X60446300Y-56130323D01*
X60451832Y-56081103D01*
X60454221Y-55999332D01*
X60454788Y-55877239D01*
X60454800Y-55823866D01*
X60454800Y-55479200D01*
X60810400Y-55479200D01*
X60810400Y-56165000D01*
G37*
G36*
X33245238Y-202528819D02*
G01*
X33251777Y-204150739D01*
X33550038Y-204137575D01*
X33674772Y-204130861D01*
X33786598Y-204122644D01*
X33872375Y-204114026D01*
X33915901Y-204106974D01*
X33978589Y-204108299D01*
X34016780Y-204141297D01*
X34028389Y-204192049D01*
X34011331Y-204246640D01*
X33963521Y-204291151D01*
X33944782Y-204299745D01*
X33904969Y-204305450D01*
X33820938Y-204310653D01*
X33699269Y-204315181D01*
X33546544Y-204318860D01*
X33369341Y-204321515D01*
X33174243Y-204322972D01*
X33059067Y-204323200D01*
X32235042Y-204323200D01*
X32248100Y-200906900D01*
X33238700Y-200906900D01*
X33245238Y-202528819D01*
G37*
G36*
X50421800Y-60356000D02*
G01*
X49278800Y-60356000D01*
X49278800Y-60559200D01*
X50472600Y-60559200D01*
X50472600Y-61168800D01*
X49278800Y-61168800D01*
X49278800Y-63454800D01*
X48669200Y-63454800D01*
X48669200Y-61168800D01*
X48440600Y-61168800D01*
X48440600Y-60559200D01*
X48669200Y-60559200D01*
X48669200Y-59746400D01*
X50421800Y-59746400D01*
X50421800Y-60356000D01*
G37*
G36*
X60026811Y-58220899D02*
G01*
X60051837Y-58142147D01*
X60079709Y-58082700D01*
X60176288Y-57939368D01*
X60305963Y-57806569D01*
X60451462Y-57701428D01*
X60480200Y-57685611D01*
X60599109Y-57644546D01*
X60745726Y-57624367D01*
X60901368Y-57625254D01*
X61047355Y-57647386D01*
X61141890Y-57679231D01*
X61304802Y-57778819D01*
X61448388Y-57913727D01*
X61523982Y-58014557D01*
X61593657Y-58124214D01*
X61660006Y-58010998D01*
X61702208Y-57919959D01*
X61738553Y-57809162D01*
X61753691Y-57742591D01*
X61781027Y-57587400D01*
X62128806Y-57587400D01*
X62114095Y-57720750D01*
X62082581Y-57886639D01*
X62028098Y-58053520D01*
X61958530Y-58198378D01*
X61940616Y-58227082D01*
X61876479Y-58324000D01*
X62133521Y-58324000D01*
X62126010Y-58495450D01*
X62118500Y-58666900D01*
X59991516Y-58680162D01*
X60002606Y-58444931D01*
X60011064Y-58324000D01*
X60354457Y-58324000D01*
X60822931Y-58324000D01*
X60987845Y-58323694D01*
X61108470Y-58322352D01*
X61191316Y-58319333D01*
X61242890Y-58314000D01*
X61269703Y-58305713D01*
X61278264Y-58293833D01*
X61275746Y-58279550D01*
X61207973Y-58158838D01*
X61105076Y-58063778D01*
X60978230Y-57999115D01*
X60838609Y-57969594D01*
X60697387Y-57979962D01*
X60625434Y-58003371D01*
X60526234Y-58065920D01*
X60438246Y-58156236D01*
X60380844Y-58254150D01*
X60354457Y-58324000D01*
X60011064Y-58324000D01*
X60011616Y-58316114D01*
X60026811Y-58220899D01*
G37*
G36*
X32565600Y-116479656D02*
G01*
X32358791Y-116509799D01*
X32107029Y-116570528D01*
X31874375Y-116674291D01*
X31666805Y-116816847D01*
X31490291Y-116993952D01*
X31350809Y-117201362D01*
X31330969Y-117239816D01*
X31283890Y-117339580D01*
X31254130Y-117419877D01*
X31236996Y-117500054D01*
X31227794Y-117599458D01*
X31223945Y-117680950D01*
X31229858Y-117899449D01*
X31269111Y-118092216D01*
X31345857Y-118275100D01*
X31407051Y-118379561D01*
X31536818Y-118543807D01*
X31700286Y-118690573D01*
X31886711Y-118813637D01*
X32085344Y-118906781D01*
X32285438Y-118963786D01*
X32443210Y-118979200D01*
X32565600Y-118979200D01*
X32565600Y-119296700D01*
X32564985Y-119428965D01*
X32562383Y-119518459D01*
X32556659Y-119573201D01*
X32546676Y-119601212D01*
X32531301Y-119610513D01*
X32521150Y-119610647D01*
X32475023Y-119606567D01*
X32394773Y-119599116D01*
X32296842Y-119589824D01*
X32285728Y-119588758D01*
X31989783Y-119535521D01*
X31709769Y-119436107D01*
X31450318Y-119293866D01*
X31216060Y-119112148D01*
X31011629Y-118894304D01*
X30841655Y-118643683D01*
X30761377Y-118486156D01*
X30681204Y-118276847D01*
X30632549Y-118065303D01*
X30611636Y-117833047D01*
X30610175Y-117746286D01*
X30616663Y-117557283D01*
X30639588Y-117391515D01*
X30683229Y-117231369D01*
X30751867Y-117059232D01*
X30804009Y-116948606D01*
X30867093Y-116827629D01*
X30929638Y-116728239D01*
X31003511Y-116634220D01*
X31100579Y-116529356D01*
X31140409Y-116488919D01*
X31316619Y-116325867D01*
X31490015Y-116197666D01*
X31678111Y-116092612D01*
X31838612Y-116022271D01*
X31971835Y-115976285D01*
X32123897Y-115935225D01*
X32276632Y-115903116D01*
X32411875Y-115883981D01*
X32478934Y-115880400D01*
X32565600Y-115880400D01*
X32565600Y-116479656D01*
G37*
G36*
X27028882Y-201179376D02*
G01*
X27157025Y-201303066D01*
X27312798Y-201453726D01*
X27487452Y-201622875D01*
X27672233Y-201802031D01*
X27858391Y-201982712D01*
X28037174Y-202156435D01*
X28096609Y-202214241D01*
X28735487Y-202835783D01*
X28726841Y-201875710D01*
X28724785Y-201627422D01*
X28723636Y-201425150D01*
X28723549Y-201264115D01*
X28724677Y-201139540D01*
X28727175Y-201046645D01*
X28731197Y-200980652D01*
X28736898Y-200936783D01*
X28744431Y-200910258D01*
X28753951Y-200896301D01*
X28758569Y-200893043D01*
X28815151Y-200887835D01*
X28841023Y-200901374D01*
X28849227Y-200910531D01*
X28856262Y-200927418D01*
X28862199Y-200955584D01*
X28867109Y-200998577D01*
X28871061Y-201059948D01*
X28874127Y-201143246D01*
X28876376Y-201252020D01*
X28877880Y-201389820D01*
X28878709Y-201560196D01*
X28878933Y-201766696D01*
X28878623Y-202012870D01*
X28877850Y-202302267D01*
X28876683Y-202638438D01*
X28876500Y-202687331D01*
X28869900Y-204442362D01*
X27815800Y-203426840D01*
X26761700Y-202411317D01*
X26749000Y-203358155D01*
X26745538Y-203603916D01*
X26742218Y-203803763D01*
X26738755Y-203962582D01*
X26734865Y-204085257D01*
X26730263Y-204176673D01*
X26724666Y-204241715D01*
X26717790Y-204285268D01*
X26709350Y-204312217D01*
X26699063Y-204327446D01*
X26692326Y-204332716D01*
X26671797Y-204344808D01*
X26654039Y-204351187D01*
X26638872Y-204348566D01*
X26626111Y-204333661D01*
X26615575Y-204303187D01*
X26607081Y-204253858D01*
X26600446Y-204182389D01*
X26595489Y-204085496D01*
X26592026Y-203959894D01*
X26589875Y-203802296D01*
X26588853Y-203609419D01*
X26588778Y-203377978D01*
X26589468Y-203104686D01*
X26590740Y-202786259D01*
X26591921Y-202525576D01*
X26600034Y-200766053D01*
X27028882Y-201179376D01*
G37*
G36*
X29405082Y-203658524D02*
G01*
X29484989Y-203663905D01*
X29961382Y-202247302D01*
X30048056Y-201989891D01*
X30130232Y-201746469D01*
X30206432Y-201521370D01*
X30275180Y-201318924D01*
X30335000Y-201143464D01*
X30384414Y-200999324D01*
X30421946Y-200890833D01*
X30446119Y-200822326D01*
X30455198Y-200798500D01*
X30465879Y-200817838D01*
X30492796Y-200880391D01*
X30534286Y-200981831D01*
X30588686Y-201117829D01*
X30654332Y-201284059D01*
X30729562Y-201476192D01*
X30812712Y-201689902D01*
X30902118Y-201920859D01*
X30996118Y-202164738D01*
X31093048Y-202417209D01*
X31191245Y-202673945D01*
X31289045Y-202930619D01*
X31384786Y-203182903D01*
X31476805Y-203426468D01*
X31563437Y-203656989D01*
X31643020Y-203870136D01*
X31713890Y-204061582D01*
X31774384Y-204227000D01*
X31797848Y-204291985D01*
X31792046Y-204303158D01*
X31761886Y-204311194D01*
X31702063Y-204316361D01*
X31607273Y-204318926D01*
X31472213Y-204319159D01*
X31295869Y-204317385D01*
X30782292Y-204310500D01*
X30623964Y-203891400D01*
X29575473Y-203891400D01*
X29521147Y-204063533D01*
X29470331Y-204204863D01*
X29421897Y-204297229D01*
X29374342Y-204342316D01*
X29326162Y-204341813D01*
X29294080Y-204318120D01*
X29269654Y-204281597D01*
X29268512Y-204234996D01*
X29292305Y-204166209D01*
X29323810Y-204100105D01*
X29372818Y-203999188D01*
X29398043Y-203933144D01*
X29400099Y-203892285D01*
X29379599Y-203866927D01*
X29339750Y-203848356D01*
X29282284Y-203814116D01*
X29263765Y-203762853D01*
X29263600Y-203755405D01*
X29277314Y-203693391D01*
X29304048Y-203675500D01*
X29654359Y-203675500D01*
X29719329Y-203691544D01*
X29767047Y-203697386D01*
X29854779Y-203702695D01*
X29971736Y-203707017D01*
X30107132Y-203709896D01*
X30170511Y-203710594D01*
X30556723Y-203713600D01*
X30492021Y-203542150D01*
X30461646Y-203461373D01*
X30417909Y-203344682D01*
X30365184Y-203203763D01*
X30307845Y-203050305D01*
X30261529Y-202926200D01*
X30208113Y-202784654D01*
X30159634Y-202659320D01*
X30119241Y-202558088D01*
X30090084Y-202488852D01*
X30075385Y-202459586D01*
X30062460Y-202476612D01*
X30036585Y-202535989D01*
X30000022Y-202631600D01*
X29955033Y-202757329D01*
X29903879Y-202907056D01*
X29854695Y-203056486D01*
X29654359Y-203675500D01*
X29304048Y-203675500D01*
X29323097Y-203662752D01*
X29405082Y-203658524D01*
G37*
G36*
X49583600Y-23729200D02*
G01*
X50574200Y-23729200D01*
X50574200Y-24465800D01*
X49583600Y-24465800D01*
X49583600Y-25456400D01*
X49232233Y-25456400D01*
X49103446Y-25455237D01*
X48993335Y-25452047D01*
X48911636Y-25447279D01*
X48868090Y-25441379D01*
X48863933Y-25439466D01*
X48858618Y-25409872D01*
X48853987Y-25337690D01*
X48850319Y-25231128D01*
X48847897Y-25098396D01*
X48847000Y-24947704D01*
X48847000Y-24465800D01*
X47880405Y-24465800D01*
X47887452Y-24103850D01*
X47894500Y-23741900D01*
X48370191Y-23734991D01*
X48845883Y-23728083D01*
X48852791Y-23252391D01*
X48859700Y-22776700D01*
X49221650Y-22769652D01*
X49583600Y-22762605D01*
X49583600Y-23729200D01*
G37*
G36*
X66119000Y-17988800D02*
G01*
X16106400Y-17988800D01*
X16106400Y-17201400D01*
X66119000Y-17201400D01*
X66119000Y-17988800D01*
G37*
G36*
X51304450Y-200900972D02*
G01*
X51549139Y-200906462D01*
X51749821Y-200913023D01*
X51913288Y-200921459D01*
X52046332Y-200932570D01*
X52155744Y-200947162D01*
X52248316Y-200966036D01*
X52330841Y-200989995D01*
X52410111Y-201019841D01*
X52448233Y-201036157D01*
X52585495Y-201116461D01*
X52723201Y-201231374D01*
X52847092Y-201366883D01*
X52942912Y-201508969D01*
X52957269Y-201536569D01*
X53020897Y-201681933D01*
X53061028Y-201819056D01*
X53081897Y-201967476D01*
X53087738Y-202138800D01*
X53068798Y-202412249D01*
X53013157Y-202665564D01*
X52923288Y-202894044D01*
X52801664Y-203092990D01*
X52650757Y-203257699D01*
X52473041Y-203383472D01*
X52418317Y-203411303D01*
X52295277Y-203459964D01*
X52161524Y-203498431D01*
X52032079Y-203523613D01*
X51921967Y-203532420D01*
X51860036Y-203526156D01*
X51792450Y-203491537D01*
X51761295Y-203437944D01*
X51772987Y-203377781D01*
X51778765Y-203369050D01*
X51807663Y-203343540D01*
X51856125Y-203328555D01*
X51936284Y-203321394D01*
X52000031Y-203319789D01*
X52192697Y-203303722D01*
X52353007Y-203258177D01*
X52492857Y-203178626D01*
X52590245Y-203095127D01*
X52731796Y-202921491D01*
X52836965Y-202715851D01*
X52904024Y-202483350D01*
X52931242Y-202229132D01*
X52928960Y-202088000D01*
X52894878Y-201844967D01*
X52822455Y-201635146D01*
X52712094Y-201458898D01*
X52564201Y-201316580D01*
X52379180Y-201208551D01*
X52157436Y-201135171D01*
X51899372Y-201096798D01*
X51806100Y-201091872D01*
X51577500Y-201084700D01*
X51570961Y-202703950D01*
X51564423Y-204323200D01*
X50574200Y-204323200D01*
X50574200Y-200886795D01*
X51304450Y-200900972D01*
G37*
G36*
X60050761Y-52816911D02*
G01*
X60140903Y-52615737D01*
X60273969Y-52433019D01*
X60313443Y-52391443D01*
X60493480Y-52244897D01*
X60691683Y-52143722D01*
X60902371Y-52088437D01*
X61119863Y-52079557D01*
X61338478Y-52117602D01*
X61552534Y-52203087D01*
X61663307Y-52268544D01*
X61795056Y-52355994D01*
X61929179Y-52267663D01*
X62001946Y-52223794D01*
X62058709Y-52196981D01*
X62085034Y-52192764D01*
X62108224Y-52222150D01*
X62143143Y-52281297D01*
X62181111Y-52353444D01*
X62213447Y-52421831D01*
X62231471Y-52469699D01*
X62232800Y-52478074D01*
X62211833Y-52502839D01*
X62161110Y-52530916D01*
X62158436Y-52532039D01*
X62091586Y-52568395D01*
X62044690Y-52606358D01*
X62023971Y-52635974D01*
X62020498Y-52670968D01*
X62035311Y-52726681D01*
X62056824Y-52785452D01*
X62095849Y-52939744D01*
X62109819Y-53117227D01*
X62098763Y-53296918D01*
X62062713Y-53457832D01*
X62055820Y-53477276D01*
X61950398Y-53692334D01*
X61810501Y-53872266D01*
X61640594Y-54014368D01*
X61445142Y-54115932D01*
X61228610Y-54174255D01*
X60995462Y-54186628D01*
X60899300Y-54178202D01*
X60708516Y-54130396D01*
X60521839Y-54040179D01*
X60350850Y-53915389D01*
X60207129Y-53763862D01*
X60138968Y-53663655D01*
X60047645Y-53459913D01*
X60003154Y-53246125D01*
X60003853Y-53135147D01*
X60352416Y-53135147D01*
X60368537Y-53291887D01*
X60411119Y-53430745D01*
X60413286Y-53435467D01*
X60491233Y-53558586D01*
X60600438Y-53673241D01*
X60725262Y-53765282D01*
X60833491Y-53815663D01*
X60981827Y-53842046D01*
X61145840Y-53836828D01*
X61302617Y-53801446D01*
X61348951Y-53783356D01*
X61480084Y-53703590D01*
X61598349Y-53592110D01*
X61686939Y-53465510D01*
X61701900Y-53434762D01*
X61721390Y-53378755D01*
X61739518Y-53306640D01*
X61754808Y-53228813D01*
X61765785Y-53155673D01*
X61770972Y-53097616D01*
X61768893Y-53065041D01*
X61758072Y-53068344D01*
X61752417Y-53078900D01*
X61736628Y-53136484D01*
X61727361Y-53216233D01*
X61726585Y-53237650D01*
X61724800Y-53345600D01*
X61369200Y-53345600D01*
X61369200Y-53274064D01*
X61379990Y-53149984D01*
X61408839Y-53003801D01*
X61450462Y-52858532D01*
X61485651Y-52766799D01*
X61519595Y-52680374D01*
X61526487Y-52619930D01*
X61500922Y-52573918D01*
X61437494Y-52530791D01*
X61356500Y-52490906D01*
X61194946Y-52440781D01*
X61019602Y-52429028D01*
X60848108Y-52455491D01*
X60740318Y-52496408D01*
X60584641Y-52601573D01*
X60460301Y-52743132D01*
X60401216Y-52848639D01*
X60363171Y-52980680D01*
X60352416Y-53135147D01*
X60003853Y-53135147D01*
X60004519Y-53029415D01*
X60050761Y-52816911D01*
G37*
G36*
X25707600Y-116181927D02*
G01*
X25707131Y-116311348D01*
X25704787Y-116398355D01*
X25699165Y-116451332D01*
X25688859Y-116478663D01*
X25672465Y-116488732D01*
X25655984Y-116490000D01*
X25572486Y-116506132D01*
X25474011Y-116547875D01*
X25381829Y-116605246D01*
X25345966Y-116635496D01*
X25279078Y-116722064D01*
X25254205Y-116815675D01*
X25272293Y-116918848D01*
X25334289Y-117034103D01*
X25441139Y-117163960D01*
X25593792Y-117310939D01*
X25602704Y-117318835D01*
X25798580Y-117503134D01*
X25951510Y-117674025D01*
X26065405Y-117837722D01*
X26144176Y-118000437D01*
X26191735Y-118168381D01*
X26207384Y-118279153D01*
X26202990Y-118495545D01*
X26152800Y-118711448D01*
X26061222Y-118918609D01*
X25932663Y-119108777D01*
X25771532Y-119273699D01*
X25616534Y-119385308D01*
X25451786Y-119470788D01*
X25279394Y-119536519D01*
X25115423Y-119577201D01*
X25001943Y-119588144D01*
X24867787Y-119588800D01*
X24874943Y-119290659D01*
X24882100Y-118992518D01*
X25016637Y-118973197D01*
X25183752Y-118928684D01*
X25332391Y-118849765D01*
X25455535Y-118743401D01*
X25546160Y-118616550D01*
X25597247Y-118476174D01*
X25606000Y-118389000D01*
X25599297Y-118316963D01*
X25576436Y-118244386D01*
X25533283Y-118165243D01*
X25465708Y-118073509D01*
X25369577Y-117963161D01*
X25240760Y-117828172D01*
X25177668Y-117764437D01*
X25008916Y-117588031D01*
X24878013Y-117433543D01*
X24780770Y-117294373D01*
X24712994Y-117163924D01*
X24670494Y-117035597D01*
X24652864Y-116938206D01*
X24652872Y-116743301D01*
X24698944Y-116555735D01*
X24786384Y-116380821D01*
X24910497Y-116223872D01*
X25066587Y-116090200D01*
X25249958Y-115985117D01*
X25455914Y-115913938D01*
X25578453Y-115890987D01*
X25707600Y-115873855D01*
X25707600Y-116181927D01*
G37*
G36*
X39424472Y-21191851D02*
G01*
X39471235Y-20859439D01*
X39549720Y-20548140D01*
X39657256Y-20260882D01*
X39791174Y-20000591D01*
X39948801Y-19770194D01*
X40127468Y-19572618D01*
X40324504Y-19410791D01*
X40537237Y-19287638D01*
X40762998Y-19206088D01*
X40999115Y-19169067D01*
X41242917Y-19179502D01*
X41258546Y-19181827D01*
X41495247Y-19243648D01*
X41720369Y-19351437D01*
X41930829Y-19501080D01*
X42123546Y-19688460D01*
X42295437Y-19909462D01*
X42443419Y-20159971D01*
X42564412Y-20435870D01*
X42655332Y-20733045D01*
X42713098Y-21047380D01*
X42722835Y-21137074D01*
X42733253Y-21453696D01*
X42708051Y-21769605D01*
X42649760Y-22079037D01*
X42560914Y-22376230D01*
X42444042Y-22655419D01*
X42301677Y-22910840D01*
X42136351Y-23136731D01*
X41950595Y-23327326D01*
X41746941Y-23476862D01*
X41678276Y-23515168D01*
X41475616Y-23594759D01*
X41250014Y-23640714D01*
X41018067Y-23651291D01*
X40796372Y-23624748D01*
X40747253Y-23612854D01*
X40543991Y-23538477D01*
X40349917Y-23425318D01*
X40157209Y-23268533D01*
X40095061Y-23208860D01*
X39888216Y-22968210D01*
X39716271Y-22694514D01*
X39581061Y-22393291D01*
X39484420Y-22070061D01*
X39428184Y-21730346D01*
X39417163Y-21454189D01*
X40149120Y-21454189D01*
X40159326Y-21659138D01*
X40182187Y-21845579D01*
X40207126Y-21961622D01*
X40291321Y-22213945D01*
X40395607Y-22431224D01*
X40517248Y-22611303D01*
X40653512Y-22752026D01*
X40801664Y-22851236D01*
X40958969Y-22906778D01*
X41122694Y-22916494D01*
X41290105Y-22878228D01*
X41341815Y-22856523D01*
X41487498Y-22762639D01*
X41623191Y-22623833D01*
X41745209Y-22445590D01*
X41849867Y-22233395D01*
X41933481Y-21992732D01*
X41941467Y-21963900D01*
X41980444Y-21760939D01*
X41998636Y-21529716D01*
X41996035Y-21288329D01*
X41972633Y-21054873D01*
X41941983Y-20898127D01*
X41868798Y-20661955D01*
X41772876Y-20447164D01*
X41658564Y-20260458D01*
X41530208Y-20108541D01*
X41392153Y-19998118D01*
X41339876Y-19969310D01*
X41193675Y-19923589D01*
X41032970Y-19914523D01*
X40877768Y-19942147D01*
X40811309Y-19968349D01*
X40673173Y-20059995D01*
X40540883Y-20194992D01*
X40419366Y-20365902D01*
X40313550Y-20565282D01*
X40228363Y-20785694D01*
X40196165Y-20897100D01*
X40167365Y-21056289D01*
X40151742Y-21247612D01*
X40149120Y-21454189D01*
X39417163Y-21454189D01*
X39414189Y-21379665D01*
X39424472Y-21191851D01*
G37*
G36*
X44325800Y-95357200D02*
G01*
X43182800Y-95357200D01*
X43182800Y-95560400D01*
X44376600Y-95560400D01*
X44376600Y-96170000D01*
X43182800Y-96170000D01*
X43182800Y-98456000D01*
X42573200Y-98456000D01*
X42573200Y-96170000D01*
X42344600Y-96170000D01*
X42344600Y-95560400D01*
X42573200Y-95560400D01*
X42573200Y-94747600D01*
X44325800Y-94747600D01*
X44325800Y-95357200D01*
G37*
G36*
X61000900Y-68161863D02*
G01*
X61217977Y-68093928D01*
X61422026Y-68030349D01*
X61607488Y-67972839D01*
X61768801Y-67923109D01*
X61900406Y-67882872D01*
X61996744Y-67853840D01*
X62052252Y-67837723D01*
X62061350Y-67835372D01*
X62131200Y-67819563D01*
X62131200Y-68177018D01*
X61876405Y-68255645D01*
X61621610Y-68334271D01*
X61635900Y-68922143D01*
X61877200Y-69001521D01*
X62118500Y-69080900D01*
X62126010Y-69252350D01*
X62128740Y-69336953D01*
X62122788Y-69390759D01*
X62100217Y-69416868D01*
X62053090Y-69418383D01*
X61973471Y-69398403D01*
X61853424Y-69360032D01*
X61851800Y-69359503D01*
X61745769Y-69325390D01*
X61678947Y-69306174D01*
X61642285Y-69300882D01*
X61626735Y-69308539D01*
X61623247Y-69328173D01*
X61623200Y-69334900D01*
X61612743Y-69355600D01*
X61575145Y-69367447D01*
X61501063Y-69372444D01*
X61445400Y-69373000D01*
X61267600Y-69373000D01*
X61267600Y-69174512D01*
X60981850Y-69085115D01*
X60843070Y-69041753D01*
X60676720Y-68989861D01*
X60503745Y-68935969D01*
X60345779Y-68886820D01*
X59995458Y-68777923D01*
X60002703Y-68628849D01*
X60696100Y-68628849D01*
X60975500Y-68719802D01*
X61254900Y-68810756D01*
X61262743Y-68710206D01*
X61265972Y-68618916D01*
X61263291Y-68531824D01*
X61262743Y-68525458D01*
X61254900Y-68441260D01*
X60975500Y-68535055D01*
X60696100Y-68628849D01*
X60002703Y-68628849D01*
X60010300Y-68472545D01*
X61000900Y-68161863D01*
G37*
G36*
X28064763Y-116343950D02*
G01*
X27960176Y-116488923D01*
X27858430Y-116629876D01*
X27765760Y-116758174D01*
X27688402Y-116865184D01*
X27632595Y-116942273D01*
X27620728Y-116958632D01*
X27511000Y-117109764D01*
X27511000Y-119614200D01*
X26926800Y-119614200D01*
X26926800Y-117120183D01*
X26501350Y-116533892D01*
X26390829Y-116381399D01*
X26289568Y-116241318D01*
X26201556Y-116119196D01*
X26130783Y-116020584D01*
X26081239Y-115951028D01*
X26056914Y-115916079D01*
X26055587Y-115914000D01*
X26056187Y-115900726D01*
X26080779Y-115891363D01*
X26135585Y-115885334D01*
X26226826Y-115882062D01*
X26360721Y-115880969D01*
X26411187Y-115880981D01*
X26787100Y-115881562D01*
X26977600Y-116149449D01*
X27051687Y-116252386D01*
X27117204Y-116341109D01*
X27167564Y-116406859D01*
X27196181Y-116440877D01*
X27197916Y-116442473D01*
X27220491Y-116439644D01*
X27260489Y-116404123D01*
X27320712Y-116332792D01*
X27403964Y-116222531D01*
X27439177Y-116174005D01*
X27650621Y-115880400D01*
X28399069Y-115880400D01*
X28064763Y-116343950D01*
G37*
G36*
X64112400Y-146589000D02*
G01*
X64112400Y-196601600D01*
X18113000Y-196601600D01*
X18113000Y-194244300D01*
X24346168Y-194244300D01*
X24353649Y-194270203D01*
X24379345Y-194331659D01*
X24418623Y-194419006D01*
X24466849Y-194522582D01*
X24519392Y-194632725D01*
X24571618Y-194739773D01*
X24618893Y-194834064D01*
X24656585Y-194905936D01*
X24680061Y-194945728D01*
X24684848Y-194950600D01*
X24707925Y-194939435D01*
X24774049Y-194906735D01*
X24880834Y-194853691D01*
X25025893Y-194781493D01*
X25206840Y-194691333D01*
X25421289Y-194584401D01*
X25666854Y-194461888D01*
X25941149Y-194324986D01*
X26241788Y-194174885D01*
X26566384Y-194012776D01*
X26912551Y-193839850D01*
X27277903Y-193657298D01*
X27660054Y-193466311D01*
X28056617Y-193268079D01*
X28400034Y-193096382D01*
X32108400Y-191242165D01*
X32108400Y-194595000D01*
X32895800Y-194595000D01*
X49405800Y-194595000D01*
X50218600Y-194595000D01*
X50218600Y-190988200D01*
X54409600Y-190988200D01*
X54409600Y-194581238D01*
X54827578Y-195001400D01*
X57813200Y-195001400D01*
X57813200Y-194214000D01*
X55222400Y-194214000D01*
X55222400Y-190620961D01*
X55013410Y-190410880D01*
X54804421Y-190200800D01*
X49825961Y-190200800D01*
X49615880Y-190409789D01*
X49405800Y-190618778D01*
X49405800Y-194595000D01*
X32895800Y-194595000D01*
X32894006Y-190594500D01*
X32609680Y-190419675D01*
X32325354Y-190244851D01*
X28341449Y-192235775D01*
X27919378Y-192446768D01*
X27509592Y-192651752D01*
X27114397Y-192849566D01*
X26736100Y-193039050D01*
X26377007Y-193219046D01*
X26039427Y-193388393D01*
X25725665Y-193545931D01*
X25438028Y-193690502D01*
X25178824Y-193820944D01*
X24950360Y-193936099D01*
X24754941Y-194034807D01*
X24594875Y-194115908D01*
X24472470Y-194178242D01*
X24390031Y-194220649D01*
X24349865Y-194241970D01*
X24346168Y-194244300D01*
X18113000Y-194244300D01*
X18113000Y-182763216D01*
X21633559Y-182763216D01*
X21637918Y-182992290D01*
X21646975Y-183198597D01*
X21660830Y-183369901D01*
X21665116Y-183406300D01*
X21766306Y-184006154D01*
X21913800Y-184587264D01*
X22106505Y-185147757D01*
X22343327Y-185685763D01*
X22623172Y-186199411D01*
X22944947Y-186686831D01*
X23307558Y-187146152D01*
X23709912Y-187575503D01*
X24150915Y-187973013D01*
X24488400Y-188235997D01*
X24675182Y-188369939D01*
X24844652Y-188484136D01*
X25010602Y-188586863D01*
X25186822Y-188686396D01*
X25387103Y-188791009D01*
X25542500Y-188868495D01*
X26089960Y-189110236D01*
X26648666Y-189302582D01*
X27217542Y-189445325D01*
X27795517Y-189538257D01*
X28381517Y-189581167D01*
X28974468Y-189573850D01*
X29123900Y-189564130D01*
X29717387Y-189494379D01*
X30296339Y-189376642D01*
X30858539Y-189212219D01*
X31401773Y-189002408D01*
X31923824Y-188748508D01*
X32422479Y-188451816D01*
X32895522Y-188113632D01*
X33340736Y-187735254D01*
X33755908Y-187317979D01*
X34138822Y-186863107D01*
X34435147Y-186451072D01*
X34736916Y-185953707D01*
X34995175Y-185430460D01*
X35210009Y-184881111D01*
X35381502Y-184305443D01*
X35509738Y-183703235D01*
X35526150Y-183605006D01*
X35547131Y-183437420D01*
X35563507Y-183231189D01*
X35575098Y-182998275D01*
X35581727Y-182750640D01*
X35581740Y-182748386D01*
X46130796Y-182748386D01*
X46166844Y-183349243D01*
X46251988Y-183949646D01*
X46356860Y-184431277D01*
X46525800Y-184999690D01*
X46742267Y-185558989D01*
X47003055Y-186102714D01*
X47304961Y-186624408D01*
X47644780Y-187117610D01*
X47770086Y-187279800D01*
X48006525Y-187556208D01*
X48280603Y-187840943D01*
X48582184Y-188125067D01*
X48901131Y-188399643D01*
X49227307Y-188655734D01*
X49550574Y-188884403D01*
X49697900Y-188979413D01*
X50175493Y-189249701D01*
X50685803Y-189487073D01*
X51220594Y-189688670D01*
X51771628Y-189851632D01*
X52330667Y-189973099D01*
X52733200Y-190033218D01*
X52911890Y-190049592D01*
X53128284Y-190061285D01*
X53369501Y-190068282D01*
X53622659Y-190070565D01*
X53874879Y-190068121D01*
X54113277Y-190060931D01*
X54324973Y-190048981D01*
X54471632Y-190035382D01*
X55075212Y-189939951D01*
X55662156Y-189797919D01*
X56230392Y-189611186D01*
X56777848Y-189381655D01*
X57302452Y-189111225D01*
X57802131Y-188801797D01*
X58274815Y-188455273D01*
X58718430Y-188073554D01*
X59130905Y-187658540D01*
X59510167Y-187212132D01*
X59854146Y-186736232D01*
X60160768Y-186232740D01*
X60427963Y-185703557D01*
X60653657Y-185150584D01*
X60835779Y-184575723D01*
X60950787Y-184091137D01*
X61039734Y-183536896D01*
X61087128Y-182965245D01*
X61092982Y-182387012D01*
X61057307Y-181813027D01*
X60980116Y-181254117D01*
X60947383Y-181083785D01*
X60799948Y-180491142D01*
X60605151Y-179916258D01*
X60362768Y-179358639D01*
X60072575Y-178817791D01*
X59734346Y-178293222D01*
X59583889Y-178085616D01*
X59452071Y-177919381D01*
X59291185Y-177732279D01*
X59110386Y-177533777D01*
X58918827Y-177333343D01*
X58725663Y-177140445D01*
X58540047Y-176964552D01*
X58371133Y-176815132D01*
X58295800Y-176753308D01*
X57973380Y-176514056D01*
X57617492Y-176279772D01*
X57245144Y-176061144D01*
X56938152Y-175900397D01*
X56501688Y-175698427D01*
X56079044Y-175531826D01*
X55656111Y-175396273D01*
X55218781Y-175287446D01*
X54752944Y-175201025D01*
X54562000Y-175172671D01*
X54379249Y-175153111D01*
X54158257Y-175138896D01*
X53911176Y-175130027D01*
X53650159Y-175126506D01*
X53387358Y-175128334D01*
X53134926Y-175135513D01*
X52905015Y-175148045D01*
X52709778Y-175165931D01*
X52659199Y-175172423D01*
X52034134Y-175283997D01*
X51431222Y-175441097D01*
X50851045Y-175643435D01*
X50294184Y-175890721D01*
X49761220Y-176182667D01*
X49252736Y-176518985D01*
X48769313Y-176899387D01*
X48311533Y-177323584D01*
X48300900Y-177334266D01*
X47888411Y-177784807D01*
X47517305Y-178263049D01*
X47188353Y-178766178D01*
X46902327Y-179291378D01*
X46659997Y-179835832D01*
X46462136Y-180396727D01*
X46309514Y-180971245D01*
X46202903Y-181556571D01*
X46143073Y-182149890D01*
X46130796Y-182748386D01*
X35581740Y-182748386D01*
X35583212Y-182500245D01*
X35579375Y-182259054D01*
X35570038Y-182039027D01*
X35555020Y-181852127D01*
X35552713Y-181831500D01*
X35458459Y-181232199D01*
X35317492Y-180652263D01*
X35130331Y-180092774D01*
X34897494Y-179554816D01*
X34619499Y-179039472D01*
X34296865Y-178547824D01*
X33930112Y-178080956D01*
X33568900Y-177689063D01*
X33130761Y-177282276D01*
X32666126Y-176918007D01*
X32177424Y-176597016D01*
X31667087Y-176320062D01*
X31137546Y-176087904D01*
X30591230Y-175901301D01*
X30030572Y-175761013D01*
X29458000Y-175667798D01*
X28875947Y-175622415D01*
X28286843Y-175625625D01*
X27693119Y-175678186D01*
X27318426Y-175736864D01*
X26755452Y-175865430D01*
X26207809Y-176041031D01*
X25678158Y-176261511D01*
X25169160Y-176524710D01*
X24683478Y-176828469D01*
X24223773Y-177170632D01*
X23792707Y-177549038D01*
X23392942Y-177961529D01*
X23027138Y-178405947D01*
X22697959Y-178880134D01*
X22408065Y-179381930D01*
X22160119Y-179909178D01*
X22153255Y-179925609D01*
X21970431Y-180421951D01*
X21822696Y-180948933D01*
X21709130Y-181509997D01*
X21678809Y-181704500D01*
X21661148Y-181863910D01*
X21647695Y-182061721D01*
X21638546Y-182285698D01*
X21633802Y-182523607D01*
X21633559Y-182763216D01*
X18113000Y-182763216D01*
X18113000Y-171989000D01*
X49609000Y-171989000D01*
X49716950Y-171988558D01*
X49799313Y-171982819D01*
X49906096Y-171968313D01*
X50000475Y-171950922D01*
X50260797Y-171870639D01*
X50515637Y-171742533D01*
X50760039Y-171569576D01*
X50982001Y-171362239D01*
X51099291Y-171230491D01*
X51214886Y-171084605D01*
X51331760Y-170919768D01*
X51452888Y-170731168D01*
X51581244Y-170513992D01*
X51719803Y-170263430D01*
X51871540Y-169974667D01*
X52017110Y-169687574D01*
X52185102Y-169360314D01*
X52339766Y-169077793D01*
X52483703Y-168836512D01*
X52619516Y-168632973D01*
X52749808Y-168463677D01*
X52877180Y-168325127D01*
X53004235Y-168213822D01*
X53133575Y-168126266D01*
X53208336Y-168086126D01*
X53282972Y-168052084D01*
X53349054Y-168030732D01*
X53422617Y-168019187D01*
X53519700Y-168014565D01*
X53610034Y-168013905D01*
X53730712Y-168015135D01*
X53817393Y-168021080D01*
X53886863Y-168035110D01*
X53955907Y-168060596D01*
X54039973Y-168100251D01*
X54152629Y-168163328D01*
X54260763Y-168240995D01*
X54367096Y-168336964D01*
X54474348Y-168454948D01*
X54585239Y-168598660D01*
X54702492Y-168771812D01*
X54828825Y-168978118D01*
X54966961Y-169221290D01*
X55119619Y-169505041D01*
X55242425Y-169741164D01*
X55379428Y-170006419D01*
X55497238Y-170231479D01*
X55599052Y-170421750D01*
X55688067Y-170582639D01*
X55767480Y-170719550D01*
X55840487Y-170837890D01*
X55910286Y-170943064D01*
X55980073Y-171040477D01*
X56053045Y-171135536D01*
X56106125Y-171201600D01*
X56325958Y-171439447D01*
X56564018Y-171637915D01*
X56815837Y-171794382D01*
X57076944Y-171906229D01*
X57342871Y-171970835D01*
X57437003Y-171981864D01*
X57610000Y-171996367D01*
X57610000Y-171208675D01*
X57476874Y-171192909D01*
X57301635Y-171148945D01*
X57122375Y-171060563D01*
X56947836Y-170932517D01*
X56876603Y-170866633D01*
X56775675Y-170761205D01*
X56679350Y-170647652D01*
X56584182Y-170520511D01*
X56486725Y-170374322D01*
X56383535Y-170203619D01*
X56271164Y-170002942D01*
X56146168Y-169766828D01*
X56005100Y-169489813D01*
X55993327Y-169466340D01*
X55818951Y-169124546D01*
X55659604Y-168826140D01*
X55512462Y-168566949D01*
X55374704Y-168342801D01*
X55243506Y-168149523D01*
X55116046Y-167982944D01*
X54989500Y-167838891D01*
X54861047Y-167713191D01*
X54736198Y-167608164D01*
X54489701Y-167440243D01*
X54238387Y-167320520D01*
X53975043Y-167246447D01*
X53692454Y-167215478D01*
X53619913Y-167214175D01*
X53336386Y-167234629D01*
X53067728Y-167297698D01*
X52812200Y-167404592D01*
X52568061Y-167556521D01*
X52333572Y-167754696D01*
X52106993Y-168000327D01*
X51886583Y-168294625D01*
X51740111Y-168521900D01*
X51701376Y-168589072D01*
X51643502Y-168694330D01*
X51570326Y-168830455D01*
X51485689Y-168990226D01*
X51393428Y-169166424D01*
X51297384Y-169351829D01*
X51257205Y-169430000D01*
X51157290Y-169622515D01*
X51056020Y-169813396D01*
X50957922Y-169994415D01*
X50867522Y-170157343D01*
X50789348Y-170293953D01*
X50727926Y-170396017D01*
X50712439Y-170420203D01*
X50528050Y-170674063D01*
X50340160Y-170878321D01*
X50149124Y-171032693D01*
X49955297Y-171136898D01*
X49759033Y-171190655D01*
X49739425Y-171193228D01*
X49609000Y-171208675D01*
X49609000Y-171989000D01*
X18113000Y-171989000D01*
X18113000Y-171315425D01*
X24336353Y-171315425D01*
X24608793Y-171588712D01*
X24704102Y-171683491D01*
X24786634Y-171764004D01*
X24849880Y-171824022D01*
X24887330Y-171857315D01*
X24894432Y-171862000D01*
X24913830Y-171844420D01*
X24966725Y-171793268D01*
X25050722Y-171710920D01*
X25163426Y-171599754D01*
X25302444Y-171462148D01*
X25465379Y-171300479D01*
X25649839Y-171117126D01*
X25853427Y-170914465D01*
X26073750Y-170694875D01*
X26308414Y-170460733D01*
X26555023Y-170214417D01*
X26749000Y-170020500D01*
X27003295Y-169766428D01*
X27247680Y-169522732D01*
X27479741Y-169291791D01*
X27697065Y-169075987D01*
X27897239Y-168877698D01*
X28077849Y-168699306D01*
X28236484Y-168543191D01*
X28370730Y-168411733D01*
X28478174Y-168307312D01*
X28556403Y-168232309D01*
X28603004Y-168189104D01*
X28615769Y-168179000D01*
X28636860Y-168196591D01*
X28691410Y-168247781D01*
X28777009Y-168330193D01*
X28891249Y-168441452D01*
X29031720Y-168579181D01*
X29196014Y-168741004D01*
X29381721Y-168924545D01*
X29586433Y-169127428D01*
X29807741Y-169347277D01*
X30043236Y-169581716D01*
X30290509Y-169828369D01*
X30488900Y-170026600D01*
X32336631Y-171874201D01*
X32896173Y-171316393D01*
X30895797Y-169315896D01*
X28895420Y-167315400D01*
X28336619Y-167315400D01*
X26336486Y-169315412D01*
X24336353Y-171315425D01*
X18113000Y-171315425D01*
X18113000Y-157526341D01*
X21623163Y-157526341D01*
X21639714Y-158086543D01*
X21701907Y-158646884D01*
X21810436Y-159204678D01*
X21965993Y-159757244D01*
X22169268Y-160301896D01*
X22407330Y-160809772D01*
X22699374Y-161319904D01*
X23030227Y-161799566D01*
X23397267Y-162247058D01*
X23797872Y-162660683D01*
X24229421Y-163038739D01*
X24689291Y-163379529D01*
X25174862Y-163681353D01*
X25683511Y-163942512D01*
X26212617Y-164161308D01*
X26759558Y-164336039D01*
X27321711Y-164465009D01*
X27896456Y-164546517D01*
X28209500Y-164570114D01*
X28352959Y-164576514D01*
X28491423Y-164580761D01*
X28610414Y-164582535D01*
X28695457Y-164581515D01*
X28704800Y-164581079D01*
X28790464Y-164576587D01*
X28908587Y-164570617D01*
X29040884Y-164564085D01*
X29124437Y-164560039D01*
X29596072Y-164515741D01*
X30082467Y-164428731D01*
X30575013Y-164301404D01*
X31065103Y-164136155D01*
X31544129Y-163935377D01*
X31777785Y-163821914D01*
X32296162Y-163529822D01*
X32784326Y-163197622D01*
X33240432Y-162827345D01*
X33662636Y-162421024D01*
X34049093Y-161980690D01*
X34397958Y-161508375D01*
X34707387Y-161006112D01*
X34975535Y-160475933D01*
X35116331Y-160144031D01*
X35303023Y-159602856D01*
X35443288Y-159045620D01*
X35537128Y-158476885D01*
X35584541Y-157901211D01*
X35585056Y-157599900D01*
X46145146Y-157599900D01*
X46147734Y-157903408D01*
X46156379Y-158168598D01*
X46172405Y-158407732D01*
X46197137Y-158633072D01*
X46231898Y-158856878D01*
X46278011Y-159091413D01*
X46331673Y-159327503D01*
X46497421Y-159915813D01*
X46707889Y-160482629D01*
X46960996Y-161026006D01*
X47254663Y-161543996D01*
X47586807Y-162034651D01*
X47955349Y-162496023D01*
X48358208Y-162926164D01*
X48793303Y-163323129D01*
X49258554Y-163684968D01*
X49751880Y-164009734D01*
X50271200Y-164295480D01*
X50814433Y-164540258D01*
X51379500Y-164742120D01*
X51964319Y-164899119D01*
X52369091Y-164978734D01*
X52560853Y-165009650D01*
X52730285Y-165033308D01*
X52888892Y-165050460D01*
X53048179Y-165061853D01*
X53219652Y-165068237D01*
X53414815Y-165070362D01*
X53645174Y-165068977D01*
X53736500Y-165067798D01*
X53981173Y-165063038D01*
X54185712Y-165055914D01*
X54360755Y-165045749D01*
X54516938Y-165031865D01*
X54664900Y-165013583D01*
X54724732Y-165004801D01*
X55329894Y-164887180D01*
X55917147Y-164722960D01*
X56484366Y-164513827D01*
X57029429Y-164261467D01*
X57550211Y-163967567D01*
X58044591Y-163633811D01*
X58510445Y-163261887D01*
X58945649Y-162853480D01*
X59348080Y-162410276D01*
X59715615Y-161933961D01*
X60046131Y-161426221D01*
X60337504Y-160888742D01*
X60572385Y-160361448D01*
X60766537Y-159818663D01*
X60914535Y-159270830D01*
X61017548Y-158711763D01*
X61076742Y-158135271D01*
X61093519Y-157599900D01*
X61072521Y-157002582D01*
X61008750Y-156428225D01*
X60901038Y-155870637D01*
X60748216Y-155323631D01*
X60572385Y-154838351D01*
X60319953Y-154275709D01*
X60026379Y-153740973D01*
X59693826Y-153235859D01*
X59324459Y-152762087D01*
X58920440Y-152321373D01*
X58483935Y-151915437D01*
X58017107Y-151545996D01*
X57522120Y-151214769D01*
X57001137Y-150923472D01*
X56456323Y-150673825D01*
X55889842Y-150467545D01*
X55303857Y-150306350D01*
X54724732Y-150195579D01*
X54502317Y-150168162D01*
X54245341Y-150146782D01*
X53968228Y-150131871D01*
X53685401Y-150123861D01*
X53411284Y-150123184D01*
X53160302Y-150130273D01*
X52972486Y-150143049D01*
X52392085Y-150216919D01*
X51839120Y-150328587D01*
X51304310Y-150480745D01*
X50778373Y-150676082D01*
X50252029Y-150917290D01*
X50184694Y-150951338D01*
X49657086Y-151249024D01*
X49158468Y-151587249D01*
X48690752Y-151963571D01*
X48255851Y-152375546D01*
X47855678Y-152820731D01*
X47492146Y-153296684D01*
X47167168Y-153800961D01*
X46882657Y-154331118D01*
X46640525Y-154884714D01*
X46442686Y-155459304D01*
X46331673Y-155872296D01*
X46273931Y-156127561D01*
X46228761Y-156360803D01*
X46194839Y-156584285D01*
X46170842Y-156810267D01*
X46155446Y-157051012D01*
X46147327Y-157318779D01*
X46145146Y-157599900D01*
X35585056Y-157599900D01*
X35585529Y-157323160D01*
X35540090Y-156747292D01*
X35448225Y-156178168D01*
X35309934Y-155620351D01*
X35125217Y-155078400D01*
X35116331Y-155055768D01*
X34875540Y-154513556D01*
X34592847Y-153998006D01*
X34270510Y-153511112D01*
X33910787Y-153054865D01*
X33515936Y-152631258D01*
X33088215Y-152242283D01*
X32629882Y-151889933D01*
X32143196Y-151576199D01*
X31630415Y-151303075D01*
X31093796Y-151072552D01*
X30535598Y-150886624D01*
X30327223Y-150830336D01*
X30114240Y-150777953D01*
X29925846Y-150736034D01*
X29751935Y-150703465D01*
X29582402Y-150679131D01*
X29407142Y-150661919D01*
X29216050Y-150650714D01*
X28999020Y-150644403D01*
X28745947Y-150641871D01*
X28615900Y-150641669D01*
X28370944Y-150642425D01*
X28169499Y-150644745D01*
X28004287Y-150648935D01*
X27868035Y-150655305D01*
X27753467Y-150664163D01*
X27653309Y-150675816D01*
X27592622Y-150685014D01*
X27001225Y-150804034D01*
X26440991Y-150961304D01*
X25907993Y-151158346D01*
X25398300Y-151396679D01*
X24907984Y-151677824D01*
X24732824Y-151791574D01*
X24255635Y-152140786D01*
X23815785Y-152522342D01*
X23413966Y-152933556D01*
X23050870Y-153371747D01*
X22727188Y-153834229D01*
X22443613Y-154318319D01*
X22200837Y-154821334D01*
X21999552Y-155340589D01*
X21840451Y-155873401D01*
X21724224Y-156417086D01*
X21651564Y-156968961D01*
X21623163Y-157526341D01*
X18113000Y-157526341D01*
X18113000Y-146589000D01*
X64112400Y-146589000D01*
G37*
G36*
X60327800Y-91063950D02*
G01*
X62118500Y-91077300D01*
X62118500Y-91407500D01*
X61223150Y-91414174D01*
X60327800Y-91420849D01*
X60327800Y-91801200D01*
X59997600Y-91801200D01*
X59997600Y-90683600D01*
X60327800Y-90683600D01*
X60327800Y-91063950D01*
G37*
G36*
X52631600Y-95357200D02*
G01*
X51945800Y-95357200D01*
X51945800Y-98456000D01*
X51336200Y-98456000D01*
X51336200Y-95357200D01*
X50650400Y-95357200D01*
X50650400Y-94747600D01*
X52631600Y-94747600D01*
X52631600Y-95357200D01*
G37*
G36*
X33754005Y-10902827D02*
G01*
X34009551Y-10904687D01*
X34221385Y-10907745D01*
X34387984Y-10911964D01*
X34507825Y-10917311D01*
X34579387Y-10923750D01*
X34599269Y-10928493D01*
X34641037Y-10974865D01*
X34643515Y-11034697D01*
X34620946Y-11071893D01*
X34586484Y-11082270D01*
X34506992Y-11088470D01*
X34380867Y-11090535D01*
X34206508Y-11088509D01*
X34100246Y-11085962D01*
X33607000Y-11072579D01*
X33607000Y-11820878D01*
X34000632Y-11813228D01*
X34152970Y-11810877D01*
X34262754Y-11811132D01*
X34338192Y-11814678D01*
X34387494Y-11822197D01*
X34418868Y-11834373D01*
X34438352Y-11849666D01*
X34467407Y-11893923D01*
X34454734Y-11937726D01*
X34438507Y-11954484D01*
X34409066Y-11966767D01*
X34358812Y-11975460D01*
X34280143Y-11981447D01*
X34165462Y-11985614D01*
X34017015Y-11988679D01*
X33607000Y-11995658D01*
X33607000Y-14132447D01*
X34095950Y-14124785D01*
X34249880Y-14123379D01*
X34387273Y-14124029D01*
X34499698Y-14126539D01*
X34578723Y-14130717D01*
X34615915Y-14136368D01*
X34616650Y-14136760D01*
X34643612Y-14176360D01*
X34648400Y-14204805D01*
X34646233Y-14231163D01*
X34636880Y-14253131D01*
X34616061Y-14271149D01*
X34579496Y-14285658D01*
X34522906Y-14297096D01*
X34442012Y-14305905D01*
X34332534Y-14312525D01*
X34190192Y-14317395D01*
X34010707Y-14320955D01*
X33789799Y-14323647D01*
X33523188Y-14325909D01*
X33466662Y-14326329D01*
X33238508Y-14327575D01*
X33026172Y-14327910D01*
X32835021Y-14327387D01*
X32670422Y-14326059D01*
X32537740Y-14323977D01*
X32442342Y-14321193D01*
X32389595Y-14317761D01*
X32380812Y-14315746D01*
X32377679Y-14287847D01*
X32374714Y-14213368D01*
X32371961Y-14096529D01*
X32369468Y-13941551D01*
X32367278Y-13752652D01*
X32365438Y-13534054D01*
X32363992Y-13289976D01*
X32362986Y-13024638D01*
X32362464Y-12742259D01*
X32362400Y-12599766D01*
X32362400Y-10902200D01*
X33456269Y-10902200D01*
X33754005Y-10902827D01*
G37*
G36*
X34218936Y-60869363D02*
G01*
X34564023Y-59759100D01*
X35097197Y-59744766D01*
X35661623Y-61555333D01*
X35752921Y-61848235D01*
X35839983Y-62127617D01*
X35921600Y-62389599D01*
X35996565Y-62630298D01*
X36063670Y-62845836D01*
X36121706Y-63032330D01*
X36169466Y-63185899D01*
X36205742Y-63302664D01*
X36229325Y-63378742D01*
X36239008Y-63410254D01*
X36239036Y-63410350D01*
X36240476Y-63428814D01*
X36226862Y-63441339D01*
X36190412Y-63449061D01*
X36123341Y-63453114D01*
X36017867Y-63454633D01*
X35934149Y-63454800D01*
X35616276Y-63454800D01*
X35499026Y-63080150D01*
X35457468Y-62947138D01*
X35420638Y-62828843D01*
X35391523Y-62734889D01*
X35373108Y-62674903D01*
X35368814Y-62660540D01*
X35361017Y-62645452D01*
X35343186Y-62634329D01*
X35308764Y-62626705D01*
X35251196Y-62622115D01*
X35163924Y-62620094D01*
X35040394Y-62620177D01*
X34874047Y-62621898D01*
X34831854Y-62622440D01*
X34307855Y-62629300D01*
X34053697Y-63454800D01*
X33408531Y-63454800D01*
X33494146Y-63181750D01*
X33534946Y-63052991D01*
X33576234Y-62924984D01*
X33612179Y-62815700D01*
X33630113Y-62762650D01*
X33680463Y-62616600D01*
X33503836Y-62616600D01*
X33518100Y-61994300D01*
X33695974Y-61986963D01*
X33826010Y-61981600D01*
X34515892Y-61981600D01*
X34837858Y-61981600D01*
X34970706Y-61981060D01*
X35060486Y-61978700D01*
X35114926Y-61973406D01*
X35141753Y-61964064D01*
X35148693Y-61949561D01*
X35146297Y-61937150D01*
X35114563Y-61833951D01*
X35075906Y-61709905D01*
X35033031Y-61573499D01*
X34988640Y-61433220D01*
X34945439Y-61297554D01*
X34906130Y-61174989D01*
X34873419Y-61074012D01*
X34850010Y-61003110D01*
X34838606Y-60970769D01*
X34838058Y-60969719D01*
X34828664Y-60989972D01*
X34807024Y-61049957D01*
X34775979Y-61140900D01*
X34738372Y-61254023D01*
X34697044Y-61380553D01*
X34654839Y-61511714D01*
X34614598Y-61638731D01*
X34579163Y-61752829D01*
X34551377Y-61845232D01*
X34534083Y-61907165D01*
X34532941Y-61911750D01*
X34515892Y-61981600D01*
X33826010Y-61981600D01*
X33873849Y-61979627D01*
X34218936Y-60869363D01*
G37*
G36*
X50032690Y-200888239D02*
G01*
X50095005Y-200889413D01*
X50110650Y-200890567D01*
X50136139Y-200920158D01*
X50140557Y-200973052D01*
X50123710Y-201026242D01*
X50111920Y-201041519D01*
X50068202Y-201057370D01*
X49975159Y-201067514D01*
X49833954Y-201071839D01*
X49794420Y-201072000D01*
X49507400Y-201072000D01*
X49507400Y-204323200D01*
X49016333Y-204323200D01*
X48863278Y-204322362D01*
X48727926Y-204320029D01*
X48618372Y-204316470D01*
X48542707Y-204311955D01*
X48509024Y-204306755D01*
X48508333Y-204306266D01*
X48505378Y-204278566D01*
X48502587Y-204204394D01*
X48500005Y-204088078D01*
X48497676Y-203933947D01*
X48495647Y-203746329D01*
X48493961Y-203529552D01*
X48492664Y-203287943D01*
X48491800Y-203025832D01*
X48491416Y-202747546D01*
X48491400Y-202677018D01*
X48491400Y-201064704D01*
X48231050Y-201079820D01*
X48115651Y-201087735D01*
X48014874Y-201096856D01*
X47942420Y-201105829D01*
X47917336Y-201110840D01*
X47852211Y-201106018D01*
X47822086Y-201084857D01*
X47786525Y-201040363D01*
X47788163Y-201000695D01*
X47816224Y-200956204D01*
X47826816Y-200944354D01*
X47842753Y-200934482D01*
X47868604Y-200926344D01*
X47908939Y-200919691D01*
X47968325Y-200914278D01*
X48051331Y-200909858D01*
X48162525Y-200906184D01*
X48306477Y-200903011D01*
X48487754Y-200900092D01*
X48710926Y-200897180D01*
X48965574Y-200894200D01*
X49199290Y-200891743D01*
X49417771Y-200889849D01*
X49615684Y-200888534D01*
X49787697Y-200887817D01*
X49928477Y-200887713D01*
X50032690Y-200888239D01*
G37*
G36*
X46907436Y-10914956D02*
G01*
X46916780Y-10958491D01*
X46907744Y-11003393D01*
X46876000Y-11054712D01*
X46817216Y-11117497D01*
X46727062Y-11196800D01*
X46601209Y-11297669D01*
X46535805Y-11348339D01*
X46420889Y-11437698D01*
X46321424Y-11516793D01*
X46243870Y-11580343D01*
X46194685Y-11623068D01*
X46180000Y-11639205D01*
X46189405Y-11667119D01*
X46216138Y-11736510D01*
X46257972Y-11841970D01*
X46312682Y-11978090D01*
X46378043Y-12139461D01*
X46451830Y-12320674D01*
X46531815Y-12516320D01*
X46615775Y-12720990D01*
X46701483Y-12929276D01*
X46786714Y-13135768D01*
X46869243Y-13335058D01*
X46946843Y-13521737D01*
X47017289Y-13690395D01*
X47078357Y-13835625D01*
X47127820Y-13952017D01*
X47163452Y-14034163D01*
X47182441Y-14075504D01*
X47225672Y-14167611D01*
X47242949Y-14229262D01*
X47235217Y-14273096D01*
X47203423Y-14311750D01*
X47200349Y-14314563D01*
X47141695Y-14351892D01*
X47088807Y-14343233D01*
X47046656Y-14308856D01*
X47011908Y-14257919D01*
X46974624Y-14179149D01*
X46954585Y-14124706D01*
X46935594Y-14072003D01*
X46900713Y-13980948D01*
X46852198Y-13857097D01*
X46792304Y-13706004D01*
X46723288Y-13533222D01*
X46647405Y-13344305D01*
X46566912Y-13144809D01*
X46484063Y-12940287D01*
X46401116Y-12736294D01*
X46320325Y-12538383D01*
X46243947Y-12352108D01*
X46174237Y-12183025D01*
X46113452Y-12036687D01*
X46063847Y-11918649D01*
X46027679Y-11834464D01*
X46007202Y-11789686D01*
X46003918Y-11784061D01*
X45977785Y-11790780D01*
X45920164Y-11823645D01*
X45839480Y-11877371D01*
X45744152Y-11946673D01*
X45740857Y-11949161D01*
X45496330Y-12134100D01*
X45494200Y-14331200D01*
X44275000Y-14331200D01*
X44275000Y-10902200D01*
X45493126Y-10902200D01*
X45500013Y-11396081D01*
X45506900Y-11889963D01*
X45989500Y-11525437D01*
X46136290Y-11413411D01*
X46278948Y-11302439D01*
X46409234Y-11199088D01*
X46518910Y-11109924D01*
X46599739Y-11041515D01*
X46624500Y-11019257D01*
X46730108Y-10931671D01*
X46813784Y-10884949D01*
X46873720Y-10879757D01*
X46907436Y-10914956D01*
G37*
G36*
X37910619Y-10893439D02*
G01*
X37947341Y-10941264D01*
X37942713Y-11017135D01*
X37935284Y-11039036D01*
X37910911Y-11066761D01*
X37852761Y-11119078D01*
X37767748Y-11190175D01*
X37662791Y-11274238D01*
X37566984Y-11348547D01*
X37452318Y-11437410D01*
X37353196Y-11516452D01*
X37276138Y-11580291D01*
X37227662Y-11623546D01*
X37213800Y-11640078D01*
X37223216Y-11668941D01*
X37249973Y-11739236D01*
X37291833Y-11845517D01*
X37346558Y-11982341D01*
X37411910Y-12144263D01*
X37485652Y-12325839D01*
X37565545Y-12521623D01*
X37649351Y-12726173D01*
X37734834Y-12934043D01*
X37819754Y-13139788D01*
X37901875Y-13337966D01*
X37978958Y-13523130D01*
X38048765Y-13689838D01*
X38109059Y-13832643D01*
X38157601Y-13946103D01*
X38192154Y-14024773D01*
X38207420Y-14057425D01*
X38253458Y-14154199D01*
X38274892Y-14219062D01*
X38272950Y-14263844D01*
X38248862Y-14300376D01*
X38234149Y-14314563D01*
X38179153Y-14351532D01*
X38129365Y-14346498D01*
X38094083Y-14324553D01*
X38066534Y-14287523D01*
X38029058Y-14214831D01*
X37987781Y-14119012D01*
X37966846Y-14064203D01*
X37938304Y-13988751D01*
X37895167Y-13878260D01*
X37839716Y-13738326D01*
X37774235Y-13574541D01*
X37701003Y-13392499D01*
X37622303Y-13197795D01*
X37540415Y-12996021D01*
X37457622Y-12792772D01*
X37376205Y-12593641D01*
X37298445Y-12404223D01*
X37226625Y-12230110D01*
X37163024Y-12076897D01*
X37109926Y-11950177D01*
X37069611Y-11855544D01*
X37044361Y-11798592D01*
X37036907Y-11784181D01*
X37011174Y-11790921D01*
X36953861Y-11823748D01*
X36873352Y-11877388D01*
X36778030Y-11946567D01*
X36774428Y-11949281D01*
X36529433Y-12134100D01*
X36522366Y-13226300D01*
X36515300Y-14318500D01*
X35296100Y-14318500D01*
X35296100Y-10914900D01*
X35911511Y-10908099D01*
X36526923Y-10901299D01*
X36533811Y-11396094D01*
X36540700Y-11890889D01*
X36997865Y-11546063D01*
X37143209Y-11434926D01*
X37286341Y-11322753D01*
X37418178Y-11216864D01*
X37529640Y-11124578D01*
X37611647Y-11053213D01*
X37626992Y-11039018D01*
X37706032Y-10967874D01*
X37774337Y-10912600D01*
X37821759Y-10881129D01*
X37834498Y-10876800D01*
X37910619Y-10893439D01*
G37*
G36*
X59333601Y-28667805D02*
G01*
X59414015Y-28677709D01*
X59686588Y-28741013D01*
X59938996Y-28849198D01*
X60167434Y-28999047D01*
X60368093Y-29187347D01*
X60537168Y-29410884D01*
X60670853Y-29666442D01*
X60712683Y-29774400D01*
X60739276Y-29859029D01*
X60756457Y-29941563D01*
X60766047Y-30036889D01*
X60769865Y-30159892D01*
X60770167Y-30244300D01*
X60768346Y-30385689D01*
X60762094Y-30492380D01*
X60749202Y-30580425D01*
X60727463Y-30665876D01*
X60701087Y-30746420D01*
X60675907Y-30817255D01*
X60651073Y-30880318D01*
X60623126Y-30940691D01*
X60588610Y-31003457D01*
X60544066Y-31073698D01*
X60486036Y-31156498D01*
X60411062Y-31256939D01*
X60315685Y-31380104D01*
X60196448Y-31531075D01*
X60049892Y-31714935D01*
X59997736Y-31780201D01*
X59489501Y-32416000D01*
X60658000Y-32416000D01*
X60658000Y-33152600D01*
X59320563Y-33152600D01*
X59025893Y-33152531D01*
X58778124Y-33152237D01*
X58573353Y-33151583D01*
X58407683Y-33150437D01*
X58277211Y-33148665D01*
X58178038Y-33146133D01*
X58106265Y-33142708D01*
X58057990Y-33138256D01*
X58029313Y-33132645D01*
X58016335Y-33125740D01*
X58015154Y-33117409D01*
X58021324Y-33108150D01*
X58063532Y-33057210D01*
X58131274Y-32973171D01*
X58221227Y-32860292D01*
X58330070Y-32722831D01*
X58454482Y-32565045D01*
X58591139Y-32391193D01*
X58736721Y-32205532D01*
X58887905Y-32012322D01*
X59041369Y-31815820D01*
X59193791Y-31620284D01*
X59341850Y-31429973D01*
X59482223Y-31249144D01*
X59611589Y-31082056D01*
X59726626Y-30932966D01*
X59824011Y-30806134D01*
X59900423Y-30705816D01*
X59952540Y-30636271D01*
X59977040Y-30601758D01*
X59978110Y-30599900D01*
X60041425Y-30423097D01*
X60059983Y-30235457D01*
X60035472Y-30046725D01*
X59969580Y-29866648D01*
X59863991Y-29704974D01*
X59813797Y-29650377D01*
X59651298Y-29522124D01*
X59473015Y-29441137D01*
X59283108Y-29407961D01*
X59085734Y-29423139D01*
X58885052Y-29487217D01*
X58817290Y-29519984D01*
X58681169Y-29591587D01*
X58496771Y-29286382D01*
X58312373Y-28981176D01*
X58373936Y-28933752D01*
X58460001Y-28881355D01*
X58581937Y-28825448D01*
X58725599Y-28771410D01*
X58876842Y-28724620D01*
X59005464Y-28693612D01*
X59130842Y-28671426D01*
X59232075Y-28663141D01*
X59333601Y-28667805D01*
G37*
G36*
X60071996Y-54808811D02*
G01*
X60170017Y-54652025D01*
X60221088Y-54593225D01*
X60376932Y-54461021D01*
X60549287Y-54373296D01*
X60731194Y-54329475D01*
X60915695Y-54328985D01*
X61095830Y-54371251D01*
X61264641Y-54455699D01*
X61415168Y-54581754D01*
X61509393Y-54699546D01*
X61593213Y-54824011D01*
X61632302Y-54764255D01*
X61710197Y-54608420D01*
X61759490Y-54429860D01*
X61763366Y-54406050D01*
X61781368Y-54285400D01*
X61942084Y-54285400D01*
X62027055Y-54288182D01*
X62089308Y-54295438D01*
X62113717Y-54304450D01*
X62116567Y-54337936D01*
X62113060Y-54406024D01*
X62105411Y-54481179D01*
X62082606Y-54594558D01*
X62038244Y-54724850D01*
X61968946Y-54880983D01*
X61908486Y-55001411D01*
X61925277Y-55013566D01*
X61978242Y-55023851D01*
X62008946Y-55026811D01*
X62118500Y-55034700D01*
X62118500Y-55364900D01*
X61058050Y-55371528D01*
X59997600Y-55378157D01*
X59997600Y-55188331D01*
X60012329Y-55022000D01*
X60352167Y-55022000D01*
X60809883Y-55022000D01*
X60981756Y-55021147D01*
X61108084Y-55018347D01*
X61194102Y-55013237D01*
X61245040Y-55005454D01*
X61266131Y-54994634D01*
X61267432Y-54990250D01*
X61249805Y-54936991D01*
X61205463Y-54868326D01*
X61146583Y-54801526D01*
X61114645Y-54773557D01*
X60986664Y-54702940D01*
X60847811Y-54674919D01*
X60708505Y-54687343D01*
X60579167Y-54738057D01*
X60470216Y-54824908D01*
X60403985Y-54920428D01*
X60352167Y-55022000D01*
X60012329Y-55022000D01*
X60015640Y-54984606D01*
X60071996Y-54808811D01*
G37*
G36*
X54333400Y-60356000D02*
G01*
X53012600Y-60356000D01*
X53012600Y-60559200D01*
X54358800Y-60559200D01*
X54358800Y-61168800D01*
X53004752Y-61168800D01*
X53020393Y-61492650D01*
X53044631Y-61748229D01*
X53092894Y-61965559D01*
X53168697Y-62152869D01*
X53275558Y-62318386D01*
X53416995Y-62470339D01*
X53451580Y-62501438D01*
X53595249Y-62606985D01*
X53765605Y-62700322D01*
X53947461Y-62775220D01*
X54125628Y-62825452D01*
X54284919Y-62844788D01*
X54288950Y-62844824D01*
X54358800Y-62845200D01*
X54358800Y-63454800D01*
X54187350Y-63452930D01*
X54067295Y-63445007D01*
X53932556Y-63426408D01*
X53838100Y-63407116D01*
X53551379Y-63310540D01*
X53285295Y-63169279D01*
X53045506Y-62987187D01*
X52837671Y-62768122D01*
X52771159Y-62680100D01*
X52651448Y-62494847D01*
X52560026Y-62312245D01*
X52493341Y-62120838D01*
X52447845Y-61909173D01*
X52419988Y-61665794D01*
X52411071Y-61518050D01*
X52395097Y-61168800D01*
X52199800Y-61168800D01*
X52199800Y-60559200D01*
X52403000Y-60559200D01*
X52403000Y-59746400D01*
X54333400Y-59746400D01*
X54333400Y-60356000D01*
G37*
G36*
X31498800Y-107370141D02*
G01*
X31086050Y-107377120D01*
X30673300Y-107384100D01*
X30665262Y-107453950D01*
X30657225Y-107523800D01*
X31524200Y-107523800D01*
X31524200Y-107954371D01*
X31098750Y-107961335D01*
X30673300Y-107968300D01*
X30659896Y-109606600D01*
X30228800Y-109606600D01*
X30228800Y-107955600D01*
X30051000Y-107955600D01*
X30051000Y-107523800D01*
X30228800Y-107523800D01*
X30228800Y-106939600D01*
X31498800Y-106939600D01*
X31498800Y-107370141D01*
G37*
G36*
X42377040Y-61173089D02*
G01*
X42378125Y-61168800D01*
X42476110Y-60886319D01*
X42618069Y-60623441D01*
X42799317Y-60385178D01*
X43015168Y-60176537D01*
X43260937Y-60002531D01*
X43531940Y-59868168D01*
X43627300Y-59832979D01*
X43841622Y-59779485D01*
X44079798Y-59752121D01*
X44321466Y-59752007D01*
X44546262Y-59780265D01*
X44554400Y-59781955D01*
X44801275Y-59856613D01*
X45047759Y-59972653D01*
X45281391Y-60122138D01*
X45489712Y-60297133D01*
X45655449Y-60483258D01*
X45822190Y-60741227D01*
X45939933Y-61008086D01*
X46010317Y-61288662D01*
X46034983Y-61587779D01*
X46035043Y-61600600D01*
X46011097Y-61900773D01*
X45940385Y-62187652D01*
X45826172Y-62456761D01*
X45671720Y-62703623D01*
X45480293Y-62923764D01*
X45255155Y-63112705D01*
X44999568Y-63265973D01*
X44744900Y-63370139D01*
X44635527Y-63402304D01*
X44531144Y-63423526D01*
X44414209Y-63436363D01*
X44267178Y-63443372D01*
X44236900Y-63444193D01*
X44113089Y-63446212D01*
X44004317Y-63446007D01*
X43922691Y-63443729D01*
X43881300Y-63439778D01*
X43658597Y-63379951D01*
X43470587Y-63312222D01*
X43301175Y-63229859D01*
X43138910Y-63129292D01*
X42934683Y-62963112D01*
X42748639Y-62758127D01*
X42588315Y-62525208D01*
X42461246Y-62275223D01*
X42378345Y-62032400D01*
X42351443Y-61880788D01*
X42337856Y-61699601D01*
X42337590Y-61508289D01*
X42338909Y-61489907D01*
X42939436Y-61489907D01*
X42940819Y-61722837D01*
X42952223Y-61802596D01*
X43018062Y-62037258D01*
X43125487Y-62253277D01*
X43269085Y-62444577D01*
X43443442Y-62605083D01*
X43643144Y-62728717D01*
X43845301Y-62804861D01*
X43988614Y-62830834D01*
X44154544Y-62841602D01*
X44320979Y-62836968D01*
X44465806Y-62816735D01*
X44490900Y-62810621D01*
X44718598Y-62724272D01*
X44924842Y-62595912D01*
X45104013Y-62431728D01*
X45250490Y-62237901D01*
X45358655Y-62020618D01*
X45422887Y-61786061D01*
X45423106Y-61784750D01*
X45437562Y-61551394D01*
X45405647Y-61324890D01*
X45331758Y-61110317D01*
X45220294Y-60912754D01*
X45075653Y-60737281D01*
X44902232Y-60588977D01*
X44704428Y-60472922D01*
X44486641Y-60394196D01*
X44253268Y-60357877D01*
X44186100Y-60356000D01*
X43948242Y-60379616D01*
X43725195Y-60447095D01*
X43521270Y-60553380D01*
X43340780Y-60693413D01*
X43188039Y-60862139D01*
X43067359Y-61054501D01*
X42983054Y-61265443D01*
X42939436Y-61489907D01*
X42338909Y-61489907D01*
X42350650Y-61326302D01*
X42377040Y-61173089D01*
G37*
G36*
X26158450Y-140881622D02*
G01*
X26403876Y-140902480D01*
X26616114Y-140940307D01*
X26810940Y-140998547D01*
X26945850Y-141053504D01*
X27104600Y-141124814D01*
X27104600Y-140874000D01*
X27714200Y-140874000D01*
X27714200Y-144609412D01*
X27117300Y-144595100D01*
X27104160Y-141867936D01*
X27012416Y-141792313D01*
X26929689Y-141733720D01*
X26822063Y-141670271D01*
X26707075Y-141611128D01*
X26602256Y-141565452D01*
X26539450Y-141545208D01*
X26469600Y-141528892D01*
X26469600Y-144607800D01*
X26181733Y-144607800D01*
X26065528Y-144606387D01*
X25968641Y-144602552D01*
X25901978Y-144596902D01*
X25876933Y-144590866D01*
X25874173Y-144563320D01*
X25871553Y-144489003D01*
X25869109Y-144371945D01*
X25866878Y-144216174D01*
X25864896Y-144025721D01*
X25863200Y-143804614D01*
X25861826Y-143556882D01*
X25860810Y-143286554D01*
X25860190Y-142997661D01*
X25860000Y-142720229D01*
X25860000Y-140866525D01*
X26158450Y-140881622D01*
G37*
G36*
X60060877Y-70084680D02*
G01*
X60082867Y-70038882D01*
X60198458Y-69861635D01*
X60341291Y-69727258D01*
X60511251Y-69635826D01*
X60708223Y-69587413D01*
X60789705Y-69580332D01*
X60900566Y-69577841D01*
X60982950Y-69585540D01*
X61058763Y-69607138D01*
X61132605Y-69638374D01*
X61253831Y-69707319D01*
X61371963Y-69797965D01*
X61471911Y-69897230D01*
X61536989Y-69988950D01*
X61569216Y-70037918D01*
X61595829Y-70058791D01*
X61596186Y-70058800D01*
X61623347Y-70036232D01*
X61657898Y-69976650D01*
X61694561Y-69892236D01*
X61728061Y-69795172D01*
X61753120Y-69697638D01*
X61753554Y-69695495D01*
X61782613Y-69550800D01*
X62130228Y-69550800D01*
X62115727Y-69671450D01*
X62083377Y-69842555D01*
X62031324Y-70004297D01*
X61966101Y-70136547D01*
X61963397Y-70140805D01*
X61926213Y-70204181D01*
X61904718Y-70251376D01*
X61902600Y-70261455D01*
X61925301Y-70276927D01*
X61982737Y-70286209D01*
X62016900Y-70287400D01*
X62131200Y-70287400D01*
X62131200Y-70617600D01*
X59991386Y-70617600D01*
X60002693Y-70395350D01*
X60012839Y-70266636D01*
X60020116Y-70227264D01*
X60376092Y-70227264D01*
X60382612Y-70253947D01*
X60415085Y-70271275D01*
X60478961Y-70281266D01*
X60579691Y-70285941D01*
X60722725Y-70287317D01*
X60823100Y-70287400D01*
X60983099Y-70287131D01*
X61099286Y-70285803D01*
X61178648Y-70282630D01*
X61228173Y-70276828D01*
X61254847Y-70267613D01*
X61265658Y-70254199D01*
X61267600Y-70237483D01*
X61249093Y-70183975D01*
X61201771Y-70115075D01*
X61137933Y-70045230D01*
X61069878Y-69988884D01*
X61041579Y-69971997D01*
X60904611Y-69928160D01*
X60761921Y-69926146D01*
X60625367Y-69962799D01*
X60506809Y-70034960D01*
X60419111Y-70137757D01*
X60390075Y-70189207D01*
X60376092Y-70227264D01*
X60020116Y-70227264D01*
X60030799Y-70169460D01*
X60060877Y-70084680D01*
G37*
G36*
X36653275Y-79917949D02*
G01*
X36749922Y-79452815D01*
X36833728Y-79170635D01*
X37005119Y-78732075D01*
X37217531Y-78320654D01*
X37467956Y-77938170D01*
X37753387Y-77586423D01*
X38070817Y-77267210D01*
X38417238Y-76982332D01*
X38789642Y-76733585D01*
X39185022Y-76522770D01*
X39600369Y-76351685D01*
X40032678Y-76222129D01*
X40478939Y-76135901D01*
X40936146Y-76094798D01*
X41401291Y-76100621D01*
X41871366Y-76155168D01*
X41874700Y-76155731D01*
X42336972Y-76259009D01*
X42779160Y-76407554D01*
X43198864Y-76599010D01*
X43593686Y-76831022D01*
X43961227Y-77101236D01*
X44299090Y-77407297D01*
X44604876Y-77746850D01*
X44876186Y-78117540D01*
X45110623Y-78517011D01*
X45305788Y-78942910D01*
X45459282Y-79392880D01*
X45549566Y-79764141D01*
X45570018Y-79872409D01*
X45585164Y-79972638D01*
X45595759Y-80075657D01*
X45602559Y-80192291D01*
X45606321Y-80333366D01*
X45607801Y-80509709D01*
X45607924Y-80599800D01*
X45607198Y-80794787D01*
X45604518Y-80949815D01*
X45599127Y-81075710D01*
X45590269Y-81183299D01*
X45577188Y-81283408D01*
X45559128Y-81386864D01*
X45549566Y-81435458D01*
X45430422Y-81904048D01*
X45267577Y-82350367D01*
X45063339Y-82772037D01*
X44820012Y-83166680D01*
X44539903Y-83531920D01*
X44225319Y-83865380D01*
X43878567Y-84164681D01*
X43501952Y-84427447D01*
X43097781Y-84651300D01*
X42668361Y-84833864D01*
X42215998Y-84972760D01*
X42088602Y-85002826D01*
X41661503Y-85078549D01*
X41247170Y-85112506D01*
X40830816Y-85105606D01*
X40655500Y-85091120D01*
X40194349Y-85019479D01*
X39744850Y-84899967D01*
X39310799Y-84734900D01*
X38895989Y-84526595D01*
X38504217Y-84277368D01*
X38139277Y-83989538D01*
X37804964Y-83665420D01*
X37505075Y-83307331D01*
X37334396Y-83063600D01*
X37094682Y-82649764D01*
X36901712Y-82218431D01*
X36755922Y-81772991D01*
X36657747Y-81316834D01*
X36607624Y-80853348D01*
X36607335Y-80770815D01*
X36631149Y-80770815D01*
X36672516Y-81227688D01*
X36761337Y-81681989D01*
X36898206Y-82130277D01*
X37061928Y-82523573D01*
X37284857Y-82937800D01*
X37547680Y-83322240D01*
X37847723Y-83674831D01*
X38182314Y-83993512D01*
X38548779Y-84276221D01*
X38944445Y-84520898D01*
X39366639Y-84725481D01*
X39812689Y-84887908D01*
X40279921Y-85006119D01*
X40281582Y-85006451D01*
X40445690Y-85033612D01*
X40650618Y-85058308D01*
X40886401Y-85079453D01*
X41061900Y-85091408D01*
X41106002Y-85090673D01*
X41189012Y-85086447D01*
X41299211Y-85079413D01*
X41424877Y-85070259D01*
X41430200Y-85069847D01*
X41833456Y-85023678D01*
X42208489Y-84947850D01*
X42571041Y-84838153D01*
X42936854Y-84690375D01*
X43055800Y-84635014D01*
X43469166Y-84409663D01*
X43853370Y-84144909D01*
X44205839Y-83843843D01*
X44524003Y-83509558D01*
X44805290Y-83145147D01*
X45047129Y-82753701D01*
X45246948Y-82338314D01*
X45402177Y-81902077D01*
X45439510Y-81768200D01*
X45488670Y-81573053D01*
X45525390Y-81406227D01*
X45551397Y-81253663D01*
X45568417Y-81101301D01*
X45578177Y-80935084D01*
X45582404Y-80740950D01*
X45583003Y-80599800D01*
X45581311Y-80380293D01*
X45575110Y-80197557D01*
X45562706Y-80037643D01*
X45542408Y-79886598D01*
X45512526Y-79730473D01*
X45471366Y-79555318D01*
X45442860Y-79444100D01*
X45301603Y-79002098D01*
X45115843Y-78581017D01*
X44888526Y-78183636D01*
X44622599Y-77812734D01*
X44321009Y-77471092D01*
X43986703Y-77161490D01*
X43622629Y-76886707D01*
X43231732Y-76649524D01*
X42816960Y-76452719D01*
X42381259Y-76299074D01*
X42011726Y-76207500D01*
X41544242Y-76138371D01*
X41076758Y-76118550D01*
X40612983Y-76146919D01*
X40156622Y-76222360D01*
X39711384Y-76343756D01*
X39280975Y-76509988D01*
X38869102Y-76719939D01*
X38479472Y-76972491D01*
X38115792Y-77266526D01*
X37937536Y-77436080D01*
X37620580Y-77789676D01*
X37346342Y-78168224D01*
X37115414Y-78568281D01*
X36928388Y-78986409D01*
X36785857Y-79419167D01*
X36688412Y-79863114D01*
X36636645Y-80314810D01*
X36631149Y-80770815D01*
X36607335Y-80770815D01*
X36605988Y-80385923D01*
X36653275Y-79917949D01*
G37*
G36*
X29257250Y-10902221D02*
G01*
X29453497Y-10903308D01*
X29650100Y-10906349D01*
X29835962Y-10911029D01*
X29999986Y-10917032D01*
X30131076Y-10924044D01*
X30190120Y-10928682D01*
X30506201Y-10978708D01*
X30790446Y-11065303D01*
X31041337Y-11187544D01*
X31257356Y-11344508D01*
X31436982Y-11535271D01*
X31578699Y-11758912D01*
X31588502Y-11778500D01*
X31694630Y-12048682D01*
X31755097Y-12329055D01*
X31770373Y-12612945D01*
X31740930Y-12893678D01*
X31667237Y-13164580D01*
X31549765Y-13418980D01*
X31463278Y-13554212D01*
X31278341Y-13770290D01*
X31057368Y-13953202D01*
X30804941Y-14100289D01*
X30525642Y-14208894D01*
X30224052Y-14276361D01*
X30216100Y-14277522D01*
X30141056Y-14285402D01*
X30030597Y-14293122D01*
X29892236Y-14300493D01*
X29733482Y-14307327D01*
X29561846Y-14313437D01*
X29384839Y-14318635D01*
X29209973Y-14322732D01*
X29044757Y-14325541D01*
X28896702Y-14326875D01*
X28773321Y-14326544D01*
X28682122Y-14324362D01*
X28630618Y-14320141D01*
X28622250Y-14317388D01*
X28619007Y-14289204D01*
X28615939Y-14214446D01*
X28613965Y-14133287D01*
X29847800Y-14133287D01*
X30057350Y-14114816D01*
X30178563Y-14101056D01*
X30301202Y-14082150D01*
X30400235Y-14061997D01*
X30406600Y-14060393D01*
X30615448Y-13988844D01*
X30820946Y-13885838D01*
X31010001Y-13759675D01*
X31169522Y-13618653D01*
X31248184Y-13526954D01*
X31391836Y-13301653D01*
X31489453Y-13066426D01*
X31543706Y-12813087D01*
X31557724Y-12578600D01*
X31536405Y-12290720D01*
X31472194Y-12029652D01*
X31364711Y-11794394D01*
X31213578Y-11583950D01*
X31156246Y-11522003D01*
X30999846Y-11385777D01*
X30823098Y-11278090D01*
X30619636Y-11196530D01*
X30383092Y-11138684D01*
X30107099Y-11102141D01*
X30031950Y-11096106D01*
X29847800Y-11082955D01*
X29847800Y-14133287D01*
X28613965Y-14133287D01*
X28613091Y-14097338D01*
X28610512Y-13942107D01*
X28608246Y-13752977D01*
X28606342Y-13534175D01*
X28604846Y-13289925D01*
X28603805Y-13024453D01*
X28603266Y-12741985D01*
X28603200Y-12599766D01*
X28603200Y-10902200D01*
X29257250Y-10902221D01*
G37*
G36*
X52276000Y-26193000D02*
G01*
X51539400Y-26193000D01*
X51539400Y-24681700D01*
X51539069Y-24409846D01*
X51538117Y-24153690D01*
X51536603Y-23917639D01*
X51534585Y-23706103D01*
X51532124Y-23523490D01*
X51529276Y-23374208D01*
X51526103Y-23262666D01*
X51522663Y-23193272D01*
X51519154Y-23170400D01*
X51491625Y-23187206D01*
X51441962Y-23230534D01*
X51399700Y-23272000D01*
X51340699Y-23327518D01*
X51293282Y-23363439D01*
X51273895Y-23371308D01*
X51248075Y-23352482D01*
X51195745Y-23302448D01*
X51123851Y-23228225D01*
X51039339Y-23136831D01*
X51014188Y-23108926D01*
X50781077Y-22848837D01*
X51455761Y-22228568D01*
X51614121Y-22083197D01*
X51763326Y-21946640D01*
X51898598Y-21823240D01*
X52015158Y-21717340D01*
X52108227Y-21633283D01*
X52173027Y-21575411D01*
X52203222Y-21549309D01*
X52276000Y-21490318D01*
X52276000Y-26193000D01*
G37*
G36*
X34900157Y-107913013D02*
G01*
X34992320Y-107677437D01*
X35008002Y-107647135D01*
X35135906Y-107456600D01*
X35303108Y-107283855D01*
X35498844Y-107138063D01*
X35712350Y-107028389D01*
X35753300Y-107012658D01*
X35923491Y-106970146D01*
X36118702Y-106952454D01*
X36319756Y-106959353D01*
X36507479Y-106990614D01*
X36610813Y-107022926D01*
X36786553Y-107103256D01*
X36937227Y-107200997D01*
X37080903Y-107328690D01*
X37139525Y-107389949D01*
X37298662Y-107592841D01*
X37409307Y-107806236D01*
X37473468Y-108035153D01*
X37493200Y-108273100D01*
X37468795Y-108526872D01*
X37397702Y-108767100D01*
X37283105Y-108987813D01*
X37128185Y-109183041D01*
X36936127Y-109346811D01*
X36912139Y-109363134D01*
X36693450Y-109482160D01*
X36461393Y-109560413D01*
X36225329Y-109595965D01*
X35994616Y-109586892D01*
X35905700Y-109570282D01*
X35659798Y-109489283D01*
X35441813Y-109370444D01*
X35254157Y-109218931D01*
X35099240Y-109039911D01*
X34979475Y-108838550D01*
X34897273Y-108620014D01*
X34855044Y-108389468D01*
X34855063Y-108360887D01*
X35288317Y-108360887D01*
X35325756Y-108545943D01*
X35401746Y-108719154D01*
X35515277Y-108873237D01*
X35665336Y-109000908D01*
X35738366Y-109044560D01*
X35939787Y-109127829D01*
X36138603Y-109160668D01*
X36337443Y-109143174D01*
X36538939Y-109075447D01*
X36540700Y-109074643D01*
X36713196Y-108969954D01*
X36860756Y-108829181D01*
X36971914Y-108663556D01*
X36982804Y-108641400D01*
X37015307Y-108565064D01*
X37035105Y-108493596D01*
X37045129Y-108409969D01*
X37048309Y-108297158D01*
X37048375Y-108260400D01*
X37041885Y-108104946D01*
X37018664Y-107980802D01*
X36972375Y-107869551D01*
X36896677Y-107752776D01*
X36854744Y-107697849D01*
X36730040Y-107576335D01*
X36573057Y-107479640D01*
X36397503Y-107412994D01*
X36217083Y-107381625D01*
X36048442Y-107390209D01*
X35836909Y-107451724D01*
X35655231Y-107552997D01*
X35544320Y-107647889D01*
X35417432Y-107807488D01*
X35333143Y-107984376D01*
X35290442Y-108171270D01*
X35288317Y-108360887D01*
X34855063Y-108360887D01*
X34855202Y-108152079D01*
X34900157Y-107913013D01*
G37*
G36*
X36756600Y-95357200D02*
G01*
X35435800Y-95357200D01*
X35435800Y-95560400D01*
X36782000Y-95560400D01*
X36782000Y-96170000D01*
X35435800Y-96170000D01*
X35435800Y-96435449D01*
X35440907Y-96629902D01*
X35458251Y-96789086D01*
X35490860Y-96927690D01*
X35541765Y-97060404D01*
X35581462Y-97141610D01*
X35681995Y-97295951D01*
X35816725Y-97447681D01*
X35970603Y-97581722D01*
X36114377Y-97675505D01*
X36211357Y-97719396D01*
X36334234Y-97763205D01*
X36466107Y-97802081D01*
X36590076Y-97831174D01*
X36689239Y-97845633D01*
X36709863Y-97846400D01*
X36782000Y-97846400D01*
X36782000Y-98456000D01*
X36610550Y-98454130D01*
X36490495Y-98446207D01*
X36355756Y-98427608D01*
X36261300Y-98408316D01*
X35971841Y-98311197D01*
X35705045Y-98168690D01*
X35461641Y-97981226D01*
X35341352Y-97862703D01*
X35161242Y-97644829D01*
X35022623Y-97417735D01*
X34922864Y-97174260D01*
X34859336Y-96907240D01*
X34829408Y-96609514D01*
X34826200Y-96459865D01*
X34826200Y-96170000D01*
X34597600Y-96170000D01*
X34597600Y-95560400D01*
X34826200Y-95560400D01*
X34826200Y-94747600D01*
X36756600Y-94747600D01*
X36756600Y-95357200D01*
G37*
G36*
X29898600Y-107371400D02*
G01*
X29085800Y-107371400D01*
X29085800Y-107522571D01*
X29511250Y-107529535D01*
X29936700Y-107536500D01*
X29951454Y-107955600D01*
X29085800Y-107955600D01*
X29085800Y-109606600D01*
X28654000Y-109606600D01*
X28654000Y-107955600D01*
X28476200Y-107955600D01*
X28476200Y-107523800D01*
X28654000Y-107523800D01*
X28654000Y-106939600D01*
X29898600Y-106939600D01*
X29898600Y-107371400D01*
G37*
G36*
X48212000Y-60356000D02*
G01*
X47069000Y-60356000D01*
X47069000Y-60559200D01*
X48262800Y-60559200D01*
X48262800Y-61168800D01*
X47069000Y-61168800D01*
X47069000Y-63454800D01*
X46459400Y-63454800D01*
X46459400Y-61168800D01*
X46230800Y-61168800D01*
X46230800Y-60559200D01*
X46459400Y-60559200D01*
X46459400Y-59746400D01*
X48212000Y-59746400D01*
X48212000Y-60356000D01*
G37*
G36*
X47751754Y-115962950D02*
G01*
X47764477Y-116003464D01*
X47790667Y-116087328D01*
X47828716Y-116209377D01*
X47877017Y-116364449D01*
X47933962Y-116547380D01*
X47997944Y-116753008D01*
X48067355Y-116976169D01*
X48137323Y-117201200D01*
X48209923Y-117434220D01*
X48278362Y-117652889D01*
X48341088Y-117852319D01*
X48396549Y-118027622D01*
X48443194Y-118173911D01*
X48479470Y-118286298D01*
X48503827Y-118359896D01*
X48514686Y-118389772D01*
X48525488Y-118372778D01*
X48549692Y-118311417D01*
X48585888Y-118209913D01*
X48632665Y-118072490D01*
X48688616Y-117903375D01*
X48752328Y-117706790D01*
X48822393Y-117486963D01*
X48897401Y-117248116D01*
X48921531Y-117170572D01*
X48996957Y-116928367D01*
X49068249Y-116700837D01*
X49133927Y-116492600D01*
X49192513Y-116308278D01*
X49242531Y-116152492D01*
X49282501Y-116029862D01*
X49310946Y-115945009D01*
X49326388Y-115902553D01*
X49328379Y-115898633D01*
X49359441Y-115891504D01*
X49430706Y-115886729D01*
X49531616Y-115884723D01*
X49651610Y-115885898D01*
X49653155Y-115885933D01*
X49959838Y-115893100D01*
X49392154Y-117695948D01*
X49299913Y-117988545D01*
X49211629Y-118267933D01*
X49128554Y-118530188D01*
X49051942Y-118771385D01*
X48983044Y-118987601D01*
X48923113Y-119174912D01*
X48873403Y-119329395D01*
X48835165Y-119447124D01*
X48809653Y-119524177D01*
X48798179Y-119556498D01*
X48783036Y-119582752D01*
X48759647Y-119599549D01*
X48717772Y-119608989D01*
X48647166Y-119613170D01*
X48537590Y-119614189D01*
X48516547Y-119614200D01*
X48386451Y-119611888D01*
X48302086Y-119604566D01*
X48258577Y-119591651D01*
X48250452Y-119582450D01*
X48237023Y-119541041D01*
X48210394Y-119457373D01*
X48171992Y-119335997D01*
X48123244Y-119181468D01*
X48065578Y-118998338D01*
X48000420Y-118791160D01*
X47929198Y-118564488D01*
X47853338Y-118322874D01*
X47774267Y-118070873D01*
X47693413Y-117813036D01*
X47612203Y-117553918D01*
X47532063Y-117298071D01*
X47454421Y-117050048D01*
X47380703Y-116814404D01*
X47312337Y-116595690D01*
X47250750Y-116398460D01*
X47197369Y-116227267D01*
X47153620Y-116086664D01*
X47120932Y-115981205D01*
X47100730Y-115915443D01*
X47094400Y-115893907D01*
X47118190Y-115888775D01*
X47183131Y-115884540D01*
X47279575Y-115881613D01*
X47397873Y-115880409D01*
X47409930Y-115880400D01*
X47725460Y-115880400D01*
X47751754Y-115962950D01*
G37*
G36*
X47831000Y-95357200D02*
G01*
X47761150Y-95357757D01*
X47662912Y-95376347D01*
X47556065Y-95423077D01*
X47463779Y-95486454D01*
X47428953Y-95522534D01*
X47384935Y-95615668D01*
X47375286Y-95726249D01*
X47400408Y-95833946D01*
X47421959Y-95874239D01*
X47455478Y-95915184D01*
X47518862Y-95983869D01*
X47605131Y-96073059D01*
X47707305Y-96175519D01*
X47801756Y-96267939D01*
X47926981Y-96390564D01*
X48021130Y-96487114D01*
X48090837Y-96565554D01*
X48142734Y-96633848D01*
X48183457Y-96699962D01*
X48217314Y-96766900D01*
X48253722Y-96847335D01*
X48277675Y-96913303D01*
X48291769Y-96979393D01*
X48298599Y-97060195D01*
X48300759Y-97170297D01*
X48300900Y-97236800D01*
X48300129Y-97365076D01*
X48296043Y-97456986D01*
X48285981Y-97526958D01*
X48267282Y-97589421D01*
X48237286Y-97658806D01*
X48214252Y-97706700D01*
X48115076Y-97868432D01*
X47980969Y-98028077D01*
X47826221Y-98170987D01*
X47665122Y-98282511D01*
X47638136Y-98297293D01*
X47503631Y-98357074D01*
X47352618Y-98407070D01*
X47204757Y-98441749D01*
X47079706Y-98455582D01*
X47075350Y-98455624D01*
X46992800Y-98456000D01*
X46992800Y-97846400D01*
X47068727Y-97846400D01*
X47161664Y-97832398D01*
X47275476Y-97795522D01*
X47390462Y-97743461D01*
X47486924Y-97683908D01*
X47489034Y-97682309D01*
X47577576Y-97592786D01*
X47655228Y-97475574D01*
X47707549Y-97353655D01*
X47715761Y-97321475D01*
X47725191Y-97252631D01*
X47720764Y-97187495D01*
X47698817Y-97120007D01*
X47655688Y-97044107D01*
X47587714Y-96953736D01*
X47491232Y-96842832D01*
X47362578Y-96705336D01*
X47310677Y-96651266D01*
X47153216Y-96484968D01*
X47029500Y-96345804D01*
X46935621Y-96226812D01*
X46867668Y-96121029D01*
X46821731Y-96021491D01*
X46793900Y-95921234D01*
X46780266Y-95813297D01*
X46776900Y-95700634D01*
X46779016Y-95581447D01*
X46787665Y-95494815D01*
X46806298Y-95422588D01*
X46838366Y-95346614D01*
X46847985Y-95326743D01*
X46954717Y-95162358D01*
X47099881Y-95015369D01*
X47272055Y-94893634D01*
X47459820Y-94805008D01*
X47651754Y-94757348D01*
X47680230Y-94754215D01*
X47831000Y-94740544D01*
X47831000Y-95357200D01*
G37*
G36*
X60810400Y-92588600D02*
G01*
X62133521Y-92588600D01*
X62126010Y-92760050D01*
X62118500Y-92931500D01*
X61464450Y-92938278D01*
X60810400Y-92945057D01*
X60810400Y-93008128D01*
X60807733Y-93041082D01*
X60792356Y-93059942D01*
X60753202Y-93068635D01*
X60679202Y-93071087D01*
X60632600Y-93071200D01*
X60539709Y-93070266D01*
X60486545Y-93064829D01*
X60462040Y-93050935D01*
X60455123Y-93024632D01*
X60454800Y-93007700D01*
X60452979Y-92977640D01*
X60441001Y-92958976D01*
X60409090Y-92948992D01*
X60347471Y-92944972D01*
X60246367Y-92944203D01*
X60226200Y-92944200D01*
X59997600Y-92944200D01*
X59997600Y-91928200D01*
X60326282Y-91928200D01*
X60333391Y-92252050D01*
X60336700Y-92385276D01*
X60340812Y-92476124D01*
X60347356Y-92533010D01*
X60357960Y-92564349D01*
X60374254Y-92578556D01*
X60397650Y-92584016D01*
X60420529Y-92585808D01*
X60436306Y-92578368D01*
X60446300Y-92553923D01*
X60451832Y-92504703D01*
X60454221Y-92422932D01*
X60454788Y-92300839D01*
X60454800Y-92247466D01*
X60454800Y-91902800D01*
X60810400Y-91902800D01*
X60810400Y-92588600D01*
G37*
G36*
X60333081Y-58952650D02*
G01*
X60340500Y-59149500D01*
X62133506Y-59162852D01*
X62118500Y-59505100D01*
X61223150Y-59511774D01*
X60327800Y-59518449D01*
X60327800Y-59898800D01*
X59997600Y-59898800D01*
X59997600Y-58755800D01*
X60325663Y-58755800D01*
X60333081Y-58952650D01*
G37*
G36*
X62126010Y-93344250D02*
G01*
X62118500Y-93515700D01*
X61464450Y-93522478D01*
X60810400Y-93529257D01*
X60810400Y-94036400D01*
X62133521Y-94036400D01*
X62126010Y-94207850D01*
X62118500Y-94379300D01*
X61464450Y-94386078D01*
X60810400Y-94392857D01*
X60810400Y-94455928D01*
X60807733Y-94488882D01*
X60792356Y-94507742D01*
X60753202Y-94516435D01*
X60679202Y-94518887D01*
X60632600Y-94519000D01*
X60539709Y-94518066D01*
X60486545Y-94512629D01*
X60462040Y-94498735D01*
X60455123Y-94472432D01*
X60454800Y-94455500D01*
X60452979Y-94425440D01*
X60441001Y-94406776D01*
X60409090Y-94396792D01*
X60347471Y-94392772D01*
X60246367Y-94392003D01*
X60226200Y-94392000D01*
X59997600Y-94392000D01*
X59997600Y-94036400D01*
X60454800Y-94036400D01*
X60454800Y-93528400D01*
X59997600Y-93528400D01*
X59997600Y-93172800D01*
X62133521Y-93172800D01*
X62126010Y-93344250D01*
G37*
G36*
X47464493Y-200904109D02*
G01*
X47469063Y-200910034D01*
X47477958Y-200928992D01*
X47485092Y-200962688D01*
X47490559Y-201015550D01*
X47494459Y-201092004D01*
X47496885Y-201196478D01*
X47497936Y-201333400D01*
X47497708Y-201507196D01*
X47496297Y-201722294D01*
X47493799Y-201983120D01*
X47493358Y-202024500D01*
X47490361Y-202288718D01*
X47487399Y-202507652D01*
X47484188Y-202686813D01*
X47480445Y-202831715D01*
X47475885Y-202947873D01*
X47470224Y-203040799D01*
X47463179Y-203116007D01*
X47454465Y-203179011D01*
X47443798Y-203235323D01*
X47430895Y-203290457D01*
X47427453Y-203304053D01*
X47338874Y-203570215D01*
X47219194Y-203802278D01*
X47070839Y-203997699D01*
X46896236Y-204153937D01*
X46697811Y-204268449D01*
X46477991Y-204338692D01*
X46431812Y-204347183D01*
X46328537Y-204362690D01*
X46250830Y-204369133D01*
X46177077Y-204366395D01*
X46085665Y-204354358D01*
X46027600Y-204344983D01*
X45811545Y-204284272D01*
X45610275Y-204178847D01*
X45430849Y-204034207D01*
X45280329Y-203855848D01*
X45183102Y-203687604D01*
X45142752Y-203601409D01*
X45108920Y-203524260D01*
X45080987Y-203450773D01*
X45058334Y-203375562D01*
X45040341Y-203293243D01*
X45026391Y-203198432D01*
X45015863Y-203085745D01*
X45008140Y-202949796D01*
X45002601Y-202785201D01*
X44998629Y-202586577D01*
X44995604Y-202348537D01*
X44992907Y-202065698D01*
X44992592Y-202030306D01*
X44982498Y-200893113D01*
X45485999Y-200900006D01*
X45989500Y-200906900D01*
X45996037Y-202541585D01*
X46002575Y-204176270D01*
X46288137Y-204165997D01*
X46467547Y-204153075D01*
X46609910Y-204125361D01*
X46728073Y-204077616D01*
X46834886Y-204004597D01*
X46943194Y-203901062D01*
X46946716Y-203897307D01*
X47035927Y-203790781D01*
X47112159Y-203673557D01*
X47176152Y-203541440D01*
X47228646Y-203390235D01*
X47270379Y-203215747D01*
X47302093Y-203013781D01*
X47324525Y-202780142D01*
X47338417Y-202510635D01*
X47344507Y-202201065D01*
X47343536Y-201847237D01*
X47340811Y-201662238D01*
X47337076Y-201448653D01*
X47334586Y-201280229D01*
X47333632Y-201151337D01*
X47334501Y-201056347D01*
X47337482Y-200989629D01*
X47342865Y-200945555D01*
X47350937Y-200918493D01*
X47361989Y-200902815D01*
X47376308Y-200892892D01*
X47380390Y-200890672D01*
X47427840Y-200876723D01*
X47464493Y-200904109D01*
G37*
G36*
X38487854Y-96170000D02*
G01*
X38510164Y-96098889D01*
X38549252Y-95997799D01*
X38598940Y-95882068D01*
X38636573Y-95800863D01*
X38789812Y-95536992D01*
X38978665Y-95306201D01*
X39198682Y-95111324D01*
X39445412Y-94955195D01*
X39714404Y-94840647D01*
X40001207Y-94770514D01*
X40291109Y-94747600D01*
X40592339Y-94772231D01*
X40881045Y-94844282D01*
X41152581Y-94960987D01*
X41402302Y-95119578D01*
X41625562Y-95317290D01*
X41817713Y-95551356D01*
X41922028Y-95718616D01*
X42045052Y-95989062D01*
X42120557Y-96266770D01*
X42150409Y-96547098D01*
X42136474Y-96825404D01*
X42080620Y-97097047D01*
X41984713Y-97357385D01*
X41850619Y-97601775D01*
X41680204Y-97825577D01*
X41475336Y-98024148D01*
X41237880Y-98192848D01*
X40969703Y-98327033D01*
X40856138Y-98369364D01*
X40688602Y-98411983D01*
X40492853Y-98439460D01*
X40287567Y-98450788D01*
X40091422Y-98444956D01*
X39923098Y-98420956D01*
X39918900Y-98419997D01*
X39664096Y-98344732D01*
X39434912Y-98239994D01*
X39284315Y-98148217D01*
X39046234Y-97959926D01*
X38844370Y-97740371D01*
X38680887Y-97494926D01*
X38557948Y-97228963D01*
X38477717Y-96947855D01*
X38442356Y-96656977D01*
X38446818Y-96544107D01*
X39049086Y-96544107D01*
X39059922Y-96772514D01*
X39112740Y-96993387D01*
X39204884Y-97201133D01*
X39333697Y-97390157D01*
X39496522Y-97554869D01*
X39690703Y-97689673D01*
X39913584Y-97788978D01*
X39982400Y-97810114D01*
X40122508Y-97834926D01*
X40287736Y-97842768D01*
X40455344Y-97833698D01*
X40599790Y-97808511D01*
X40802651Y-97738028D01*
X40982981Y-97635041D01*
X41154888Y-97491250D01*
X41178296Y-97468183D01*
X41337683Y-97275817D01*
X41451859Y-97067823D01*
X41521840Y-96849632D01*
X41548643Y-96626677D01*
X41533285Y-96404392D01*
X41476782Y-96188207D01*
X41380152Y-95983557D01*
X41244411Y-95795873D01*
X41070577Y-95630589D01*
X40859665Y-95493136D01*
X40803320Y-95464738D01*
X40715366Y-95423767D01*
X40646328Y-95396703D01*
X40581300Y-95380665D01*
X40505376Y-95372774D01*
X40403650Y-95370148D01*
X40312600Y-95369900D01*
X40116305Y-95377152D01*
X39954430Y-95401907D01*
X39812284Y-95448658D01*
X39675181Y-95521900D01*
X39564131Y-95598934D01*
X39392955Y-95748033D01*
X39259387Y-95915269D01*
X39163985Y-96087060D01*
X39082888Y-96313758D01*
X39049086Y-96544107D01*
X38446818Y-96544107D01*
X38454030Y-96361701D01*
X38487854Y-96170000D01*
G37*
G36*
X60060080Y-82079693D02*
G01*
X60134735Y-82097062D01*
X60248004Y-82124339D01*
X60394576Y-82160220D01*
X60569142Y-82203402D01*
X60766390Y-82252579D01*
X60981012Y-82306450D01*
X61089800Y-82333884D01*
X62118500Y-82593700D01*
X62126071Y-82738202D01*
X62129221Y-82799549D01*
X62126667Y-82844730D01*
X62111571Y-82878645D01*
X62077093Y-82906195D01*
X62016397Y-82932279D01*
X61922645Y-82961797D01*
X61788997Y-82999650D01*
X61743344Y-83012452D01*
X61629991Y-83045323D01*
X61538114Y-83073920D01*
X61476681Y-83095310D01*
X61454655Y-83106556D01*
X61454834Y-83106901D01*
X61481919Y-83117252D01*
X61548407Y-83138025D01*
X61644675Y-83166330D01*
X61761102Y-83199274D01*
X61776771Y-83203624D01*
X61896587Y-83238055D01*
X61998827Y-83269771D01*
X62073335Y-83295455D01*
X62109955Y-83311791D01*
X62111184Y-83312824D01*
X62122680Y-83349361D01*
X62127533Y-83418491D01*
X62126303Y-83472723D01*
X62118500Y-83609700D01*
X61102500Y-83867797D01*
X60882203Y-83923546D01*
X60676206Y-83975267D01*
X60489938Y-84021626D01*
X60328830Y-84061291D01*
X60198311Y-84092928D01*
X60103812Y-84115204D01*
X60050762Y-84126786D01*
X60042050Y-84128147D01*
X60018314Y-84122670D01*
X60004797Y-84096265D01*
X59998801Y-84038494D01*
X59997600Y-83956264D01*
X59997600Y-83782129D01*
X60486550Y-83664499D01*
X60651726Y-83624812D01*
X60813516Y-83586028D01*
X60960273Y-83550932D01*
X61080353Y-83522311D01*
X61159103Y-83503655D01*
X61245142Y-83481362D01*
X61305672Y-83461713D01*
X61329642Y-83448395D01*
X61329184Y-83446918D01*
X61300942Y-83435111D01*
X61233548Y-83412604D01*
X61136737Y-83382503D01*
X61020244Y-83347914D01*
X61005881Y-83343747D01*
X60696100Y-83254100D01*
X60681416Y-82949300D01*
X60993558Y-82863109D01*
X61113208Y-82829131D01*
X61215040Y-82798447D01*
X61289014Y-82774207D01*
X61325086Y-82759565D01*
X61326337Y-82758652D01*
X61318922Y-82742538D01*
X61274021Y-82726481D01*
X61262837Y-82724114D01*
X61214681Y-82713639D01*
X61125258Y-82693084D01*
X61002670Y-82664355D01*
X60855017Y-82629357D01*
X60690398Y-82589997D01*
X60588150Y-82565393D01*
X59997600Y-82422941D01*
X59997600Y-82247970D01*
X60001030Y-82145881D01*
X60011903Y-82089376D01*
X60029350Y-82073534D01*
X60060080Y-82079693D01*
G37*
G36*
X40642800Y-60356000D02*
G01*
X39322000Y-60356000D01*
X39322000Y-60559200D01*
X40668200Y-60559200D01*
X40668200Y-61168800D01*
X39322000Y-61168800D01*
X39322000Y-61442863D01*
X39335756Y-61701250D01*
X39378816Y-61924221D01*
X39453869Y-62119630D01*
X39563601Y-62295330D01*
X39647987Y-62395399D01*
X39841512Y-62567364D01*
X40064735Y-62701637D01*
X40309033Y-62793880D01*
X40522150Y-62835470D01*
X40668200Y-62852194D01*
X40668200Y-63454800D01*
X40496750Y-63452780D01*
X40373316Y-63445681D01*
X40238872Y-63429583D01*
X40160200Y-63415623D01*
X39969879Y-63357756D01*
X39767376Y-63266046D01*
X39568467Y-63149067D01*
X39388927Y-63015390D01*
X39334153Y-62966777D01*
X39130621Y-62752172D01*
X38970399Y-62526501D01*
X38851035Y-62283796D01*
X38770079Y-62018084D01*
X38725079Y-61723397D01*
X38713286Y-61454550D01*
X38712400Y-61168800D01*
X38483800Y-61168800D01*
X38483800Y-60559200D01*
X38712400Y-60559200D01*
X38712400Y-59746400D01*
X40642800Y-59746400D01*
X40642800Y-60356000D01*
G37*
G36*
X32914850Y-94752614D02*
G01*
X33059137Y-94758843D01*
X33169444Y-94768130D01*
X33262590Y-94783413D01*
X33355395Y-94807631D01*
X33464679Y-94843724D01*
X33492700Y-94853583D01*
X33602490Y-94892765D01*
X33697636Y-94927274D01*
X33765845Y-94952622D01*
X33791150Y-94962583D01*
X33818313Y-94967799D01*
X33831509Y-94945837D01*
X33835488Y-94886225D01*
X33835600Y-94864617D01*
X33835600Y-94747600D01*
X34419800Y-94747600D01*
X34419800Y-98456000D01*
X33835600Y-98456000D01*
X33835600Y-95742715D01*
X33757171Y-95676722D01*
X33617555Y-95576658D01*
X33451551Y-95484884D01*
X33327470Y-95431013D01*
X33200600Y-95382807D01*
X33200600Y-98456000D01*
X32591000Y-98456000D01*
X32591000Y-94741593D01*
X32914850Y-94752614D01*
G37*
G36*
X31575000Y-60035532D02*
G01*
X31573249Y-60174554D01*
X31567625Y-60268247D01*
X31557571Y-60321976D01*
X31543250Y-60340931D01*
X31503940Y-60348761D01*
X31429453Y-60361375D01*
X31334877Y-60376232D01*
X31321000Y-60378330D01*
X31078150Y-60439838D01*
X30851025Y-60546094D01*
X30646318Y-60691853D01*
X30470719Y-60871874D01*
X30330922Y-61080911D01*
X30275295Y-61197658D01*
X30236990Y-61332804D01*
X30217218Y-61497543D01*
X30215940Y-61674184D01*
X30233117Y-61845037D01*
X30268708Y-61992412D01*
X30277109Y-62015186D01*
X30385753Y-62223678D01*
X30535451Y-62410728D01*
X30719123Y-62571126D01*
X30929687Y-62699667D01*
X31160062Y-62791141D01*
X31398423Y-62839828D01*
X31562300Y-62857900D01*
X31576612Y-63454800D01*
X31378956Y-63453401D01*
X31249730Y-63445723D01*
X31109155Y-63427099D01*
X31000466Y-63404590D01*
X30740493Y-63313365D01*
X30488661Y-63181270D01*
X30257596Y-63016300D01*
X30059924Y-62826454D01*
X30027128Y-62788163D01*
X29954534Y-62689959D01*
X29875761Y-62566815D01*
X29804485Y-62440554D01*
X29784342Y-62400700D01*
X29672339Y-62116107D01*
X29609749Y-61827799D01*
X29595792Y-61539876D01*
X29629686Y-61256438D01*
X29710649Y-60981586D01*
X29837900Y-60719420D01*
X30010658Y-60474041D01*
X30187158Y-60286894D01*
X30408255Y-60110223D01*
X30658329Y-59962921D01*
X30925540Y-59850308D01*
X31198045Y-59777707D01*
X31371500Y-59754563D01*
X31575000Y-59738870D01*
X31575000Y-60035532D01*
G37*
G36*
X60084163Y-84601647D02*
G01*
X60191540Y-84439258D01*
X60340912Y-84305243D01*
X60473392Y-84227204D01*
X60575729Y-84180939D01*
X60660196Y-84156025D01*
X60751831Y-84146617D01*
X60821305Y-84145989D01*
X61016508Y-84171217D01*
X61197857Y-84239548D01*
X61357804Y-84345448D01*
X61488798Y-84483383D01*
X61583292Y-84647817D01*
X61610638Y-84724666D01*
X61641322Y-84828900D01*
X62118500Y-84854300D01*
X62118500Y-85184500D01*
X61058050Y-85191128D01*
X59997600Y-85197757D01*
X59997600Y-85007931D01*
X60014302Y-84841600D01*
X60352167Y-84841600D01*
X61296250Y-84841600D01*
X61237475Y-84736380D01*
X61146407Y-84618901D01*
X61031652Y-84539052D01*
X60902448Y-84496766D01*
X60768035Y-84491975D01*
X60637649Y-84524614D01*
X60520531Y-84594615D01*
X60425919Y-84701913D01*
X60402775Y-84742400D01*
X60352167Y-84841600D01*
X60014302Y-84841600D01*
X60019332Y-84791507D01*
X60084163Y-84601647D01*
G37*
G36*
X25682200Y-144607800D02*
G01*
X25098000Y-144607800D01*
X25098000Y-140874000D01*
X25682200Y-140874000D01*
X25682200Y-144607800D01*
G37*
G36*
X31949852Y-23857543D02*
G01*
X31950680Y-24197083D01*
X31951218Y-24522376D01*
X31951476Y-24829800D01*
X31951462Y-25115734D01*
X31951184Y-25376557D01*
X31950652Y-25608648D01*
X31949874Y-25808385D01*
X31948857Y-25972148D01*
X31947612Y-26096316D01*
X31946146Y-26177267D01*
X31944468Y-26211381D01*
X31944299Y-26212050D01*
X31923585Y-26225711D01*
X31870049Y-26235219D01*
X31778427Y-26241025D01*
X31643453Y-26243584D01*
X31575797Y-26243800D01*
X31219400Y-26243800D01*
X31219400Y-23185009D01*
X31090644Y-23311054D01*
X30961889Y-23437100D01*
X30785086Y-23246600D01*
X30701669Y-23155525D01*
X30623810Y-23068426D01*
X30563030Y-22998281D01*
X30541295Y-22971934D01*
X30474306Y-22887769D01*
X30548403Y-22816405D01*
X30584277Y-22782719D01*
X30652747Y-22719234D01*
X30748931Y-22630446D01*
X30867946Y-22520850D01*
X31004913Y-22394942D01*
X31154950Y-22257219D01*
X31282900Y-22139914D01*
X31943300Y-21534786D01*
X31949852Y-23857543D01*
G37*
G36*
X61614594Y-80553594D02*
G01*
X61785049Y-80554282D01*
X61924157Y-80555513D01*
X62026542Y-80557258D01*
X62086824Y-80559489D01*
X62100670Y-80561093D01*
X62119990Y-80588269D01*
X62127548Y-80654369D01*
X62126070Y-80732821D01*
X62118500Y-80891900D01*
X61348261Y-80898625D01*
X60578023Y-80905350D01*
X60706911Y-81067326D01*
X60766925Y-81146068D01*
X60812046Y-81211597D01*
X60834583Y-81252534D01*
X60835800Y-81257996D01*
X60820988Y-81290138D01*
X60781611Y-81350268D01*
X60725259Y-81427046D01*
X60706481Y-81451245D01*
X60577162Y-81615800D01*
X62133521Y-81615800D01*
X62126010Y-81787250D01*
X62118500Y-81958700D01*
X61007250Y-81965316D01*
X60697952Y-81966578D01*
X60439258Y-81966377D01*
X60230995Y-81964708D01*
X60072987Y-81961570D01*
X59965060Y-81956959D01*
X59907040Y-81950872D01*
X59896000Y-81945991D01*
X59910983Y-81918166D01*
X59952393Y-81857975D01*
X60014921Y-81772717D01*
X60093254Y-81669693D01*
X60150000Y-81596825D01*
X60235550Y-81487108D01*
X60308810Y-81391528D01*
X60364509Y-81317093D01*
X60397376Y-81270813D01*
X60404000Y-81259097D01*
X60389117Y-81235293D01*
X60347880Y-81178432D01*
X60285404Y-81095334D01*
X60206802Y-80992822D01*
X60137099Y-80903146D01*
X59870198Y-80561700D01*
X60968949Y-80555072D01*
X61201166Y-80553960D01*
X61418174Y-80553477D01*
X61614594Y-80553594D01*
G37*
G36*
X29067263Y-115896251D02*
G01*
X29321946Y-115941443D01*
X29552433Y-116012435D01*
X29581100Y-116023988D01*
X29689844Y-116069075D01*
X29759824Y-116094663D01*
X29799556Y-116099821D01*
X29817559Y-116083622D01*
X29822352Y-116045134D01*
X29822400Y-115997662D01*
X29822400Y-115880400D01*
X30432329Y-115880400D01*
X30425814Y-117740950D01*
X30419300Y-119601500D01*
X29822400Y-119615812D01*
X29822400Y-116873326D01*
X29704743Y-116783489D01*
X29592707Y-116707500D01*
X29466492Y-116636757D01*
X29344644Y-116580861D01*
X29257449Y-116551973D01*
X29187798Y-116535392D01*
X29174700Y-119601500D01*
X28577800Y-119615812D01*
X28577800Y-115880400D01*
X28807470Y-115880400D01*
X29067263Y-115896251D01*
G37*
G36*
X54849495Y-140874652D02*
G01*
X54948286Y-140876434D01*
X55016471Y-140879080D01*
X55044392Y-140882324D01*
X55044600Y-140882639D01*
X55038558Y-140908240D01*
X55021219Y-140978412D01*
X54993763Y-141088479D01*
X54957371Y-141233769D01*
X54913222Y-141409607D01*
X54862498Y-141611319D01*
X54806378Y-141834231D01*
X54746042Y-142073671D01*
X54682670Y-142324963D01*
X54617444Y-142583433D01*
X54551542Y-142844409D01*
X54486146Y-143103215D01*
X54422436Y-143355179D01*
X54361591Y-143595625D01*
X54304793Y-143819881D01*
X54253220Y-144023272D01*
X54208054Y-144201125D01*
X54170475Y-144348765D01*
X54141663Y-144461518D01*
X54122798Y-144534712D01*
X54115164Y-144563350D01*
X54102822Y-144583581D01*
X54074678Y-144596644D01*
X54021435Y-144604033D01*
X53933791Y-144607240D01*
X53838298Y-144607800D01*
X53575221Y-144607800D01*
X53536052Y-144474450D01*
X53516356Y-144406851D01*
X53485740Y-144301103D01*
X53447286Y-144167888D01*
X53404079Y-144017888D01*
X53363971Y-143878387D01*
X53321917Y-143735065D01*
X53283866Y-143611183D01*
X53252188Y-143513988D01*
X53229251Y-143450731D01*
X53217424Y-143428660D01*
X53217079Y-143428840D01*
X53206429Y-143455986D01*
X53184083Y-143525075D01*
X53152148Y-143629161D01*
X53112733Y-143761301D01*
X53067949Y-143914547D01*
X53038000Y-144018553D01*
X52872900Y-144595100D01*
X52603228Y-144602275D01*
X52333557Y-144609450D01*
X51872978Y-142767253D01*
X51798752Y-142470023D01*
X51728230Y-142186958D01*
X51662371Y-141921947D01*
X51602132Y-141678876D01*
X51548474Y-141461634D01*
X51502352Y-141274107D01*
X51464726Y-141120184D01*
X51436554Y-141003751D01*
X51418795Y-140928695D01*
X51412405Y-140898905D01*
X51412400Y-140898747D01*
X51437343Y-140886877D01*
X51510810Y-140879987D01*
X51630758Y-140878204D01*
X51721195Y-140879568D01*
X52029990Y-140886700D01*
X52313403Y-142055100D01*
X52370803Y-142291436D01*
X52424799Y-142513179D01*
X52474164Y-142715335D01*
X52517674Y-142892914D01*
X52554103Y-143040922D01*
X52582226Y-143154367D01*
X52600816Y-143228258D01*
X52608575Y-143257400D01*
X52618297Y-143243649D01*
X52639406Y-143187056D01*
X52669936Y-143093793D01*
X52707924Y-142970033D01*
X52751404Y-142821946D01*
X52786446Y-142698600D01*
X52952559Y-142105900D01*
X53220025Y-142098729D01*
X53487492Y-142091559D01*
X53647718Y-142657529D01*
X53693978Y-142819389D01*
X53736370Y-142964795D01*
X53772753Y-143086637D01*
X53800985Y-143177805D01*
X53818926Y-143231189D01*
X53823718Y-143241975D01*
X53833827Y-143223812D01*
X53853584Y-143162799D01*
X53881151Y-143065572D01*
X53914691Y-142938765D01*
X53952364Y-142789014D01*
X53974997Y-142695875D01*
X54022909Y-142496510D01*
X54078614Y-142265134D01*
X54137928Y-142019103D01*
X54196665Y-141775774D01*
X54250641Y-141552504D01*
X54262708Y-141502650D01*
X54414914Y-140874000D01*
X54729757Y-140874000D01*
X54849495Y-140874652D01*
G37*
G36*
X61613168Y-76667305D02*
G01*
X61783651Y-76667928D01*
X61922781Y-76669080D01*
X62025191Y-76670735D01*
X62085515Y-76672867D01*
X62099450Y-76674425D01*
X62119550Y-76708668D01*
X62129829Y-76791222D01*
X62131200Y-76852502D01*
X62131200Y-77018400D01*
X60577162Y-77018400D01*
X60706481Y-77182954D01*
X60766395Y-77262479D01*
X60811574Y-77328706D01*
X60834430Y-77370293D01*
X60835800Y-77376203D01*
X60820879Y-77408315D01*
X60781243Y-77468170D01*
X60724584Y-77544392D01*
X60706911Y-77566873D01*
X60578023Y-77728849D01*
X61348261Y-77735574D01*
X62118500Y-77742300D01*
X62118500Y-78072500D01*
X60992631Y-78079115D01*
X59866762Y-78085731D01*
X59916949Y-78015615D01*
X59951120Y-77969866D01*
X60009286Y-77894056D01*
X60083898Y-77797945D01*
X60167409Y-77691295D01*
X60185567Y-77668223D01*
X60264613Y-77566873D01*
X60330914Y-77479939D01*
X60378761Y-77415053D01*
X60402449Y-77379849D01*
X60403995Y-77376123D01*
X60389089Y-77352236D01*
X60347781Y-77295308D01*
X60285179Y-77212145D01*
X60206394Y-77109552D01*
X60135413Y-77018400D01*
X59866835Y-76675500D01*
X60967267Y-76668872D01*
X61199609Y-76667750D01*
X61416698Y-76667237D01*
X61613168Y-76667305D01*
G37*
G36*
X36627397Y-40115994D02*
G01*
X36645838Y-39921713D01*
X36662552Y-39814111D01*
X36778061Y-39333758D01*
X36936674Y-38879993D01*
X37138793Y-38451887D01*
X37384820Y-38048513D01*
X37490333Y-37900950D01*
X37793756Y-37534801D01*
X38126814Y-37207965D01*
X38486166Y-36921113D01*
X38868474Y-36674914D01*
X39270397Y-36470037D01*
X39688596Y-36307153D01*
X40119732Y-36186931D01*
X40560464Y-36110040D01*
X41007454Y-36077151D01*
X41457361Y-36088934D01*
X41906846Y-36146057D01*
X42352570Y-36249190D01*
X42791192Y-36399004D01*
X43219373Y-36596168D01*
X43425263Y-36710800D01*
X43790906Y-36954684D01*
X44135707Y-37240308D01*
X44454287Y-37561437D01*
X44741270Y-37911839D01*
X44991277Y-38285280D01*
X45198932Y-38675526D01*
X45279055Y-38859718D01*
X45396432Y-39172943D01*
X45484847Y-39465749D01*
X45547754Y-39754615D01*
X45588606Y-40056024D01*
X45610855Y-40386457D01*
X45613303Y-40455100D01*
X45606362Y-40928414D01*
X45554473Y-41381050D01*
X45456525Y-41817997D01*
X45311406Y-42244246D01*
X45123790Y-42653620D01*
X44884361Y-43062796D01*
X44605713Y-43441367D01*
X44290725Y-43787166D01*
X43942274Y-44098021D01*
X43563239Y-44371763D01*
X43156497Y-44606224D01*
X42724926Y-44799234D01*
X42271404Y-44948624D01*
X41989000Y-45016616D01*
X41880100Y-45037258D01*
X41771805Y-45052720D01*
X41653263Y-45063848D01*
X41513627Y-45071487D01*
X41342045Y-45076482D01*
X41188900Y-45078964D01*
X41024495Y-45080479D01*
X40873152Y-45080808D01*
X40743771Y-45080017D01*
X40645251Y-45078170D01*
X40586490Y-45075332D01*
X40579300Y-45074512D01*
X40143066Y-44991996D01*
X39724167Y-44876473D01*
X39332684Y-44731039D01*
X39086084Y-44616027D01*
X38663990Y-44372814D01*
X38276023Y-44092675D01*
X37923739Y-43777666D01*
X37608694Y-43429842D01*
X37332441Y-43051262D01*
X37096537Y-42643982D01*
X36902538Y-42210058D01*
X36751998Y-41751546D01*
X36675653Y-41428778D01*
X36649218Y-41257184D01*
X36630001Y-41049451D01*
X36618105Y-40818523D01*
X36613636Y-40577342D01*
X36615010Y-40470313D01*
X36636087Y-40470313D01*
X36637389Y-40723970D01*
X36648621Y-40974462D01*
X36669432Y-41205045D01*
X36692658Y-41363448D01*
X36802362Y-41828235D01*
X36959009Y-42275727D01*
X37160904Y-42702698D01*
X37406349Y-43105923D01*
X37693648Y-43482173D01*
X37955050Y-43764130D01*
X38315050Y-44086397D01*
X38699387Y-44364728D01*
X39106493Y-44598261D01*
X39534802Y-44786131D01*
X39982747Y-44927475D01*
X40128935Y-44962506D01*
X40292616Y-44996951D01*
X40437736Y-45022400D01*
X40576692Y-45039885D01*
X40721879Y-45050440D01*
X40885697Y-45055097D01*
X41080540Y-45054888D01*
X41214300Y-45052915D01*
X41407919Y-45048427D01*
X41562852Y-45042059D01*
X41691208Y-45032710D01*
X41805094Y-45019277D01*
X41916619Y-45000659D01*
X42020350Y-44979556D01*
X42487394Y-44855327D01*
X42925908Y-44689448D01*
X43338176Y-44480653D01*
X43726485Y-44227680D01*
X44093120Y-43929263D01*
X44328367Y-43702666D01*
X44642133Y-43347007D01*
X44910803Y-42969729D01*
X45136212Y-42567668D01*
X45320193Y-42137662D01*
X45430039Y-41802057D01*
X45526616Y-41380746D01*
X45580222Y-40941718D01*
X45591241Y-40493730D01*
X45560060Y-40045540D01*
X45487062Y-39605905D01*
X45372632Y-39183582D01*
X45306819Y-38999170D01*
X45113577Y-38565873D01*
X44881786Y-38162602D01*
X44614505Y-37790821D01*
X44314791Y-37451994D01*
X43985702Y-37147586D01*
X43630294Y-36879061D01*
X43251627Y-36647882D01*
X42852756Y-36455514D01*
X42436741Y-36303421D01*
X42006637Y-36193067D01*
X41565504Y-36125917D01*
X41116398Y-36103434D01*
X40662377Y-36127083D01*
X40206499Y-36198328D01*
X39751821Y-36318633D01*
X39726348Y-36326885D01*
X39281272Y-36498457D01*
X38862905Y-36711895D01*
X38473410Y-36964591D01*
X38114949Y-37253933D01*
X37789688Y-37577313D01*
X37499788Y-37932121D01*
X37247413Y-38315746D01*
X37034726Y-38725579D01*
X36863891Y-39159011D01*
X36737072Y-39613430D01*
X36664667Y-40020483D01*
X36645063Y-40230236D01*
X36636087Y-40470313D01*
X36615010Y-40470313D01*
X36616698Y-40338851D01*
X36627397Y-40115994D01*
G37*
G36*
X56797200Y-30688800D02*
G01*
X57762400Y-30688800D01*
X57762400Y-31425400D01*
X56797200Y-31425400D01*
X56797200Y-32416000D01*
X56060600Y-32416000D01*
X56060600Y-31425400D01*
X55095400Y-31425400D01*
X55095400Y-30688800D01*
X56060600Y-30688800D01*
X56060600Y-29723600D01*
X56797200Y-29723600D01*
X56797200Y-30688800D01*
G37*
G36*
X46535600Y-95357200D02*
G01*
X45392600Y-95357200D01*
X45392600Y-95560400D01*
X46586400Y-95560400D01*
X46586400Y-96170000D01*
X45392600Y-96170000D01*
X45392600Y-98456000D01*
X44783000Y-98456000D01*
X44783000Y-96170000D01*
X44554400Y-96170000D01*
X44554400Y-95560400D01*
X44783000Y-95560400D01*
X44783000Y-94747600D01*
X46535600Y-94747600D01*
X46535600Y-95357200D01*
G37*
G36*
X57957762Y-200892267D02*
G01*
X58151805Y-200893239D01*
X58319647Y-200894887D01*
X58455900Y-200897151D01*
X58555175Y-200899967D01*
X58612084Y-200903274D01*
X58623470Y-200905336D01*
X58649540Y-200946265D01*
X58642751Y-200999855D01*
X58606559Y-201043239D01*
X58602269Y-201045706D01*
X58557152Y-201056678D01*
X58474421Y-201065406D01*
X58367252Y-201070796D01*
X58284957Y-201072000D01*
X58016776Y-201072000D01*
X58003700Y-204310500D01*
X57502050Y-204317386D01*
X57000400Y-204324273D01*
X57000400Y-201072000D01*
X56827264Y-201072000D01*
X56708861Y-201076412D01*
X56584360Y-201087803D01*
X56507968Y-201099019D01*
X56396570Y-201111073D01*
X56326603Y-201097211D01*
X56295105Y-201056213D01*
X56294324Y-201010960D01*
X56300304Y-200984689D01*
X56312908Y-200962781D01*
X56336439Y-200944817D01*
X56375203Y-200930380D01*
X56433503Y-200919051D01*
X56515644Y-200910413D01*
X56625931Y-200904046D01*
X56768668Y-200899534D01*
X56948160Y-200896457D01*
X57168710Y-200894397D01*
X57434624Y-200892937D01*
X57512627Y-200892600D01*
X57742907Y-200892033D01*
X57957762Y-200892267D01*
G37*
G36*
X50447200Y-95357200D02*
G01*
X49123333Y-95357200D01*
X49131216Y-95452450D01*
X49139100Y-95547700D01*
X49805850Y-95554471D01*
X50472600Y-95561243D01*
X50472600Y-96170000D01*
X49126400Y-96170000D01*
X49126903Y-96379550D01*
X49130611Y-96508667D01*
X49139856Y-96646603D01*
X49152647Y-96763725D01*
X49152800Y-96764794D01*
X49210480Y-96992255D01*
X49312482Y-97202150D01*
X49454044Y-97389997D01*
X49630404Y-97551319D01*
X49836799Y-97681635D01*
X50068467Y-97776467D01*
X50280758Y-97825682D01*
X50472600Y-97855507D01*
X50472600Y-98456000D01*
X50313850Y-98453980D01*
X50194790Y-98446598D01*
X50066288Y-98429986D01*
X50002700Y-98417916D01*
X49709617Y-98327057D01*
X49438527Y-98191790D01*
X49193284Y-98015159D01*
X48977741Y-97800207D01*
X48795752Y-97549977D01*
X48711048Y-97397801D01*
X48638684Y-97230089D01*
X48585697Y-97049541D01*
X48549677Y-96844963D01*
X48528211Y-96605157D01*
X48524556Y-96531950D01*
X48509035Y-96170000D01*
X48313600Y-96170000D01*
X48313600Y-95560400D01*
X48516800Y-95560400D01*
X48516800Y-94747600D01*
X50447200Y-94747600D01*
X50447200Y-95357200D01*
G37*
G36*
X31371800Y-141483600D02*
G01*
X30228800Y-141483600D01*
X30228800Y-141685863D01*
X30819350Y-141692681D01*
X31409900Y-141699500D01*
X31409900Y-142309100D01*
X30228800Y-142322736D01*
X30228800Y-144607800D01*
X29619200Y-144607800D01*
X29619200Y-142324583D01*
X29498550Y-142316841D01*
X29377900Y-142309100D01*
X29377900Y-141699500D01*
X29619200Y-141684016D01*
X29619200Y-140874000D01*
X31371800Y-140874000D01*
X31371800Y-141483600D01*
G37*
G36*
X60150000Y-116490000D02*
G01*
X59464590Y-116490000D01*
X59451500Y-119601500D01*
X59170768Y-119608634D01*
X59055994Y-119609998D01*
X58960505Y-119608215D01*
X58895395Y-119603679D01*
X58872318Y-119598051D01*
X58869161Y-119570159D01*
X58866184Y-119495894D01*
X58863437Y-119379682D01*
X58860971Y-119225951D01*
X58858835Y-119039128D01*
X58857080Y-118823639D01*
X58855755Y-118583912D01*
X58854912Y-118324372D01*
X58854600Y-118049447D01*
X58854600Y-116490000D01*
X58168800Y-116490000D01*
X58168800Y-115880400D01*
X60150000Y-115880400D01*
X60150000Y-116490000D01*
G37*
G36*
X62131200Y-78517000D02*
G01*
X59997600Y-78517000D01*
X59997600Y-78186800D01*
X62131200Y-78186800D01*
X62131200Y-78517000D01*
G37*
G36*
X55244332Y-12219597D02*
G01*
X55321993Y-11948128D01*
X55441522Y-11698272D01*
X55600474Y-11473687D01*
X55796401Y-11278027D01*
X56026858Y-11114949D01*
X56289397Y-10988109D01*
X56488754Y-10923421D01*
X56664577Y-10889884D01*
X56867818Y-10872066D01*
X57079408Y-10870169D01*
X57280279Y-10884396D01*
X57444900Y-10913302D01*
X57722239Y-11007614D01*
X57972808Y-11143066D01*
X58193100Y-11316153D01*
X58379605Y-11523372D01*
X58528816Y-11761219D01*
X58637225Y-12026190D01*
X58667195Y-12134100D01*
X58693430Y-12285818D01*
X58708027Y-12465873D01*
X58710959Y-12656799D01*
X58702199Y-12841127D01*
X58681720Y-13001391D01*
X58668623Y-13061200D01*
X58581987Y-13310654D01*
X58457512Y-13548834D01*
X58302039Y-13766272D01*
X58122407Y-13953502D01*
X57925454Y-14101056D01*
X57911206Y-14109648D01*
X57718569Y-14209563D01*
X57522402Y-14279730D01*
X57308939Y-14323792D01*
X57064411Y-14345392D01*
X57013100Y-14347263D01*
X56858852Y-14350108D01*
X56740878Y-14347463D01*
X56644841Y-14338224D01*
X56556406Y-14321285D01*
X56505100Y-14308090D01*
X56344095Y-14259657D01*
X56212699Y-14208683D01*
X56090171Y-14145878D01*
X55956361Y-14062347D01*
X55737323Y-13887368D01*
X55553427Y-13677257D01*
X55406618Y-13435334D01*
X55298841Y-13164918D01*
X55232040Y-12869328D01*
X55224402Y-12812756D01*
X55215621Y-12613965D01*
X56721000Y-12613965D01*
X56721273Y-12888230D01*
X56722061Y-13147296D01*
X56723315Y-13386720D01*
X56724987Y-13602055D01*
X56727027Y-13788857D01*
X56729388Y-13942680D01*
X56732020Y-14059081D01*
X56734874Y-14133614D01*
X56737903Y-14161835D01*
X56737933Y-14161866D01*
X56775086Y-14172871D01*
X56850398Y-14178218D01*
X56951594Y-14178357D01*
X57066400Y-14173736D01*
X57182544Y-14164805D01*
X57287751Y-14152013D01*
X57356000Y-14139252D01*
X57612221Y-14054402D01*
X57842317Y-13928988D01*
X58043618Y-13767504D01*
X58213456Y-13574447D01*
X58349161Y-13354312D01*
X58448063Y-13111595D01*
X58507495Y-12850792D01*
X58524785Y-12576399D01*
X58497266Y-12292911D01*
X58486188Y-12235700D01*
X58408789Y-11985824D01*
X58288139Y-11753496D01*
X58129856Y-11544483D01*
X57939556Y-11364553D01*
X57722858Y-11219474D01*
X57485379Y-11115015D01*
X57360386Y-11079770D01*
X57274469Y-11065351D01*
X57166019Y-11054707D01*
X57048246Y-11048191D01*
X56934357Y-11046161D01*
X56837562Y-11048971D01*
X56771070Y-11056977D01*
X56752694Y-11063409D01*
X56745827Y-11078103D01*
X56739954Y-11115152D01*
X56735009Y-11177694D01*
X56730928Y-11268870D01*
X56727647Y-11391820D01*
X56725103Y-11549684D01*
X56723230Y-11745601D01*
X56721965Y-11982713D01*
X56721243Y-12264158D01*
X56721000Y-12593077D01*
X56721000Y-12613965D01*
X55215621Y-12613965D01*
X55210986Y-12509025D01*
X55244332Y-12219597D01*
G37*
G36*
X25707600Y-108273099D02*
G01*
X25732026Y-108016478D01*
X25803720Y-107775167D01*
X25920305Y-107553704D01*
X26079405Y-107356627D01*
X26273993Y-107191726D01*
X26458715Y-107078205D01*
X26639355Y-107004280D01*
X26832391Y-106964860D01*
X27041100Y-106954725D01*
X27281029Y-106973970D01*
X27494757Y-107030588D01*
X27690283Y-107128226D01*
X27875605Y-107270532D01*
X27995525Y-107389949D01*
X28154662Y-107592841D01*
X28265307Y-107806236D01*
X28329468Y-108035153D01*
X28349200Y-108273100D01*
X28325086Y-108523493D01*
X28255677Y-108758694D01*
X28145366Y-108974061D01*
X27998550Y-109164956D01*
X27819624Y-109326738D01*
X27612983Y-109454767D01*
X27383023Y-109544405D01*
X27134139Y-109591010D01*
X27098035Y-109593837D01*
X26948985Y-109594366D01*
X26804078Y-109579283D01*
X26760863Y-109570815D01*
X26514660Y-109490305D01*
X26293931Y-109369588D01*
X26102575Y-109213467D01*
X25944490Y-109026747D01*
X25823575Y-108814231D01*
X25743729Y-108580722D01*
X25711221Y-108347988D01*
X26143854Y-108347988D01*
X26179280Y-108533592D01*
X26252788Y-108707946D01*
X26363363Y-108863596D01*
X26509990Y-108993089D01*
X26594366Y-109044560D01*
X26795787Y-109127829D01*
X26994603Y-109160668D01*
X27193443Y-109143174D01*
X27394939Y-109075447D01*
X27396700Y-109074643D01*
X27574621Y-108965933D01*
X27723916Y-108818358D01*
X27834054Y-108645556D01*
X27868396Y-108569530D01*
X27889463Y-108501246D01*
X27900350Y-108423756D01*
X27904152Y-108320111D01*
X27904375Y-108260400D01*
X27897885Y-108104946D01*
X27874664Y-107980802D01*
X27828375Y-107869551D01*
X27752677Y-107752776D01*
X27710744Y-107697849D01*
X27586040Y-107576335D01*
X27429057Y-107479640D01*
X27253503Y-107412994D01*
X27073083Y-107381625D01*
X26904442Y-107390209D01*
X26689914Y-107452997D01*
X26504680Y-107556654D01*
X26403290Y-107642148D01*
X26276229Y-107798214D01*
X26191313Y-107972845D01*
X26147527Y-108158587D01*
X26143854Y-108347988D01*
X25711221Y-108347988D01*
X25708851Y-108331024D01*
X25707600Y-108273099D01*
G37*
G36*
X33721300Y-60343300D02*
G01*
X33048200Y-60357474D01*
X33048200Y-63454800D01*
X32438600Y-63454800D01*
X32438600Y-60356000D01*
X31752800Y-60356000D01*
X31752800Y-59746400D01*
X33735612Y-59746400D01*
X33721300Y-60343300D01*
G37*
G36*
X52164964Y-117365400D02*
G01*
X52238589Y-117098782D01*
X52355048Y-116852070D01*
X52517227Y-116618784D01*
X52669624Y-116449721D01*
X52889922Y-116253754D01*
X53123066Y-116101011D01*
X53380972Y-115983925D01*
X53431700Y-115965792D01*
X53521508Y-115936589D01*
X53599743Y-115916802D01*
X53680376Y-115904639D01*
X53777381Y-115898313D01*
X53904728Y-115896033D01*
X53977800Y-115895851D01*
X54123914Y-115896864D01*
X54233221Y-115901095D01*
X54319693Y-115910335D01*
X54397301Y-115926372D01*
X54480017Y-115950996D01*
X54523900Y-115965792D01*
X54786177Y-116076191D01*
X55020609Y-116219692D01*
X55239775Y-116404289D01*
X55285900Y-116449896D01*
X55484415Y-116678221D01*
X55634966Y-116914201D01*
X55740373Y-117164155D01*
X55803452Y-117434404D01*
X55824870Y-117658400D01*
X55823595Y-117903534D01*
X55793837Y-118122460D01*
X55731841Y-118333346D01*
X55643686Y-118534700D01*
X55487000Y-118803851D01*
X55302881Y-119031816D01*
X55087656Y-119222311D01*
X54837648Y-119379051D01*
X54779657Y-119408379D01*
X54586040Y-119492473D01*
X54403639Y-119547376D01*
X54213555Y-119577199D01*
X53996889Y-119586052D01*
X53963477Y-119585853D01*
X53844891Y-119583634D01*
X53741334Y-119579936D01*
X53665749Y-119575324D01*
X53634900Y-119571537D01*
X53328483Y-119478511D01*
X53050346Y-119343523D01*
X52802077Y-119167836D01*
X52585266Y-118952715D01*
X52401504Y-118699422D01*
X52297814Y-118509300D01*
X52206072Y-118286326D01*
X52150915Y-118066171D01*
X52129014Y-117831831D01*
X52129917Y-117762988D01*
X52734571Y-117762988D01*
X52751606Y-117953333D01*
X52783702Y-118093874D01*
X52881141Y-118331841D01*
X53014206Y-118534595D01*
X53184345Y-118703581D01*
X53393004Y-118840242D01*
X53634900Y-118943739D01*
X53733359Y-118963599D01*
X53879816Y-118972602D01*
X54015900Y-118972252D01*
X54142687Y-118968401D01*
X54234786Y-118961209D01*
X54308308Y-118947275D01*
X54379366Y-118923197D01*
X54464071Y-118885576D01*
X54494244Y-118871287D01*
X54712448Y-118739822D01*
X54900194Y-118569776D01*
X55051912Y-118366720D01*
X55114052Y-118251339D01*
X55159924Y-118149692D01*
X55188961Y-118066758D01*
X55205754Y-117982928D01*
X55214895Y-117878593D01*
X55218293Y-117806141D01*
X55211583Y-117570961D01*
X55168960Y-117362329D01*
X55087122Y-117167842D01*
X55017651Y-117052522D01*
X54858608Y-116858760D01*
X54666209Y-116702944D01*
X54442167Y-116586269D01*
X54264738Y-116527822D01*
X54035752Y-116493302D01*
X53807053Y-116505611D01*
X53584826Y-116561123D01*
X53375252Y-116656210D01*
X53184513Y-116787246D01*
X53018792Y-116950601D01*
X52884271Y-117142651D01*
X52787132Y-117359767D01*
X52773673Y-117402660D01*
X52741818Y-117571936D01*
X52734571Y-117762988D01*
X52129917Y-117762988D01*
X52131289Y-117658400D01*
X52164964Y-117365400D01*
G37*
G36*
X20787363Y-106939600D02*
G01*
X21034597Y-106961740D01*
X21259108Y-107026217D01*
X21457219Y-107130114D01*
X21625251Y-107270515D01*
X21759526Y-107444503D01*
X21856365Y-107649164D01*
X21902742Y-107823854D01*
X21915723Y-108028018D01*
X21882095Y-108232259D01*
X21805434Y-108428753D01*
X21689312Y-108609675D01*
X21537304Y-108767199D01*
X21437488Y-108842509D01*
X21284171Y-108944890D01*
X21401958Y-109019589D01*
X21493347Y-109069110D01*
X21598866Y-109107860D01*
X21731978Y-109140076D01*
X21853150Y-109161720D01*
X21948400Y-109177101D01*
X21948400Y-109606600D01*
X21865850Y-109606158D01*
X21735085Y-109593328D01*
X21583105Y-109559540D01*
X21424940Y-109510006D01*
X21275618Y-109449939D01*
X21150167Y-109384550D01*
X21078450Y-109333111D01*
X21054176Y-109315336D01*
X21040845Y-109322083D01*
X21035205Y-109361925D01*
X21034002Y-109443436D01*
X21034000Y-109450263D01*
X21034000Y-109606600D01*
X20602200Y-109606600D01*
X20602200Y-108562557D01*
X21034000Y-108562557D01*
X21115040Y-108534306D01*
X21178275Y-108500373D01*
X21254649Y-108443168D01*
X21303858Y-108398278D01*
X21383111Y-108296418D01*
X21446320Y-108172892D01*
X21484317Y-108048118D01*
X21491200Y-107981000D01*
X21484239Y-107934139D01*
X21466394Y-107858966D01*
X21451417Y-107805459D01*
X21398362Y-107688650D01*
X21315948Y-107576909D01*
X21217392Y-107485078D01*
X21115909Y-107427998D01*
X21115040Y-107427693D01*
X21034000Y-107399442D01*
X21034000Y-108562557D01*
X20602200Y-108562557D01*
X20602200Y-106939600D01*
X20787363Y-106939600D01*
G37*
G36*
X22837400Y-31501600D02*
G01*
X20956405Y-31501600D01*
X20963452Y-31139650D01*
X20970500Y-30777700D01*
X22837400Y-30764374D01*
X22837400Y-31501600D01*
G37*
G36*
X42789732Y-10892510D02*
G01*
X43070372Y-10955189D01*
X43302523Y-11042509D01*
X43453495Y-11121102D01*
X43553926Y-11195057D01*
X43603859Y-11264425D01*
X43603339Y-11329258D01*
X43574685Y-11370285D01*
X43525908Y-11403846D01*
X43474144Y-11401123D01*
X43408208Y-11360040D01*
X43376629Y-11333515D01*
X43247392Y-11244568D01*
X43081151Y-11166848D01*
X42891127Y-11103971D01*
X42690542Y-11059550D01*
X42492617Y-11037200D01*
X42310576Y-11040535D01*
X42306457Y-11040967D01*
X42141400Y-11058643D01*
X42141400Y-14147475D01*
X42198550Y-14162790D01*
X42277734Y-14174108D01*
X42391460Y-14178023D01*
X42524096Y-14175068D01*
X42660007Y-14165775D01*
X42783560Y-14150673D01*
X42835703Y-14141134D01*
X43071368Y-14071640D01*
X43270181Y-13970080D01*
X43406872Y-13863076D01*
X43490671Y-13790679D01*
X43551469Y-13754944D01*
X43597765Y-13752681D01*
X43634920Y-13777480D01*
X43664516Y-13837243D01*
X43647495Y-13907062D01*
X43586328Y-13983918D01*
X43483484Y-14064792D01*
X43341436Y-14146664D01*
X43326753Y-14154009D01*
X43213340Y-14206577D01*
X43097194Y-14254679D01*
X42999373Y-14289724D01*
X42979600Y-14295620D01*
X42903818Y-14310011D01*
X42791286Y-14323075D01*
X42654750Y-14334189D01*
X42506957Y-14342729D01*
X42360654Y-14348073D01*
X42228587Y-14349598D01*
X42123504Y-14346681D01*
X42065200Y-14340301D01*
X41751340Y-14256450D01*
X41474199Y-14137580D01*
X41233507Y-13983500D01*
X41029000Y-13794015D01*
X40860409Y-13568933D01*
X40770270Y-13404100D01*
X40673097Y-13160463D01*
X40615059Y-12910646D01*
X40592829Y-12639359D01*
X40592375Y-12586285D01*
X40614558Y-12286864D01*
X40680763Y-12012334D01*
X40791890Y-11760735D01*
X40948838Y-11530107D01*
X41152506Y-11318489D01*
X41188243Y-11287325D01*
X41404981Y-11134424D01*
X41652555Y-11015116D01*
X41922892Y-10930336D01*
X42207917Y-10881018D01*
X42499555Y-10868097D01*
X42789732Y-10892510D01*
G37*
G36*
X25009344Y-10880717D02*
G01*
X25227815Y-10925043D01*
X25424636Y-10994202D01*
X25559410Y-11067071D01*
X25633576Y-11131710D01*
X25672927Y-11199549D01*
X25673853Y-11260882D01*
X25645376Y-11298107D01*
X25604600Y-11317079D01*
X25557203Y-11311572D01*
X25492203Y-11278170D01*
X25417662Y-11227279D01*
X25305456Y-11163561D01*
X25168219Y-11111540D01*
X25017874Y-11073084D01*
X24866348Y-11050061D01*
X24725565Y-11044339D01*
X24607450Y-11057785D01*
X24529809Y-11088196D01*
X24456021Y-11162410D01*
X24426710Y-11255361D01*
X24441852Y-11361278D01*
X24501427Y-11474393D01*
X24531447Y-11513047D01*
X24570650Y-11553040D01*
X24641629Y-11619029D01*
X24737117Y-11704511D01*
X24849843Y-11802986D01*
X24972540Y-11907952D01*
X24980220Y-11914450D01*
X25217301Y-12120302D01*
X25414238Y-12303545D01*
X25574396Y-12467799D01*
X25701137Y-12616682D01*
X25797825Y-12753813D01*
X25854869Y-12855607D01*
X25899019Y-12948365D01*
X25926512Y-13021071D01*
X25941243Y-13091806D01*
X25947109Y-13178655D01*
X25948028Y-13287924D01*
X25946206Y-13408448D01*
X25938760Y-13496276D01*
X25922156Y-13569465D01*
X25892863Y-13646076D01*
X25866788Y-13703191D01*
X25750255Y-13892372D01*
X25593311Y-14053702D01*
X25399769Y-14184329D01*
X25173441Y-14281402D01*
X25045856Y-14317251D01*
X24883895Y-14342923D01*
X24692479Y-14353702D01*
X24490639Y-14349855D01*
X24297405Y-14331649D01*
X24152609Y-14304710D01*
X24003868Y-14260408D01*
X23861948Y-14204115D01*
X23734950Y-14140517D01*
X23630979Y-14074298D01*
X23558138Y-14010143D01*
X23524529Y-13952738D01*
X23523200Y-13940790D01*
X23539995Y-13865871D01*
X23586286Y-13828019D01*
X23655930Y-13828098D01*
X23742785Y-13866972D01*
X23792757Y-13902843D01*
X23945053Y-14003531D01*
X24119823Y-14082313D01*
X24308168Y-14138410D01*
X24501185Y-14171040D01*
X24689975Y-14179422D01*
X24865636Y-14162777D01*
X25019268Y-14120323D01*
X25141969Y-14051281D01*
X25172820Y-14023871D01*
X25233920Y-13929180D01*
X25252284Y-13817489D01*
X25226403Y-13701481D01*
X25214226Y-13675888D01*
X25160450Y-13601030D01*
X25064013Y-13499311D01*
X24925205Y-13370999D01*
X24744316Y-13216361D01*
X24521635Y-13035664D01*
X24513800Y-13029437D01*
X24286274Y-12844057D01*
X24098945Y-12679929D01*
X23948391Y-12532261D01*
X23831194Y-12396259D01*
X23743932Y-12267132D01*
X23683186Y-12140087D01*
X23645536Y-12010331D01*
X23627563Y-11873073D01*
X23624800Y-11783659D01*
X23638472Y-11597578D01*
X23682637Y-11441969D01*
X23762016Y-11303526D01*
X23820577Y-11231894D01*
X23956383Y-11102804D01*
X24106834Y-11005654D01*
X24282131Y-10935567D01*
X24492478Y-10887664D01*
X24562611Y-10877072D01*
X24783013Y-10863850D01*
X25009344Y-10880717D01*
G37*
G36*
X49805850Y-140874441D02*
G01*
X50099136Y-140892469D01*
X50360047Y-140946735D01*
X50593675Y-141039171D01*
X50805111Y-141171709D01*
X50970124Y-141316275D01*
X51146334Y-141525598D01*
X51276689Y-141752208D01*
X51361142Y-141991428D01*
X51399646Y-142238582D01*
X51392152Y-142488993D01*
X51338614Y-142737985D01*
X51238983Y-142980881D01*
X51093212Y-143213006D01*
X50990695Y-143337338D01*
X50838917Y-143474582D01*
X50650778Y-143595480D01*
X50439992Y-143692229D01*
X50275750Y-143744131D01*
X50167800Y-143771558D01*
X50167800Y-144607800D01*
X49558200Y-144607800D01*
X49558200Y-142334500D01*
X50167800Y-142334500D01*
X50168303Y-142571721D01*
X50169905Y-142761829D01*
X50172744Y-142908501D01*
X50176959Y-143015413D01*
X50182687Y-143086243D01*
X50190067Y-143124668D01*
X50197880Y-143134600D01*
X50237436Y-143124179D01*
X50302568Y-143097848D01*
X50335101Y-143082734D01*
X50439581Y-143014562D01*
X50548691Y-142914506D01*
X50648111Y-142797817D01*
X50723523Y-142679743D01*
X50734366Y-142657517D01*
X50767070Y-142567979D01*
X50784408Y-142467329D01*
X50789696Y-142336205D01*
X50789699Y-142334500D01*
X50769919Y-142131275D01*
X50708014Y-141953402D01*
X50601292Y-141794211D01*
X50549143Y-141737943D01*
X50466235Y-141666981D01*
X50371335Y-141603615D01*
X50279826Y-141556779D01*
X50207093Y-141535405D01*
X50199550Y-141534957D01*
X50190314Y-141545538D01*
X50182926Y-141580455D01*
X50177218Y-141643930D01*
X50173022Y-141740187D01*
X50170170Y-141873446D01*
X50168494Y-142047933D01*
X50167828Y-142267868D01*
X50167800Y-142334500D01*
X49558200Y-142334500D01*
X49558200Y-140874000D01*
X49805850Y-140874441D01*
G37*
G36*
X60333081Y-70916050D02*
G01*
X60340500Y-71112900D01*
X61235850Y-71119574D01*
X62131200Y-71126249D01*
X62131200Y-71455150D01*
X60340500Y-71468500D01*
X60333081Y-71665350D01*
X60325663Y-71862200D01*
X59997600Y-71862200D01*
X59997600Y-70719200D01*
X60325663Y-70719200D01*
X60333081Y-70916050D01*
G37*
G36*
X43316560Y-200886685D02*
G01*
X43536976Y-200942758D01*
X43737883Y-201040646D01*
X43928142Y-201183976D01*
X43997824Y-201249460D01*
X44172823Y-201458026D01*
X44309156Y-201699142D01*
X44406571Y-201972115D01*
X44464816Y-202276253D01*
X44483591Y-202583300D01*
X44468598Y-202904414D01*
X44418222Y-203193351D01*
X44330709Y-203456007D01*
X44204307Y-203698277D01*
X44112253Y-203832084D01*
X43944415Y-204015943D01*
X43747588Y-204164074D01*
X43529156Y-204273439D01*
X43296507Y-204340996D01*
X43057028Y-204363708D01*
X42861405Y-204346849D01*
X42612512Y-204279250D01*
X42387532Y-204167425D01*
X42878000Y-204167425D01*
X42947850Y-204177989D01*
X43039543Y-204182340D01*
X43158914Y-204175256D01*
X43284619Y-204158625D01*
X43372874Y-204140358D01*
X43570602Y-204065326D01*
X43756668Y-203945727D01*
X43924299Y-203787560D01*
X44066721Y-203596822D01*
X44142094Y-203459214D01*
X44233313Y-203237633D01*
X44291579Y-203017475D01*
X44320699Y-202781125D01*
X44325800Y-202608700D01*
X44313743Y-202352143D01*
X44275038Y-202123343D01*
X44205879Y-201904683D01*
X44142094Y-201758185D01*
X44010589Y-201536695D01*
X43845435Y-201349454D01*
X43650959Y-201200954D01*
X43553103Y-201147015D01*
X43462442Y-201105200D01*
X43385140Y-201078504D01*
X43302978Y-201062803D01*
X43197735Y-201053972D01*
X43127653Y-201050718D01*
X42878000Y-201040691D01*
X42878000Y-204167425D01*
X42387532Y-204167425D01*
X42386224Y-204166775D01*
X42184329Y-204010885D01*
X42008615Y-203813043D01*
X41860869Y-203574712D01*
X41823264Y-203497700D01*
X41745696Y-203306576D01*
X41691869Y-203114850D01*
X41657931Y-202905559D01*
X41641668Y-202697600D01*
X41645962Y-202388615D01*
X41688567Y-202098942D01*
X41766931Y-201831851D01*
X41878505Y-201590612D01*
X42020739Y-201378495D01*
X42191081Y-201198772D01*
X42386982Y-201054712D01*
X42416179Y-201040691D01*
X42605892Y-200949586D01*
X42845259Y-200886665D01*
X43067773Y-200868800D01*
X43316560Y-200886685D01*
G37*
G36*
X51717200Y-60356000D02*
G01*
X51647350Y-60356557D01*
X51549112Y-60375147D01*
X51442265Y-60421877D01*
X51349979Y-60485254D01*
X51315153Y-60521334D01*
X51271135Y-60614468D01*
X51261486Y-60725049D01*
X51286608Y-60832746D01*
X51308159Y-60873039D01*
X51341678Y-60913984D01*
X51405062Y-60982669D01*
X51491331Y-61071859D01*
X51593505Y-61174319D01*
X51687956Y-61266739D01*
X51813428Y-61389634D01*
X51907708Y-61486378D01*
X51977346Y-61564819D01*
X52028894Y-61632805D01*
X52068903Y-61698184D01*
X52100059Y-61760420D01*
X52178230Y-61985481D01*
X52207035Y-62213359D01*
X52187340Y-62439295D01*
X52120011Y-62658530D01*
X52005913Y-62866303D01*
X51868167Y-63035197D01*
X51709994Y-63174027D01*
X51527411Y-63291262D01*
X51332936Y-63381022D01*
X51139087Y-63437422D01*
X50975263Y-63454800D01*
X50879000Y-63454800D01*
X50879000Y-62852275D01*
X51004262Y-62837440D01*
X51180367Y-62793800D01*
X51335801Y-62710721D01*
X51463384Y-62594573D01*
X51555939Y-62451725D01*
X51603295Y-62305924D01*
X51610918Y-62240571D01*
X51605403Y-62178511D01*
X51583014Y-62113728D01*
X51540012Y-62040209D01*
X51472660Y-61951940D01*
X51377219Y-61842907D01*
X51249952Y-61707097D01*
X51196454Y-61651352D01*
X51038838Y-61484737D01*
X50915035Y-61345163D01*
X50821134Y-61225650D01*
X50753223Y-61119215D01*
X50707393Y-61018878D01*
X50679733Y-60917657D01*
X50666331Y-60808569D01*
X50663228Y-60699434D01*
X50666417Y-60570406D01*
X50677606Y-60474973D01*
X50699479Y-60396206D01*
X50718581Y-60350482D01*
X50788889Y-60233062D01*
X50889282Y-60109556D01*
X51004436Y-59996640D01*
X51119022Y-59910992D01*
X51126685Y-59906414D01*
X51236415Y-59852098D01*
X51364600Y-59803598D01*
X51492548Y-59766852D01*
X51601568Y-59747795D01*
X51630562Y-59746400D01*
X51717200Y-59746400D01*
X51717200Y-60356000D01*
G37*
G36*
X34369000Y-107369098D02*
G01*
X34279674Y-107385855D01*
X34189689Y-107419651D01*
X34110647Y-107478487D01*
X34056008Y-107549732D01*
X34038800Y-107611860D01*
X34043080Y-107662417D01*
X34059372Y-107711569D01*
X34092852Y-107766473D01*
X34148698Y-107834283D01*
X34232085Y-107922154D01*
X34342621Y-108031800D01*
X34475508Y-108167045D01*
X34572898Y-108281267D01*
X34639886Y-108383989D01*
X34681564Y-108484737D01*
X34703025Y-108593034D01*
X34709361Y-108717600D01*
X34705206Y-108838831D01*
X34688439Y-108934246D01*
X34654270Y-109028223D01*
X34643743Y-109051558D01*
X34534628Y-109228371D01*
X34386555Y-109376599D01*
X34205414Y-109491509D01*
X34001713Y-109567179D01*
X33890739Y-109595336D01*
X33820146Y-109605560D01*
X33780815Y-109591322D01*
X33763623Y-109546091D01*
X33759450Y-109463338D01*
X33759400Y-109393715D01*
X33759400Y-109180830D01*
X33880050Y-109150934D01*
X34040286Y-109091056D01*
X34162657Y-109001206D01*
X34244165Y-108883615D01*
X34246583Y-108878253D01*
X34276318Y-108800275D01*
X34287773Y-108731867D01*
X34277575Y-108665299D01*
X34242349Y-108592842D01*
X34178721Y-108506769D01*
X34083317Y-108399349D01*
X33998580Y-108310176D01*
X33858143Y-108158518D01*
X33753643Y-108030118D01*
X33680711Y-107917317D01*
X33634978Y-107812453D01*
X33612074Y-107707866D01*
X33607248Y-107624037D01*
X33628012Y-107473197D01*
X33685360Y-107325320D01*
X33771103Y-107198699D01*
X33818524Y-107152036D01*
X33932005Y-107074929D01*
X34071306Y-107007267D01*
X34211484Y-106960422D01*
X34261050Y-106950245D01*
X34369000Y-106933107D01*
X34369000Y-107369098D01*
G37*
G36*
X17224000Y-107523800D02*
G01*
X17884400Y-107523800D01*
X17884400Y-106939600D01*
X18316200Y-106939600D01*
X18316200Y-109606600D01*
X17885103Y-109606600D01*
X17878401Y-108787450D01*
X17871700Y-107968300D01*
X17224000Y-107954082D01*
X17224000Y-109606600D01*
X16792200Y-109606600D01*
X16792200Y-107955600D01*
X16614400Y-107955600D01*
X16614400Y-107523800D01*
X16792200Y-107523800D01*
X16792200Y-106939600D01*
X17224000Y-106939600D01*
X17224000Y-107523800D01*
G37*
G36*
X66119000Y-197998600D02*
G01*
X16106400Y-197998600D01*
X16106400Y-197211200D01*
X66119000Y-197211200D01*
X66119000Y-197998600D01*
G37*
G36*
X60353200Y-60084775D02*
G01*
X60375418Y-60226275D01*
X60436652Y-60373298D01*
X60528767Y-60512452D01*
X60643630Y-60630346D01*
X60716703Y-60683235D01*
X60873449Y-60752959D01*
X61035638Y-60776736D01*
X61196676Y-60757971D01*
X61349965Y-60700068D01*
X61488910Y-60606432D01*
X61606915Y-60480469D01*
X61697383Y-60325585D01*
X61753132Y-60148197D01*
X61782209Y-60000400D01*
X62127529Y-60000400D01*
X62113149Y-60146450D01*
X62068009Y-60363682D01*
X61980136Y-60566572D01*
X61855274Y-60747983D01*
X61699166Y-60900780D01*
X61517556Y-61017828D01*
X61362031Y-61079675D01*
X61198141Y-61111166D01*
X61019472Y-61117152D01*
X60846340Y-61098293D01*
X60706483Y-61058371D01*
X60500724Y-60948379D01*
X60323663Y-60802446D01*
X60180305Y-60627060D01*
X60075655Y-60428707D01*
X60014719Y-60213874D01*
X60006072Y-60150698D01*
X59990363Y-60000400D01*
X60353200Y-60000400D01*
X60353200Y-60084775D01*
G37*
G36*
X51759018Y-115983486D02*
G01*
X51854960Y-115987536D01*
X51919819Y-115993535D01*
X51943851Y-116000869D01*
X51943846Y-116001050D01*
X51935638Y-116027633D01*
X51912498Y-116098576D01*
X51875690Y-116210087D01*
X51826478Y-116358376D01*
X51766125Y-116539653D01*
X51695895Y-116750128D01*
X51617052Y-116986010D01*
X51530857Y-117243508D01*
X51438576Y-117518832D01*
X51341472Y-117808192D01*
X51340596Y-117810800D01*
X50739300Y-119601500D01*
X50455551Y-119608663D01*
X50340939Y-119609859D01*
X50246354Y-119607644D01*
X50182512Y-119602478D01*
X50160329Y-119595963D01*
X50166262Y-119569225D01*
X50187029Y-119498081D01*
X50221413Y-119386322D01*
X50268198Y-119237740D01*
X50326167Y-119056126D01*
X50394104Y-118845272D01*
X50470792Y-118608969D01*
X50555015Y-118351009D01*
X50645557Y-118075182D01*
X50741201Y-117785282D01*
X50743262Y-117779050D01*
X51337670Y-115982000D01*
X51641735Y-115982000D01*
X51759018Y-115983486D01*
G37*
G36*
X21606405Y-132324493D02*
G01*
X21612024Y-132107715D01*
X21621621Y-131916880D01*
X21635269Y-131762901D01*
X21639526Y-131730000D01*
X21749722Y-131119150D01*
X21904589Y-130532094D01*
X22103929Y-129969233D01*
X22347545Y-129430970D01*
X22635239Y-128917706D01*
X22966813Y-128429841D01*
X23342071Y-127967778D01*
X23650034Y-127640434D01*
X24077183Y-127248085D01*
X24537521Y-126890776D01*
X25026027Y-126571471D01*
X25537680Y-126293132D01*
X26067461Y-126058720D01*
X26610349Y-125871198D01*
X26685500Y-125849314D01*
X27240430Y-125717067D01*
X27810900Y-125630659D01*
X28390315Y-125590202D01*
X28972079Y-125595813D01*
X29549598Y-125647605D01*
X30116274Y-125745693D01*
X30293617Y-125786723D01*
X30862013Y-125952397D01*
X31410357Y-126164515D01*
X31937166Y-126422240D01*
X32440956Y-126724732D01*
X32920245Y-127071152D01*
X33373549Y-127460660D01*
X33545763Y-127626844D01*
X33850541Y-127944487D01*
X34116850Y-128253538D01*
X34352933Y-128565373D01*
X34567031Y-128891367D01*
X34767386Y-129242895D01*
X34890023Y-129482100D01*
X35098371Y-129935652D01*
X35267394Y-130376670D01*
X35401260Y-130818864D01*
X35504139Y-131275945D01*
X35578090Y-131745121D01*
X35596544Y-131930675D01*
X35609834Y-132151949D01*
X35617856Y-132395177D01*
X35620502Y-132646593D01*
X35617666Y-132892432D01*
X35609243Y-133118928D01*
X35595126Y-133312315D01*
X35590495Y-133355600D01*
X35496294Y-133953701D01*
X35355122Y-134534590D01*
X35168152Y-135096221D01*
X34936555Y-135636546D01*
X34661504Y-136153521D01*
X34344171Y-136645100D01*
X33985728Y-137109235D01*
X33587347Y-137543882D01*
X33150200Y-137946994D01*
X32801074Y-138224814D01*
X32311464Y-138558995D01*
X31798095Y-138849125D01*
X31264010Y-139094305D01*
X30712251Y-139293637D01*
X30145863Y-139446225D01*
X29567887Y-139551170D01*
X28981366Y-139607574D01*
X28389345Y-139614541D01*
X28132606Y-139602030D01*
X27549333Y-139537611D01*
X26973692Y-139423768D01*
X26408843Y-139261681D01*
X25857948Y-139052530D01*
X25324166Y-138797492D01*
X24810660Y-138497748D01*
X24386800Y-138204462D01*
X24222894Y-138074460D01*
X24039124Y-137915628D01*
X23844823Y-137737102D01*
X23649327Y-137548020D01*
X23461969Y-137357518D01*
X23292084Y-137174733D01*
X23149007Y-137008803D01*
X23091958Y-136937000D01*
X22745483Y-136450676D01*
X22447350Y-135957129D01*
X22195327Y-135451119D01*
X21987179Y-134927406D01*
X21820675Y-134380753D01*
X21693580Y-133805918D01*
X21652025Y-133558800D01*
X21635349Y-133415550D01*
X21622203Y-133232761D01*
X21612661Y-133021348D01*
X21606798Y-132792223D01*
X21605213Y-132615139D01*
X21633311Y-132615139D01*
X21636923Y-132854636D01*
X21644965Y-133083302D01*
X21657337Y-133288902D01*
X21673940Y-133459203D01*
X21678809Y-133495300D01*
X21790413Y-134104828D01*
X21944729Y-134687028D01*
X22142091Y-135242583D01*
X22382835Y-135772182D01*
X22667297Y-136276510D01*
X22995811Y-136756253D01*
X23368714Y-137212099D01*
X23631703Y-137492508D01*
X24073820Y-137905463D01*
X24540699Y-138274086D01*
X25032012Y-138598215D01*
X25547430Y-138877691D01*
X26086625Y-139112351D01*
X26649269Y-139302036D01*
X27235034Y-139446584D01*
X27814530Y-139542192D01*
X27977508Y-139557126D01*
X28179458Y-139566562D01*
X28408874Y-139570728D01*
X28654252Y-139569852D01*
X28904085Y-139564161D01*
X29146869Y-139553883D01*
X29371098Y-139539245D01*
X29565268Y-139520476D01*
X29674657Y-139505404D01*
X30269917Y-139383850D01*
X30846567Y-139215371D01*
X31403191Y-139000593D01*
X31938372Y-138740140D01*
X32450692Y-138434639D01*
X32938735Y-138084716D01*
X32997400Y-138038333D01*
X33128593Y-137927292D01*
X33282249Y-137787222D01*
X33448340Y-137628148D01*
X33616840Y-137460094D01*
X33777721Y-137293084D01*
X33920956Y-137137142D01*
X34036519Y-137002292D01*
X34048215Y-136987800D01*
X34395684Y-136513861D01*
X34703278Y-136011473D01*
X34968724Y-135485453D01*
X35189747Y-134940620D01*
X35364072Y-134381791D01*
X35450516Y-134016942D01*
X35505005Y-133727596D01*
X35544284Y-133451544D01*
X35569531Y-133174354D01*
X35581924Y-132881592D01*
X35582641Y-132558825D01*
X35580174Y-132428500D01*
X35565610Y-132063061D01*
X35538838Y-131732929D01*
X35497624Y-131423599D01*
X35439733Y-131120569D01*
X35362933Y-130809332D01*
X35293814Y-130569174D01*
X35101806Y-130021060D01*
X34864161Y-129492068D01*
X34583370Y-128985093D01*
X34261922Y-128503027D01*
X33902310Y-128048764D01*
X33507023Y-127625197D01*
X33078552Y-127235220D01*
X32619387Y-126881726D01*
X32132019Y-126567609D01*
X31618938Y-126295763D01*
X31613100Y-126292989D01*
X31065483Y-126060878D01*
X30504884Y-125877250D01*
X29933942Y-125742250D01*
X29355298Y-125656023D01*
X28771593Y-125618714D01*
X28185468Y-125630469D01*
X27599562Y-125691432D01*
X27016517Y-125801749D01*
X26438973Y-125961564D01*
X26317200Y-126001918D01*
X26144476Y-126066113D01*
X25943879Y-126149280D01*
X25727587Y-126245635D01*
X25507779Y-126349393D01*
X25296635Y-126454772D01*
X25106334Y-126555986D01*
X24949056Y-126647253D01*
X24920200Y-126665356D01*
X24414928Y-127016317D01*
X23949868Y-127398304D01*
X23524930Y-127811411D01*
X23140026Y-128255735D01*
X22795071Y-128731369D01*
X22489974Y-129238409D01*
X22415006Y-129379572D01*
X22168956Y-129902348D01*
X21969996Y-130429645D01*
X21815501Y-130969916D01*
X21702845Y-131531611D01*
X21665116Y-131793500D01*
X21650029Y-131953989D01*
X21639765Y-132152582D01*
X21634225Y-132377043D01*
X21633311Y-132615139D01*
X21605213Y-132615139D01*
X21604687Y-132556300D01*
X21606405Y-132324493D01*
G37*
G36*
X36270753Y-59828950D02*
G01*
X36283437Y-59869463D01*
X36309595Y-59953324D01*
X36347619Y-60075369D01*
X36395903Y-60230436D01*
X36452839Y-60413361D01*
X36516820Y-60618982D01*
X36586239Y-60842137D01*
X36656234Y-61067200D01*
X36728826Y-61300140D01*
X36797222Y-61518668D01*
X36859875Y-61717907D01*
X36915238Y-61892978D01*
X36961762Y-62039005D01*
X36997901Y-62151109D01*
X37022107Y-62224414D01*
X37032813Y-62254009D01*
X37043352Y-62236537D01*
X37067272Y-62174829D01*
X37103128Y-62073242D01*
X37149478Y-61936129D01*
X37204879Y-61767845D01*
X37267887Y-61572744D01*
X37337059Y-61355182D01*
X37410953Y-61119512D01*
X37443051Y-61016171D01*
X37836100Y-59747223D01*
X38158408Y-59746811D01*
X38480716Y-59746400D01*
X38445106Y-59854350D01*
X38431513Y-59896724D01*
X38404079Y-59983250D01*
X38364166Y-60109609D01*
X38313133Y-60271479D01*
X38252340Y-60464541D01*
X38183149Y-60684473D01*
X38106918Y-60926956D01*
X38025009Y-61187669D01*
X37938780Y-61462292D01*
X37899357Y-61587900D01*
X37811520Y-61867751D01*
X37727310Y-62135945D01*
X37648100Y-62388117D01*
X37575262Y-62619906D01*
X37510169Y-62826946D01*
X37454191Y-63004876D01*
X37408702Y-63149330D01*
X37375073Y-63255947D01*
X37354676Y-63320363D01*
X37350267Y-63334150D01*
X37311317Y-63454800D01*
X37040308Y-63454456D01*
X36769300Y-63454113D01*
X36197800Y-61636561D01*
X36105680Y-61343460D01*
X36017945Y-61064048D01*
X35935795Y-60802171D01*
X35860433Y-60561672D01*
X35793062Y-60346399D01*
X35734885Y-60160196D01*
X35687103Y-60006909D01*
X35650919Y-59890382D01*
X35627536Y-59814461D01*
X35618156Y-59782992D01*
X35618087Y-59782705D01*
X35622597Y-59767314D01*
X35649166Y-59756841D01*
X35705048Y-59750431D01*
X35797495Y-59747235D01*
X35927267Y-59746400D01*
X36244660Y-59746400D01*
X36270753Y-59828950D01*
G37*
G36*
X24483804Y-28747744D02*
G01*
X24655789Y-28786196D01*
X24834630Y-28844529D01*
X24990058Y-28911577D01*
X25218507Y-29052075D01*
X25420476Y-29233620D01*
X25592119Y-29451780D01*
X25729591Y-29702123D01*
X25777427Y-29819064D01*
X25835386Y-30040041D01*
X25857524Y-30281860D01*
X25844694Y-30530208D01*
X25797744Y-30770773D01*
X25717525Y-30989240D01*
X25706566Y-31011586D01*
X25672535Y-31067504D01*
X25610994Y-31156804D01*
X25526447Y-31273425D01*
X25423395Y-31411304D01*
X25306340Y-31564380D01*
X25179786Y-31726591D01*
X25111162Y-31813236D01*
X24986189Y-31970550D01*
X24871970Y-32115014D01*
X24772210Y-32241887D01*
X24690614Y-32346432D01*
X24630886Y-32423907D01*
X24596732Y-32469573D01*
X24590000Y-32479986D01*
X24614217Y-32483460D01*
X24682144Y-32486550D01*
X24786689Y-32489107D01*
X24920762Y-32490983D01*
X25077272Y-32492030D01*
X25174200Y-32492200D01*
X25758400Y-32492200D01*
X25758400Y-33228800D01*
X23064402Y-33228800D01*
X23290184Y-32943050D01*
X23353544Y-32862872D01*
X23443962Y-32748470D01*
X23556992Y-32605468D01*
X23688186Y-32439494D01*
X23833098Y-32256171D01*
X23987280Y-32061126D01*
X24146287Y-31859986D01*
X24258928Y-31717500D01*
X24418130Y-31514925D01*
X24567377Y-31322706D01*
X24703403Y-31145197D01*
X24822944Y-30986755D01*
X24922736Y-30851734D01*
X24999514Y-30744489D01*
X25050013Y-30669377D01*
X25068096Y-30638000D01*
X25106751Y-30543196D01*
X25127158Y-30451233D01*
X25134105Y-30338235D01*
X25134303Y-30307800D01*
X25110963Y-30104609D01*
X25043351Y-29922425D01*
X24935080Y-29765295D01*
X24789763Y-29637261D01*
X24611013Y-29542370D01*
X24402442Y-29484667D01*
X24398556Y-29484014D01*
X24259412Y-29481992D01*
X24098073Y-29515573D01*
X23925920Y-29582240D01*
X23902259Y-29593744D01*
X23760619Y-29664338D01*
X23388579Y-29056466D01*
X23449539Y-29009820D01*
X23540887Y-28955024D01*
X23668807Y-28898261D01*
X23819461Y-28843839D01*
X23979008Y-28796065D01*
X24133611Y-28759248D01*
X24269431Y-28737695D01*
X24336000Y-28733882D01*
X24483804Y-28747744D01*
G37*
G36*
X22310350Y-106946909D02*
G01*
X22559230Y-106979216D01*
X22776475Y-107045434D01*
X22971865Y-107150058D01*
X23155179Y-107297578D01*
X23224845Y-107367010D01*
X23372182Y-107554043D01*
X23486760Y-107767233D01*
X23563529Y-107994341D01*
X23597441Y-108223127D01*
X23598649Y-108273100D01*
X23574974Y-108500593D01*
X23507317Y-108729134D01*
X23400727Y-108946485D01*
X23260252Y-109140406D01*
X23224845Y-109179189D01*
X23043577Y-109344484D01*
X22854011Y-109465146D01*
X22646368Y-109545668D01*
X22410868Y-109590543D01*
X22310350Y-109599290D01*
X22075400Y-109614063D01*
X22075400Y-108270346D01*
X22507200Y-108270346D01*
X22507958Y-108531115D01*
X22510217Y-108745730D01*
X22513945Y-108913246D01*
X22519117Y-109032722D01*
X22525702Y-109103215D01*
X22532876Y-109124000D01*
X22569274Y-109113885D01*
X22633361Y-109088117D01*
X22674071Y-109069700D01*
X22801055Y-108989941D01*
X22923716Y-108878073D01*
X23024920Y-108751145D01*
X23065775Y-108679964D01*
X23101151Y-108589377D01*
X23133291Y-108477908D01*
X23149026Y-108403669D01*
X23157786Y-108211702D01*
X23122571Y-108019719D01*
X23047949Y-107838435D01*
X22938487Y-107678565D01*
X22798751Y-107550823D01*
X22780094Y-107538114D01*
X22697050Y-107488125D01*
X22619892Y-107449347D01*
X22577050Y-107433605D01*
X22507200Y-107416692D01*
X22507200Y-108270346D01*
X22075400Y-108270346D01*
X22075400Y-106932136D01*
X22310350Y-106946909D01*
G37*
G36*
X18795391Y-108457250D02*
G01*
X18809912Y-108410765D01*
X18837140Y-108323364D01*
X18874712Y-108202639D01*
X18920265Y-108056189D01*
X18971435Y-107891606D01*
X19014700Y-107752400D01*
X19068656Y-107578800D01*
X19118880Y-107417273D01*
X19163009Y-107275414D01*
X19198679Y-107160818D01*
X19223527Y-107081082D01*
X19234008Y-107047550D01*
X19259939Y-106965000D01*
X19650824Y-106965000D01*
X20028662Y-108177850D01*
X20104003Y-108419722D01*
X20175676Y-108649884D01*
X20242079Y-108863179D01*
X20301606Y-109054451D01*
X20352653Y-109218544D01*
X20393615Y-109350300D01*
X20422889Y-109444563D01*
X20438869Y-109496178D01*
X20439918Y-109499590D01*
X20473336Y-109608481D01*
X20242246Y-109601190D01*
X20011155Y-109593900D01*
X19828333Y-108997000D01*
X19082351Y-108997000D01*
X18987217Y-109301800D01*
X18892082Y-109606600D01*
X18667641Y-109606600D01*
X18568047Y-109604607D01*
X18491246Y-109599275D01*
X18448642Y-109591574D01*
X18443667Y-109587550D01*
X18451165Y-109557075D01*
X18471175Y-109488721D01*
X18500556Y-109392938D01*
X18532567Y-109291460D01*
X18567558Y-109181126D01*
X18596008Y-109090054D01*
X18614834Y-109028213D01*
X18621000Y-109005710D01*
X18599621Y-108998620D01*
X18570200Y-108997000D01*
X18546064Y-108993180D01*
X18531066Y-108975275D01*
X18523058Y-108933616D01*
X18519891Y-108858534D01*
X18519400Y-108768400D01*
X18519400Y-108539800D01*
X18644430Y-108539800D01*
X18720013Y-108537390D01*
X18760981Y-108524275D01*
X18763411Y-108520750D01*
X19231163Y-108520750D01*
X19254422Y-108529092D01*
X19317244Y-108535578D01*
X19408399Y-108539281D01*
X19461917Y-108539800D01*
X19571769Y-108538672D01*
X19639244Y-108534283D01*
X19672733Y-108525124D01*
X19680628Y-108509683D01*
X19678296Y-108500871D01*
X19665215Y-108462418D01*
X19640608Y-108386404D01*
X19607984Y-108283789D01*
X19570857Y-108165535D01*
X19570478Y-108164321D01*
X19533614Y-108047744D01*
X19501322Y-107948494D01*
X19477018Y-107876872D01*
X19464116Y-107843180D01*
X19463931Y-107842847D01*
X19453071Y-107858771D01*
X19430382Y-107913055D01*
X19399326Y-107995613D01*
X19363365Y-108096360D01*
X19325963Y-108205213D01*
X19290583Y-108312086D01*
X19260686Y-108406894D01*
X19239737Y-108479554D01*
X19231197Y-108519980D01*
X19231163Y-108520750D01*
X18763411Y-108520750D01*
X18783487Y-108491622D01*
X18795391Y-108457250D01*
G37*
G36*
X23706581Y-203657980D02*
G01*
X23719974Y-203658483D01*
X23815364Y-203664112D01*
X24297426Y-202216420D01*
X24383926Y-201957739D01*
X24465979Y-201714456D01*
X24542157Y-201490672D01*
X24611030Y-201290484D01*
X24671169Y-201117992D01*
X24721144Y-200977296D01*
X24759526Y-200872495D01*
X24784886Y-200807688D01*
X24795794Y-200786974D01*
X24795836Y-200787014D01*
X24807788Y-200813841D01*
X24835728Y-200883699D01*
X24877934Y-200992006D01*
X24932684Y-201134179D01*
X24998255Y-201305638D01*
X25072925Y-201501801D01*
X25154970Y-201718085D01*
X25242669Y-201949909D01*
X25334298Y-202192692D01*
X25428136Y-202441850D01*
X25522459Y-202692803D01*
X25615546Y-202940969D01*
X25705673Y-203181765D01*
X25791118Y-203410611D01*
X25870159Y-203622923D01*
X25941072Y-203814121D01*
X26002136Y-203979623D01*
X26051628Y-204114847D01*
X26087826Y-204215210D01*
X26109006Y-204276132D01*
X26114000Y-204293200D01*
X26099005Y-204304248D01*
X26051223Y-204312515D01*
X25966455Y-204318250D01*
X25840502Y-204321705D01*
X25669166Y-204323130D01*
X25611782Y-204323200D01*
X25109565Y-204323200D01*
X24953553Y-203904100D01*
X23898160Y-203904100D01*
X23827521Y-204104230D01*
X23782738Y-204221950D01*
X23744560Y-204296596D01*
X23707567Y-204334449D01*
X23666336Y-204341791D01*
X23631150Y-204331778D01*
X23603424Y-204294973D01*
X23606498Y-204222190D01*
X23639892Y-204117482D01*
X23662651Y-204065372D01*
X23703833Y-203972182D01*
X23721283Y-203913889D01*
X23715033Y-203880486D01*
X23685113Y-203861970D01*
X23663286Y-203855666D01*
X23611897Y-203822699D01*
X23581577Y-203767033D01*
X23580110Y-203708849D01*
X23596071Y-203681368D01*
X23630282Y-203667394D01*
X23980400Y-203667394D01*
X24001868Y-203684996D01*
X24037550Y-203695674D01*
X24087828Y-203700844D01*
X24172331Y-203704872D01*
X24280871Y-203707736D01*
X24403263Y-203709415D01*
X24529319Y-203709888D01*
X24648852Y-203709133D01*
X24751676Y-203707130D01*
X24827604Y-203703856D01*
X24866449Y-203699291D01*
X24869400Y-203697414D01*
X24860682Y-203663602D01*
X24836481Y-203592357D01*
X24799728Y-203491147D01*
X24753353Y-203367444D01*
X24700285Y-203228716D01*
X24643456Y-203082434D01*
X24585794Y-202936067D01*
X24530231Y-202797086D01*
X24479696Y-202672960D01*
X24437119Y-202571160D01*
X24405431Y-202499155D01*
X24387561Y-202464415D01*
X24385010Y-202462531D01*
X24373204Y-202490194D01*
X24348360Y-202558062D01*
X24313194Y-202658043D01*
X24270424Y-202782048D01*
X24222767Y-202921986D01*
X24172939Y-203069765D01*
X24123658Y-203217296D01*
X24077640Y-203356488D01*
X24037602Y-203479251D01*
X24006262Y-203577493D01*
X23986336Y-203643123D01*
X23980400Y-203667394D01*
X23630282Y-203667394D01*
X23638618Y-203663989D01*
X23706581Y-203657980D01*
G37*
G36*
X35972565Y-200888274D02*
G01*
X36192102Y-200948687D01*
X36394214Y-201053019D01*
X36585876Y-201204252D01*
X36642646Y-201259484D01*
X36808683Y-201457630D01*
X36939454Y-201681564D01*
X37039332Y-201939237D01*
X37064374Y-202025973D01*
X37097720Y-202197368D01*
X37117253Y-202400680D01*
X37122958Y-202619079D01*
X37114824Y-202835732D01*
X37092836Y-203033806D01*
X37065283Y-203167500D01*
X36967303Y-203455170D01*
X36838016Y-203706302D01*
X36679182Y-203919252D01*
X36492565Y-204092376D01*
X36279925Y-204224030D01*
X36043026Y-204312573D01*
X35791400Y-204355738D01*
X35681103Y-204359747D01*
X35570037Y-204355804D01*
X35505990Y-204348423D01*
X35257908Y-204280419D01*
X35031054Y-204167954D01*
X35030358Y-204167425D01*
X35512000Y-204167425D01*
X35581850Y-204178493D01*
X35670808Y-204183422D01*
X35786555Y-204177944D01*
X35906607Y-204164017D01*
X36008481Y-204143599D01*
X36020000Y-204140338D01*
X36218666Y-204056687D01*
X36407305Y-203930703D01*
X36576285Y-203770851D01*
X36715976Y-203585595D01*
X36777548Y-203474474D01*
X36865592Y-203264152D01*
X36923343Y-203052450D01*
X36954185Y-202823470D01*
X36961769Y-202608700D01*
X36944575Y-202302989D01*
X36891716Y-202030822D01*
X36801754Y-201788203D01*
X36673251Y-201571136D01*
X36525348Y-201396246D01*
X36366671Y-201252795D01*
X36209231Y-201152234D01*
X36040013Y-201088692D01*
X35846006Y-201056298D01*
X35759650Y-201050792D01*
X35512000Y-201040691D01*
X35512000Y-204167425D01*
X35030358Y-204167425D01*
X34828278Y-204013925D01*
X34652428Y-203821227D01*
X34506353Y-203592758D01*
X34392902Y-203331415D01*
X34343199Y-203166026D01*
X34285372Y-202853267D01*
X34270802Y-202543227D01*
X34298185Y-202241588D01*
X34366215Y-201954033D01*
X34473589Y-201686242D01*
X34619003Y-201443898D01*
X34782874Y-201250685D01*
X34979168Y-201086732D01*
X35063670Y-201040691D01*
X35195263Y-200968993D01*
X35433026Y-200896713D01*
X35694322Y-200869140D01*
X35728626Y-200868800D01*
X35972565Y-200888274D01*
G37*
G36*
X31575000Y-95357200D02*
G01*
X30432000Y-95357200D01*
X30432000Y-95560400D01*
X31625800Y-95560400D01*
X31625800Y-96170000D01*
X30432000Y-96170000D01*
X30432000Y-98456000D01*
X29822400Y-98456000D01*
X29822400Y-96170000D01*
X29593800Y-96170000D01*
X29593800Y-95560400D01*
X29822400Y-95560400D01*
X29822400Y-94747600D01*
X31575000Y-94747600D01*
X31575000Y-95357200D01*
G37*
G36*
X55935530Y-200885799D02*
G01*
X55948454Y-200898168D01*
X55958631Y-200913072D01*
X55966920Y-200938574D01*
X55973490Y-200979387D01*
X55978507Y-201040226D01*
X55982138Y-201125805D01*
X55984551Y-201240837D01*
X55985913Y-201390035D01*
X55986390Y-201578114D01*
X55986150Y-201809788D01*
X55985790Y-201951361D01*
X55984486Y-202180722D01*
X55982019Y-202400342D01*
X55978551Y-202603601D01*
X55974248Y-202783882D01*
X55969270Y-202934565D01*
X55963783Y-203049031D01*
X55957949Y-203120662D01*
X55956735Y-203129391D01*
X55894682Y-203402933D01*
X55800704Y-203649906D01*
X55677639Y-203865276D01*
X55528329Y-204044011D01*
X55367924Y-204173252D01*
X55150408Y-204284847D01*
X54919083Y-204347625D01*
X54674775Y-204361414D01*
X54528404Y-204347044D01*
X54325283Y-204291736D01*
X54130318Y-204192424D01*
X53952383Y-204055898D01*
X53800354Y-203888949D01*
X53684541Y-203701326D01*
X53645727Y-203621029D01*
X53613156Y-203549293D01*
X53586242Y-203480864D01*
X53564400Y-203410486D01*
X53547046Y-203332903D01*
X53533593Y-203242860D01*
X53523456Y-203135101D01*
X53516051Y-203004372D01*
X53510792Y-202845417D01*
X53507093Y-202652980D01*
X53504369Y-202421807D01*
X53502036Y-202146641D01*
X53501336Y-202056250D01*
X53492383Y-200894200D01*
X54485426Y-200894200D01*
X54498500Y-204158100D01*
X54742845Y-204165329D01*
X54931531Y-204161592D01*
X55085757Y-204134915D01*
X55218410Y-204080762D01*
X55342379Y-203994598D01*
X55414650Y-203928882D01*
X55529397Y-203795843D01*
X55625123Y-203636497D01*
X55706427Y-203442070D01*
X55760385Y-203269100D01*
X55774303Y-203216933D01*
X55785791Y-203166212D01*
X55795122Y-203111484D01*
X55802571Y-203047294D01*
X55808413Y-202968188D01*
X55812922Y-202868711D01*
X55816373Y-202743409D01*
X55819039Y-202586828D01*
X55821196Y-202393514D01*
X55823118Y-202158012D01*
X55824231Y-202000242D01*
X55826266Y-201734560D01*
X55828516Y-201515205D01*
X55831167Y-201337705D01*
X55834404Y-201197585D01*
X55838411Y-201090374D01*
X55843373Y-201011598D01*
X55849476Y-200956785D01*
X55856903Y-200921461D01*
X55865841Y-200901153D01*
X55869864Y-200896249D01*
X55904194Y-200871285D01*
X55935530Y-200885799D01*
G37*
G36*
X39368029Y-200903867D02*
G01*
X39549787Y-200964181D01*
X39628294Y-201000556D01*
X39760116Y-201077333D01*
X39860497Y-201158025D01*
X39926154Y-201237715D01*
X39953803Y-201311486D01*
X39940161Y-201374422D01*
X39902226Y-201410708D01*
X39872660Y-201417932D01*
X39832983Y-201401701D01*
X39774078Y-201356890D01*
X39717991Y-201307114D01*
X39577781Y-201195936D01*
X39434839Y-201121194D01*
X39275503Y-201077897D01*
X39086109Y-201061053D01*
X39042600Y-201060416D01*
X38801300Y-201059300D01*
X38794753Y-202618402D01*
X38788206Y-204177505D01*
X38975385Y-204165493D01*
X39194999Y-204126818D01*
X39398104Y-204041117D01*
X39582325Y-203910158D01*
X39745290Y-203735708D01*
X39884623Y-203519536D01*
X39910707Y-203468909D01*
X39958149Y-203371609D01*
X39989495Y-203298070D01*
X40008109Y-203232799D01*
X40017355Y-203160303D01*
X40020596Y-203065088D01*
X40021130Y-202960312D01*
X40024156Y-202811485D01*
X40033503Y-202708606D01*
X40050720Y-202647047D01*
X40077354Y-202622180D01*
X40114955Y-202629377D01*
X40129149Y-202637439D01*
X40141257Y-202648627D01*
X40150917Y-202668777D01*
X40158402Y-202703170D01*
X40163985Y-202757084D01*
X40167938Y-202835800D01*
X40170533Y-202944598D01*
X40172043Y-203088757D01*
X40172741Y-203273557D01*
X40172900Y-203485000D01*
X40172738Y-203711470D01*
X40172062Y-203892454D01*
X40170584Y-204033264D01*
X40168015Y-204139214D01*
X40164068Y-204215616D01*
X40158456Y-204267782D01*
X40150890Y-204301027D01*
X40141083Y-204320662D01*
X40128747Y-204332001D01*
X40126962Y-204333131D01*
X40086082Y-204348737D01*
X40056478Y-204335113D01*
X40037043Y-204287850D01*
X40026669Y-204202538D01*
X40024248Y-204074768D01*
X40027375Y-203936629D01*
X40038711Y-203599300D01*
X39938382Y-203751700D01*
X39813099Y-203914161D01*
X39664245Y-204062716D01*
X39508167Y-204181500D01*
X39474028Y-204202327D01*
X39288897Y-204285335D01*
X39079063Y-204338929D01*
X38863549Y-204359556D01*
X38690749Y-204348612D01*
X38449756Y-204287562D01*
X38230403Y-204181449D01*
X38035352Y-204032331D01*
X37867262Y-203842265D01*
X37728795Y-203613308D01*
X37721933Y-203599300D01*
X37638583Y-203406194D01*
X37580967Y-203218222D01*
X37544587Y-203016976D01*
X37525534Y-202795510D01*
X37528968Y-202482768D01*
X37571345Y-202187546D01*
X37650082Y-201913318D01*
X37762592Y-201663560D01*
X37906293Y-201441746D01*
X38078599Y-201251351D01*
X38276926Y-201095850D01*
X38498689Y-200978718D01*
X38741304Y-200903429D01*
X38953700Y-200875371D01*
X39174707Y-200875261D01*
X39368029Y-200903867D01*
G37*
G36*
X31611080Y-140685868D02*
G01*
X31668508Y-140728458D01*
X31755593Y-140794645D01*
X31867213Y-140880506D01*
X31998248Y-140982117D01*
X32143578Y-141095555D01*
X32178980Y-141123293D01*
X32328130Y-141240030D01*
X32465217Y-141346935D01*
X32584890Y-141439865D01*
X32681796Y-141514678D01*
X32750586Y-141567233D01*
X32785907Y-141593387D01*
X32788552Y-141595126D01*
X32807293Y-141591822D01*
X32847213Y-141570241D01*
X32910503Y-141528752D01*
X32999353Y-141465730D01*
X33115954Y-141379545D01*
X33262497Y-141268569D01*
X33441171Y-141131175D01*
X33654168Y-140965734D01*
X33903678Y-140770618D01*
X34007050Y-140689510D01*
X34013088Y-140693802D01*
X34018357Y-140718653D01*
X34022902Y-140766860D01*
X34026771Y-140841222D01*
X34030007Y-140944536D01*
X34032656Y-141079599D01*
X34034765Y-141249209D01*
X34036379Y-141456164D01*
X34037543Y-141703261D01*
X34038303Y-141993299D01*
X34038705Y-142329074D01*
X34038800Y-142636189D01*
X34038800Y-144607800D01*
X33429645Y-144607800D01*
X33423072Y-143264549D01*
X33416500Y-141921298D01*
X33115790Y-142158224D01*
X32815081Y-142395151D01*
X32506190Y-142151981D01*
X32197300Y-141908811D01*
X32190727Y-143258305D01*
X32184154Y-144607800D01*
X31896510Y-144607800D01*
X31780352Y-144606386D01*
X31683514Y-144602549D01*
X31616907Y-144596895D01*
X31591933Y-144590866D01*
X31589264Y-144563607D01*
X31586813Y-144490529D01*
X31584584Y-144376354D01*
X31582581Y-144225803D01*
X31580808Y-144043598D01*
X31579269Y-143834461D01*
X31577969Y-143603112D01*
X31576911Y-143354274D01*
X31576101Y-143092669D01*
X31575541Y-142823017D01*
X31575238Y-142550040D01*
X31575193Y-142278461D01*
X31575413Y-142013000D01*
X31575901Y-141758379D01*
X31576661Y-141519319D01*
X31577698Y-141300543D01*
X31579016Y-141106772D01*
X31580618Y-140942727D01*
X31582510Y-140813131D01*
X31584695Y-140722704D01*
X31587178Y-140676168D01*
X31588430Y-140670800D01*
X31611080Y-140685868D01*
G37*
G36*
X56517800Y-60356000D02*
G01*
X55832000Y-60356000D01*
X55832000Y-63454800D01*
X55247800Y-63454800D01*
X55247800Y-60356000D01*
X54536600Y-60356000D01*
X54536600Y-59746400D01*
X56517800Y-59746400D01*
X56517800Y-60356000D01*
G37*
G36*
X62118804Y-65383131D02*
G01*
X62127707Y-65444922D01*
X62131197Y-65532868D01*
X62131200Y-65535575D01*
X62131200Y-65711350D01*
X61445400Y-65982100D01*
X61270747Y-66051480D01*
X61112493Y-66115168D01*
X60976521Y-66170732D01*
X60868714Y-66215736D01*
X60794955Y-66247748D01*
X60761128Y-66264333D01*
X60759600Y-66265803D01*
X60776952Y-66289554D01*
X60816750Y-66326433D01*
X60838080Y-66341309D01*
X60866223Y-66352760D01*
X60907608Y-66361240D01*
X60968665Y-66367203D01*
X61055823Y-66371106D01*
X61175511Y-66373403D01*
X61334158Y-66374549D01*
X61502550Y-66374954D01*
X62131200Y-66375800D01*
X62131200Y-66706000D01*
X59997600Y-66706000D01*
X59997600Y-66375800D01*
X60340500Y-66373384D01*
X60169050Y-66214227D01*
X59997600Y-66055071D01*
X59997600Y-65834435D01*
X59999230Y-65735698D01*
X60003589Y-65659785D01*
X60009874Y-65618232D01*
X60012929Y-65613800D01*
X60036762Y-65629872D01*
X60089759Y-65673481D01*
X60163750Y-65737710D01*
X60239297Y-65805394D01*
X60450334Y-65996989D01*
X61265802Y-65678394D01*
X61458140Y-65603524D01*
X61635748Y-65534912D01*
X61793017Y-65474686D01*
X61924335Y-65424972D01*
X62024095Y-65387897D01*
X62086686Y-65365587D01*
X62106234Y-65359800D01*
X62118804Y-65383131D01*
G37*
G36*
X57991000Y-116490000D02*
G01*
X57908450Y-116490375D01*
X57839538Y-116496494D01*
X57744400Y-116511999D01*
X57662143Y-116529348D01*
X57423921Y-116607993D01*
X57209572Y-116723163D01*
X57022878Y-116869709D01*
X56867619Y-117042478D01*
X56747577Y-117236322D01*
X56666533Y-117446090D01*
X56628267Y-117666632D01*
X56636560Y-117892798D01*
X56640919Y-117920393D01*
X56705041Y-118149100D01*
X56812821Y-118360057D01*
X56958759Y-118548313D01*
X57137352Y-118708919D01*
X57343099Y-118836923D01*
X57570497Y-118927374D01*
X57813200Y-118975237D01*
X57978300Y-118991900D01*
X57978300Y-119296700D01*
X57978909Y-119430092D01*
X57975543Y-119520269D01*
X57960412Y-119574675D01*
X57925727Y-119600751D01*
X57863696Y-119605940D01*
X57766531Y-119597684D01*
X57673500Y-119587896D01*
X57394630Y-119535221D01*
X57125520Y-119436302D01*
X56872203Y-119295557D01*
X56640710Y-119117404D01*
X56437075Y-118906262D01*
X56267330Y-118666550D01*
X56174586Y-118490019D01*
X56074866Y-118213816D01*
X56023349Y-117933134D01*
X56018251Y-117652543D01*
X56057788Y-117376610D01*
X56140176Y-117109904D01*
X56263629Y-116856994D01*
X56426363Y-116622448D01*
X56626594Y-116410836D01*
X56862537Y-116226724D01*
X57114700Y-116083103D01*
X57356003Y-115983160D01*
X57595475Y-115919722D01*
X57807948Y-115890118D01*
X57991000Y-115873105D01*
X57991000Y-116490000D01*
G37*
G36*
X39982400Y-14331200D02*
G01*
X38763200Y-14331200D01*
X38763200Y-10902200D01*
X39982400Y-10902200D01*
X39982400Y-14331200D01*
G37*
G36*
X27790400Y-14331200D02*
G01*
X26571200Y-14331200D01*
X26571200Y-10902200D01*
X27790400Y-10902200D01*
X27790400Y-14331200D01*
G37*
G36*
X30254200Y-24516600D02*
G01*
X28374600Y-24516600D01*
X28374600Y-23780000D01*
X30254200Y-23780000D01*
X30254200Y-24516600D01*
G37*
G36*
X60340040Y-66820300D02*
G01*
X60357281Y-66941419D01*
X60406468Y-67126173D01*
X60494520Y-67286556D01*
X60615511Y-67417224D01*
X60763518Y-67512826D01*
X60932616Y-67568017D01*
X61064400Y-67579727D01*
X61243954Y-67554819D01*
X61404749Y-67485283D01*
X61542220Y-67375269D01*
X61651800Y-67228927D01*
X61728924Y-67050406D01*
X61753244Y-66953650D01*
X61782209Y-66807600D01*
X61942505Y-66807600D01*
X62027359Y-66810389D01*
X62089480Y-66817662D01*
X62113717Y-66826650D01*
X62116593Y-66860175D01*
X62113094Y-66928197D01*
X62105599Y-67001782D01*
X62055053Y-67219206D01*
X61962486Y-67415888D01*
X61833708Y-67587421D01*
X61674531Y-67729402D01*
X61490764Y-67837426D01*
X61288217Y-67907088D01*
X61072702Y-67933983D01*
X60892515Y-67921378D01*
X60727504Y-67875523D01*
X60557239Y-67794117D01*
X60399753Y-67686759D01*
X60323328Y-67618347D01*
X60205370Y-67473202D01*
X60107025Y-67299589D01*
X60037166Y-67115818D01*
X60006790Y-66965104D01*
X59990102Y-66805108D01*
X60340040Y-66820300D01*
G37*
G36*
X57675456Y-140695554D02*
G01*
X57677182Y-140767240D01*
X57678640Y-140881986D01*
X57679815Y-141035926D01*
X57680695Y-141225189D01*
X57681268Y-141445906D01*
X57681519Y-141694209D01*
X57681437Y-141966229D01*
X57681009Y-142258096D01*
X57680221Y-142565942D01*
X57680006Y-142632950D01*
X57673500Y-144595100D01*
X57375272Y-144602254D01*
X57077045Y-144609408D01*
X57070472Y-143259808D01*
X57063900Y-141910209D01*
X56797200Y-142119525D01*
X56694807Y-142200101D01*
X56604414Y-142271631D01*
X56534849Y-142327103D01*
X56494938Y-142359503D01*
X56491689Y-142362253D01*
X56471593Y-142371292D01*
X56442119Y-142365705D01*
X56396924Y-142341692D01*
X56329665Y-142295448D01*
X56234001Y-142223172D01*
X56148789Y-142156664D01*
X55844700Y-141917662D01*
X55831554Y-144607800D01*
X55222400Y-144607800D01*
X55222400Y-142636189D01*
X55222545Y-142261322D01*
X55223012Y-141934457D01*
X55223847Y-141652796D01*
X55225094Y-141413540D01*
X55226800Y-141213893D01*
X55229010Y-141051057D01*
X55231769Y-140922234D01*
X55235124Y-140824626D01*
X55239120Y-140755435D01*
X55243803Y-140711865D01*
X55249217Y-140691117D01*
X55254150Y-140689103D01*
X55281741Y-140710541D01*
X55344040Y-140759017D01*
X55435677Y-140830353D01*
X55551284Y-140920367D01*
X55685494Y-141024881D01*
X55832936Y-141139715D01*
X55863675Y-141163658D01*
X56046659Y-141304673D01*
X56199820Y-141419532D01*
X56321165Y-141506825D01*
X56408703Y-141565143D01*
X56460440Y-141593077D01*
X56473275Y-141594793D01*
X56500812Y-141574768D01*
X56562949Y-141527491D01*
X56654343Y-141457093D01*
X56769651Y-141367708D01*
X56903529Y-141263470D01*
X57050633Y-141148512D01*
X57082766Y-141123348D01*
X57230768Y-141007743D01*
X57365644Y-140903040D01*
X57482278Y-140813161D01*
X57575554Y-140742025D01*
X57640355Y-140693552D01*
X57671564Y-140671662D01*
X57673473Y-140670800D01*
X57675456Y-140695554D01*
G37*
G36*
X40617400Y-107371400D02*
G01*
X40134800Y-107371400D01*
X40134800Y-109606600D01*
X39703000Y-109606600D01*
X39703000Y-107371400D01*
X39192945Y-107371400D01*
X39200322Y-107161850D01*
X39207700Y-106952300D01*
X40617400Y-106938796D01*
X40617400Y-107371400D01*
G37*
G36*
X51386813Y-10922192D02*
G01*
X51396234Y-10991977D01*
X51374602Y-11089916D01*
X51336199Y-11181600D01*
X51319355Y-11220076D01*
X51285264Y-11301510D01*
X51235627Y-11421727D01*
X51172148Y-11576553D01*
X51096529Y-11761813D01*
X51010474Y-11973331D01*
X50915685Y-12206934D01*
X50813865Y-12458446D01*
X50706717Y-12723693D01*
X50662788Y-12832600D01*
X50554906Y-13099844D01*
X50452360Y-13353234D01*
X50356760Y-13588831D01*
X50269717Y-13802694D01*
X50192843Y-13990881D01*
X50127750Y-14149454D01*
X50076048Y-14274470D01*
X50039348Y-14361990D01*
X50019262Y-14408074D01*
X50016084Y-14414230D01*
X50003165Y-14394987D01*
X49971356Y-14333015D01*
X49922375Y-14232020D01*
X49857940Y-14095704D01*
X49779769Y-13927772D01*
X49689579Y-13731928D01*
X49589090Y-13511875D01*
X49480018Y-13271318D01*
X49364083Y-13013961D01*
X49291541Y-12852130D01*
X49169686Y-12579823D01*
X49051995Y-12316906D01*
X48940426Y-12067744D01*
X48836936Y-11836705D01*
X48743480Y-11628153D01*
X48662016Y-11446454D01*
X48594500Y-11295975D01*
X48542890Y-11181082D01*
X48509140Y-11106139D01*
X48499991Y-11085929D01*
X48416098Y-10901358D01*
X49743316Y-10914900D01*
X50109537Y-11778500D01*
X50193284Y-11975319D01*
X50271310Y-12157418D01*
X50341297Y-12319482D01*
X50400927Y-12456198D01*
X50447881Y-12562251D01*
X50479842Y-12632329D01*
X50494492Y-12661118D01*
X50494684Y-12661335D01*
X50507475Y-12642696D01*
X50536320Y-12582837D01*
X50578718Y-12487827D01*
X50632168Y-12363737D01*
X50694170Y-12216635D01*
X50762224Y-12052591D01*
X50833830Y-11877676D01*
X50906487Y-11697960D01*
X50977694Y-11519512D01*
X51044951Y-11348402D01*
X51105759Y-11190700D01*
X51157616Y-11052476D01*
X51159160Y-11048278D01*
X51196213Y-10960285D01*
X51231514Y-10910428D01*
X51273588Y-10887096D01*
X51278466Y-10885783D01*
X51347253Y-10885236D01*
X51386813Y-10922192D01*
G37*
G36*
X23783354Y-142428945D02*
G01*
X23789900Y-143985500D01*
X24355851Y-143992338D01*
X24921803Y-143999176D01*
X24914651Y-144297138D01*
X24907500Y-144595100D01*
X24049582Y-144601788D01*
X23807614Y-144603285D01*
X23612191Y-144603533D01*
X23459068Y-144602410D01*
X23344002Y-144599792D01*
X23262751Y-144595554D01*
X23211071Y-144589574D01*
X23184719Y-144581726D01*
X23179411Y-144576388D01*
X23177488Y-144546291D01*
X23175836Y-144469497D01*
X23174469Y-144350107D01*
X23173398Y-144192223D01*
X23172637Y-143999947D01*
X23172198Y-143777381D01*
X23172093Y-143528626D01*
X23172335Y-143257785D01*
X23172936Y-142968959D01*
X23173728Y-142715500D01*
X23180300Y-140886700D01*
X23478554Y-140879545D01*
X23776808Y-140872391D01*
X23783354Y-142428945D01*
G37*
G04 #@! TD*
M02*
