G04 #@! TF.GenerationSoftware,KiCad,Pcbnew,6.0.2-378541a8eb~116~ubuntu20.04.1*
G04 #@! TF.CreationDate,2022-03-12T17:16:05-05:00*
G04 #@! TF.ProjectId,sidekick_panel,73696465-6b69-4636-9b5f-70616e656c2e,rev?*
G04 #@! TF.SameCoordinates,Original*
G04 #@! TF.FileFunction,Copper,L2,Bot*
G04 #@! TF.FilePolarity,Positive*
%FSLAX46Y46*%
G04 Gerber Fmt 4.6, Leading zero omitted, Abs format (unit mm)*
G04 Created by KiCad (PCBNEW 6.0.2-378541a8eb~116~ubuntu20.04.1) date 2022-03-12 17:16:05*
%MOMM*%
%LPD*%
G01*
G04 APERTURE LIST*
G04 #@! TA.AperFunction,ComponentPad*
%ADD10O,6.800000X4.000000*%
G04 #@! TD*
G04 #@! TA.AperFunction,ComponentPad*
%ADD11C,14.000000*%
G04 #@! TD*
G04 #@! TA.AperFunction,ComponentPad*
%ADD12C,15.000000*%
G04 #@! TD*
G04 #@! TA.AperFunction,ComponentPad*
%ADD13C,9.000000*%
G04 #@! TD*
G04 APERTURE END LIST*
D10*
G04 #@! TO.P,H17,1*
G04 #@! TO.N,GND*
X61700000Y-10600000D03*
X61700000Y-204600000D03*
G04 #@! TD*
D11*
G04 #@! TO.P,H8,1*
G04 #@! TO.N,GND*
X41100000Y-40600000D03*
G04 #@! TD*
G04 #@! TO.P,H1,1*
G04 #@! TO.N,GND*
X28600000Y-132600000D03*
G04 #@! TD*
D10*
G04 #@! TO.P,H16,1*
G04 #@! TO.N,GND*
X20500000Y-204600000D03*
X20500000Y-10600000D03*
G04 #@! TD*
D11*
G04 #@! TO.P,H2,1*
G04 #@! TO.N,GND*
X28600000Y-157600000D03*
G04 #@! TD*
G04 #@! TO.P,H5,1*
G04 #@! TO.N,GND*
X28600000Y-182600000D03*
G04 #@! TD*
D12*
G04 #@! TO.P,H6,1*
G04 #@! TO.N,GND*
X53600000Y-157600000D03*
G04 #@! TD*
G04 #@! TO.P,H7,1*
G04 #@! TO.N,GND*
X53600000Y-182600000D03*
G04 #@! TD*
G04 #@! TO.P,H3,1*
G04 #@! TO.N,GND*
X53600000Y-107600000D03*
G04 #@! TD*
D13*
G04 #@! TO.P,H12,1*
G04 #@! TO.N,GND*
X41100000Y-80600000D03*
G04 #@! TD*
D12*
G04 #@! TO.P,H4,1*
G04 #@! TO.N,GND*
X53580000Y-132600000D03*
G04 #@! TD*
G04 #@! TA.AperFunction,Conductor*
G04 #@! TO.N,GND*
G36*
X59209823Y-8128002D02*
G01*
X59256316Y-8181658D01*
X59266420Y-8251932D01*
X59236926Y-8316512D01*
X59195350Y-8348008D01*
X59092959Y-8396189D01*
X59086026Y-8400001D01*
X58826271Y-8564847D01*
X58819868Y-8569498D01*
X58582813Y-8765607D01*
X58577046Y-8771023D01*
X58366443Y-8995293D01*
X58361404Y-9001384D01*
X58180570Y-9250281D01*
X58176330Y-9256961D01*
X58028110Y-9526572D01*
X58024753Y-9533707D01*
X57911492Y-9819770D01*
X57909047Y-9827296D01*
X57832538Y-10125279D01*
X57831055Y-10133050D01*
X57806425Y-10328026D01*
X57808728Y-10342306D01*
X57821720Y-10346000D01*
X61828000Y-10346000D01*
X61896121Y-10366002D01*
X61942614Y-10419658D01*
X61954000Y-10472000D01*
X61954000Y-13089885D01*
X61958475Y-13105124D01*
X61959865Y-13106329D01*
X61967548Y-13108000D01*
X63176829Y-13108000D01*
X63180820Y-13107874D01*
X63410994Y-13093393D01*
X63418855Y-13092400D01*
X63721046Y-13034754D01*
X63728723Y-13032783D01*
X64021309Y-12937716D01*
X64028672Y-12934801D01*
X64307041Y-12803811D01*
X64313974Y-12799999D01*
X64573729Y-12635153D01*
X64580132Y-12630502D01*
X64817187Y-12434393D01*
X64822954Y-12428977D01*
X65033557Y-12204707D01*
X65038596Y-12198616D01*
X65219430Y-11949719D01*
X65223670Y-11943039D01*
X65355585Y-11703086D01*
X65405931Y-11653027D01*
X65475348Y-11638134D01*
X65541797Y-11663135D01*
X65584181Y-11720092D01*
X65592000Y-11763787D01*
X65592000Y-203436213D01*
X65571998Y-203504334D01*
X65518342Y-203550827D01*
X65448068Y-203560931D01*
X65383488Y-203531437D01*
X65355585Y-203496914D01*
X65223670Y-203256961D01*
X65219430Y-203250281D01*
X65038596Y-203001384D01*
X65033557Y-202995293D01*
X64822954Y-202771023D01*
X64817187Y-202765607D01*
X64580132Y-202569498D01*
X64573729Y-202564847D01*
X64313974Y-202400001D01*
X64307041Y-202396189D01*
X64028672Y-202265199D01*
X64021309Y-202262284D01*
X63728723Y-202167217D01*
X63721046Y-202165246D01*
X63418855Y-202107600D01*
X63410994Y-202106607D01*
X63180820Y-202092126D01*
X63176829Y-202092000D01*
X61972115Y-202092000D01*
X61956876Y-202096475D01*
X61955671Y-202097865D01*
X61954000Y-202105548D01*
X61954000Y-204728000D01*
X61933998Y-204796121D01*
X61880342Y-204842614D01*
X61828000Y-204854000D01*
X57822269Y-204854000D01*
X57808392Y-204858075D01*
X57806355Y-204871426D01*
X57831055Y-205066950D01*
X57832538Y-205074721D01*
X57909047Y-205372704D01*
X57911492Y-205380230D01*
X58024753Y-205666293D01*
X58028110Y-205673428D01*
X58176330Y-205943039D01*
X58180570Y-205949719D01*
X58361404Y-206198616D01*
X58366443Y-206204707D01*
X58577046Y-206428977D01*
X58582813Y-206434393D01*
X58819868Y-206630502D01*
X58826271Y-206635153D01*
X59086026Y-206799999D01*
X59092959Y-206803811D01*
X59195350Y-206851992D01*
X59248471Y-206899095D01*
X59267694Y-206967439D01*
X59246915Y-207035327D01*
X59192732Y-207081204D01*
X59141702Y-207092000D01*
X23058298Y-207092000D01*
X22990177Y-207071998D01*
X22943684Y-207018342D01*
X22933580Y-206948068D01*
X22963074Y-206883488D01*
X23004650Y-206851992D01*
X23107041Y-206803811D01*
X23113974Y-206799999D01*
X23373729Y-206635153D01*
X23380132Y-206630502D01*
X23617187Y-206434393D01*
X23622954Y-206428977D01*
X23833557Y-206204707D01*
X23838596Y-206198616D01*
X24019430Y-205949719D01*
X24023670Y-205943039D01*
X24171890Y-205673428D01*
X24175247Y-205666293D01*
X24288508Y-205380230D01*
X24290953Y-205372704D01*
X24367462Y-205074721D01*
X24368945Y-205066950D01*
X24393575Y-204871974D01*
X24391272Y-204857694D01*
X24378280Y-204854000D01*
X20372000Y-204854000D01*
X20303879Y-204833998D01*
X20257386Y-204780342D01*
X20246000Y-204728000D01*
X20246000Y-204327885D01*
X20754000Y-204327885D01*
X20758475Y-204343124D01*
X20759865Y-204344329D01*
X20767548Y-204346000D01*
X24377731Y-204346000D01*
X24391608Y-204341925D01*
X24393645Y-204328574D01*
X24393576Y-204328026D01*
X57806425Y-204328026D01*
X57808728Y-204342306D01*
X57821720Y-204346000D01*
X61427885Y-204346000D01*
X61443124Y-204341525D01*
X61444329Y-204340135D01*
X61446000Y-204332452D01*
X61446000Y-202110115D01*
X61441525Y-202094876D01*
X61440135Y-202093671D01*
X61432452Y-202092000D01*
X60223171Y-202092000D01*
X60219180Y-202092126D01*
X59989006Y-202106607D01*
X59981145Y-202107600D01*
X59678954Y-202165246D01*
X59671277Y-202167217D01*
X59378691Y-202262284D01*
X59371328Y-202265199D01*
X59092959Y-202396189D01*
X59086026Y-202400001D01*
X58826271Y-202564847D01*
X58819868Y-202569498D01*
X58582813Y-202765607D01*
X58577046Y-202771023D01*
X58366443Y-202995293D01*
X58361404Y-203001384D01*
X58180570Y-203250281D01*
X58176330Y-203256961D01*
X58028110Y-203526572D01*
X58024753Y-203533707D01*
X57911492Y-203819770D01*
X57909047Y-203827296D01*
X57832538Y-204125279D01*
X57831055Y-204133050D01*
X57806425Y-204328026D01*
X24393576Y-204328026D01*
X24368945Y-204133050D01*
X24367462Y-204125279D01*
X24290953Y-203827296D01*
X24288508Y-203819770D01*
X24175247Y-203533707D01*
X24171890Y-203526572D01*
X24023670Y-203256961D01*
X24019430Y-203250281D01*
X23838596Y-203001384D01*
X23833557Y-202995293D01*
X23622954Y-202771023D01*
X23617187Y-202765607D01*
X23380132Y-202569498D01*
X23373729Y-202564847D01*
X23113974Y-202400001D01*
X23107041Y-202396189D01*
X22828672Y-202265199D01*
X22821309Y-202262284D01*
X22528723Y-202167217D01*
X22521046Y-202165246D01*
X22218855Y-202107600D01*
X22210994Y-202106607D01*
X21980820Y-202092126D01*
X21976829Y-202092000D01*
X20772115Y-202092000D01*
X20756876Y-202096475D01*
X20755671Y-202097865D01*
X20754000Y-202105548D01*
X20754000Y-204327885D01*
X20246000Y-204327885D01*
X20246000Y-202110115D01*
X20241525Y-202094876D01*
X20240135Y-202093671D01*
X20232452Y-202092000D01*
X19023171Y-202092000D01*
X19019180Y-202092126D01*
X18789006Y-202106607D01*
X18781145Y-202107600D01*
X18478954Y-202165246D01*
X18471277Y-202167217D01*
X18178691Y-202262284D01*
X18171328Y-202265199D01*
X17892959Y-202396189D01*
X17886026Y-202400001D01*
X17626271Y-202564847D01*
X17619868Y-202569498D01*
X17382813Y-202765607D01*
X17377046Y-202771023D01*
X17166443Y-202995293D01*
X17161404Y-203001384D01*
X16980570Y-203250281D01*
X16976330Y-203256961D01*
X16844415Y-203496914D01*
X16794069Y-203546973D01*
X16724652Y-203561866D01*
X16658203Y-203536865D01*
X16615819Y-203479908D01*
X16608000Y-203436213D01*
X16608000Y-188087102D01*
X23478438Y-188087102D01*
X23478462Y-188087441D01*
X23484285Y-188096073D01*
X23728991Y-188319913D01*
X23732445Y-188322852D01*
X24150430Y-188653550D01*
X24154067Y-188656222D01*
X24594618Y-188956182D01*
X24598446Y-188958593D01*
X25059337Y-189226300D01*
X25063309Y-189228421D01*
X25542148Y-189462483D01*
X25546284Y-189464325D01*
X26040627Y-189663551D01*
X26044871Y-189665087D01*
X26552218Y-189828467D01*
X26556539Y-189829689D01*
X27074254Y-189956374D01*
X27078695Y-189957294D01*
X27604141Y-190046637D01*
X27608595Y-190047232D01*
X28139106Y-190098782D01*
X28143579Y-190099056D01*
X28676427Y-190112543D01*
X28680930Y-190112496D01*
X29213352Y-190087853D01*
X29217836Y-190087485D01*
X29747152Y-190024836D01*
X29751591Y-190024149D01*
X30275087Y-189923814D01*
X30279446Y-189922815D01*
X30794414Y-189785311D01*
X30798727Y-189783992D01*
X31302525Y-189610028D01*
X31306740Y-189608402D01*
X31796805Y-189398866D01*
X31800892Y-189396943D01*
X32274731Y-189152900D01*
X32278658Y-189150696D01*
X32733828Y-188873404D01*
X32737624Y-188870901D01*
X33171786Y-188561788D01*
X33175372Y-188559036D01*
X33318337Y-188440975D01*
X48124565Y-188440975D01*
X48124654Y-188442223D01*
X48129513Y-188449641D01*
X48236753Y-188553202D01*
X48240014Y-188556139D01*
X48665081Y-188912812D01*
X48668572Y-188915540D01*
X49117466Y-189241680D01*
X49121127Y-189244149D01*
X49591696Y-189538195D01*
X49595506Y-189540394D01*
X50085424Y-189800888D01*
X50089400Y-189802828D01*
X50596327Y-190028526D01*
X50600379Y-190030163D01*
X51121810Y-190219948D01*
X51126004Y-190221311D01*
X51659385Y-190374255D01*
X51663664Y-190375322D01*
X52206444Y-190490693D01*
X52210741Y-190491451D01*
X52760259Y-190568681D01*
X52764614Y-190569139D01*
X53318164Y-190607847D01*
X53322549Y-190608000D01*
X53877451Y-190608000D01*
X53881836Y-190607847D01*
X54435386Y-190569139D01*
X54439741Y-190568681D01*
X54989259Y-190491451D01*
X54993556Y-190490693D01*
X55536336Y-190375322D01*
X55540615Y-190374255D01*
X56073996Y-190221311D01*
X56078190Y-190219948D01*
X56599621Y-190030163D01*
X56603673Y-190028526D01*
X57110600Y-189802828D01*
X57114576Y-189800888D01*
X57604494Y-189540394D01*
X57608304Y-189538195D01*
X58078873Y-189244149D01*
X58082534Y-189241680D01*
X58531428Y-188915540D01*
X58534919Y-188912812D01*
X58959986Y-188556139D01*
X58963247Y-188553202D01*
X59067600Y-188452429D01*
X59075455Y-188438621D01*
X59075388Y-188437369D01*
X59070660Y-188429870D01*
X53612812Y-182972022D01*
X53598868Y-182964408D01*
X53597035Y-182964539D01*
X53590420Y-182968790D01*
X48132179Y-188427031D01*
X48124565Y-188440975D01*
X33318337Y-188440975D01*
X33586362Y-188219640D01*
X33589705Y-188216672D01*
X33713630Y-188098453D01*
X33721568Y-188084695D01*
X33721518Y-188083649D01*
X33716625Y-188075835D01*
X28612812Y-182972022D01*
X28598868Y-182964408D01*
X28597035Y-182964539D01*
X28590420Y-182968790D01*
X23486052Y-188073158D01*
X23478438Y-188087102D01*
X16608000Y-188087102D01*
X16608000Y-182650201D01*
X21087236Y-182650201D01*
X21087267Y-182654699D01*
X21110052Y-183187215D01*
X21110404Y-183191696D01*
X21171206Y-183721240D01*
X21171874Y-183725659D01*
X21270381Y-184249497D01*
X21271370Y-184253884D01*
X21407070Y-184769308D01*
X21408381Y-184773648D01*
X21580581Y-185278039D01*
X21582188Y-185282249D01*
X21790028Y-185773079D01*
X21791917Y-185777129D01*
X22034314Y-186251836D01*
X22036507Y-186255776D01*
X22312217Y-186711925D01*
X22314678Y-186715685D01*
X22622290Y-187150947D01*
X22625036Y-187154552D01*
X22962987Y-187566712D01*
X22965944Y-187570066D01*
X23101751Y-187713428D01*
X23115482Y-187721415D01*
X23116410Y-187721374D01*
X23124399Y-187716391D01*
X28227978Y-182612812D01*
X28234356Y-182601132D01*
X28964408Y-182601132D01*
X28964539Y-182602965D01*
X28968790Y-182609580D01*
X34073389Y-187714179D01*
X34087333Y-187721793D01*
X34087556Y-187721778D01*
X34096338Y-187715831D01*
X34336905Y-187450987D01*
X34339793Y-187447570D01*
X34669044Y-187028414D01*
X34671701Y-187024771D01*
X34970130Y-186583164D01*
X34972526Y-186579329D01*
X35238617Y-186117514D01*
X35240726Y-186113531D01*
X35473116Y-185633878D01*
X35474941Y-185629741D01*
X35672446Y-185134690D01*
X35673961Y-185130460D01*
X35835567Y-184622549D01*
X35836781Y-184618202D01*
X35961661Y-184100034D01*
X35962555Y-184095638D01*
X36050064Y-183569885D01*
X36050649Y-183565380D01*
X36100363Y-183034517D01*
X36100613Y-183030439D01*
X36112949Y-182602205D01*
X45587196Y-182602205D01*
X45606561Y-183156736D01*
X45606869Y-183161145D01*
X45664870Y-183712991D01*
X45665482Y-183717342D01*
X45761838Y-184263807D01*
X45762754Y-184268114D01*
X45896988Y-184806498D01*
X45898208Y-184810755D01*
X46069671Y-185338463D01*
X46071184Y-185342620D01*
X46279041Y-185857084D01*
X46280835Y-185861113D01*
X46524076Y-186359832D01*
X46526154Y-186363739D01*
X46803589Y-186844269D01*
X46805924Y-186848007D01*
X47116208Y-187308022D01*
X47118807Y-187311599D01*
X47460413Y-187748835D01*
X47463253Y-187752221D01*
X47747404Y-188067801D01*
X47760927Y-188076132D01*
X47761004Y-188076131D01*
X47770288Y-188070502D01*
X53227978Y-182612812D01*
X53234356Y-182601132D01*
X53964408Y-182601132D01*
X53964539Y-182602965D01*
X53968790Y-182609580D01*
X59427662Y-188068452D01*
X59441606Y-188076066D01*
X59441681Y-188076061D01*
X59450657Y-188069955D01*
X59736747Y-187752221D01*
X59739587Y-187748835D01*
X60081193Y-187311599D01*
X60083792Y-187308022D01*
X60394076Y-186848007D01*
X60396411Y-186844269D01*
X60673846Y-186363739D01*
X60675924Y-186359832D01*
X60919165Y-185861113D01*
X60920959Y-185857084D01*
X61128816Y-185342620D01*
X61130329Y-185338463D01*
X61301792Y-184810755D01*
X61303012Y-184806498D01*
X61437246Y-184268114D01*
X61438162Y-184263807D01*
X61534518Y-183717342D01*
X61535130Y-183712991D01*
X61593131Y-183161145D01*
X61593439Y-183156736D01*
X61612804Y-182602205D01*
X61612804Y-182597795D01*
X61593439Y-182043264D01*
X61593131Y-182038855D01*
X61535130Y-181487009D01*
X61534518Y-181482658D01*
X61438162Y-180936193D01*
X61437246Y-180931886D01*
X61303012Y-180393502D01*
X61301792Y-180389245D01*
X61130329Y-179861537D01*
X61128816Y-179857380D01*
X60920959Y-179342916D01*
X60919165Y-179338887D01*
X60675924Y-178840168D01*
X60673846Y-178836261D01*
X60396411Y-178355731D01*
X60394076Y-178351993D01*
X60083792Y-177891978D01*
X60081193Y-177888401D01*
X59739587Y-177451165D01*
X59736747Y-177447779D01*
X59452596Y-177132199D01*
X59439073Y-177123868D01*
X59438996Y-177123869D01*
X59429712Y-177129498D01*
X53972022Y-182587188D01*
X53964408Y-182601132D01*
X53234356Y-182601132D01*
X53235592Y-182598868D01*
X53235461Y-182597035D01*
X53231210Y-182590420D01*
X47772338Y-177131548D01*
X47758394Y-177123934D01*
X47758319Y-177123939D01*
X47749343Y-177130045D01*
X47463253Y-177447779D01*
X47460413Y-177451165D01*
X47118807Y-177888401D01*
X47116208Y-177891978D01*
X46805924Y-178351993D01*
X46803589Y-178355731D01*
X46526154Y-178836261D01*
X46524076Y-178840168D01*
X46280835Y-179338887D01*
X46279041Y-179342916D01*
X46071184Y-179857380D01*
X46069671Y-179861537D01*
X45898208Y-180389245D01*
X45896988Y-180393502D01*
X45762754Y-180931886D01*
X45761838Y-180936193D01*
X45665482Y-181482658D01*
X45664870Y-181487009D01*
X45606869Y-182038855D01*
X45606561Y-182043264D01*
X45587196Y-182597795D01*
X45587196Y-182602205D01*
X36112949Y-182602205D01*
X36112954Y-182602024D01*
X36112939Y-182597967D01*
X36093866Y-182065096D01*
X36093544Y-182060601D01*
X36036442Y-181530662D01*
X36035800Y-181526211D01*
X35940955Y-181001710D01*
X35939999Y-180997327D01*
X35807892Y-180480933D01*
X35806630Y-180476645D01*
X35637938Y-179971015D01*
X35636370Y-179966818D01*
X35431966Y-179474558D01*
X35430088Y-179470456D01*
X35191023Y-178994094D01*
X35188855Y-178990133D01*
X34916347Y-178532090D01*
X34913891Y-178528279D01*
X34609331Y-178090890D01*
X34606624Y-178087284D01*
X34271552Y-177672765D01*
X34268609Y-177669380D01*
X34098034Y-177486780D01*
X34084361Y-177478698D01*
X34083667Y-177478724D01*
X34075320Y-177483890D01*
X28972022Y-182587188D01*
X28964408Y-182601132D01*
X28234356Y-182601132D01*
X28235592Y-182598868D01*
X28235461Y-182597035D01*
X28231210Y-182590420D01*
X23127007Y-177486217D01*
X23113063Y-177478603D01*
X23112606Y-177478635D01*
X23104130Y-177484332D01*
X22897104Y-177709077D01*
X22894190Y-177712477D01*
X22562015Y-178129331D01*
X22559344Y-178132941D01*
X22257831Y-178572465D01*
X22255409Y-178576283D01*
X21986107Y-179036216D01*
X21983964Y-179040196D01*
X21748233Y-179518211D01*
X21746376Y-179522343D01*
X21545427Y-180015984D01*
X21543874Y-180020230D01*
X21378729Y-180526984D01*
X21377484Y-180531326D01*
X21248991Y-181048608D01*
X21248067Y-181052991D01*
X21156885Y-181578152D01*
X21156274Y-181582609D01*
X21102873Y-182112930D01*
X21102583Y-182117413D01*
X21087236Y-182650201D01*
X16608000Y-182650201D01*
X16608000Y-177115591D01*
X23478674Y-177115591D01*
X23478707Y-177116404D01*
X23483783Y-177124573D01*
X28587188Y-182227978D01*
X28601132Y-182235592D01*
X28602965Y-182235461D01*
X28609580Y-182231210D01*
X33713682Y-177127108D01*
X33721296Y-177113164D01*
X33721255Y-177112590D01*
X33715684Y-177104268D01*
X33510818Y-176914228D01*
X33507387Y-176911267D01*
X33320631Y-176761379D01*
X48124545Y-176761379D01*
X48124612Y-176762631D01*
X48129340Y-176770130D01*
X53587188Y-182227978D01*
X53601132Y-182235592D01*
X53602965Y-182235461D01*
X53609580Y-182231210D01*
X59067821Y-176772969D01*
X59075435Y-176759025D01*
X59075346Y-176757777D01*
X59070487Y-176750359D01*
X58963247Y-176646798D01*
X58959986Y-176643861D01*
X58534919Y-176287188D01*
X58531428Y-176284460D01*
X58082534Y-175958320D01*
X58078873Y-175955851D01*
X57608304Y-175661805D01*
X57604494Y-175659606D01*
X57114576Y-175399112D01*
X57110600Y-175397172D01*
X56603673Y-175171474D01*
X56599621Y-175169837D01*
X56078190Y-174980052D01*
X56073996Y-174978689D01*
X55540615Y-174825745D01*
X55536336Y-174824678D01*
X54993556Y-174709307D01*
X54989259Y-174708549D01*
X54439741Y-174631319D01*
X54435386Y-174630861D01*
X53881836Y-174592153D01*
X53877451Y-174592000D01*
X53322549Y-174592000D01*
X53318164Y-174592153D01*
X52764614Y-174630861D01*
X52760259Y-174631319D01*
X52210741Y-174708549D01*
X52206444Y-174709307D01*
X51663664Y-174824678D01*
X51659385Y-174825745D01*
X51126004Y-174978689D01*
X51121810Y-174980052D01*
X50600379Y-175169837D01*
X50596327Y-175171474D01*
X50089400Y-175397172D01*
X50085424Y-175399112D01*
X49595507Y-175659606D01*
X49591697Y-175661805D01*
X49121127Y-175955851D01*
X49117466Y-175958320D01*
X48668572Y-176284460D01*
X48665081Y-176287188D01*
X48240014Y-176643861D01*
X48236753Y-176646798D01*
X48132400Y-176747571D01*
X48124545Y-176761379D01*
X33320631Y-176761379D01*
X33091729Y-176577666D01*
X33088115Y-176574972D01*
X32649654Y-176271933D01*
X32645835Y-176269490D01*
X32186846Y-175998585D01*
X32182877Y-175996430D01*
X31705679Y-175759028D01*
X31701575Y-175757166D01*
X31208610Y-175554483D01*
X31204395Y-175552924D01*
X30698199Y-175386006D01*
X30693883Y-175384752D01*
X30177042Y-175254451D01*
X30172665Y-175253513D01*
X29647822Y-175160496D01*
X29643365Y-175159870D01*
X29113241Y-175104620D01*
X29108747Y-175104313D01*
X28576027Y-175087107D01*
X28571530Y-175087122D01*
X28038927Y-175108048D01*
X28034451Y-175108384D01*
X27504713Y-175167336D01*
X27500261Y-175167994D01*
X26976106Y-175264667D01*
X26971701Y-175265643D01*
X26455801Y-175399545D01*
X26451490Y-175400830D01*
X25946471Y-175571278D01*
X25942259Y-175572870D01*
X25450723Y-175778988D01*
X25446647Y-175780871D01*
X24971109Y-176021605D01*
X24967158Y-176023786D01*
X24510063Y-176297893D01*
X24506267Y-176300358D01*
X24069930Y-176606452D01*
X24066347Y-176609162D01*
X23653007Y-176945674D01*
X23649617Y-176948642D01*
X23486708Y-177101891D01*
X23478674Y-177115591D01*
X16608000Y-177115591D01*
X16608000Y-163087102D01*
X23478438Y-163087102D01*
X23478462Y-163087441D01*
X23484285Y-163096073D01*
X23728991Y-163319913D01*
X23732445Y-163322852D01*
X24150430Y-163653550D01*
X24154067Y-163656222D01*
X24594618Y-163956182D01*
X24598446Y-163958593D01*
X25059337Y-164226300D01*
X25063309Y-164228421D01*
X25542148Y-164462483D01*
X25546284Y-164464325D01*
X26040627Y-164663551D01*
X26044871Y-164665087D01*
X26552218Y-164828467D01*
X26556539Y-164829689D01*
X27074254Y-164956374D01*
X27078695Y-164957294D01*
X27604141Y-165046637D01*
X27608595Y-165047232D01*
X28139106Y-165098782D01*
X28143579Y-165099056D01*
X28676427Y-165112543D01*
X28680930Y-165112496D01*
X29213352Y-165087853D01*
X29217836Y-165087485D01*
X29747152Y-165024836D01*
X29751591Y-165024149D01*
X30275087Y-164923814D01*
X30279446Y-164922815D01*
X30794414Y-164785311D01*
X30798727Y-164783992D01*
X31302525Y-164610028D01*
X31306740Y-164608402D01*
X31796805Y-164398866D01*
X31800892Y-164396943D01*
X32274731Y-164152900D01*
X32278658Y-164150696D01*
X32733828Y-163873404D01*
X32737624Y-163870901D01*
X33171786Y-163561788D01*
X33175372Y-163559036D01*
X33318337Y-163440975D01*
X48124565Y-163440975D01*
X48124654Y-163442223D01*
X48129513Y-163449641D01*
X48236753Y-163553202D01*
X48240014Y-163556139D01*
X48665081Y-163912812D01*
X48668572Y-163915540D01*
X49117466Y-164241680D01*
X49121127Y-164244149D01*
X49591696Y-164538195D01*
X49595506Y-164540394D01*
X50085424Y-164800888D01*
X50089400Y-164802828D01*
X50596327Y-165028526D01*
X50600379Y-165030163D01*
X51121810Y-165219948D01*
X51126004Y-165221311D01*
X51659385Y-165374255D01*
X51663664Y-165375322D01*
X52206444Y-165490693D01*
X52210741Y-165491451D01*
X52760259Y-165568681D01*
X52764614Y-165569139D01*
X53318164Y-165607847D01*
X53322549Y-165608000D01*
X53877451Y-165608000D01*
X53881836Y-165607847D01*
X54435386Y-165569139D01*
X54439741Y-165568681D01*
X54989259Y-165491451D01*
X54993556Y-165490693D01*
X55536336Y-165375322D01*
X55540615Y-165374255D01*
X56073996Y-165221311D01*
X56078190Y-165219948D01*
X56599621Y-165030163D01*
X56603673Y-165028526D01*
X57110600Y-164802828D01*
X57114576Y-164800888D01*
X57604494Y-164540394D01*
X57608304Y-164538195D01*
X58078873Y-164244149D01*
X58082534Y-164241680D01*
X58531428Y-163915540D01*
X58534919Y-163912812D01*
X58959986Y-163556139D01*
X58963247Y-163553202D01*
X59067600Y-163452429D01*
X59075455Y-163438621D01*
X59075388Y-163437369D01*
X59070660Y-163429870D01*
X53612812Y-157972022D01*
X53598868Y-157964408D01*
X53597035Y-157964539D01*
X53590420Y-157968790D01*
X48132179Y-163427031D01*
X48124565Y-163440975D01*
X33318337Y-163440975D01*
X33586362Y-163219640D01*
X33589705Y-163216672D01*
X33713630Y-163098453D01*
X33721568Y-163084695D01*
X33721518Y-163083649D01*
X33716625Y-163075835D01*
X28612812Y-157972022D01*
X28598868Y-157964408D01*
X28597035Y-157964539D01*
X28590420Y-157968790D01*
X23486052Y-163073158D01*
X23478438Y-163087102D01*
X16608000Y-163087102D01*
X16608000Y-157650201D01*
X21087236Y-157650201D01*
X21087267Y-157654699D01*
X21110052Y-158187215D01*
X21110404Y-158191696D01*
X21171206Y-158721240D01*
X21171874Y-158725659D01*
X21270381Y-159249497D01*
X21271370Y-159253884D01*
X21407070Y-159769308D01*
X21408381Y-159773648D01*
X21580581Y-160278039D01*
X21582188Y-160282249D01*
X21790028Y-160773079D01*
X21791917Y-160777129D01*
X22034314Y-161251836D01*
X22036507Y-161255776D01*
X22312217Y-161711925D01*
X22314678Y-161715685D01*
X22622290Y-162150947D01*
X22625036Y-162154552D01*
X22962987Y-162566712D01*
X22965944Y-162570066D01*
X23101751Y-162713428D01*
X23115482Y-162721415D01*
X23116410Y-162721374D01*
X23124399Y-162716391D01*
X28227978Y-157612812D01*
X28234356Y-157601132D01*
X28964408Y-157601132D01*
X28964539Y-157602965D01*
X28968790Y-157609580D01*
X34073389Y-162714179D01*
X34087333Y-162721793D01*
X34087556Y-162721778D01*
X34096338Y-162715831D01*
X34336905Y-162450987D01*
X34339793Y-162447570D01*
X34669044Y-162028414D01*
X34671701Y-162024771D01*
X34970130Y-161583164D01*
X34972526Y-161579329D01*
X35238617Y-161117514D01*
X35240726Y-161113531D01*
X35473116Y-160633878D01*
X35474941Y-160629741D01*
X35672446Y-160134690D01*
X35673961Y-160130460D01*
X35835567Y-159622549D01*
X35836781Y-159618202D01*
X35961661Y-159100034D01*
X35962555Y-159095638D01*
X36050064Y-158569885D01*
X36050649Y-158565380D01*
X36100363Y-158034517D01*
X36100613Y-158030439D01*
X36112949Y-157602205D01*
X45587196Y-157602205D01*
X45606561Y-158156736D01*
X45606869Y-158161145D01*
X45664870Y-158712991D01*
X45665482Y-158717342D01*
X45761838Y-159263807D01*
X45762754Y-159268114D01*
X45896988Y-159806498D01*
X45898208Y-159810755D01*
X46069671Y-160338463D01*
X46071184Y-160342620D01*
X46279041Y-160857084D01*
X46280835Y-160861113D01*
X46524076Y-161359832D01*
X46526154Y-161363739D01*
X46803589Y-161844269D01*
X46805924Y-161848007D01*
X47116208Y-162308022D01*
X47118807Y-162311599D01*
X47460413Y-162748835D01*
X47463253Y-162752221D01*
X47747404Y-163067801D01*
X47760927Y-163076132D01*
X47761004Y-163076131D01*
X47770288Y-163070502D01*
X53227978Y-157612812D01*
X53234356Y-157601132D01*
X53964408Y-157601132D01*
X53964539Y-157602965D01*
X53968790Y-157609580D01*
X59427662Y-163068452D01*
X59441606Y-163076066D01*
X59441681Y-163076061D01*
X59450657Y-163069955D01*
X59736747Y-162752221D01*
X59739587Y-162748835D01*
X60081193Y-162311599D01*
X60083792Y-162308022D01*
X60394076Y-161848007D01*
X60396411Y-161844269D01*
X60673846Y-161363739D01*
X60675924Y-161359832D01*
X60919165Y-160861113D01*
X60920959Y-160857084D01*
X61128816Y-160342620D01*
X61130329Y-160338463D01*
X61301792Y-159810755D01*
X61303012Y-159806498D01*
X61437246Y-159268114D01*
X61438162Y-159263807D01*
X61534518Y-158717342D01*
X61535130Y-158712991D01*
X61593131Y-158161145D01*
X61593439Y-158156736D01*
X61612804Y-157602205D01*
X61612804Y-157597795D01*
X61593439Y-157043264D01*
X61593131Y-157038855D01*
X61535130Y-156487009D01*
X61534518Y-156482658D01*
X61438162Y-155936193D01*
X61437246Y-155931886D01*
X61303012Y-155393502D01*
X61301792Y-155389245D01*
X61130329Y-154861537D01*
X61128816Y-154857380D01*
X60920959Y-154342916D01*
X60919165Y-154338887D01*
X60675924Y-153840168D01*
X60673846Y-153836261D01*
X60396411Y-153355731D01*
X60394076Y-153351993D01*
X60083792Y-152891978D01*
X60081193Y-152888401D01*
X59739587Y-152451165D01*
X59736747Y-152447779D01*
X59452596Y-152132199D01*
X59439073Y-152123868D01*
X59438996Y-152123869D01*
X59429712Y-152129498D01*
X53972022Y-157587188D01*
X53964408Y-157601132D01*
X53234356Y-157601132D01*
X53235592Y-157598868D01*
X53235461Y-157597035D01*
X53231210Y-157590420D01*
X47772338Y-152131548D01*
X47758394Y-152123934D01*
X47758319Y-152123939D01*
X47749343Y-152130045D01*
X47463253Y-152447779D01*
X47460413Y-152451165D01*
X47118807Y-152888401D01*
X47116208Y-152891978D01*
X46805924Y-153351993D01*
X46803589Y-153355731D01*
X46526154Y-153836261D01*
X46524076Y-153840168D01*
X46280835Y-154338887D01*
X46279041Y-154342916D01*
X46071184Y-154857380D01*
X46069671Y-154861537D01*
X45898208Y-155389245D01*
X45896988Y-155393502D01*
X45762754Y-155931886D01*
X45761838Y-155936193D01*
X45665482Y-156482658D01*
X45664870Y-156487009D01*
X45606869Y-157038855D01*
X45606561Y-157043264D01*
X45587196Y-157597795D01*
X45587196Y-157602205D01*
X36112949Y-157602205D01*
X36112954Y-157602024D01*
X36112939Y-157597967D01*
X36093866Y-157065096D01*
X36093544Y-157060601D01*
X36036442Y-156530662D01*
X36035800Y-156526211D01*
X35940955Y-156001710D01*
X35939999Y-155997327D01*
X35807892Y-155480933D01*
X35806630Y-155476645D01*
X35637938Y-154971015D01*
X35636370Y-154966818D01*
X35431966Y-154474558D01*
X35430088Y-154470456D01*
X35191023Y-153994094D01*
X35188855Y-153990133D01*
X34916347Y-153532090D01*
X34913891Y-153528279D01*
X34609331Y-153090890D01*
X34606624Y-153087284D01*
X34271552Y-152672765D01*
X34268609Y-152669380D01*
X34098034Y-152486780D01*
X34084361Y-152478698D01*
X34083667Y-152478724D01*
X34075320Y-152483890D01*
X28972022Y-157587188D01*
X28964408Y-157601132D01*
X28234356Y-157601132D01*
X28235592Y-157598868D01*
X28235461Y-157597035D01*
X28231210Y-157590420D01*
X23127007Y-152486217D01*
X23113063Y-152478603D01*
X23112606Y-152478635D01*
X23104130Y-152484332D01*
X22897104Y-152709077D01*
X22894190Y-152712477D01*
X22562015Y-153129331D01*
X22559344Y-153132941D01*
X22257831Y-153572465D01*
X22255409Y-153576283D01*
X21986107Y-154036216D01*
X21983964Y-154040196D01*
X21748233Y-154518211D01*
X21746376Y-154522343D01*
X21545427Y-155015984D01*
X21543874Y-155020230D01*
X21378729Y-155526984D01*
X21377484Y-155531326D01*
X21248991Y-156048608D01*
X21248067Y-156052991D01*
X21156885Y-156578152D01*
X21156274Y-156582609D01*
X21102873Y-157112930D01*
X21102583Y-157117413D01*
X21087236Y-157650201D01*
X16608000Y-157650201D01*
X16608000Y-152115591D01*
X23478674Y-152115591D01*
X23478707Y-152116404D01*
X23483783Y-152124573D01*
X28587188Y-157227978D01*
X28601132Y-157235592D01*
X28602965Y-157235461D01*
X28609580Y-157231210D01*
X33713682Y-152127108D01*
X33721296Y-152113164D01*
X33721255Y-152112590D01*
X33715684Y-152104268D01*
X33510818Y-151914228D01*
X33507387Y-151911267D01*
X33320631Y-151761379D01*
X48124545Y-151761379D01*
X48124612Y-151762631D01*
X48129340Y-151770130D01*
X53587188Y-157227978D01*
X53601132Y-157235592D01*
X53602965Y-157235461D01*
X53609580Y-157231210D01*
X59067821Y-151772969D01*
X59075435Y-151759025D01*
X59075346Y-151757777D01*
X59070487Y-151750359D01*
X58963247Y-151646798D01*
X58959986Y-151643861D01*
X58534919Y-151287188D01*
X58531428Y-151284460D01*
X58082534Y-150958320D01*
X58078873Y-150955851D01*
X57608304Y-150661805D01*
X57604494Y-150659606D01*
X57114576Y-150399112D01*
X57110600Y-150397172D01*
X56603673Y-150171474D01*
X56599621Y-150169837D01*
X56078190Y-149980052D01*
X56073996Y-149978689D01*
X55540615Y-149825745D01*
X55536336Y-149824678D01*
X54993556Y-149709307D01*
X54989259Y-149708549D01*
X54439741Y-149631319D01*
X54435386Y-149630861D01*
X53881836Y-149592153D01*
X53877451Y-149592000D01*
X53322549Y-149592000D01*
X53318164Y-149592153D01*
X52764614Y-149630861D01*
X52760259Y-149631319D01*
X52210741Y-149708549D01*
X52206444Y-149709307D01*
X51663664Y-149824678D01*
X51659385Y-149825745D01*
X51126004Y-149978689D01*
X51121810Y-149980052D01*
X50600379Y-150169837D01*
X50596327Y-150171474D01*
X50089400Y-150397172D01*
X50085424Y-150399112D01*
X49595507Y-150659606D01*
X49591697Y-150661805D01*
X49121127Y-150955851D01*
X49117466Y-150958320D01*
X48668572Y-151284460D01*
X48665081Y-151287188D01*
X48240014Y-151643861D01*
X48236753Y-151646798D01*
X48132400Y-151747571D01*
X48124545Y-151761379D01*
X33320631Y-151761379D01*
X33091729Y-151577666D01*
X33088115Y-151574972D01*
X32649654Y-151271933D01*
X32645835Y-151269490D01*
X32186846Y-150998585D01*
X32182877Y-150996430D01*
X31705679Y-150759028D01*
X31701575Y-150757166D01*
X31208610Y-150554483D01*
X31204395Y-150552924D01*
X30698199Y-150386006D01*
X30693883Y-150384752D01*
X30177042Y-150254451D01*
X30172665Y-150253513D01*
X29647822Y-150160496D01*
X29643365Y-150159870D01*
X29113241Y-150104620D01*
X29108747Y-150104313D01*
X28576027Y-150087107D01*
X28571530Y-150087122D01*
X28038927Y-150108048D01*
X28034451Y-150108384D01*
X27504713Y-150167336D01*
X27500261Y-150167994D01*
X26976106Y-150264667D01*
X26971701Y-150265643D01*
X26455801Y-150399545D01*
X26451490Y-150400830D01*
X25946471Y-150571278D01*
X25942259Y-150572870D01*
X25450723Y-150778988D01*
X25446647Y-150780871D01*
X24971109Y-151021605D01*
X24967158Y-151023786D01*
X24510063Y-151297893D01*
X24506267Y-151300358D01*
X24069930Y-151606452D01*
X24066347Y-151609162D01*
X23653007Y-151945674D01*
X23649617Y-151948642D01*
X23486708Y-152101891D01*
X23478674Y-152115591D01*
X16608000Y-152115591D01*
X16608000Y-138087102D01*
X23478438Y-138087102D01*
X23478462Y-138087441D01*
X23484285Y-138096073D01*
X23728991Y-138319913D01*
X23732445Y-138322852D01*
X24150430Y-138653550D01*
X24154067Y-138656222D01*
X24594618Y-138956182D01*
X24598446Y-138958593D01*
X25059337Y-139226300D01*
X25063309Y-139228421D01*
X25542148Y-139462483D01*
X25546284Y-139464325D01*
X26040627Y-139663551D01*
X26044871Y-139665087D01*
X26552218Y-139828467D01*
X26556539Y-139829689D01*
X27074254Y-139956374D01*
X27078695Y-139957294D01*
X27604141Y-140046637D01*
X27608595Y-140047232D01*
X28139106Y-140098782D01*
X28143579Y-140099056D01*
X28676427Y-140112543D01*
X28680930Y-140112496D01*
X29213352Y-140087853D01*
X29217836Y-140087485D01*
X29747152Y-140024836D01*
X29751591Y-140024149D01*
X30275087Y-139923814D01*
X30279446Y-139922815D01*
X30794414Y-139785311D01*
X30798727Y-139783992D01*
X31302525Y-139610028D01*
X31306740Y-139608402D01*
X31796805Y-139398866D01*
X31800892Y-139396943D01*
X32274731Y-139152900D01*
X32278658Y-139150696D01*
X32733828Y-138873404D01*
X32737624Y-138870901D01*
X33171786Y-138561788D01*
X33175372Y-138559036D01*
X33318337Y-138440975D01*
X48104565Y-138440975D01*
X48104654Y-138442223D01*
X48109513Y-138449641D01*
X48216753Y-138553202D01*
X48220014Y-138556139D01*
X48645081Y-138912812D01*
X48648572Y-138915540D01*
X49097466Y-139241680D01*
X49101127Y-139244149D01*
X49571696Y-139538195D01*
X49575506Y-139540394D01*
X50065424Y-139800888D01*
X50069400Y-139802828D01*
X50576327Y-140028526D01*
X50580379Y-140030163D01*
X51101810Y-140219948D01*
X51106004Y-140221311D01*
X51639385Y-140374255D01*
X51643664Y-140375322D01*
X52186444Y-140490693D01*
X52190741Y-140491451D01*
X52740259Y-140568681D01*
X52744614Y-140569139D01*
X53298164Y-140607847D01*
X53302549Y-140608000D01*
X53857451Y-140608000D01*
X53861836Y-140607847D01*
X54415386Y-140569139D01*
X54419741Y-140568681D01*
X54969259Y-140491451D01*
X54973556Y-140490693D01*
X55516336Y-140375322D01*
X55520615Y-140374255D01*
X56053996Y-140221311D01*
X56058190Y-140219948D01*
X56579621Y-140030163D01*
X56583673Y-140028526D01*
X57090600Y-139802828D01*
X57094576Y-139800888D01*
X57584494Y-139540394D01*
X57588304Y-139538195D01*
X58058873Y-139244149D01*
X58062534Y-139241680D01*
X58511428Y-138915540D01*
X58514919Y-138912812D01*
X58939986Y-138556139D01*
X58943247Y-138553202D01*
X59047600Y-138452429D01*
X59055455Y-138438621D01*
X59055388Y-138437369D01*
X59050660Y-138429870D01*
X53592812Y-132972022D01*
X53578868Y-132964408D01*
X53577035Y-132964539D01*
X53570420Y-132968790D01*
X48112179Y-138427031D01*
X48104565Y-138440975D01*
X33318337Y-138440975D01*
X33586362Y-138219640D01*
X33589705Y-138216672D01*
X33713630Y-138098453D01*
X33721568Y-138084695D01*
X33721518Y-138083649D01*
X33716625Y-138075835D01*
X28612812Y-132972022D01*
X28598868Y-132964408D01*
X28597035Y-132964539D01*
X28590420Y-132968790D01*
X23486052Y-138073158D01*
X23478438Y-138087102D01*
X16608000Y-138087102D01*
X16608000Y-132650201D01*
X21087236Y-132650201D01*
X21087267Y-132654699D01*
X21110052Y-133187215D01*
X21110404Y-133191696D01*
X21171206Y-133721240D01*
X21171874Y-133725659D01*
X21270381Y-134249497D01*
X21271370Y-134253884D01*
X21407070Y-134769308D01*
X21408381Y-134773648D01*
X21580581Y-135278039D01*
X21582188Y-135282249D01*
X21790028Y-135773079D01*
X21791917Y-135777129D01*
X22034314Y-136251836D01*
X22036507Y-136255776D01*
X22312217Y-136711925D01*
X22314678Y-136715685D01*
X22622290Y-137150947D01*
X22625036Y-137154552D01*
X22962987Y-137566712D01*
X22965944Y-137570066D01*
X23101751Y-137713428D01*
X23115482Y-137721415D01*
X23116410Y-137721374D01*
X23124399Y-137716391D01*
X28227978Y-132612812D01*
X28234356Y-132601132D01*
X28964408Y-132601132D01*
X28964539Y-132602965D01*
X28968790Y-132609580D01*
X34073389Y-137714179D01*
X34087333Y-137721793D01*
X34087556Y-137721778D01*
X34096338Y-137715831D01*
X34336905Y-137450987D01*
X34339793Y-137447570D01*
X34669044Y-137028414D01*
X34671701Y-137024771D01*
X34970130Y-136583164D01*
X34972526Y-136579329D01*
X35238617Y-136117514D01*
X35240726Y-136113531D01*
X35473116Y-135633878D01*
X35474941Y-135629741D01*
X35672446Y-135134690D01*
X35673961Y-135130460D01*
X35835567Y-134622549D01*
X35836781Y-134618202D01*
X35961661Y-134100034D01*
X35962555Y-134095638D01*
X36050064Y-133569885D01*
X36050649Y-133565380D01*
X36100363Y-133034517D01*
X36100613Y-133030439D01*
X36112949Y-132602205D01*
X45567196Y-132602205D01*
X45586561Y-133156736D01*
X45586869Y-133161145D01*
X45644870Y-133712991D01*
X45645482Y-133717342D01*
X45741838Y-134263807D01*
X45742754Y-134268114D01*
X45876988Y-134806498D01*
X45878208Y-134810755D01*
X46049671Y-135338463D01*
X46051184Y-135342620D01*
X46259041Y-135857084D01*
X46260835Y-135861113D01*
X46504076Y-136359832D01*
X46506154Y-136363739D01*
X46783589Y-136844269D01*
X46785924Y-136848007D01*
X47096208Y-137308022D01*
X47098807Y-137311599D01*
X47440413Y-137748835D01*
X47443253Y-137752221D01*
X47727404Y-138067801D01*
X47740927Y-138076132D01*
X47741004Y-138076131D01*
X47750288Y-138070502D01*
X53207978Y-132612812D01*
X53214356Y-132601132D01*
X53944408Y-132601132D01*
X53944539Y-132602965D01*
X53948790Y-132609580D01*
X59407662Y-138068452D01*
X59421606Y-138076066D01*
X59421681Y-138076061D01*
X59430657Y-138069955D01*
X59716747Y-137752221D01*
X59719587Y-137748835D01*
X60061193Y-137311599D01*
X60063792Y-137308022D01*
X60374076Y-136848007D01*
X60376411Y-136844269D01*
X60653846Y-136363739D01*
X60655924Y-136359832D01*
X60899165Y-135861113D01*
X60900959Y-135857084D01*
X61108816Y-135342620D01*
X61110329Y-135338463D01*
X61281792Y-134810755D01*
X61283012Y-134806498D01*
X61417246Y-134268114D01*
X61418162Y-134263807D01*
X61514518Y-133717342D01*
X61515130Y-133712991D01*
X61573131Y-133161145D01*
X61573439Y-133156736D01*
X61592804Y-132602205D01*
X61592804Y-132597795D01*
X61573439Y-132043264D01*
X61573131Y-132038855D01*
X61515130Y-131487009D01*
X61514518Y-131482658D01*
X61418162Y-130936193D01*
X61417246Y-130931886D01*
X61283012Y-130393502D01*
X61281792Y-130389245D01*
X61110329Y-129861537D01*
X61108816Y-129857380D01*
X60900959Y-129342916D01*
X60899165Y-129338887D01*
X60655924Y-128840168D01*
X60653846Y-128836261D01*
X60376411Y-128355731D01*
X60374076Y-128351993D01*
X60063792Y-127891978D01*
X60061193Y-127888401D01*
X59719587Y-127451165D01*
X59716747Y-127447779D01*
X59432596Y-127132199D01*
X59419073Y-127123868D01*
X59418996Y-127123869D01*
X59409712Y-127129498D01*
X53952022Y-132587188D01*
X53944408Y-132601132D01*
X53214356Y-132601132D01*
X53215592Y-132598868D01*
X53215461Y-132597035D01*
X53211210Y-132590420D01*
X47752338Y-127131548D01*
X47738394Y-127123934D01*
X47738319Y-127123939D01*
X47729343Y-127130045D01*
X47443253Y-127447779D01*
X47440413Y-127451165D01*
X47098807Y-127888401D01*
X47096208Y-127891978D01*
X46785924Y-128351993D01*
X46783589Y-128355731D01*
X46506154Y-128836261D01*
X46504076Y-128840168D01*
X46260835Y-129338887D01*
X46259041Y-129342916D01*
X46051184Y-129857380D01*
X46049671Y-129861537D01*
X45878208Y-130389245D01*
X45876988Y-130393502D01*
X45742754Y-130931886D01*
X45741838Y-130936193D01*
X45645482Y-131482658D01*
X45644870Y-131487009D01*
X45586869Y-132038855D01*
X45586561Y-132043264D01*
X45567196Y-132597795D01*
X45567196Y-132602205D01*
X36112949Y-132602205D01*
X36112954Y-132602024D01*
X36112939Y-132597967D01*
X36093866Y-132065096D01*
X36093544Y-132060601D01*
X36036442Y-131530662D01*
X36035800Y-131526211D01*
X35940955Y-131001710D01*
X35939999Y-130997327D01*
X35807892Y-130480933D01*
X35806630Y-130476645D01*
X35637938Y-129971015D01*
X35636370Y-129966818D01*
X35431966Y-129474558D01*
X35430088Y-129470456D01*
X35191023Y-128994094D01*
X35188855Y-128990133D01*
X34916347Y-128532090D01*
X34913891Y-128528279D01*
X34609331Y-128090890D01*
X34606624Y-128087284D01*
X34271552Y-127672765D01*
X34268609Y-127669380D01*
X34098034Y-127486780D01*
X34084361Y-127478698D01*
X34083667Y-127478724D01*
X34075320Y-127483890D01*
X28972022Y-132587188D01*
X28964408Y-132601132D01*
X28234356Y-132601132D01*
X28235592Y-132598868D01*
X28235461Y-132597035D01*
X28231210Y-132590420D01*
X23127007Y-127486217D01*
X23113063Y-127478603D01*
X23112606Y-127478635D01*
X23104130Y-127484332D01*
X22897104Y-127709077D01*
X22894190Y-127712477D01*
X22562015Y-128129331D01*
X22559344Y-128132941D01*
X22257831Y-128572465D01*
X22255409Y-128576283D01*
X21986107Y-129036216D01*
X21983964Y-129040196D01*
X21748233Y-129518211D01*
X21746376Y-129522343D01*
X21545427Y-130015984D01*
X21543874Y-130020230D01*
X21378729Y-130526984D01*
X21377484Y-130531326D01*
X21248991Y-131048608D01*
X21248067Y-131052991D01*
X21156885Y-131578152D01*
X21156274Y-131582609D01*
X21102873Y-132112930D01*
X21102583Y-132117413D01*
X21087236Y-132650201D01*
X16608000Y-132650201D01*
X16608000Y-127115591D01*
X23478674Y-127115591D01*
X23478707Y-127116404D01*
X23483783Y-127124573D01*
X28587188Y-132227978D01*
X28601132Y-132235592D01*
X28602965Y-132235461D01*
X28609580Y-132231210D01*
X33713682Y-127127108D01*
X33721296Y-127113164D01*
X33721255Y-127112590D01*
X33715684Y-127104268D01*
X33510818Y-126914228D01*
X33507387Y-126911267D01*
X33320631Y-126761379D01*
X48104545Y-126761379D01*
X48104612Y-126762631D01*
X48109340Y-126770130D01*
X53567188Y-132227978D01*
X53581132Y-132235592D01*
X53582965Y-132235461D01*
X53589580Y-132231210D01*
X59047821Y-126772969D01*
X59055435Y-126759025D01*
X59055346Y-126757777D01*
X59050487Y-126750359D01*
X58943247Y-126646798D01*
X58939986Y-126643861D01*
X58514919Y-126287188D01*
X58511428Y-126284460D01*
X58062534Y-125958320D01*
X58058873Y-125955851D01*
X57588304Y-125661805D01*
X57584494Y-125659606D01*
X57094576Y-125399112D01*
X57090600Y-125397172D01*
X56583673Y-125171474D01*
X56579621Y-125169837D01*
X56058190Y-124980052D01*
X56053996Y-124978689D01*
X55520615Y-124825745D01*
X55516336Y-124824678D01*
X54973556Y-124709307D01*
X54969259Y-124708549D01*
X54419741Y-124631319D01*
X54415386Y-124630861D01*
X53861836Y-124592153D01*
X53857451Y-124592000D01*
X53302549Y-124592000D01*
X53298164Y-124592153D01*
X52744614Y-124630861D01*
X52740259Y-124631319D01*
X52190741Y-124708549D01*
X52186444Y-124709307D01*
X51643664Y-124824678D01*
X51639385Y-124825745D01*
X51106004Y-124978689D01*
X51101810Y-124980052D01*
X50580379Y-125169837D01*
X50576327Y-125171474D01*
X50069400Y-125397172D01*
X50065424Y-125399112D01*
X49575507Y-125659606D01*
X49571697Y-125661805D01*
X49101127Y-125955851D01*
X49097466Y-125958320D01*
X48648572Y-126284460D01*
X48645081Y-126287188D01*
X48220014Y-126643861D01*
X48216753Y-126646798D01*
X48112400Y-126747571D01*
X48104545Y-126761379D01*
X33320631Y-126761379D01*
X33091729Y-126577666D01*
X33088115Y-126574972D01*
X32649654Y-126271933D01*
X32645835Y-126269490D01*
X32186846Y-125998585D01*
X32182877Y-125996430D01*
X31705679Y-125759028D01*
X31701575Y-125757166D01*
X31208610Y-125554483D01*
X31204395Y-125552924D01*
X30698199Y-125386006D01*
X30693883Y-125384752D01*
X30177042Y-125254451D01*
X30172665Y-125253513D01*
X29647822Y-125160496D01*
X29643365Y-125159870D01*
X29113241Y-125104620D01*
X29108747Y-125104313D01*
X28576027Y-125087107D01*
X28571530Y-125087122D01*
X28038927Y-125108048D01*
X28034451Y-125108384D01*
X27504713Y-125167336D01*
X27500261Y-125167994D01*
X26976106Y-125264667D01*
X26971701Y-125265643D01*
X26455801Y-125399545D01*
X26451490Y-125400830D01*
X25946471Y-125571278D01*
X25942259Y-125572870D01*
X25450723Y-125778988D01*
X25446647Y-125780871D01*
X24971109Y-126021605D01*
X24967158Y-126023786D01*
X24510063Y-126297893D01*
X24506267Y-126300358D01*
X24069930Y-126606452D01*
X24066347Y-126609162D01*
X23653007Y-126945674D01*
X23649617Y-126948642D01*
X23486708Y-127101891D01*
X23478674Y-127115591D01*
X16608000Y-127115591D01*
X16608000Y-119732703D01*
X38990743Y-119732703D01*
X39028268Y-120017734D01*
X39104129Y-120295036D01*
X39216923Y-120559476D01*
X39364561Y-120806161D01*
X39544313Y-121030528D01*
X39752851Y-121228423D01*
X39986317Y-121396186D01*
X39990112Y-121398195D01*
X39990113Y-121398196D01*
X40011869Y-121409715D01*
X40240392Y-121530712D01*
X40510373Y-121629511D01*
X40791264Y-121690755D01*
X40819841Y-121693004D01*
X41014282Y-121708307D01*
X41014291Y-121708307D01*
X41016739Y-121708500D01*
X41172271Y-121708500D01*
X41174407Y-121708354D01*
X41174418Y-121708354D01*
X41382548Y-121694165D01*
X41382554Y-121694164D01*
X41386825Y-121693873D01*
X41391020Y-121693004D01*
X41391022Y-121693004D01*
X41527583Y-121664724D01*
X41668342Y-121635574D01*
X41939343Y-121539607D01*
X42194812Y-121407750D01*
X42198313Y-121405289D01*
X42198317Y-121405287D01*
X42312418Y-121325095D01*
X42430023Y-121242441D01*
X42640622Y-121046740D01*
X42822713Y-120824268D01*
X42972927Y-120579142D01*
X43088483Y-120315898D01*
X43167244Y-120039406D01*
X43207751Y-119754784D01*
X43207845Y-119736951D01*
X43209235Y-119471583D01*
X43209235Y-119471576D01*
X43209257Y-119467297D01*
X43171732Y-119182266D01*
X43095871Y-118904964D01*
X42983077Y-118640524D01*
X42835439Y-118393839D01*
X42655687Y-118169472D01*
X42447149Y-117971577D01*
X42213683Y-117803814D01*
X42191843Y-117792250D01*
X42168654Y-117779972D01*
X41959608Y-117669288D01*
X41689627Y-117570489D01*
X41408736Y-117509245D01*
X41377685Y-117506801D01*
X41185718Y-117491693D01*
X41185709Y-117491693D01*
X41183261Y-117491500D01*
X41027729Y-117491500D01*
X41025593Y-117491646D01*
X41025582Y-117491646D01*
X40817452Y-117505835D01*
X40817446Y-117505836D01*
X40813175Y-117506127D01*
X40808980Y-117506996D01*
X40808978Y-117506996D01*
X40672416Y-117535277D01*
X40531658Y-117564426D01*
X40260657Y-117660393D01*
X40005188Y-117792250D01*
X40001687Y-117794711D01*
X40001683Y-117794713D01*
X39991594Y-117801804D01*
X39769977Y-117957559D01*
X39559378Y-118153260D01*
X39377287Y-118375732D01*
X39227073Y-118620858D01*
X39111517Y-118884102D01*
X39032756Y-119160594D01*
X38992249Y-119445216D01*
X38992227Y-119449505D01*
X38992226Y-119449512D01*
X38990765Y-119728417D01*
X38990743Y-119732703D01*
X16608000Y-119732703D01*
X16608000Y-114169652D01*
X23091524Y-114169652D01*
X23093990Y-114178281D01*
X23093991Y-114178286D01*
X23099639Y-114198048D01*
X23103217Y-114214809D01*
X23106130Y-114235152D01*
X23106133Y-114235162D01*
X23107405Y-114244045D01*
X23118021Y-114267395D01*
X23124464Y-114284907D01*
X23131512Y-114309565D01*
X23147274Y-114334548D01*
X23155404Y-114349614D01*
X23167633Y-114376510D01*
X23184374Y-114395939D01*
X23195479Y-114410947D01*
X23209160Y-114432631D01*
X23215888Y-114438573D01*
X23231296Y-114452181D01*
X23243340Y-114464373D01*
X23262619Y-114486747D01*
X23270147Y-114491626D01*
X23270150Y-114491629D01*
X23284139Y-114500696D01*
X23299013Y-114511986D01*
X23318228Y-114528956D01*
X23326354Y-114532771D01*
X23326355Y-114532772D01*
X23332021Y-114535432D01*
X23344966Y-114541510D01*
X23359935Y-114549824D01*
X23384727Y-114565893D01*
X23401650Y-114570954D01*
X23409290Y-114573239D01*
X23426736Y-114579901D01*
X23449948Y-114590799D01*
X23479130Y-114595343D01*
X23495849Y-114599126D01*
X23515536Y-114605014D01*
X23515539Y-114605015D01*
X23524141Y-114607587D01*
X23533116Y-114607642D01*
X23533117Y-114607642D01*
X23539810Y-114607683D01*
X23558556Y-114607797D01*
X23559328Y-114607830D01*
X23560423Y-114608000D01*
X23591298Y-114608000D01*
X23592068Y-114608002D01*
X23665716Y-114608452D01*
X23665717Y-114608452D01*
X23669652Y-114608476D01*
X23670996Y-114608092D01*
X23672341Y-114608000D01*
X33591298Y-114608000D01*
X33592069Y-114608002D01*
X33669652Y-114608476D01*
X33678281Y-114606010D01*
X33678286Y-114606009D01*
X33698048Y-114600361D01*
X33714809Y-114596783D01*
X33735152Y-114593870D01*
X33735162Y-114593867D01*
X33744045Y-114592595D01*
X33767395Y-114581979D01*
X33784907Y-114575536D01*
X33800937Y-114570954D01*
X33809565Y-114568488D01*
X33834548Y-114552726D01*
X33849614Y-114544596D01*
X33876510Y-114532367D01*
X33895939Y-114515626D01*
X33910947Y-114504521D01*
X33925039Y-114495630D01*
X33932631Y-114490840D01*
X33952182Y-114468703D01*
X33964374Y-114456659D01*
X33979949Y-114443239D01*
X33979950Y-114443237D01*
X33986747Y-114437381D01*
X33991626Y-114429853D01*
X33991629Y-114429850D01*
X34000696Y-114415861D01*
X34011986Y-114400987D01*
X34023012Y-114388502D01*
X34028956Y-114381772D01*
X34041510Y-114355034D01*
X34049824Y-114340065D01*
X34065893Y-114315273D01*
X34073239Y-114290709D01*
X34079901Y-114273264D01*
X34086983Y-114258179D01*
X34090799Y-114250052D01*
X34095343Y-114220870D01*
X34099126Y-114204151D01*
X34105014Y-114184464D01*
X34105015Y-114184461D01*
X34107587Y-114175859D01*
X34107797Y-114141444D01*
X34107830Y-114140672D01*
X34108000Y-114139577D01*
X34108000Y-114108702D01*
X34108002Y-114107932D01*
X34108452Y-114034284D01*
X34108452Y-114034283D01*
X34108476Y-114030348D01*
X34108092Y-114029004D01*
X34108000Y-114027659D01*
X34108000Y-113440975D01*
X48124565Y-113440975D01*
X48124654Y-113442223D01*
X48129513Y-113449641D01*
X48236753Y-113553202D01*
X48240014Y-113556139D01*
X48665081Y-113912812D01*
X48668572Y-113915540D01*
X49117466Y-114241680D01*
X49121127Y-114244149D01*
X49591696Y-114538195D01*
X49595506Y-114540394D01*
X50085424Y-114800888D01*
X50089400Y-114802828D01*
X50596327Y-115028526D01*
X50600379Y-115030163D01*
X51121810Y-115219948D01*
X51126004Y-115221311D01*
X51659385Y-115374255D01*
X51663664Y-115375322D01*
X52206444Y-115490693D01*
X52210741Y-115491451D01*
X52760259Y-115568681D01*
X52764614Y-115569139D01*
X53318164Y-115607847D01*
X53322549Y-115608000D01*
X53877451Y-115608000D01*
X53881836Y-115607847D01*
X54435386Y-115569139D01*
X54439741Y-115568681D01*
X54989259Y-115491451D01*
X54993556Y-115490693D01*
X55536336Y-115375322D01*
X55540615Y-115374255D01*
X56073996Y-115221311D01*
X56078190Y-115219948D01*
X56599621Y-115030163D01*
X56603673Y-115028526D01*
X57110600Y-114802828D01*
X57114576Y-114800888D01*
X57604494Y-114540394D01*
X57608304Y-114538195D01*
X58078873Y-114244149D01*
X58082534Y-114241680D01*
X58531428Y-113915540D01*
X58534919Y-113912812D01*
X58959986Y-113556139D01*
X58963247Y-113553202D01*
X59067600Y-113452429D01*
X59075455Y-113438621D01*
X59075388Y-113437369D01*
X59070660Y-113429870D01*
X53612812Y-107972022D01*
X53598868Y-107964408D01*
X53597035Y-107964539D01*
X53590420Y-107968790D01*
X48132179Y-113427031D01*
X48124565Y-113440975D01*
X34108000Y-113440975D01*
X34108000Y-111108702D01*
X34108002Y-111107932D01*
X34108421Y-111039322D01*
X34108476Y-111030348D01*
X34106010Y-111021719D01*
X34106009Y-111021714D01*
X34100361Y-111001952D01*
X34096783Y-110985191D01*
X34093870Y-110964848D01*
X34093867Y-110964838D01*
X34092595Y-110955955D01*
X34081979Y-110932605D01*
X34075536Y-110915093D01*
X34070954Y-110899063D01*
X34068488Y-110890435D01*
X34052726Y-110865452D01*
X34044596Y-110850386D01*
X34032367Y-110823490D01*
X34015626Y-110804061D01*
X34004521Y-110789053D01*
X33995630Y-110774961D01*
X33990840Y-110767369D01*
X33968703Y-110747818D01*
X33956659Y-110735626D01*
X33943239Y-110720051D01*
X33943237Y-110720050D01*
X33937381Y-110713253D01*
X33929853Y-110708374D01*
X33929850Y-110708371D01*
X33915861Y-110699304D01*
X33900987Y-110688014D01*
X33888502Y-110676988D01*
X33881772Y-110671044D01*
X33873646Y-110667229D01*
X33873645Y-110667228D01*
X33867979Y-110664568D01*
X33855034Y-110658490D01*
X33840065Y-110650176D01*
X33815273Y-110634107D01*
X33790709Y-110626761D01*
X33773264Y-110620099D01*
X33768827Y-110618016D01*
X33750052Y-110609201D01*
X33720870Y-110604657D01*
X33704151Y-110600874D01*
X33684464Y-110594986D01*
X33684461Y-110594985D01*
X33675859Y-110592413D01*
X33666884Y-110592358D01*
X33666883Y-110592358D01*
X33660190Y-110592317D01*
X33641444Y-110592203D01*
X33640672Y-110592170D01*
X33639577Y-110592000D01*
X33608702Y-110592000D01*
X33607932Y-110591998D01*
X33534284Y-110591548D01*
X33534283Y-110591548D01*
X33530348Y-110591524D01*
X33529004Y-110591908D01*
X33527659Y-110592000D01*
X23608702Y-110592000D01*
X23607932Y-110591998D01*
X23607078Y-110591993D01*
X23530348Y-110591524D01*
X23521719Y-110593990D01*
X23521714Y-110593991D01*
X23501952Y-110599639D01*
X23485191Y-110603217D01*
X23464848Y-110606130D01*
X23464838Y-110606133D01*
X23455955Y-110607405D01*
X23432605Y-110618021D01*
X23415093Y-110624464D01*
X23407057Y-110626761D01*
X23390435Y-110631512D01*
X23365452Y-110647274D01*
X23350386Y-110655404D01*
X23323490Y-110667633D01*
X23304061Y-110684374D01*
X23289053Y-110695479D01*
X23267369Y-110709160D01*
X23261427Y-110715888D01*
X23247819Y-110731296D01*
X23235627Y-110743340D01*
X23213253Y-110762619D01*
X23208374Y-110770147D01*
X23208371Y-110770150D01*
X23199304Y-110784139D01*
X23188014Y-110799013D01*
X23171044Y-110818228D01*
X23158490Y-110844966D01*
X23150176Y-110859935D01*
X23134107Y-110884727D01*
X23131535Y-110893327D01*
X23126761Y-110909290D01*
X23120099Y-110926736D01*
X23109201Y-110949948D01*
X23104658Y-110979128D01*
X23100874Y-110995849D01*
X23094986Y-111015536D01*
X23094985Y-111015539D01*
X23092413Y-111024141D01*
X23092358Y-111033116D01*
X23092358Y-111033117D01*
X23092203Y-111058546D01*
X23092170Y-111059328D01*
X23092000Y-111060423D01*
X23092000Y-111091298D01*
X23091998Y-111092068D01*
X23091524Y-111169652D01*
X23091908Y-111170996D01*
X23092000Y-111172341D01*
X23092000Y-114091298D01*
X23091998Y-114092068D01*
X23091524Y-114169652D01*
X16608000Y-114169652D01*
X16608000Y-107602205D01*
X45587196Y-107602205D01*
X45606561Y-108156736D01*
X45606869Y-108161145D01*
X45664870Y-108712991D01*
X45665482Y-108717342D01*
X45761838Y-109263807D01*
X45762754Y-109268114D01*
X45896988Y-109806498D01*
X45898208Y-109810755D01*
X46069671Y-110338463D01*
X46071184Y-110342620D01*
X46279041Y-110857084D01*
X46280835Y-110861113D01*
X46524076Y-111359832D01*
X46526154Y-111363739D01*
X46803589Y-111844269D01*
X46805924Y-111848007D01*
X47116208Y-112308022D01*
X47118807Y-112311599D01*
X47460413Y-112748835D01*
X47463253Y-112752221D01*
X47747404Y-113067801D01*
X47760927Y-113076132D01*
X47761004Y-113076131D01*
X47770288Y-113070502D01*
X53227978Y-107612812D01*
X53234356Y-107601132D01*
X53964408Y-107601132D01*
X53964539Y-107602965D01*
X53968790Y-107609580D01*
X59427662Y-113068452D01*
X59441606Y-113076066D01*
X59441681Y-113076061D01*
X59450657Y-113069955D01*
X59736747Y-112752221D01*
X59739587Y-112748835D01*
X60081193Y-112311599D01*
X60083792Y-112308022D01*
X60394076Y-111848007D01*
X60396411Y-111844269D01*
X60673846Y-111363739D01*
X60675924Y-111359832D01*
X60919165Y-110861113D01*
X60920959Y-110857084D01*
X61128816Y-110342620D01*
X61130329Y-110338463D01*
X61301792Y-109810755D01*
X61303012Y-109806498D01*
X61437246Y-109268114D01*
X61438162Y-109263807D01*
X61534518Y-108717342D01*
X61535130Y-108712991D01*
X61593131Y-108161145D01*
X61593439Y-108156736D01*
X61612804Y-107602205D01*
X61612804Y-107597795D01*
X61593439Y-107043264D01*
X61593131Y-107038855D01*
X61535130Y-106487009D01*
X61534518Y-106482658D01*
X61438162Y-105936193D01*
X61437246Y-105931886D01*
X61303012Y-105393502D01*
X61301792Y-105389245D01*
X61130329Y-104861537D01*
X61128816Y-104857380D01*
X60920959Y-104342916D01*
X60919165Y-104338887D01*
X60675924Y-103840168D01*
X60673846Y-103836261D01*
X60396411Y-103355731D01*
X60394076Y-103351993D01*
X60083792Y-102891978D01*
X60081193Y-102888401D01*
X59739587Y-102451165D01*
X59736747Y-102447779D01*
X59452596Y-102132199D01*
X59439073Y-102123868D01*
X59438996Y-102123869D01*
X59429712Y-102129498D01*
X53972022Y-107587188D01*
X53964408Y-107601132D01*
X53234356Y-107601132D01*
X53235592Y-107598868D01*
X53235461Y-107597035D01*
X53231210Y-107590420D01*
X47772338Y-102131548D01*
X47758394Y-102123934D01*
X47758319Y-102123939D01*
X47749343Y-102130045D01*
X47463253Y-102447779D01*
X47460413Y-102451165D01*
X47118807Y-102888401D01*
X47116208Y-102891978D01*
X46805924Y-103351993D01*
X46803589Y-103355731D01*
X46526154Y-103836261D01*
X46524076Y-103840168D01*
X46280835Y-104338887D01*
X46279041Y-104342916D01*
X46071184Y-104857380D01*
X46069671Y-104861537D01*
X45898208Y-105389245D01*
X45896988Y-105393502D01*
X45762754Y-105931886D01*
X45761838Y-105936193D01*
X45665482Y-106482658D01*
X45664870Y-106487009D01*
X45606869Y-107038855D01*
X45606561Y-107043264D01*
X45587196Y-107597795D01*
X45587196Y-107602205D01*
X16608000Y-107602205D01*
X16608000Y-101732703D01*
X19990743Y-101732703D01*
X20028268Y-102017734D01*
X20104129Y-102295036D01*
X20216923Y-102559476D01*
X20364561Y-102806161D01*
X20544313Y-103030528D01*
X20752851Y-103228423D01*
X20986317Y-103396186D01*
X20990112Y-103398195D01*
X20990113Y-103398196D01*
X21011869Y-103409715D01*
X21240392Y-103530712D01*
X21510373Y-103629511D01*
X21791264Y-103690755D01*
X21819841Y-103693004D01*
X22014282Y-103708307D01*
X22014291Y-103708307D01*
X22016739Y-103708500D01*
X22172271Y-103708500D01*
X22174407Y-103708354D01*
X22174418Y-103708354D01*
X22382548Y-103694165D01*
X22382554Y-103694164D01*
X22386825Y-103693873D01*
X22391020Y-103693004D01*
X22391022Y-103693004D01*
X22527583Y-103664724D01*
X22668342Y-103635574D01*
X22939343Y-103539607D01*
X23194812Y-103407750D01*
X23198313Y-103405289D01*
X23198317Y-103405287D01*
X23312418Y-103325095D01*
X23430023Y-103242441D01*
X23640622Y-103046740D01*
X23822713Y-102824268D01*
X23972927Y-102579142D01*
X24088483Y-102315898D01*
X24167244Y-102039406D01*
X24206634Y-101762631D01*
X24206812Y-101761379D01*
X48124545Y-101761379D01*
X48124612Y-101762631D01*
X48129340Y-101770130D01*
X53587188Y-107227978D01*
X53601132Y-107235592D01*
X53602965Y-107235461D01*
X53609580Y-107231210D01*
X59067821Y-101772969D01*
X59075435Y-101759025D01*
X59075346Y-101757777D01*
X59070487Y-101750359D01*
X58963247Y-101646798D01*
X58959986Y-101643861D01*
X58534919Y-101287188D01*
X58531428Y-101284460D01*
X58082534Y-100958320D01*
X58078873Y-100955851D01*
X57608304Y-100661805D01*
X57604494Y-100659606D01*
X57114576Y-100399112D01*
X57110600Y-100397172D01*
X56603673Y-100171474D01*
X56599621Y-100169837D01*
X56078190Y-99980052D01*
X56073996Y-99978689D01*
X55540615Y-99825745D01*
X55536336Y-99824678D01*
X54993556Y-99709307D01*
X54989259Y-99708549D01*
X54439741Y-99631319D01*
X54435386Y-99630861D01*
X53881836Y-99592153D01*
X53877451Y-99592000D01*
X53322549Y-99592000D01*
X53318164Y-99592153D01*
X52764614Y-99630861D01*
X52760259Y-99631319D01*
X52210741Y-99708549D01*
X52206444Y-99709307D01*
X51663664Y-99824678D01*
X51659385Y-99825745D01*
X51126004Y-99978689D01*
X51121810Y-99980052D01*
X50600379Y-100169837D01*
X50596327Y-100171474D01*
X50089400Y-100397172D01*
X50085424Y-100399112D01*
X49595507Y-100659606D01*
X49591697Y-100661805D01*
X49121127Y-100955851D01*
X49117466Y-100958320D01*
X48668572Y-101284460D01*
X48665081Y-101287188D01*
X48240014Y-101643861D01*
X48236753Y-101646798D01*
X48132400Y-101747571D01*
X48124545Y-101761379D01*
X24206812Y-101761379D01*
X24207146Y-101759036D01*
X24207147Y-101759025D01*
X24207751Y-101754784D01*
X24207775Y-101750359D01*
X24209235Y-101471583D01*
X24209235Y-101471576D01*
X24209257Y-101467297D01*
X24171732Y-101182266D01*
X24095871Y-100904964D01*
X23992154Y-100661805D01*
X23984763Y-100644476D01*
X23984761Y-100644472D01*
X23983077Y-100640524D01*
X23835439Y-100393839D01*
X23655687Y-100169472D01*
X23456080Y-99980052D01*
X23450258Y-99974527D01*
X23450255Y-99974525D01*
X23447149Y-99971577D01*
X23213683Y-99803814D01*
X23191843Y-99792250D01*
X23168654Y-99779972D01*
X22959608Y-99669288D01*
X22689627Y-99570489D01*
X22408736Y-99509245D01*
X22377685Y-99506801D01*
X22185718Y-99491693D01*
X22185709Y-99491693D01*
X22183261Y-99491500D01*
X22027729Y-99491500D01*
X22025593Y-99491646D01*
X22025582Y-99491646D01*
X21817452Y-99505835D01*
X21817446Y-99505836D01*
X21813175Y-99506127D01*
X21808980Y-99506996D01*
X21808978Y-99506996D01*
X21672417Y-99535276D01*
X21531658Y-99564426D01*
X21260657Y-99660393D01*
X21005188Y-99792250D01*
X21001687Y-99794711D01*
X21001683Y-99794713D01*
X20957529Y-99825745D01*
X20769977Y-99957559D01*
X20559378Y-100153260D01*
X20377287Y-100375732D01*
X20227073Y-100620858D01*
X20225347Y-100624791D01*
X20225346Y-100624792D01*
X20113243Y-100880170D01*
X20111517Y-100884102D01*
X20032756Y-101160594D01*
X19992249Y-101445216D01*
X19992227Y-101449505D01*
X19992226Y-101449512D01*
X19991208Y-101643861D01*
X19990743Y-101732703D01*
X16608000Y-101732703D01*
X16608000Y-92707655D01*
X56339858Y-92707655D01*
X56375104Y-92966638D01*
X56376412Y-92971124D01*
X56376412Y-92971126D01*
X56396098Y-93038664D01*
X56448243Y-93217567D01*
X56557668Y-93454928D01*
X56560231Y-93458837D01*
X56698410Y-93669596D01*
X56698414Y-93669601D01*
X56700976Y-93673509D01*
X56875018Y-93868506D01*
X57075970Y-94035637D01*
X57079973Y-94038066D01*
X57295422Y-94168804D01*
X57295426Y-94168806D01*
X57299419Y-94171229D01*
X57540455Y-94272303D01*
X57793783Y-94336641D01*
X57798434Y-94337109D01*
X57798438Y-94337110D01*
X57991308Y-94356531D01*
X58010867Y-94358500D01*
X58166354Y-94358500D01*
X58168679Y-94358327D01*
X58168685Y-94358327D01*
X58356000Y-94344407D01*
X58356004Y-94344406D01*
X58360652Y-94344061D01*
X58365200Y-94343032D01*
X58365206Y-94343031D01*
X58551601Y-94300853D01*
X58615577Y-94286377D01*
X58651769Y-94272303D01*
X58854824Y-94193340D01*
X58854827Y-94193339D01*
X58859177Y-94191647D01*
X59086098Y-94061951D01*
X59291357Y-93900138D01*
X59470443Y-93709763D01*
X59619424Y-93495009D01*
X59735025Y-93260593D01*
X59814707Y-93011665D01*
X59856721Y-92753693D01*
X59860142Y-92492345D01*
X59824896Y-92233362D01*
X59810473Y-92183877D01*
X59753068Y-91986932D01*
X59751757Y-91982433D01*
X59642332Y-91745072D01*
X59609519Y-91695024D01*
X59501590Y-91530404D01*
X59501586Y-91530399D01*
X59499024Y-91526491D01*
X59324982Y-91331494D01*
X59124030Y-91164363D01*
X59076844Y-91135730D01*
X58904578Y-91031196D01*
X58904574Y-91031194D01*
X58900581Y-91028771D01*
X58659545Y-90927697D01*
X58406217Y-90863359D01*
X58401566Y-90862891D01*
X58401562Y-90862890D01*
X58192271Y-90841816D01*
X58189133Y-90841500D01*
X58033646Y-90841500D01*
X58031321Y-90841673D01*
X58031315Y-90841673D01*
X57844000Y-90855593D01*
X57843996Y-90855594D01*
X57839348Y-90855939D01*
X57834800Y-90856968D01*
X57834794Y-90856969D01*
X57648399Y-90899147D01*
X57584423Y-90913623D01*
X57580071Y-90915315D01*
X57580069Y-90915316D01*
X57345176Y-91006660D01*
X57345173Y-91006661D01*
X57340823Y-91008353D01*
X57113902Y-91138049D01*
X56908643Y-91299862D01*
X56729557Y-91490237D01*
X56580576Y-91704991D01*
X56464975Y-91939407D01*
X56385293Y-92188335D01*
X56343279Y-92446307D01*
X56339858Y-92707655D01*
X16608000Y-92707655D01*
X16608000Y-84317924D01*
X37747616Y-84317924D01*
X37747665Y-84318616D01*
X37753111Y-84326781D01*
X37842226Y-84410027D01*
X37846503Y-84413681D01*
X38193829Y-84684553D01*
X38198386Y-84687792D01*
X38568432Y-84926727D01*
X38573261Y-84929549D01*
X38963048Y-85134626D01*
X38968150Y-85137027D01*
X39374633Y-85306647D01*
X39379888Y-85308570D01*
X39799860Y-85441389D01*
X39805259Y-85442836D01*
X40235375Y-85537796D01*
X40240886Y-85538758D01*
X40677749Y-85595110D01*
X40683312Y-85595577D01*
X41123453Y-85612869D01*
X41129045Y-85612840D01*
X41568965Y-85590940D01*
X41574548Y-85590412D01*
X42010788Y-85529490D01*
X42016275Y-85528473D01*
X42445381Y-85429012D01*
X42450767Y-85427508D01*
X42869333Y-85290296D01*
X42874550Y-85288324D01*
X43279260Y-85114447D01*
X43284303Y-85112009D01*
X43671943Y-84902850D01*
X43676747Y-84899975D01*
X44044239Y-84657198D01*
X44048802Y-84653883D01*
X44393266Y-84379393D01*
X44397481Y-84375716D01*
X44445286Y-84330112D01*
X44453226Y-84316352D01*
X44453176Y-84315307D01*
X44448285Y-84307495D01*
X41112812Y-80972022D01*
X41098868Y-80964408D01*
X41097035Y-80964539D01*
X41090420Y-80968790D01*
X37755230Y-84303980D01*
X37747616Y-84317924D01*
X16608000Y-84317924D01*
X16608000Y-80471585D01*
X36088722Y-80471585D01*
X36096793Y-80911981D01*
X36097143Y-80917547D01*
X36144333Y-81355491D01*
X36145180Y-81361030D01*
X36231112Y-81793042D01*
X36232441Y-81798453D01*
X36356444Y-82221138D01*
X36358250Y-82226413D01*
X36519326Y-82636377D01*
X36521608Y-82641501D01*
X36718485Y-83035516D01*
X36721209Y-83040409D01*
X36952333Y-83415363D01*
X36955484Y-83419999D01*
X37219031Y-83772931D01*
X37222564Y-83777248D01*
X37371583Y-83943625D01*
X37385079Y-83951989D01*
X37394491Y-83946299D01*
X40727978Y-80612812D01*
X40734356Y-80601132D01*
X41464408Y-80601132D01*
X41464539Y-80602965D01*
X41468790Y-80609580D01*
X44803870Y-83944660D01*
X44817631Y-83952174D01*
X44826992Y-83945716D01*
X45010483Y-83736482D01*
X45013988Y-83732109D01*
X45273825Y-83376435D01*
X45276920Y-83371777D01*
X45504101Y-82994431D01*
X45506782Y-82989492D01*
X45699515Y-82593455D01*
X45701750Y-82588289D01*
X45858519Y-82176675D01*
X45860275Y-82171363D01*
X45979838Y-81747427D01*
X45981114Y-81741991D01*
X46062520Y-81309092D01*
X46063307Y-81303555D01*
X46105963Y-80864580D01*
X46106236Y-80860143D01*
X46110229Y-80707655D01*
X56339858Y-80707655D01*
X56375104Y-80966638D01*
X56376412Y-80971124D01*
X56376412Y-80971126D01*
X56396098Y-81038664D01*
X56448243Y-81217567D01*
X56557668Y-81454928D01*
X56560231Y-81458837D01*
X56698410Y-81669596D01*
X56698414Y-81669601D01*
X56700976Y-81673509D01*
X56875018Y-81868506D01*
X57075970Y-82035637D01*
X57079973Y-82038066D01*
X57295422Y-82168804D01*
X57295426Y-82168806D01*
X57299419Y-82171229D01*
X57540455Y-82272303D01*
X57793783Y-82336641D01*
X57798434Y-82337109D01*
X57798438Y-82337110D01*
X57991308Y-82356531D01*
X58010867Y-82358500D01*
X58166354Y-82358500D01*
X58168679Y-82358327D01*
X58168685Y-82358327D01*
X58356000Y-82344407D01*
X58356004Y-82344406D01*
X58360652Y-82344061D01*
X58365200Y-82343032D01*
X58365206Y-82343031D01*
X58551601Y-82300853D01*
X58615577Y-82286377D01*
X58651769Y-82272303D01*
X58854824Y-82193340D01*
X58854827Y-82193339D01*
X58859177Y-82191647D01*
X59086098Y-82061951D01*
X59291357Y-81900138D01*
X59470443Y-81709763D01*
X59619424Y-81495009D01*
X59735025Y-81260593D01*
X59814707Y-81011665D01*
X59856721Y-80753693D01*
X59860142Y-80492345D01*
X59824896Y-80233362D01*
X59810473Y-80183877D01*
X59753068Y-79986932D01*
X59751757Y-79982433D01*
X59642332Y-79745072D01*
X59538157Y-79586178D01*
X59501590Y-79530404D01*
X59501586Y-79530399D01*
X59499024Y-79526491D01*
X59324982Y-79331494D01*
X59124030Y-79164363D01*
X59076844Y-79135730D01*
X58904578Y-79031196D01*
X58904574Y-79031194D01*
X58900581Y-79028771D01*
X58659545Y-78927697D01*
X58406217Y-78863359D01*
X58401566Y-78862891D01*
X58401562Y-78862890D01*
X58192271Y-78841816D01*
X58189133Y-78841500D01*
X58033646Y-78841500D01*
X58031321Y-78841673D01*
X58031315Y-78841673D01*
X57844000Y-78855593D01*
X57843996Y-78855594D01*
X57839348Y-78855939D01*
X57834800Y-78856968D01*
X57834794Y-78856969D01*
X57648399Y-78899147D01*
X57584423Y-78913623D01*
X57580071Y-78915315D01*
X57580069Y-78915316D01*
X57345176Y-79006660D01*
X57345173Y-79006661D01*
X57340823Y-79008353D01*
X57113902Y-79138049D01*
X56908643Y-79299862D01*
X56729557Y-79490237D01*
X56580576Y-79704991D01*
X56578510Y-79709181D01*
X56578508Y-79709184D01*
X56578341Y-79709524D01*
X56464975Y-79939407D01*
X56385293Y-80188335D01*
X56343279Y-80446307D01*
X56339858Y-80707655D01*
X46110229Y-80707655D01*
X46112990Y-80602234D01*
X46112948Y-80597762D01*
X46093327Y-80157177D01*
X46092829Y-80151590D01*
X46034193Y-79715047D01*
X46033200Y-79709524D01*
X45935990Y-79279920D01*
X45934517Y-79274533D01*
X45799499Y-78855261D01*
X45797544Y-78850003D01*
X45625801Y-78444419D01*
X45623382Y-78439348D01*
X45416253Y-78050614D01*
X45413418Y-78045819D01*
X45172538Y-77677013D01*
X45169287Y-77672489D01*
X44896582Y-77326564D01*
X44892934Y-77322338D01*
X44829587Y-77255233D01*
X44815871Y-77247222D01*
X44815000Y-77247259D01*
X44806923Y-77252287D01*
X41472022Y-80587188D01*
X41464408Y-80601132D01*
X40734356Y-80601132D01*
X40735592Y-80598868D01*
X40735461Y-80597035D01*
X40731210Y-80590420D01*
X37393542Y-77252752D01*
X37380234Y-77245485D01*
X37370195Y-77252607D01*
X37108756Y-77566953D01*
X37105361Y-77571425D01*
X36854932Y-77933765D01*
X36851953Y-77938515D01*
X36634719Y-78321695D01*
X36632188Y-78326662D01*
X36449866Y-78727656D01*
X36447788Y-78732824D01*
X36301840Y-79148426D01*
X36300219Y-79153795D01*
X36191798Y-79580705D01*
X36190664Y-79586178D01*
X36120621Y-80021044D01*
X36119976Y-80026622D01*
X36088869Y-80465964D01*
X36088722Y-80471585D01*
X16608000Y-80471585D01*
X16608000Y-76882502D01*
X37746077Y-76882502D01*
X37752184Y-76892974D01*
X41087188Y-80227978D01*
X41101132Y-80235592D01*
X41102965Y-80235461D01*
X41109580Y-80231210D01*
X44444435Y-76896355D01*
X44451998Y-76882505D01*
X44445671Y-76873283D01*
X44256913Y-76705992D01*
X44252551Y-76702459D01*
X43898262Y-76440778D01*
X43893609Y-76437651D01*
X43517453Y-76208495D01*
X43512536Y-76205791D01*
X43117488Y-76010974D01*
X43112379Y-76008732D01*
X42701563Y-75849799D01*
X42696273Y-75848019D01*
X42272954Y-75726234D01*
X42267530Y-75724932D01*
X41835068Y-75641261D01*
X41829539Y-75640445D01*
X41391353Y-75595550D01*
X41385771Y-75595228D01*
X40945346Y-75589463D01*
X40939735Y-75589639D01*
X40500541Y-75623048D01*
X40494984Y-75623720D01*
X40060504Y-75696037D01*
X40055007Y-75697205D01*
X39628680Y-75807858D01*
X39623314Y-75809510D01*
X39208509Y-75957622D01*
X39203321Y-75959739D01*
X38803311Y-76144147D01*
X38798342Y-76146711D01*
X38416308Y-76365948D01*
X38411575Y-76368951D01*
X38050545Y-76621278D01*
X38046104Y-76624686D01*
X37754521Y-76869785D01*
X37746077Y-76882502D01*
X16608000Y-76882502D01*
X16608000Y-68707655D01*
X56339858Y-68707655D01*
X56375104Y-68966638D01*
X56376412Y-68971124D01*
X56376412Y-68971126D01*
X56396098Y-69038664D01*
X56448243Y-69217567D01*
X56557668Y-69454928D01*
X56560231Y-69458837D01*
X56698410Y-69669596D01*
X56698414Y-69669601D01*
X56700976Y-69673509D01*
X56875018Y-69868506D01*
X57075970Y-70035637D01*
X57079973Y-70038066D01*
X57295422Y-70168804D01*
X57295426Y-70168806D01*
X57299419Y-70171229D01*
X57540455Y-70272303D01*
X57793783Y-70336641D01*
X57798434Y-70337109D01*
X57798438Y-70337110D01*
X57991308Y-70356531D01*
X58010867Y-70358500D01*
X58166354Y-70358500D01*
X58168679Y-70358327D01*
X58168685Y-70358327D01*
X58356000Y-70344407D01*
X58356004Y-70344406D01*
X58360652Y-70344061D01*
X58365200Y-70343032D01*
X58365206Y-70343031D01*
X58551601Y-70300853D01*
X58615577Y-70286377D01*
X58651769Y-70272303D01*
X58854824Y-70193340D01*
X58854827Y-70193339D01*
X58859177Y-70191647D01*
X59086098Y-70061951D01*
X59291357Y-69900138D01*
X59470443Y-69709763D01*
X59619424Y-69495009D01*
X59735025Y-69260593D01*
X59814707Y-69011665D01*
X59856721Y-68753693D01*
X59860142Y-68492345D01*
X59824896Y-68233362D01*
X59810473Y-68183877D01*
X59753068Y-67986932D01*
X59751757Y-67982433D01*
X59642332Y-67745072D01*
X59609519Y-67695024D01*
X59501590Y-67530404D01*
X59501586Y-67530399D01*
X59499024Y-67526491D01*
X59324982Y-67331494D01*
X59124030Y-67164363D01*
X59076844Y-67135730D01*
X58904578Y-67031196D01*
X58904574Y-67031194D01*
X58900581Y-67028771D01*
X58659545Y-66927697D01*
X58406217Y-66863359D01*
X58401566Y-66862891D01*
X58401562Y-66862890D01*
X58192271Y-66841816D01*
X58189133Y-66841500D01*
X58033646Y-66841500D01*
X58031321Y-66841673D01*
X58031315Y-66841673D01*
X57844000Y-66855593D01*
X57843996Y-66855594D01*
X57839348Y-66855939D01*
X57834800Y-66856968D01*
X57834794Y-66856969D01*
X57648399Y-66899147D01*
X57584423Y-66913623D01*
X57580071Y-66915315D01*
X57580069Y-66915316D01*
X57345176Y-67006660D01*
X57345173Y-67006661D01*
X57340823Y-67008353D01*
X57113902Y-67138049D01*
X56908643Y-67299862D01*
X56729557Y-67490237D01*
X56580576Y-67704991D01*
X56464975Y-67939407D01*
X56385293Y-68188335D01*
X56343279Y-68446307D01*
X56339858Y-68707655D01*
X16608000Y-68707655D01*
X16608000Y-56707655D01*
X56339858Y-56707655D01*
X56375104Y-56966638D01*
X56376412Y-56971124D01*
X56376412Y-56971126D01*
X56396098Y-57038664D01*
X56448243Y-57217567D01*
X56557668Y-57454928D01*
X56560231Y-57458837D01*
X56698410Y-57669596D01*
X56698414Y-57669601D01*
X56700976Y-57673509D01*
X56875018Y-57868506D01*
X57075970Y-58035637D01*
X57079973Y-58038066D01*
X57295422Y-58168804D01*
X57295426Y-58168806D01*
X57299419Y-58171229D01*
X57540455Y-58272303D01*
X57793783Y-58336641D01*
X57798434Y-58337109D01*
X57798438Y-58337110D01*
X57991308Y-58356531D01*
X58010867Y-58358500D01*
X58166354Y-58358500D01*
X58168679Y-58358327D01*
X58168685Y-58358327D01*
X58356000Y-58344407D01*
X58356004Y-58344406D01*
X58360652Y-58344061D01*
X58365200Y-58343032D01*
X58365206Y-58343031D01*
X58551601Y-58300853D01*
X58615577Y-58286377D01*
X58651769Y-58272303D01*
X58854824Y-58193340D01*
X58854827Y-58193339D01*
X58859177Y-58191647D01*
X59086098Y-58061951D01*
X59291357Y-57900138D01*
X59470443Y-57709763D01*
X59619424Y-57495009D01*
X59735025Y-57260593D01*
X59814707Y-57011665D01*
X59856721Y-56753693D01*
X59860142Y-56492345D01*
X59824896Y-56233362D01*
X59810473Y-56183877D01*
X59753068Y-55986932D01*
X59751757Y-55982433D01*
X59642332Y-55745072D01*
X59609519Y-55695024D01*
X59501590Y-55530404D01*
X59501586Y-55530399D01*
X59499024Y-55526491D01*
X59324982Y-55331494D01*
X59124030Y-55164363D01*
X59076844Y-55135730D01*
X58904578Y-55031196D01*
X58904574Y-55031194D01*
X58900581Y-55028771D01*
X58659545Y-54927697D01*
X58406217Y-54863359D01*
X58401566Y-54862891D01*
X58401562Y-54862890D01*
X58192271Y-54841816D01*
X58189133Y-54841500D01*
X58033646Y-54841500D01*
X58031321Y-54841673D01*
X58031315Y-54841673D01*
X57844000Y-54855593D01*
X57843996Y-54855594D01*
X57839348Y-54855939D01*
X57834800Y-54856968D01*
X57834794Y-54856969D01*
X57648399Y-54899147D01*
X57584423Y-54913623D01*
X57580071Y-54915315D01*
X57580069Y-54915316D01*
X57345176Y-55006660D01*
X57345173Y-55006661D01*
X57340823Y-55008353D01*
X57113902Y-55138049D01*
X56908643Y-55299862D01*
X56729557Y-55490237D01*
X56580576Y-55704991D01*
X56464975Y-55939407D01*
X56385293Y-56188335D01*
X56343279Y-56446307D01*
X56339858Y-56707655D01*
X16608000Y-56707655D01*
X16608000Y-46087102D01*
X35978438Y-46087102D01*
X35978462Y-46087441D01*
X35984285Y-46096073D01*
X36228991Y-46319913D01*
X36232445Y-46322852D01*
X36650430Y-46653550D01*
X36654067Y-46656222D01*
X37094618Y-46956182D01*
X37098446Y-46958593D01*
X37559337Y-47226300D01*
X37563309Y-47228421D01*
X38042148Y-47462483D01*
X38046284Y-47464325D01*
X38540627Y-47663551D01*
X38544871Y-47665087D01*
X39052218Y-47828467D01*
X39056539Y-47829689D01*
X39574254Y-47956374D01*
X39578695Y-47957294D01*
X40104141Y-48046637D01*
X40108595Y-48047232D01*
X40639106Y-48098782D01*
X40643579Y-48099056D01*
X41176427Y-48112543D01*
X41180930Y-48112496D01*
X41713352Y-48087853D01*
X41717836Y-48087485D01*
X42247152Y-48024836D01*
X42251591Y-48024149D01*
X42775087Y-47923814D01*
X42779446Y-47922815D01*
X43294414Y-47785311D01*
X43298727Y-47783992D01*
X43802525Y-47610028D01*
X43806740Y-47608402D01*
X44296805Y-47398866D01*
X44300892Y-47396943D01*
X44774731Y-47152900D01*
X44778658Y-47150696D01*
X45233828Y-46873404D01*
X45237624Y-46870901D01*
X45671786Y-46561788D01*
X45675372Y-46559036D01*
X46086362Y-46219640D01*
X46089705Y-46216672D01*
X46213630Y-46098453D01*
X46221568Y-46084695D01*
X46221518Y-46083649D01*
X46216625Y-46075835D01*
X41112812Y-40972022D01*
X41098868Y-40964408D01*
X41097035Y-40964539D01*
X41090420Y-40968790D01*
X35986052Y-46073158D01*
X35978438Y-46087102D01*
X16608000Y-46087102D01*
X16608000Y-40650201D01*
X33587236Y-40650201D01*
X33587267Y-40654699D01*
X33610052Y-41187215D01*
X33610404Y-41191696D01*
X33671206Y-41721240D01*
X33671874Y-41725659D01*
X33770381Y-42249497D01*
X33771370Y-42253884D01*
X33907070Y-42769308D01*
X33908381Y-42773648D01*
X34080581Y-43278039D01*
X34082188Y-43282249D01*
X34290028Y-43773079D01*
X34291917Y-43777129D01*
X34534314Y-44251836D01*
X34536507Y-44255776D01*
X34812217Y-44711925D01*
X34814678Y-44715685D01*
X35122290Y-45150947D01*
X35125036Y-45154552D01*
X35462987Y-45566712D01*
X35465944Y-45570066D01*
X35601751Y-45713428D01*
X35615482Y-45721415D01*
X35616410Y-45721374D01*
X35624399Y-45716391D01*
X40727978Y-40612812D01*
X40734356Y-40601132D01*
X41464408Y-40601132D01*
X41464539Y-40602965D01*
X41468790Y-40609580D01*
X46573389Y-45714179D01*
X46587333Y-45721793D01*
X46587556Y-45721778D01*
X46596338Y-45715831D01*
X46836905Y-45450987D01*
X46839793Y-45447570D01*
X47169044Y-45028414D01*
X47171701Y-45024771D01*
X47470130Y-44583164D01*
X47472526Y-44579329D01*
X47738617Y-44117514D01*
X47740726Y-44113531D01*
X47973116Y-43633878D01*
X47974941Y-43629741D01*
X48172446Y-43134690D01*
X48173961Y-43130460D01*
X48335567Y-42622549D01*
X48336781Y-42618202D01*
X48461661Y-42100034D01*
X48462555Y-42095638D01*
X48550064Y-41569885D01*
X48550649Y-41565380D01*
X48600363Y-41034517D01*
X48600613Y-41030439D01*
X48612954Y-40602024D01*
X48612939Y-40597967D01*
X48593866Y-40065096D01*
X48593544Y-40060601D01*
X48536442Y-39530662D01*
X48535800Y-39526211D01*
X48440955Y-39001710D01*
X48439999Y-38997327D01*
X48307892Y-38480933D01*
X48306630Y-38476645D01*
X48137938Y-37971015D01*
X48136370Y-37966818D01*
X47931966Y-37474558D01*
X47930088Y-37470456D01*
X47691023Y-36994094D01*
X47688855Y-36990133D01*
X47416347Y-36532090D01*
X47413891Y-36528279D01*
X47109331Y-36090890D01*
X47106624Y-36087284D01*
X46771552Y-35672765D01*
X46768609Y-35669380D01*
X46598034Y-35486780D01*
X46584361Y-35478698D01*
X46583667Y-35478724D01*
X46575320Y-35483890D01*
X41472022Y-40587188D01*
X41464408Y-40601132D01*
X40734356Y-40601132D01*
X40735592Y-40598868D01*
X40735461Y-40597035D01*
X40731210Y-40590420D01*
X35627007Y-35486217D01*
X35613063Y-35478603D01*
X35612606Y-35478635D01*
X35604130Y-35484332D01*
X35397104Y-35709077D01*
X35394190Y-35712477D01*
X35062015Y-36129331D01*
X35059344Y-36132941D01*
X34757831Y-36572465D01*
X34755409Y-36576283D01*
X34486107Y-37036216D01*
X34483964Y-37040196D01*
X34248233Y-37518211D01*
X34246376Y-37522343D01*
X34045427Y-38015984D01*
X34043874Y-38020230D01*
X33878729Y-38526984D01*
X33877484Y-38531326D01*
X33748991Y-39048608D01*
X33748067Y-39052991D01*
X33656885Y-39578152D01*
X33656274Y-39582609D01*
X33602873Y-40112930D01*
X33602583Y-40117413D01*
X33587236Y-40650201D01*
X16608000Y-40650201D01*
X16608000Y-35115591D01*
X35978674Y-35115591D01*
X35978707Y-35116404D01*
X35983783Y-35124573D01*
X41087188Y-40227978D01*
X41101132Y-40235592D01*
X41102965Y-40235461D01*
X41109580Y-40231210D01*
X46213682Y-35127108D01*
X46221296Y-35113164D01*
X46221255Y-35112590D01*
X46215684Y-35104268D01*
X46010818Y-34914228D01*
X46007387Y-34911267D01*
X45591729Y-34577666D01*
X45588115Y-34574972D01*
X45149654Y-34271933D01*
X45145835Y-34269490D01*
X44686846Y-33998585D01*
X44682877Y-33996430D01*
X44205679Y-33759028D01*
X44201575Y-33757166D01*
X43708610Y-33554483D01*
X43704395Y-33552924D01*
X43198199Y-33386006D01*
X43193883Y-33384752D01*
X42677042Y-33254451D01*
X42672665Y-33253513D01*
X42147822Y-33160496D01*
X42143365Y-33159870D01*
X41613241Y-33104620D01*
X41608747Y-33104313D01*
X41076027Y-33087107D01*
X41071530Y-33087122D01*
X40538927Y-33108048D01*
X40534451Y-33108384D01*
X40004713Y-33167336D01*
X40000261Y-33167994D01*
X39476106Y-33264667D01*
X39471701Y-33265643D01*
X38955801Y-33399545D01*
X38951490Y-33400830D01*
X38446471Y-33571278D01*
X38442259Y-33572870D01*
X37950723Y-33778988D01*
X37946647Y-33780871D01*
X37471109Y-34021605D01*
X37467158Y-34023786D01*
X37010063Y-34297893D01*
X37006267Y-34300358D01*
X36569930Y-34606452D01*
X36566347Y-34609162D01*
X36153007Y-34945674D01*
X36149617Y-34948642D01*
X35986708Y-35101891D01*
X35978674Y-35115591D01*
X16608000Y-35115591D01*
X16608000Y-11763787D01*
X16628002Y-11695666D01*
X16681658Y-11649173D01*
X16751932Y-11639069D01*
X16816512Y-11668563D01*
X16844415Y-11703086D01*
X16976330Y-11943039D01*
X16980570Y-11949719D01*
X17161404Y-12198616D01*
X17166443Y-12204707D01*
X17377046Y-12428977D01*
X17382813Y-12434393D01*
X17619868Y-12630502D01*
X17626271Y-12635153D01*
X17886026Y-12799999D01*
X17892959Y-12803811D01*
X18171328Y-12934801D01*
X18178691Y-12937716D01*
X18471277Y-13032783D01*
X18478954Y-13034754D01*
X18781145Y-13092400D01*
X18789006Y-13093393D01*
X19019180Y-13107874D01*
X19023171Y-13108000D01*
X20227885Y-13108000D01*
X20243124Y-13103525D01*
X20244329Y-13102135D01*
X20246000Y-13094452D01*
X20246000Y-13089885D01*
X20754000Y-13089885D01*
X20758475Y-13105124D01*
X20759865Y-13106329D01*
X20767548Y-13108000D01*
X21976829Y-13108000D01*
X21980820Y-13107874D01*
X22210994Y-13093393D01*
X22218855Y-13092400D01*
X22521046Y-13034754D01*
X22528723Y-13032783D01*
X22821309Y-12937716D01*
X22828672Y-12934801D01*
X23107041Y-12803811D01*
X23113974Y-12799999D01*
X23373729Y-12635153D01*
X23380132Y-12630502D01*
X23617187Y-12434393D01*
X23622954Y-12428977D01*
X23833557Y-12204707D01*
X23838596Y-12198616D01*
X24019430Y-11949719D01*
X24023670Y-11943039D01*
X24171890Y-11673428D01*
X24175247Y-11666293D01*
X24288508Y-11380230D01*
X24290953Y-11372704D01*
X24367462Y-11074721D01*
X24368945Y-11066950D01*
X24393575Y-10871974D01*
X24393487Y-10871426D01*
X57806355Y-10871426D01*
X57831055Y-11066950D01*
X57832538Y-11074721D01*
X57909047Y-11372704D01*
X57911492Y-11380230D01*
X58024753Y-11666293D01*
X58028110Y-11673428D01*
X58176330Y-11943039D01*
X58180570Y-11949719D01*
X58361404Y-12198616D01*
X58366443Y-12204707D01*
X58577046Y-12428977D01*
X58582813Y-12434393D01*
X58819868Y-12630502D01*
X58826271Y-12635153D01*
X59086026Y-12799999D01*
X59092959Y-12803811D01*
X59371328Y-12934801D01*
X59378691Y-12937716D01*
X59671277Y-13032783D01*
X59678954Y-13034754D01*
X59981145Y-13092400D01*
X59989006Y-13093393D01*
X60219180Y-13107874D01*
X60223171Y-13108000D01*
X61427885Y-13108000D01*
X61443124Y-13103525D01*
X61444329Y-13102135D01*
X61446000Y-13094452D01*
X61446000Y-10872115D01*
X61441525Y-10856876D01*
X61440135Y-10855671D01*
X61432452Y-10854000D01*
X57822269Y-10854000D01*
X57808392Y-10858075D01*
X57806355Y-10871426D01*
X24393487Y-10871426D01*
X24391272Y-10857694D01*
X24378280Y-10854000D01*
X20772115Y-10854000D01*
X20756876Y-10858475D01*
X20755671Y-10859865D01*
X20754000Y-10867548D01*
X20754000Y-13089885D01*
X20246000Y-13089885D01*
X20246000Y-10472000D01*
X20266002Y-10403879D01*
X20319658Y-10357386D01*
X20372000Y-10346000D01*
X24377731Y-10346000D01*
X24391608Y-10341925D01*
X24393645Y-10328574D01*
X24368945Y-10133050D01*
X24367462Y-10125279D01*
X24290953Y-9827296D01*
X24288508Y-9819770D01*
X24175247Y-9533707D01*
X24171890Y-9526572D01*
X24023670Y-9256961D01*
X24019430Y-9250281D01*
X23838596Y-9001384D01*
X23833557Y-8995293D01*
X23622954Y-8771023D01*
X23617187Y-8765607D01*
X23380132Y-8569498D01*
X23373729Y-8564847D01*
X23113974Y-8400001D01*
X23107041Y-8396189D01*
X23004650Y-8348008D01*
X22951529Y-8300905D01*
X22932306Y-8232561D01*
X22953085Y-8164673D01*
X23007268Y-8118796D01*
X23058298Y-8108000D01*
X59141702Y-8108000D01*
X59209823Y-8128002D01*
G37*
G04 #@! TD.AperFunction*
G04 #@! TD*
M02*
