G04 #@! TF.GenerationSoftware,KiCad,Pcbnew,6.0.5-a6ca702e91~116~ubuntu20.04.1*
G04 #@! TF.CreationDate,2022-06-20T16:59:35-04:00*
G04 #@! TF.ProjectId,sidekick_panel,73696465-6b69-4636-9b5f-70616e656c2e,rev?*
G04 #@! TF.SameCoordinates,Original*
G04 #@! TF.FileFunction,Other,Comment*
%FSLAX46Y46*%
G04 Gerber Fmt 4.6, Leading zero omitted, Abs format (unit mm)*
G04 Created by KiCad (PCBNEW 6.0.5-a6ca702e91~116~ubuntu20.04.1) date 2022-06-20 16:59:35*
%MOMM*%
%LPD*%
G01*
G04 APERTURE LIST*
%ADD10C,0.120000*%
%ADD11C,0.150000*%
G04 APERTURE END LIST*
D10*
G04 #@! TO.C,H17*
X63100000Y-201600000D02*
X60300000Y-201600000D01*
X63100000Y-207600000D02*
X60300000Y-207600000D01*
X63100000Y-7600000D02*
X60300000Y-7600000D01*
X63100000Y-13600000D02*
X60300000Y-13600000D01*
X63100000Y-13600000D02*
G75*
G03*
X63100000Y-7600000I0J3000000D01*
G01*
X60300000Y-201600000D02*
G75*
G03*
X60300000Y-207600000I0J-3000000D01*
G01*
X60300000Y-7600000D02*
G75*
G03*
X60300000Y-13600000I0J-3000000D01*
G01*
X63100000Y-207600000D02*
G75*
G03*
X63100000Y-201600000I0J3000000D01*
G01*
D11*
G04 #@! TO.C,H9*
X60100000Y-56600000D02*
G75*
G03*
X60100000Y-56600000I-2000000J0D01*
G01*
G04 #@! TO.C,H8*
X50600000Y-40600000D02*
G75*
G03*
X50600000Y-40600000I-9500000J0D01*
G01*
G04 #@! TO.C,H1*
X38100000Y-132600000D02*
G75*
G03*
X38100000Y-132600000I-9500000J0D01*
G01*
D10*
G04 #@! TO.C,H16*
X19100000Y-201600000D02*
X21900000Y-201600000D01*
X19100000Y-7600000D02*
X21900000Y-7600000D01*
X19100000Y-207600000D02*
X21900000Y-207600000D01*
X19100000Y-13600000D02*
X21900000Y-13600000D01*
X21900000Y-13600000D02*
G75*
G03*
X21900000Y-7600000I0J3000000D01*
G01*
X19100000Y-7600000D02*
G75*
G03*
X19100000Y-13600000I0J-3000000D01*
G01*
X19100000Y-201600000D02*
G75*
G03*
X19100000Y-207600000I0J-3000000D01*
G01*
X21900000Y-207600000D02*
G75*
G03*
X21900000Y-201600000I0J3000000D01*
G01*
D11*
G04 #@! TO.C,H2*
X38100000Y-157600000D02*
G75*
G03*
X38100000Y-157600000I-9500000J0D01*
G01*
G04 #@! TO.C,H5*
X38100000Y-182600000D02*
G75*
G03*
X38100000Y-182600000I-9500000J0D01*
G01*
G04 #@! TO.C,H6*
X63100000Y-157600000D02*
G75*
G03*
X63100000Y-157600000I-9500000J0D01*
G01*
G04 #@! TO.C,H11*
X25300000Y-101600000D02*
G75*
G03*
X25300000Y-101600000I-3200000J0D01*
G01*
G04 #@! TO.C,H15*
X44300000Y-119600000D02*
G75*
G03*
X44300000Y-119600000I-3200000J0D01*
G01*
G04 #@! TO.C,H7*
X63100000Y-182600000D02*
G75*
G03*
X63100000Y-182600000I-9500000J0D01*
G01*
G04 #@! TO.C,H10*
X60100000Y-68600000D02*
G75*
G03*
X60100000Y-68600000I-2000000J0D01*
G01*
G04 #@! TO.C,H14*
X60100000Y-92600000D02*
G75*
G03*
X60100000Y-92600000I-2000000J0D01*
G01*
G04 #@! TO.C,H13*
X60100000Y-80600000D02*
G75*
G03*
X60100000Y-80600000I-2000000J0D01*
G01*
G04 #@! TO.C,H3*
X63100000Y-107600000D02*
G75*
G03*
X63100000Y-107600000I-9500000J0D01*
G01*
G04 #@! TO.C,H12*
X47100000Y-80600000D02*
G75*
G03*
X47100000Y-80600000I-6000000J0D01*
G01*
G04 #@! TO.C,H4*
X63080000Y-132600000D02*
G75*
G03*
X63080000Y-132600000I-9500000J0D01*
G01*
G04 #@! TD*
M02*
