G04 #@! TF.GenerationSoftware,KiCad,Pcbnew,6.0.5-a6ca702e91~116~ubuntu20.04.1*
G04 #@! TF.CreationDate,2022-06-20T16:59:35-04:00*
G04 #@! TF.ProjectId,sidekick_panel,73696465-6b69-4636-9b5f-70616e656c2e,rev?*
G04 #@! TF.SameCoordinates,Original*
G04 #@! TF.FileFunction,Legend,Bot*
G04 #@! TF.FilePolarity,Positive*
%FSLAX46Y46*%
G04 Gerber Fmt 4.6, Leading zero omitted, Abs format (unit mm)*
G04 Created by KiCad (PCBNEW 6.0.5-a6ca702e91~116~ubuntu20.04.1) date 2022-06-20 16:59:35*
%MOMM*%
%LPD*%
G01*
G04 APERTURE LIST*
%ADD10C,0.300000*%
%ADD11C,0.150000*%
%ADD12C,0.010000*%
G04 APERTURE END LIST*
D10*
X33778571Y-116071071D02*
X33778571Y-114571071D01*
X33778571Y-115285357D02*
X32921428Y-115285357D01*
X32921428Y-116071071D02*
X32921428Y-114571071D01*
X31564285Y-116071071D02*
X31564285Y-115285357D01*
X31635714Y-115142500D01*
X31778571Y-115071071D01*
X32064285Y-115071071D01*
X32207142Y-115142500D01*
X31564285Y-115999642D02*
X31707142Y-116071071D01*
X32064285Y-116071071D01*
X32207142Y-115999642D01*
X32278571Y-115856785D01*
X32278571Y-115713928D01*
X32207142Y-115571071D01*
X32064285Y-115499642D01*
X31707142Y-115499642D01*
X31564285Y-115428214D01*
X30850000Y-116071071D02*
X30850000Y-115071071D01*
X30850000Y-115356785D02*
X30778571Y-115213928D01*
X30707142Y-115142500D01*
X30564285Y-115071071D01*
X30421428Y-115071071D01*
X29278571Y-116071071D02*
X29278571Y-114571071D01*
X29278571Y-115999642D02*
X29421428Y-116071071D01*
X29707142Y-116071071D01*
X29850000Y-115999642D01*
X29921428Y-115928214D01*
X29992857Y-115785357D01*
X29992857Y-115356785D01*
X29921428Y-115213928D01*
X29850000Y-115142500D01*
X29707142Y-115071071D01*
X29421428Y-115071071D01*
X29278571Y-115142500D01*
X27492857Y-114499642D02*
X28778571Y-116428214D01*
X27064285Y-115999642D02*
X26921428Y-116071071D01*
X26635714Y-116071071D01*
X26492857Y-115999642D01*
X26421428Y-115856785D01*
X26421428Y-115785357D01*
X26492857Y-115642500D01*
X26635714Y-115571071D01*
X26850000Y-115571071D01*
X26992857Y-115499642D01*
X27064285Y-115356785D01*
X27064285Y-115285357D01*
X26992857Y-115142500D01*
X26850000Y-115071071D01*
X26635714Y-115071071D01*
X26492857Y-115142500D01*
X25564285Y-116071071D02*
X25707142Y-115999642D01*
X25778571Y-115928214D01*
X25850000Y-115785357D01*
X25850000Y-115356785D01*
X25778571Y-115213928D01*
X25707142Y-115142500D01*
X25564285Y-115071071D01*
X25350000Y-115071071D01*
X25207142Y-115142500D01*
X25135714Y-115213928D01*
X25064285Y-115356785D01*
X25064285Y-115785357D01*
X25135714Y-115928214D01*
X25207142Y-115999642D01*
X25350000Y-116071071D01*
X25564285Y-116071071D01*
X24635714Y-115071071D02*
X24064285Y-115071071D01*
X24421428Y-116071071D02*
X24421428Y-114785357D01*
X24350000Y-114642500D01*
X24207142Y-114571071D01*
X24064285Y-114571071D01*
X23778571Y-115071071D02*
X23207142Y-115071071D01*
X23564285Y-114571071D02*
X23564285Y-115856785D01*
X23492857Y-115999642D01*
X23350000Y-116071071D01*
X23207142Y-116071071D01*
X34885714Y-118414642D02*
X34742857Y-118486071D01*
X34457142Y-118486071D01*
X34314285Y-118414642D01*
X34242857Y-118271785D01*
X34242857Y-118200357D01*
X34314285Y-118057500D01*
X34457142Y-117986071D01*
X34671428Y-117986071D01*
X34814285Y-117914642D01*
X34885714Y-117771785D01*
X34885714Y-117700357D01*
X34814285Y-117557500D01*
X34671428Y-117486071D01*
X34457142Y-117486071D01*
X34314285Y-117557500D01*
X33742857Y-117486071D02*
X33385714Y-118486071D01*
X33028571Y-117486071D02*
X33385714Y-118486071D01*
X33528571Y-118843214D01*
X33600000Y-118914642D01*
X33742857Y-118986071D01*
X32457142Y-117486071D02*
X32457142Y-118486071D01*
X32457142Y-117628928D02*
X32385714Y-117557500D01*
X32242857Y-117486071D01*
X32028571Y-117486071D01*
X31885714Y-117557500D01*
X31814285Y-117700357D01*
X31814285Y-118486071D01*
X30457142Y-118414642D02*
X30600000Y-118486071D01*
X30885714Y-118486071D01*
X31028571Y-118414642D01*
X31100000Y-118343214D01*
X31171428Y-118200357D01*
X31171428Y-117771785D01*
X31100000Y-117628928D01*
X31028571Y-117557500D01*
X30885714Y-117486071D01*
X30600000Y-117486071D01*
X30457142Y-117557500D01*
X28742857Y-118414642D02*
X28600000Y-118486071D01*
X28314285Y-118486071D01*
X28171428Y-118414642D01*
X28100000Y-118271785D01*
X28100000Y-118200357D01*
X28171428Y-118057500D01*
X28314285Y-117986071D01*
X28528571Y-117986071D01*
X28671428Y-117914642D01*
X28742857Y-117771785D01*
X28742857Y-117700357D01*
X28671428Y-117557500D01*
X28528571Y-117486071D01*
X28314285Y-117486071D01*
X28171428Y-117557500D01*
X27600000Y-117486071D02*
X27314285Y-118486071D01*
X27028571Y-117771785D01*
X26742857Y-118486071D01*
X26457142Y-117486071D01*
X25885714Y-118486071D02*
X25885714Y-117486071D01*
X25885714Y-116986071D02*
X25957142Y-117057500D01*
X25885714Y-117128928D01*
X25814285Y-117057500D01*
X25885714Y-116986071D01*
X25885714Y-117128928D01*
X25385714Y-117486071D02*
X24814285Y-117486071D01*
X25171428Y-116986071D02*
X25171428Y-118271785D01*
X25100000Y-118414642D01*
X24957142Y-118486071D01*
X24814285Y-118486071D01*
X23671428Y-118414642D02*
X23814285Y-118486071D01*
X24100000Y-118486071D01*
X24242857Y-118414642D01*
X24314285Y-118343214D01*
X24385714Y-118200357D01*
X24385714Y-117771785D01*
X24314285Y-117628928D01*
X24242857Y-117557500D01*
X24100000Y-117486071D01*
X23814285Y-117486071D01*
X23671428Y-117557500D01*
X23028571Y-118486071D02*
X23028571Y-116986071D01*
X22385714Y-118486071D02*
X22385714Y-117700357D01*
X22457142Y-117557500D01*
X22600000Y-117486071D01*
X22814285Y-117486071D01*
X22957142Y-117557500D01*
X23028571Y-117628928D01*
X34100000Y-144778571D02*
X34814285Y-144778571D01*
X34814285Y-143278571D01*
X33600000Y-144778571D02*
X33600000Y-143778571D01*
X33600000Y-143278571D02*
X33671428Y-143350000D01*
X33600000Y-143421428D01*
X33528571Y-143350000D01*
X33600000Y-143278571D01*
X33600000Y-143421428D01*
X32885714Y-143778571D02*
X32885714Y-144778571D01*
X32885714Y-143921428D02*
X32814285Y-143850000D01*
X32671428Y-143778571D01*
X32457142Y-143778571D01*
X32314285Y-143850000D01*
X32242857Y-143992857D01*
X32242857Y-144778571D01*
X29885714Y-143992857D02*
X30385714Y-143992857D01*
X30385714Y-144778571D02*
X30385714Y-143278571D01*
X29671428Y-143278571D01*
X29100000Y-144778571D02*
X29100000Y-143278571D01*
X28600000Y-144350000D01*
X28100000Y-143278571D01*
X28100000Y-144778571D01*
X26242857Y-143778571D02*
X26242857Y-145064285D01*
X26314285Y-145207142D01*
X26457142Y-145278571D01*
X26528571Y-145278571D01*
X26242857Y-143278571D02*
X26314285Y-143350000D01*
X26242857Y-143421428D01*
X26171428Y-143350000D01*
X26242857Y-143278571D01*
X26242857Y-143421428D01*
X24885714Y-144778571D02*
X24885714Y-143992857D01*
X24957142Y-143850000D01*
X25100000Y-143778571D01*
X25385714Y-143778571D01*
X25528571Y-143850000D01*
X24885714Y-144707142D02*
X25028571Y-144778571D01*
X25385714Y-144778571D01*
X25528571Y-144707142D01*
X25600000Y-144564285D01*
X25600000Y-144421428D01*
X25528571Y-144278571D01*
X25385714Y-144207142D01*
X25028571Y-144207142D01*
X24885714Y-144135714D01*
X23528571Y-144707142D02*
X23671428Y-144778571D01*
X23957142Y-144778571D01*
X24100000Y-144707142D01*
X24171428Y-144635714D01*
X24242857Y-144492857D01*
X24242857Y-144064285D01*
X24171428Y-143921428D01*
X24100000Y-143850000D01*
X23957142Y-143778571D01*
X23671428Y-143778571D01*
X23528571Y-143850000D01*
X22885714Y-144778571D02*
X22885714Y-143278571D01*
X22742857Y-144207142D02*
X22314285Y-144778571D01*
X22314285Y-143778571D02*
X22885714Y-144350000D01*
X32850000Y-194207142D02*
X32635714Y-194278571D01*
X32278571Y-194278571D01*
X32135714Y-194207142D01*
X32064285Y-194135714D01*
X31992857Y-193992857D01*
X31992857Y-193850000D01*
X32064285Y-193707142D01*
X32135714Y-193635714D01*
X32278571Y-193564285D01*
X32564285Y-193492857D01*
X32707142Y-193421428D01*
X32778571Y-193350000D01*
X32850000Y-193207142D01*
X32850000Y-193064285D01*
X32778571Y-192921428D01*
X32707142Y-192850000D01*
X32564285Y-192778571D01*
X32207142Y-192778571D01*
X31992857Y-192850000D01*
X30707142Y-194278571D02*
X30707142Y-193492857D01*
X30778571Y-193350000D01*
X30921428Y-193278571D01*
X31207142Y-193278571D01*
X31350000Y-193350000D01*
X30707142Y-194207142D02*
X30850000Y-194278571D01*
X31207142Y-194278571D01*
X31350000Y-194207142D01*
X31421428Y-194064285D01*
X31421428Y-193921428D01*
X31350000Y-193778571D01*
X31207142Y-193707142D01*
X30850000Y-193707142D01*
X30707142Y-193635714D01*
X30135714Y-193278571D02*
X29850000Y-194278571D01*
X29564285Y-193564285D01*
X29278571Y-194278571D01*
X28992857Y-193278571D01*
X27278571Y-193278571D02*
X27278571Y-194564285D01*
X27350000Y-194707142D01*
X27492857Y-194778571D01*
X27564285Y-194778571D01*
X27278571Y-192778571D02*
X27350000Y-192850000D01*
X27278571Y-192921428D01*
X27207142Y-192850000D01*
X27278571Y-192778571D01*
X27278571Y-192921428D01*
X25921428Y-194278571D02*
X25921428Y-193492857D01*
X25992857Y-193350000D01*
X26135714Y-193278571D01*
X26421428Y-193278571D01*
X26564285Y-193350000D01*
X25921428Y-194207142D02*
X26064285Y-194278571D01*
X26421428Y-194278571D01*
X26564285Y-194207142D01*
X26635714Y-194064285D01*
X26635714Y-193921428D01*
X26564285Y-193778571D01*
X26421428Y-193707142D01*
X26064285Y-193707142D01*
X25921428Y-193635714D01*
X24564285Y-194207142D02*
X24707142Y-194278571D01*
X24992857Y-194278571D01*
X25135714Y-194207142D01*
X25207142Y-194135714D01*
X25278571Y-193992857D01*
X25278571Y-193564285D01*
X25207142Y-193421428D01*
X25135714Y-193350000D01*
X24992857Y-193278571D01*
X24707142Y-193278571D01*
X24564285Y-193350000D01*
X23921428Y-194278571D02*
X23921428Y-192778571D01*
X23778571Y-193707142D02*
X23350000Y-194278571D01*
X23350000Y-193278571D02*
X23921428Y-193850000D01*
X47921428Y-87992857D02*
X48421428Y-87992857D01*
X48421428Y-88778571D02*
X48421428Y-87278571D01*
X47707142Y-87278571D01*
X47135714Y-88778571D02*
X47135714Y-87778571D01*
X47135714Y-87278571D02*
X47207142Y-87350000D01*
X47135714Y-87421428D01*
X47064285Y-87350000D01*
X47135714Y-87278571D01*
X47135714Y-87421428D01*
X46421428Y-87778571D02*
X46421428Y-88778571D01*
X46421428Y-87921428D02*
X46350000Y-87850000D01*
X46207142Y-87778571D01*
X45992857Y-87778571D01*
X45850000Y-87850000D01*
X45778571Y-87992857D01*
X45778571Y-88778571D01*
X44492857Y-88707142D02*
X44635714Y-88778571D01*
X44921428Y-88778571D01*
X45064285Y-88707142D01*
X45135714Y-88564285D01*
X45135714Y-87992857D01*
X45064285Y-87850000D01*
X44921428Y-87778571D01*
X44635714Y-87778571D01*
X44492857Y-87850000D01*
X44421428Y-87992857D01*
X44421428Y-88135714D01*
X45135714Y-88278571D01*
X42850000Y-87778571D02*
X42278571Y-87778571D01*
X42635714Y-87278571D02*
X42635714Y-88564285D01*
X42564285Y-88707142D01*
X42421428Y-88778571D01*
X42278571Y-88778571D01*
X41135714Y-87778571D02*
X41135714Y-88778571D01*
X41778571Y-87778571D02*
X41778571Y-88564285D01*
X41707142Y-88707142D01*
X41564285Y-88778571D01*
X41350000Y-88778571D01*
X41207142Y-88707142D01*
X41135714Y-88635714D01*
X40421428Y-87778571D02*
X40421428Y-88778571D01*
X40421428Y-87921428D02*
X40350000Y-87850000D01*
X40207142Y-87778571D01*
X39992857Y-87778571D01*
X39850000Y-87850000D01*
X39778571Y-87992857D01*
X39778571Y-88778571D01*
X38492857Y-88707142D02*
X38635714Y-88778571D01*
X38921428Y-88778571D01*
X39064285Y-88707142D01*
X39135714Y-88564285D01*
X39135714Y-87992857D01*
X39064285Y-87850000D01*
X38921428Y-87778571D01*
X38635714Y-87778571D01*
X38492857Y-87850000D01*
X38421428Y-87992857D01*
X38421428Y-88135714D01*
X39135714Y-88278571D01*
X36635714Y-87778571D02*
X36635714Y-89278571D01*
X36635714Y-87850000D02*
X36492857Y-87778571D01*
X36207142Y-87778571D01*
X36064285Y-87850000D01*
X35992857Y-87921428D01*
X35921428Y-88064285D01*
X35921428Y-88492857D01*
X35992857Y-88635714D01*
X36064285Y-88707142D01*
X36207142Y-88778571D01*
X36492857Y-88778571D01*
X36635714Y-88707142D01*
X35064285Y-88778571D02*
X35207142Y-88707142D01*
X35278571Y-88635714D01*
X35350000Y-88492857D01*
X35350000Y-88064285D01*
X35278571Y-87921428D01*
X35207142Y-87850000D01*
X35064285Y-87778571D01*
X34850000Y-87778571D01*
X34707142Y-87850000D01*
X34635714Y-87921428D01*
X34564285Y-88064285D01*
X34564285Y-88492857D01*
X34635714Y-88635714D01*
X34707142Y-88707142D01*
X34850000Y-88778571D01*
X35064285Y-88778571D01*
X34135714Y-87778571D02*
X33564285Y-87778571D01*
X33921428Y-87278571D02*
X33921428Y-88564285D01*
X33850000Y-88707142D01*
X33707142Y-88778571D01*
X33564285Y-88778571D01*
X61314285Y-60635714D02*
X61385714Y-60707142D01*
X61600000Y-60778571D01*
X61742857Y-60778571D01*
X61957142Y-60707142D01*
X62100000Y-60564285D01*
X62171428Y-60421428D01*
X62242857Y-60135714D01*
X62242857Y-59921428D01*
X62171428Y-59635714D01*
X62100000Y-59492857D01*
X61957142Y-59350000D01*
X61742857Y-59278571D01*
X61600000Y-59278571D01*
X61385714Y-59350000D01*
X61314285Y-59421428D01*
X60885714Y-59778571D02*
X60314285Y-59778571D01*
X60671428Y-59278571D02*
X60671428Y-60564285D01*
X60600000Y-60707142D01*
X60457142Y-60778571D01*
X60314285Y-60778571D01*
X59814285Y-60778571D02*
X59814285Y-59778571D01*
X59814285Y-60064285D02*
X59742857Y-59921428D01*
X59671428Y-59850000D01*
X59528571Y-59778571D01*
X59385714Y-59778571D01*
X57957142Y-59778571D02*
X57385714Y-59778571D01*
X57742857Y-60778571D02*
X57742857Y-59492857D01*
X57671428Y-59350000D01*
X57528571Y-59278571D01*
X57385714Y-59278571D01*
X56885714Y-60778571D02*
X56885714Y-59778571D01*
X56885714Y-60064285D02*
X56814285Y-59921428D01*
X56742857Y-59850000D01*
X56600000Y-59778571D01*
X56457142Y-59778571D01*
X55385714Y-60707142D02*
X55528571Y-60778571D01*
X55814285Y-60778571D01*
X55957142Y-60707142D01*
X56028571Y-60564285D01*
X56028571Y-59992857D01*
X55957142Y-59850000D01*
X55814285Y-59778571D01*
X55528571Y-59778571D01*
X55385714Y-59850000D01*
X55314285Y-59992857D01*
X55314285Y-60135714D01*
X56028571Y-60278571D01*
X54028571Y-59778571D02*
X54028571Y-61278571D01*
X54028571Y-60707142D02*
X54171428Y-60778571D01*
X54457142Y-60778571D01*
X54600000Y-60707142D01*
X54671428Y-60635714D01*
X54742857Y-60492857D01*
X54742857Y-60064285D01*
X54671428Y-59921428D01*
X54600000Y-59850000D01*
X54457142Y-59778571D01*
X54171428Y-59778571D01*
X54028571Y-59850000D01*
X58564285Y-144778571D02*
X58564285Y-143278571D01*
X57992857Y-143278571D01*
X57850000Y-143350000D01*
X57778571Y-143421428D01*
X57707142Y-143564285D01*
X57707142Y-143778571D01*
X57778571Y-143921428D01*
X57850000Y-143992857D01*
X57992857Y-144064285D01*
X58564285Y-144064285D01*
X57207142Y-143278571D02*
X56850000Y-144778571D01*
X56564285Y-143707142D01*
X56278571Y-144778571D01*
X55921428Y-143278571D01*
X55350000Y-144778571D02*
X55350000Y-143278571D01*
X54850000Y-144350000D01*
X54350000Y-143278571D01*
X54350000Y-144778571D01*
X52492857Y-143778571D02*
X52492857Y-145064285D01*
X52564285Y-145207142D01*
X52707142Y-145278571D01*
X52778571Y-145278571D01*
X52492857Y-143278571D02*
X52564285Y-143350000D01*
X52492857Y-143421428D01*
X52421428Y-143350000D01*
X52492857Y-143278571D01*
X52492857Y-143421428D01*
X51135714Y-144778571D02*
X51135714Y-143992857D01*
X51207142Y-143850000D01*
X51350000Y-143778571D01*
X51635714Y-143778571D01*
X51778571Y-143850000D01*
X51135714Y-144707142D02*
X51278571Y-144778571D01*
X51635714Y-144778571D01*
X51778571Y-144707142D01*
X51850000Y-144564285D01*
X51850000Y-144421428D01*
X51778571Y-144278571D01*
X51635714Y-144207142D01*
X51278571Y-144207142D01*
X51135714Y-144135714D01*
X49778571Y-144707142D02*
X49921428Y-144778571D01*
X50207142Y-144778571D01*
X50350000Y-144707142D01*
X50421428Y-144635714D01*
X50492857Y-144492857D01*
X50492857Y-144064285D01*
X50421428Y-143921428D01*
X50350000Y-143850000D01*
X50207142Y-143778571D01*
X49921428Y-143778571D01*
X49778571Y-143850000D01*
X49135714Y-144778571D02*
X49135714Y-143278571D01*
X48992857Y-144207142D02*
X48564285Y-144778571D01*
X48564285Y-143778571D02*
X49135714Y-144350000D01*
X32707142Y-167778571D02*
X31850000Y-167778571D01*
X32278571Y-169278571D02*
X32278571Y-167778571D01*
X31350000Y-169278571D02*
X31350000Y-168278571D01*
X31350000Y-168564285D02*
X31278571Y-168421428D01*
X31207142Y-168350000D01*
X31064285Y-168278571D01*
X30921428Y-168278571D01*
X30421428Y-169278571D02*
X30421428Y-168278571D01*
X30421428Y-167778571D02*
X30492857Y-167850000D01*
X30421428Y-167921428D01*
X30350000Y-167850000D01*
X30421428Y-167778571D01*
X30421428Y-167921428D01*
X28564285Y-168278571D02*
X28564285Y-169564285D01*
X28635714Y-169707142D01*
X28778571Y-169778571D01*
X28850000Y-169778571D01*
X28564285Y-167778571D02*
X28635714Y-167850000D01*
X28564285Y-167921428D01*
X28492857Y-167850000D01*
X28564285Y-167778571D01*
X28564285Y-167921428D01*
X27207142Y-169278571D02*
X27207142Y-168492857D01*
X27278571Y-168350000D01*
X27421428Y-168278571D01*
X27707142Y-168278571D01*
X27850000Y-168350000D01*
X27207142Y-169207142D02*
X27350000Y-169278571D01*
X27707142Y-169278571D01*
X27850000Y-169207142D01*
X27921428Y-169064285D01*
X27921428Y-168921428D01*
X27850000Y-168778571D01*
X27707142Y-168707142D01*
X27350000Y-168707142D01*
X27207142Y-168635714D01*
X25850000Y-169207142D02*
X25992857Y-169278571D01*
X26278571Y-169278571D01*
X26421428Y-169207142D01*
X26492857Y-169135714D01*
X26564285Y-168992857D01*
X26564285Y-168564285D01*
X26492857Y-168421428D01*
X26421428Y-168350000D01*
X26278571Y-168278571D01*
X25992857Y-168278571D01*
X25850000Y-168350000D01*
X25207142Y-169278571D02*
X25207142Y-167778571D01*
X25064285Y-168707142D02*
X24635714Y-169278571D01*
X24635714Y-168278571D02*
X25207142Y-168850000D01*
X62528571Y-84778571D02*
X62528571Y-83278571D01*
X61957142Y-83278571D01*
X61814285Y-83350000D01*
X61742857Y-83421428D01*
X61671428Y-83564285D01*
X61671428Y-83778571D01*
X61742857Y-83921428D01*
X61814285Y-83992857D01*
X61957142Y-84064285D01*
X62528571Y-84064285D01*
X61171428Y-83278571D02*
X60814285Y-84778571D01*
X60528571Y-83707142D01*
X60242857Y-84778571D01*
X59885714Y-83278571D01*
X59314285Y-84778571D02*
X59314285Y-83278571D01*
X58814285Y-84350000D01*
X58314285Y-83278571D01*
X58314285Y-84778571D01*
X56242857Y-84778571D02*
X56385714Y-84707142D01*
X56457142Y-84564285D01*
X56457142Y-83278571D01*
X55671428Y-84778571D02*
X55671428Y-83778571D01*
X55671428Y-83278571D02*
X55742857Y-83350000D01*
X55671428Y-83421428D01*
X55600000Y-83350000D01*
X55671428Y-83278571D01*
X55671428Y-83421428D01*
X54957142Y-84778571D02*
X54957142Y-83778571D01*
X54957142Y-83921428D02*
X54885714Y-83850000D01*
X54742857Y-83778571D01*
X54528571Y-83778571D01*
X54385714Y-83850000D01*
X54314285Y-83992857D01*
X54314285Y-84778571D01*
X54314285Y-83992857D02*
X54242857Y-83850000D01*
X54100000Y-83778571D01*
X53885714Y-83778571D01*
X53742857Y-83850000D01*
X53671428Y-83992857D01*
X53671428Y-84778571D01*
X57921428Y-169207142D02*
X57707142Y-169278571D01*
X57350000Y-169278571D01*
X57207142Y-169207142D01*
X57135714Y-169135714D01*
X57064285Y-168992857D01*
X57064285Y-168850000D01*
X57135714Y-168707142D01*
X57207142Y-168635714D01*
X57350000Y-168564285D01*
X57635714Y-168492857D01*
X57778571Y-168421428D01*
X57850000Y-168350000D01*
X57921428Y-168207142D01*
X57921428Y-168064285D01*
X57850000Y-167921428D01*
X57778571Y-167850000D01*
X57635714Y-167778571D01*
X57278571Y-167778571D01*
X57064285Y-167850000D01*
X56421428Y-169278571D02*
X56421428Y-168278571D01*
X56421428Y-167778571D02*
X56492857Y-167850000D01*
X56421428Y-167921428D01*
X56350000Y-167850000D01*
X56421428Y-167778571D01*
X56421428Y-167921428D01*
X55707142Y-168278571D02*
X55707142Y-169278571D01*
X55707142Y-168421428D02*
X55635714Y-168350000D01*
X55492857Y-168278571D01*
X55278571Y-168278571D01*
X55135714Y-168350000D01*
X55064285Y-168492857D01*
X55064285Y-169278571D01*
X53207142Y-168278571D02*
X53207142Y-169564285D01*
X53278571Y-169707142D01*
X53421428Y-169778571D01*
X53492857Y-169778571D01*
X53207142Y-167778571D02*
X53278571Y-167850000D01*
X53207142Y-167921428D01*
X53135714Y-167850000D01*
X53207142Y-167778571D01*
X53207142Y-167921428D01*
X51850000Y-169278571D02*
X51850000Y-168492857D01*
X51921428Y-168350000D01*
X52064285Y-168278571D01*
X52350000Y-168278571D01*
X52492857Y-168350000D01*
X51850000Y-169207142D02*
X51992857Y-169278571D01*
X52350000Y-169278571D01*
X52492857Y-169207142D01*
X52564285Y-169064285D01*
X52564285Y-168921428D01*
X52492857Y-168778571D01*
X52350000Y-168707142D01*
X51992857Y-168707142D01*
X51850000Y-168635714D01*
X50492857Y-169207142D02*
X50635714Y-169278571D01*
X50921428Y-169278571D01*
X51064285Y-169207142D01*
X51135714Y-169135714D01*
X51207142Y-168992857D01*
X51207142Y-168564285D01*
X51135714Y-168421428D01*
X51064285Y-168350000D01*
X50921428Y-168278571D01*
X50635714Y-168278571D01*
X50492857Y-168350000D01*
X49850000Y-169278571D02*
X49850000Y-167778571D01*
X49707142Y-168707142D02*
X49278571Y-169278571D01*
X49278571Y-168278571D02*
X49850000Y-168850000D01*
X52135714Y-51278571D02*
X51850000Y-51278571D01*
X51707142Y-51350000D01*
X51564285Y-51492857D01*
X51492857Y-51778571D01*
X51492857Y-52278571D01*
X51564285Y-52564285D01*
X51707142Y-52707142D01*
X51850000Y-52778571D01*
X52135714Y-52778571D01*
X52278571Y-52707142D01*
X52421428Y-52564285D01*
X52492857Y-52278571D01*
X52492857Y-51778571D01*
X52421428Y-51492857D01*
X52278571Y-51350000D01*
X52135714Y-51278571D01*
X50207142Y-52707142D02*
X50350000Y-52778571D01*
X50635714Y-52778571D01*
X50778571Y-52707142D01*
X50850000Y-52635714D01*
X50921428Y-52492857D01*
X50921428Y-52064285D01*
X50850000Y-51921428D01*
X50778571Y-51850000D01*
X50635714Y-51778571D01*
X50350000Y-51778571D01*
X50207142Y-51850000D01*
X49778571Y-51778571D02*
X49207142Y-51778571D01*
X49564285Y-51278571D02*
X49564285Y-52564285D01*
X49492857Y-52707142D01*
X49350000Y-52778571D01*
X49207142Y-52778571D01*
X48064285Y-52778571D02*
X48064285Y-51992857D01*
X48135714Y-51850000D01*
X48278571Y-51778571D01*
X48564285Y-51778571D01*
X48707142Y-51850000D01*
X48064285Y-52707142D02*
X48207142Y-52778571D01*
X48564285Y-52778571D01*
X48707142Y-52707142D01*
X48778571Y-52564285D01*
X48778571Y-52421428D01*
X48707142Y-52278571D01*
X48564285Y-52207142D01*
X48207142Y-52207142D01*
X48064285Y-52135714D01*
X47492857Y-51778571D02*
X47135714Y-52778571D01*
X46778571Y-51778571D01*
X45635714Y-52707142D02*
X45778571Y-52778571D01*
X46064285Y-52778571D01*
X46207142Y-52707142D01*
X46278571Y-52564285D01*
X46278571Y-51992857D01*
X46207142Y-51850000D01*
X46064285Y-51778571D01*
X45778571Y-51778571D01*
X45635714Y-51850000D01*
X45564285Y-51992857D01*
X45564285Y-52135714D01*
X46278571Y-52278571D01*
X43778571Y-52778571D02*
X43778571Y-51778571D01*
X43778571Y-52064285D02*
X43707142Y-51921428D01*
X43635714Y-51850000D01*
X43492857Y-51778571D01*
X43350000Y-51778571D01*
X42635714Y-52778571D02*
X42778571Y-52707142D01*
X42850000Y-52635714D01*
X42921428Y-52492857D01*
X42921428Y-52064285D01*
X42850000Y-51921428D01*
X42778571Y-51850000D01*
X42635714Y-51778571D01*
X42421428Y-51778571D01*
X42278571Y-51850000D01*
X42207142Y-51921428D01*
X42135714Y-52064285D01*
X42135714Y-52492857D01*
X42207142Y-52635714D01*
X42278571Y-52707142D01*
X42421428Y-52778571D01*
X42635714Y-52778571D01*
X41707142Y-51778571D02*
X41135714Y-51778571D01*
X41492857Y-51278571D02*
X41492857Y-52564285D01*
X41421428Y-52707142D01*
X41278571Y-52778571D01*
X41135714Y-52778571D01*
X39992857Y-52778571D02*
X39992857Y-51992857D01*
X40064285Y-51850000D01*
X40207142Y-51778571D01*
X40492857Y-51778571D01*
X40635714Y-51850000D01*
X39992857Y-52707142D02*
X40135714Y-52778571D01*
X40492857Y-52778571D01*
X40635714Y-52707142D01*
X40707142Y-52564285D01*
X40707142Y-52421428D01*
X40635714Y-52278571D01*
X40492857Y-52207142D01*
X40135714Y-52207142D01*
X39992857Y-52135714D01*
X39278571Y-52778571D02*
X39278571Y-51778571D01*
X39278571Y-52064285D02*
X39207142Y-51921428D01*
X39135714Y-51850000D01*
X38992857Y-51778571D01*
X38850000Y-51778571D01*
X38492857Y-51778571D02*
X38135714Y-52778571D01*
X37778571Y-51778571D02*
X38135714Y-52778571D01*
X38278571Y-53135714D01*
X38350000Y-53207142D01*
X38492857Y-53278571D01*
X36135714Y-52707142D02*
X35992857Y-52778571D01*
X35707142Y-52778571D01*
X35564285Y-52707142D01*
X35492857Y-52564285D01*
X35492857Y-52492857D01*
X35564285Y-52350000D01*
X35707142Y-52278571D01*
X35921428Y-52278571D01*
X36064285Y-52207142D01*
X36135714Y-52064285D01*
X36135714Y-51992857D01*
X36064285Y-51850000D01*
X35921428Y-51778571D01*
X35707142Y-51778571D01*
X35564285Y-51850000D01*
X34992857Y-51778571D02*
X34707142Y-52778571D01*
X34421428Y-52064285D01*
X34135714Y-52778571D01*
X33850000Y-51778571D01*
X33278571Y-52778571D02*
X33278571Y-51778571D01*
X33278571Y-51278571D02*
X33350000Y-51350000D01*
X33278571Y-51421428D01*
X33207142Y-51350000D01*
X33278571Y-51278571D01*
X33278571Y-51421428D01*
X32778571Y-51778571D02*
X32207142Y-51778571D01*
X32564285Y-51278571D02*
X32564285Y-52564285D01*
X32492857Y-52707142D01*
X32350000Y-52778571D01*
X32207142Y-52778571D01*
X31064285Y-52707142D02*
X31207142Y-52778571D01*
X31492857Y-52778571D01*
X31635714Y-52707142D01*
X31707142Y-52635714D01*
X31778571Y-52492857D01*
X31778571Y-52064285D01*
X31707142Y-51921428D01*
X31635714Y-51850000D01*
X31492857Y-51778571D01*
X31207142Y-51778571D01*
X31064285Y-51850000D01*
X30421428Y-52778571D02*
X30421428Y-51278571D01*
X29778571Y-52778571D02*
X29778571Y-51992857D01*
X29850000Y-51850000D01*
X29992857Y-51778571D01*
X30207142Y-51778571D01*
X30350000Y-51850000D01*
X30421428Y-51921428D01*
X59492857Y-118278571D02*
X58992857Y-119778571D01*
X58492857Y-118278571D01*
X56921428Y-118207142D02*
X58207142Y-120135714D01*
X56207142Y-119778571D02*
X56350000Y-119707142D01*
X56421428Y-119635714D01*
X56492857Y-119492857D01*
X56492857Y-119064285D01*
X56421428Y-118921428D01*
X56350000Y-118850000D01*
X56207142Y-118778571D01*
X55992857Y-118778571D01*
X55850000Y-118850000D01*
X55778571Y-118921428D01*
X55707142Y-119064285D01*
X55707142Y-119492857D01*
X55778571Y-119635714D01*
X55850000Y-119707142D01*
X55992857Y-119778571D01*
X56207142Y-119778571D01*
X54421428Y-119707142D02*
X54564285Y-119778571D01*
X54850000Y-119778571D01*
X54992857Y-119707142D01*
X55064285Y-119635714D01*
X55135714Y-119492857D01*
X55135714Y-119064285D01*
X55064285Y-118921428D01*
X54992857Y-118850000D01*
X54850000Y-118778571D01*
X54564285Y-118778571D01*
X54421428Y-118850000D01*
X53992857Y-118778571D02*
X53421428Y-118778571D01*
X53778571Y-118278571D02*
X53778571Y-119564285D01*
X53707142Y-119707142D01*
X53564285Y-119778571D01*
X53421428Y-119778571D01*
X51778571Y-118778571D02*
X51778571Y-120064285D01*
X51850000Y-120207142D01*
X51992857Y-120278571D01*
X52064285Y-120278571D01*
X51778571Y-118278571D02*
X51850000Y-118350000D01*
X51778571Y-118421428D01*
X51707142Y-118350000D01*
X51778571Y-118278571D01*
X51778571Y-118421428D01*
X50421428Y-119778571D02*
X50421428Y-118992857D01*
X50492857Y-118850000D01*
X50635714Y-118778571D01*
X50921428Y-118778571D01*
X51064285Y-118850000D01*
X50421428Y-119707142D02*
X50564285Y-119778571D01*
X50921428Y-119778571D01*
X51064285Y-119707142D01*
X51135714Y-119564285D01*
X51135714Y-119421428D01*
X51064285Y-119278571D01*
X50921428Y-119207142D01*
X50564285Y-119207142D01*
X50421428Y-119135714D01*
X49064285Y-119707142D02*
X49207142Y-119778571D01*
X49492857Y-119778571D01*
X49635714Y-119707142D01*
X49707142Y-119635714D01*
X49778571Y-119492857D01*
X49778571Y-119064285D01*
X49707142Y-118921428D01*
X49635714Y-118850000D01*
X49492857Y-118778571D01*
X49207142Y-118778571D01*
X49064285Y-118850000D01*
X48421428Y-119778571D02*
X48421428Y-118278571D01*
X48278571Y-119207142D02*
X47850000Y-119778571D01*
X47850000Y-118778571D02*
X48421428Y-119350000D01*
X59742857Y-96778571D02*
X59742857Y-95278571D01*
X59742857Y-95992857D02*
X58885714Y-95992857D01*
X58885714Y-96778571D02*
X58885714Y-95278571D01*
X57671428Y-95992857D02*
X58171428Y-95992857D01*
X58171428Y-96778571D02*
X58171428Y-95278571D01*
X57457142Y-95278571D01*
X57100000Y-95278571D02*
X56242857Y-95278571D01*
X56671428Y-96778571D02*
X56671428Y-95278571D01*
D11*
X52100000Y-196442380D02*
X52100000Y-195442380D01*
X51719047Y-195442380D01*
X51623809Y-195490000D01*
X51576190Y-195537619D01*
X51528571Y-195632857D01*
X51528571Y-195775714D01*
X51576190Y-195870952D01*
X51623809Y-195918571D01*
X51719047Y-195966190D01*
X52100000Y-195966190D01*
X50671428Y-196442380D02*
X50671428Y-195918571D01*
X50719047Y-195823333D01*
X50814285Y-195775714D01*
X51004761Y-195775714D01*
X51100000Y-195823333D01*
X50671428Y-196394761D02*
X50766666Y-196442380D01*
X51004761Y-196442380D01*
X51100000Y-196394761D01*
X51147619Y-196299523D01*
X51147619Y-196204285D01*
X51100000Y-196109047D01*
X51004761Y-196061428D01*
X50766666Y-196061428D01*
X50671428Y-196013809D01*
X50195238Y-195775714D02*
X50195238Y-196442380D01*
X50195238Y-195870952D02*
X50147619Y-195823333D01*
X50052380Y-195775714D01*
X49909523Y-195775714D01*
X49814285Y-195823333D01*
X49766666Y-195918571D01*
X49766666Y-196442380D01*
X48909523Y-196394761D02*
X49004761Y-196442380D01*
X49195238Y-196442380D01*
X49290476Y-196394761D01*
X49338095Y-196299523D01*
X49338095Y-195918571D01*
X49290476Y-195823333D01*
X49195238Y-195775714D01*
X49004761Y-195775714D01*
X48909523Y-195823333D01*
X48861904Y-195918571D01*
X48861904Y-196013809D01*
X49338095Y-196109047D01*
X48290476Y-196442380D02*
X48385714Y-196394761D01*
X48433333Y-196299523D01*
X48433333Y-195442380D01*
X46719047Y-196442380D02*
X46719047Y-195442380D01*
X46719047Y-196394761D02*
X46814285Y-196442380D01*
X47004761Y-196442380D01*
X47100000Y-196394761D01*
X47147619Y-196347142D01*
X47195238Y-196251904D01*
X47195238Y-195966190D01*
X47147619Y-195870952D01*
X47100000Y-195823333D01*
X47004761Y-195775714D01*
X46814285Y-195775714D01*
X46719047Y-195823333D01*
X45861904Y-196394761D02*
X45957142Y-196442380D01*
X46147619Y-196442380D01*
X46242857Y-196394761D01*
X46290476Y-196299523D01*
X46290476Y-195918571D01*
X46242857Y-195823333D01*
X46147619Y-195775714D01*
X45957142Y-195775714D01*
X45861904Y-195823333D01*
X45814285Y-195918571D01*
X45814285Y-196013809D01*
X46290476Y-196109047D01*
X45433333Y-196394761D02*
X45338095Y-196442380D01*
X45147619Y-196442380D01*
X45052380Y-196394761D01*
X45004761Y-196299523D01*
X45004761Y-196251904D01*
X45052380Y-196156666D01*
X45147619Y-196109047D01*
X45290476Y-196109047D01*
X45385714Y-196061428D01*
X45433333Y-195966190D01*
X45433333Y-195918571D01*
X45385714Y-195823333D01*
X45290476Y-195775714D01*
X45147619Y-195775714D01*
X45052380Y-195823333D01*
X44576190Y-196442380D02*
X44576190Y-195775714D01*
X44576190Y-195442380D02*
X44623809Y-195490000D01*
X44576190Y-195537619D01*
X44528571Y-195490000D01*
X44576190Y-195442380D01*
X44576190Y-195537619D01*
X43671428Y-195775714D02*
X43671428Y-196585238D01*
X43719047Y-196680476D01*
X43766666Y-196728095D01*
X43861904Y-196775714D01*
X44004761Y-196775714D01*
X44100000Y-196728095D01*
X43671428Y-196394761D02*
X43766666Y-196442380D01*
X43957142Y-196442380D01*
X44052380Y-196394761D01*
X44100000Y-196347142D01*
X44147619Y-196251904D01*
X44147619Y-195966190D01*
X44100000Y-195870952D01*
X44052380Y-195823333D01*
X43957142Y-195775714D01*
X43766666Y-195775714D01*
X43671428Y-195823333D01*
X43195238Y-195775714D02*
X43195238Y-196442380D01*
X43195238Y-195870952D02*
X43147619Y-195823333D01*
X43052380Y-195775714D01*
X42909523Y-195775714D01*
X42814285Y-195823333D01*
X42766666Y-195918571D01*
X42766666Y-196442380D01*
X41528571Y-196442380D02*
X41528571Y-195442380D01*
X41528571Y-195823333D02*
X41433333Y-195775714D01*
X41242857Y-195775714D01*
X41147619Y-195823333D01*
X41100000Y-195870952D01*
X41052380Y-195966190D01*
X41052380Y-196251904D01*
X41100000Y-196347142D01*
X41147619Y-196394761D01*
X41242857Y-196442380D01*
X41433333Y-196442380D01*
X41528571Y-196394761D01*
X40719047Y-195775714D02*
X40480952Y-196442380D01*
X40242857Y-195775714D02*
X40480952Y-196442380D01*
X40576190Y-196680476D01*
X40623809Y-196728095D01*
X40719047Y-196775714D01*
X38528571Y-196442380D02*
X38861904Y-195966190D01*
X39100000Y-196442380D02*
X39100000Y-195442380D01*
X38719047Y-195442380D01*
X38623809Y-195490000D01*
X38576190Y-195537619D01*
X38528571Y-195632857D01*
X38528571Y-195775714D01*
X38576190Y-195870952D01*
X38623809Y-195918571D01*
X38719047Y-195966190D01*
X39100000Y-195966190D01*
X38100000Y-196442380D02*
X38100000Y-195775714D01*
X38100000Y-195442380D02*
X38147619Y-195490000D01*
X38100000Y-195537619D01*
X38052380Y-195490000D01*
X38100000Y-195442380D01*
X38100000Y-195537619D01*
X37195238Y-196394761D02*
X37290476Y-196442380D01*
X37480952Y-196442380D01*
X37576190Y-196394761D01*
X37623809Y-196347142D01*
X37671428Y-196251904D01*
X37671428Y-195966190D01*
X37623809Y-195870952D01*
X37576190Y-195823333D01*
X37480952Y-195775714D01*
X37290476Y-195775714D01*
X37195238Y-195823333D01*
X36766666Y-196442380D02*
X36766666Y-195442380D01*
X36338095Y-196442380D02*
X36338095Y-195918571D01*
X36385714Y-195823333D01*
X36480952Y-195775714D01*
X36623809Y-195775714D01*
X36719047Y-195823333D01*
X36766666Y-195870952D01*
X35100000Y-196442380D02*
X35100000Y-195442380D01*
X35100000Y-195918571D02*
X34528571Y-195918571D01*
X34528571Y-196442380D02*
X34528571Y-195442380D01*
X33909523Y-196442380D02*
X34004761Y-196394761D01*
X34052380Y-196347142D01*
X34100000Y-196251904D01*
X34100000Y-195966190D01*
X34052380Y-195870952D01*
X34004761Y-195823333D01*
X33909523Y-195775714D01*
X33766666Y-195775714D01*
X33671428Y-195823333D01*
X33623809Y-195870952D01*
X33576190Y-195966190D01*
X33576190Y-196251904D01*
X33623809Y-196347142D01*
X33671428Y-196394761D01*
X33766666Y-196442380D01*
X33909523Y-196442380D01*
X33004761Y-196442380D02*
X33100000Y-196394761D01*
X33147619Y-196299523D01*
X33147619Y-195442380D01*
X32623809Y-196442380D02*
X32623809Y-195775714D01*
X32623809Y-195870952D02*
X32576190Y-195823333D01*
X32480952Y-195775714D01*
X32338095Y-195775714D01*
X32242857Y-195823333D01*
X32195238Y-195918571D01*
X32195238Y-196442380D01*
X32195238Y-195918571D02*
X32147619Y-195823333D01*
X32052380Y-195775714D01*
X31909523Y-195775714D01*
X31814285Y-195823333D01*
X31766666Y-195918571D01*
X31766666Y-196442380D01*
X30909523Y-196394761D02*
X31004761Y-196442380D01*
X31195238Y-196442380D01*
X31290476Y-196394761D01*
X31338095Y-196299523D01*
X31338095Y-195918571D01*
X31290476Y-195823333D01*
X31195238Y-195775714D01*
X31004761Y-195775714D01*
X30909523Y-195823333D01*
X30861904Y-195918571D01*
X30861904Y-196013809D01*
X31338095Y-196109047D01*
X30480952Y-196394761D02*
X30385714Y-196442380D01*
X30195238Y-196442380D01*
X30100000Y-196394761D01*
X30052380Y-196299523D01*
X30052380Y-196251904D01*
X30100000Y-196156666D01*
X30195238Y-196109047D01*
X30338095Y-196109047D01*
X30433333Y-196061428D01*
X30480952Y-195966190D01*
X30480952Y-195918571D01*
X30433333Y-195823333D01*
X30338095Y-195775714D01*
X30195238Y-195775714D01*
X30100000Y-195823333D01*
X48242857Y-197957142D02*
X48290476Y-198004761D01*
X48433333Y-198052380D01*
X48528571Y-198052380D01*
X48671428Y-198004761D01*
X48766666Y-197909523D01*
X48814285Y-197814285D01*
X48861904Y-197623809D01*
X48861904Y-197480952D01*
X48814285Y-197290476D01*
X48766666Y-197195238D01*
X48671428Y-197100000D01*
X48528571Y-197052380D01*
X48433333Y-197052380D01*
X48290476Y-197100000D01*
X48242857Y-197147619D01*
X47242857Y-197957142D02*
X47290476Y-198004761D01*
X47433333Y-198052380D01*
X47528571Y-198052380D01*
X47671428Y-198004761D01*
X47766666Y-197909523D01*
X47814285Y-197814285D01*
X47861904Y-197623809D01*
X47861904Y-197480952D01*
X47814285Y-197290476D01*
X47766666Y-197195238D01*
X47671428Y-197100000D01*
X47528571Y-197052380D01*
X47433333Y-197052380D01*
X47290476Y-197100000D01*
X47242857Y-197147619D01*
X46623809Y-197052380D02*
X46528571Y-197052380D01*
X46433333Y-197100000D01*
X46385714Y-197147619D01*
X46338095Y-197242857D01*
X46290476Y-197433333D01*
X46290476Y-197671428D01*
X46338095Y-197861904D01*
X46385714Y-197957142D01*
X46433333Y-198004761D01*
X46528571Y-198052380D01*
X46623809Y-198052380D01*
X46719047Y-198004761D01*
X46766666Y-197957142D01*
X46814285Y-197861904D01*
X46861904Y-197671428D01*
X46861904Y-197433333D01*
X46814285Y-197242857D01*
X46766666Y-197147619D01*
X46719047Y-197100000D01*
X46623809Y-197052380D01*
X44576190Y-198052380D02*
X45147619Y-198052380D01*
X44861904Y-198052380D02*
X44861904Y-197052380D01*
X44957142Y-197195238D01*
X45052380Y-197290476D01*
X45147619Y-197338095D01*
X44147619Y-197957142D02*
X44100000Y-198004761D01*
X44147619Y-198052380D01*
X44195238Y-198004761D01*
X44147619Y-197957142D01*
X44147619Y-198052380D01*
X43480952Y-197052380D02*
X43385714Y-197052380D01*
X43290476Y-197100000D01*
X43242857Y-197147619D01*
X43195238Y-197242857D01*
X43147619Y-197433333D01*
X43147619Y-197671428D01*
X43195238Y-197861904D01*
X43242857Y-197957142D01*
X43290476Y-198004761D01*
X43385714Y-198052380D01*
X43480952Y-198052380D01*
X43576190Y-198004761D01*
X43623809Y-197957142D01*
X43671428Y-197861904D01*
X43719047Y-197671428D01*
X43719047Y-197433333D01*
X43671428Y-197242857D01*
X43623809Y-197147619D01*
X43576190Y-197100000D01*
X43480952Y-197052380D01*
X41242857Y-197004761D02*
X42100000Y-198290476D01*
X40147619Y-198052380D02*
X40147619Y-197052380D01*
X39814285Y-197766666D01*
X39480952Y-197052380D01*
X39480952Y-198052380D01*
X38576190Y-198052380D02*
X38576190Y-197528571D01*
X38623809Y-197433333D01*
X38719047Y-197385714D01*
X38909523Y-197385714D01*
X39004761Y-197433333D01*
X38576190Y-198004761D02*
X38671428Y-198052380D01*
X38909523Y-198052380D01*
X39004761Y-198004761D01*
X39052380Y-197909523D01*
X39052380Y-197814285D01*
X39004761Y-197719047D01*
X38909523Y-197671428D01*
X38671428Y-197671428D01*
X38576190Y-197623809D01*
X38100000Y-198052380D02*
X38100000Y-197385714D01*
X38100000Y-197576190D02*
X38052380Y-197480952D01*
X38004761Y-197433333D01*
X37909523Y-197385714D01*
X37814285Y-197385714D01*
X36766666Y-197147619D02*
X36719047Y-197100000D01*
X36623809Y-197052380D01*
X36385714Y-197052380D01*
X36290476Y-197100000D01*
X36242857Y-197147619D01*
X36195238Y-197242857D01*
X36195238Y-197338095D01*
X36242857Y-197480952D01*
X36814285Y-198052380D01*
X36195238Y-198052380D01*
X35576190Y-197052380D02*
X35480952Y-197052380D01*
X35385714Y-197100000D01*
X35338095Y-197147619D01*
X35290476Y-197242857D01*
X35242857Y-197433333D01*
X35242857Y-197671428D01*
X35290476Y-197861904D01*
X35338095Y-197957142D01*
X35385714Y-198004761D01*
X35480952Y-198052380D01*
X35576190Y-198052380D01*
X35671428Y-198004761D01*
X35719047Y-197957142D01*
X35766666Y-197861904D01*
X35814285Y-197671428D01*
X35814285Y-197433333D01*
X35766666Y-197242857D01*
X35719047Y-197147619D01*
X35671428Y-197100000D01*
X35576190Y-197052380D01*
X34861904Y-197147619D02*
X34814285Y-197100000D01*
X34719047Y-197052380D01*
X34480952Y-197052380D01*
X34385714Y-197100000D01*
X34338095Y-197147619D01*
X34290476Y-197242857D01*
X34290476Y-197338095D01*
X34338095Y-197480952D01*
X34909523Y-198052380D01*
X34290476Y-198052380D01*
X33909523Y-197147619D02*
X33861904Y-197100000D01*
X33766666Y-197052380D01*
X33528571Y-197052380D01*
X33433333Y-197100000D01*
X33385714Y-197147619D01*
X33338095Y-197242857D01*
X33338095Y-197338095D01*
X33385714Y-197480952D01*
X33957142Y-198052380D01*
X33338095Y-198052380D01*
X45719047Y-198662380D02*
X45719047Y-199376666D01*
X45766666Y-199519523D01*
X45861904Y-199614761D01*
X46004761Y-199662380D01*
X46100000Y-199662380D01*
X44766666Y-199662380D02*
X45242857Y-199662380D01*
X45242857Y-198662380D01*
X43861904Y-199567142D02*
X43909523Y-199614761D01*
X44052380Y-199662380D01*
X44147619Y-199662380D01*
X44290476Y-199614761D01*
X44385714Y-199519523D01*
X44433333Y-199424285D01*
X44480952Y-199233809D01*
X44480952Y-199090952D01*
X44433333Y-198900476D01*
X44385714Y-198805238D01*
X44290476Y-198710000D01*
X44147619Y-198662380D01*
X44052380Y-198662380D01*
X43909523Y-198710000D01*
X43861904Y-198757619D01*
X43147619Y-198662380D02*
X43147619Y-199376666D01*
X43195238Y-199519523D01*
X43290476Y-199614761D01*
X43433333Y-199662380D01*
X43528571Y-199662380D01*
X42195238Y-199662380D02*
X42671428Y-199662380D01*
X42671428Y-198662380D01*
X41290476Y-199567142D02*
X41338095Y-199614761D01*
X41480952Y-199662380D01*
X41576190Y-199662380D01*
X41719047Y-199614761D01*
X41814285Y-199519523D01*
X41861904Y-199424285D01*
X41909523Y-199233809D01*
X41909523Y-199090952D01*
X41861904Y-198900476D01*
X41814285Y-198805238D01*
X41719047Y-198710000D01*
X41576190Y-198662380D01*
X41480952Y-198662380D01*
X41338095Y-198710000D01*
X41290476Y-198757619D01*
X40576190Y-198662380D02*
X40576190Y-199376666D01*
X40623809Y-199519523D01*
X40719047Y-199614761D01*
X40861904Y-199662380D01*
X40957142Y-199662380D01*
X39623809Y-199662380D02*
X40100000Y-199662380D01*
X40100000Y-198662380D01*
X38719047Y-199567142D02*
X38766666Y-199614761D01*
X38909523Y-199662380D01*
X39004761Y-199662380D01*
X39147619Y-199614761D01*
X39242857Y-199519523D01*
X39290476Y-199424285D01*
X39338095Y-199233809D01*
X39338095Y-199090952D01*
X39290476Y-198900476D01*
X39242857Y-198805238D01*
X39147619Y-198710000D01*
X39004761Y-198662380D01*
X38909523Y-198662380D01*
X38766666Y-198710000D01*
X38719047Y-198757619D01*
X38004761Y-198662380D02*
X38004761Y-199376666D01*
X38052380Y-199519523D01*
X38147619Y-199614761D01*
X38290476Y-199662380D01*
X38385714Y-199662380D01*
X37052380Y-199662380D02*
X37528571Y-199662380D01*
X37528571Y-198662380D01*
X36147619Y-199567142D02*
X36195238Y-199614761D01*
X36338095Y-199662380D01*
X36433333Y-199662380D01*
X36576190Y-199614761D01*
X36671428Y-199519523D01*
X36719047Y-199424285D01*
X36766666Y-199233809D01*
X36766666Y-199090952D01*
X36719047Y-198900476D01*
X36671428Y-198805238D01*
X36576190Y-198710000D01*
X36433333Y-198662380D01*
X36338095Y-198662380D01*
X36195238Y-198710000D01*
X36147619Y-198757619D01*
D10*
X59171428Y-194278571D02*
X59171428Y-192778571D01*
X58600000Y-192778571D01*
X58457142Y-192850000D01*
X58385714Y-192921428D01*
X58314285Y-193064285D01*
X58314285Y-193278571D01*
X58385714Y-193421428D01*
X58457142Y-193492857D01*
X58600000Y-193564285D01*
X59171428Y-193564285D01*
X57028571Y-193278571D02*
X57028571Y-194278571D01*
X57671428Y-193278571D02*
X57671428Y-194064285D01*
X57600000Y-194207142D01*
X57457142Y-194278571D01*
X57242857Y-194278571D01*
X57100000Y-194207142D01*
X57028571Y-194135714D01*
X56100000Y-194278571D02*
X56242857Y-194207142D01*
X56314285Y-194064285D01*
X56314285Y-192778571D01*
X55600000Y-194207142D02*
X55457142Y-194278571D01*
X55171428Y-194278571D01*
X55028571Y-194207142D01*
X54957142Y-194064285D01*
X54957142Y-193992857D01*
X55028571Y-193850000D01*
X55171428Y-193778571D01*
X55385714Y-193778571D01*
X55528571Y-193707142D01*
X55600000Y-193564285D01*
X55600000Y-193492857D01*
X55528571Y-193350000D01*
X55385714Y-193278571D01*
X55171428Y-193278571D01*
X55028571Y-193350000D01*
X53742857Y-194207142D02*
X53885714Y-194278571D01*
X54171428Y-194278571D01*
X54314285Y-194207142D01*
X54385714Y-194064285D01*
X54385714Y-193492857D01*
X54314285Y-193350000D01*
X54171428Y-193278571D01*
X53885714Y-193278571D01*
X53742857Y-193350000D01*
X53671428Y-193492857D01*
X53671428Y-193635714D01*
X54385714Y-193778571D01*
X51885714Y-193278571D02*
X51885714Y-194564285D01*
X51957142Y-194707142D01*
X52100000Y-194778571D01*
X52171428Y-194778571D01*
X51885714Y-192778571D02*
X51957142Y-192850000D01*
X51885714Y-192921428D01*
X51814285Y-192850000D01*
X51885714Y-192778571D01*
X51885714Y-192921428D01*
X50528571Y-194278571D02*
X50528571Y-193492857D01*
X50600000Y-193350000D01*
X50742857Y-193278571D01*
X51028571Y-193278571D01*
X51171428Y-193350000D01*
X50528571Y-194207142D02*
X50671428Y-194278571D01*
X51028571Y-194278571D01*
X51171428Y-194207142D01*
X51242857Y-194064285D01*
X51242857Y-193921428D01*
X51171428Y-193778571D01*
X51028571Y-193707142D01*
X50671428Y-193707142D01*
X50528571Y-193635714D01*
X49171428Y-194207142D02*
X49314285Y-194278571D01*
X49600000Y-194278571D01*
X49742857Y-194207142D01*
X49814285Y-194135714D01*
X49885714Y-193992857D01*
X49885714Y-193564285D01*
X49814285Y-193421428D01*
X49742857Y-193350000D01*
X49600000Y-193278571D01*
X49314285Y-193278571D01*
X49171428Y-193350000D01*
X48528571Y-194278571D02*
X48528571Y-192778571D01*
X48385714Y-193707142D02*
X47957142Y-194278571D01*
X47957142Y-193278571D02*
X48528571Y-193850000D01*
X60921428Y-71278571D02*
X60064285Y-71278571D01*
X60492857Y-72778571D02*
X60492857Y-71278571D01*
X59564285Y-72778571D02*
X59564285Y-71778571D01*
X59564285Y-72064285D02*
X59492857Y-71921428D01*
X59421428Y-71850000D01*
X59278571Y-71778571D01*
X59135714Y-71778571D01*
X57992857Y-72778571D02*
X57992857Y-71992857D01*
X58064285Y-71850000D01*
X58207142Y-71778571D01*
X58492857Y-71778571D01*
X58635714Y-71850000D01*
X57992857Y-72707142D02*
X58135714Y-72778571D01*
X58492857Y-72778571D01*
X58635714Y-72707142D01*
X58707142Y-72564285D01*
X58707142Y-72421428D01*
X58635714Y-72278571D01*
X58492857Y-72207142D01*
X58135714Y-72207142D01*
X57992857Y-72135714D01*
X56635714Y-72707142D02*
X56778571Y-72778571D01*
X57064285Y-72778571D01*
X57207142Y-72707142D01*
X57278571Y-72635714D01*
X57350000Y-72492857D01*
X57350000Y-72064285D01*
X57278571Y-71921428D01*
X57207142Y-71850000D01*
X57064285Y-71778571D01*
X56778571Y-71778571D01*
X56635714Y-71850000D01*
X55992857Y-72778571D02*
X55992857Y-71278571D01*
X55850000Y-72207142D02*
X55421428Y-72778571D01*
X55421428Y-71778571D02*
X55992857Y-72350000D01*
G04 #@! TO.C,GRAF3*
G36*
X29214239Y-197890302D02*
G01*
X29151194Y-198114250D01*
X29052401Y-198326943D01*
X28918861Y-198525473D01*
X28751575Y-198706935D01*
X28750519Y-198707922D01*
X28572932Y-198849928D01*
X28374960Y-198965903D01*
X28165147Y-199051615D01*
X27952036Y-199102835D01*
X27892831Y-199109650D01*
X27761804Y-199114540D01*
X27617661Y-199109844D01*
X27476333Y-199096312D01*
X27353751Y-199074692D01*
X27211382Y-199032904D01*
X27000450Y-198939317D01*
X26804617Y-198814128D01*
X26628345Y-198661404D01*
X26476092Y-198485212D01*
X26352320Y-198289619D01*
X26261488Y-198078692D01*
X26241101Y-198014672D01*
X26226685Y-197957855D01*
X26217274Y-197899255D01*
X26211786Y-197829550D01*
X26209141Y-197739418D01*
X26208257Y-197619538D01*
X26208456Y-197600000D01*
X26464724Y-197600000D01*
X26470085Y-197760468D01*
X26493839Y-197920154D01*
X26539983Y-198065157D01*
X26612259Y-198206814D01*
X26714407Y-198356457D01*
X26784202Y-198438415D01*
X26919642Y-198560299D01*
X27076986Y-198667240D01*
X27245852Y-198752534D01*
X27415852Y-198809472D01*
X27458637Y-198818062D01*
X27540787Y-198829448D01*
X27633045Y-198838131D01*
X27723233Y-198843264D01*
X27799174Y-198844004D01*
X27848692Y-198839505D01*
X27871304Y-198834585D01*
X27927822Y-198822939D01*
X27995231Y-198809527D01*
X28011196Y-198805990D01*
X28086608Y-198783320D01*
X28176119Y-198749895D01*
X28263640Y-198711586D01*
X28285539Y-198700816D01*
X28461307Y-198590947D01*
X28618836Y-198450554D01*
X28753427Y-198285299D01*
X28860380Y-198100843D01*
X28934995Y-197902846D01*
X28948612Y-197838052D01*
X28960389Y-197719780D01*
X28962601Y-197586371D01*
X28955631Y-197451170D01*
X28939862Y-197327521D01*
X28915676Y-197228769D01*
X28870203Y-197115098D01*
X28767892Y-196930800D01*
X28639315Y-196765015D01*
X28489038Y-196621826D01*
X28321627Y-196505315D01*
X28141649Y-196419565D01*
X27953669Y-196368657D01*
X27859944Y-196357356D01*
X27717025Y-196352684D01*
X27570736Y-196359903D01*
X27434844Y-196378184D01*
X27323114Y-196406696D01*
X27257005Y-196431773D01*
X27056439Y-196534010D01*
X26880224Y-196666010D01*
X26730477Y-196825634D01*
X26609318Y-197010739D01*
X26518866Y-197219187D01*
X26504547Y-197262980D01*
X26484761Y-197335844D01*
X26472805Y-197407322D01*
X26466764Y-197490885D01*
X26464724Y-197600000D01*
X26208456Y-197600000D01*
X26209665Y-197481287D01*
X26216892Y-197350114D01*
X26231999Y-197239067D01*
X26256951Y-197138132D01*
X26293712Y-197037295D01*
X26344249Y-196926541D01*
X26357089Y-196900844D01*
X26481589Y-196698696D01*
X26633628Y-196521729D01*
X26809636Y-196371823D01*
X27006042Y-196250861D01*
X27219275Y-196160725D01*
X27445762Y-196103295D01*
X27681934Y-196080453D01*
X27924219Y-196094081D01*
X27952752Y-196098104D01*
X28178478Y-196148158D01*
X28383837Y-196229231D01*
X28574249Y-196343935D01*
X28755132Y-196494885D01*
X28784913Y-196523940D01*
X28945439Y-196707891D01*
X29070059Y-196904919D01*
X29160541Y-197118286D01*
X29218648Y-197351252D01*
X29229080Y-197420259D01*
X29237084Y-197586371D01*
X29240535Y-197658003D01*
X29214239Y-197890302D01*
G37*
D12*
X29214239Y-197890302D02*
X29151194Y-198114250D01*
X29052401Y-198326943D01*
X28918861Y-198525473D01*
X28751575Y-198706935D01*
X28750519Y-198707922D01*
X28572932Y-198849928D01*
X28374960Y-198965903D01*
X28165147Y-199051615D01*
X27952036Y-199102835D01*
X27892831Y-199109650D01*
X27761804Y-199114540D01*
X27617661Y-199109844D01*
X27476333Y-199096312D01*
X27353751Y-199074692D01*
X27211382Y-199032904D01*
X27000450Y-198939317D01*
X26804617Y-198814128D01*
X26628345Y-198661404D01*
X26476092Y-198485212D01*
X26352320Y-198289619D01*
X26261488Y-198078692D01*
X26241101Y-198014672D01*
X26226685Y-197957855D01*
X26217274Y-197899255D01*
X26211786Y-197829550D01*
X26209141Y-197739418D01*
X26208257Y-197619538D01*
X26208456Y-197600000D01*
X26464724Y-197600000D01*
X26470085Y-197760468D01*
X26493839Y-197920154D01*
X26539983Y-198065157D01*
X26612259Y-198206814D01*
X26714407Y-198356457D01*
X26784202Y-198438415D01*
X26919642Y-198560299D01*
X27076986Y-198667240D01*
X27245852Y-198752534D01*
X27415852Y-198809472D01*
X27458637Y-198818062D01*
X27540787Y-198829448D01*
X27633045Y-198838131D01*
X27723233Y-198843264D01*
X27799174Y-198844004D01*
X27848692Y-198839505D01*
X27871304Y-198834585D01*
X27927822Y-198822939D01*
X27995231Y-198809527D01*
X28011196Y-198805990D01*
X28086608Y-198783320D01*
X28176119Y-198749895D01*
X28263640Y-198711586D01*
X28285539Y-198700816D01*
X28461307Y-198590947D01*
X28618836Y-198450554D01*
X28753427Y-198285299D01*
X28860380Y-198100843D01*
X28934995Y-197902846D01*
X28948612Y-197838052D01*
X28960389Y-197719780D01*
X28962601Y-197586371D01*
X28955631Y-197451170D01*
X28939862Y-197327521D01*
X28915676Y-197228769D01*
X28870203Y-197115098D01*
X28767892Y-196930800D01*
X28639315Y-196765015D01*
X28489038Y-196621826D01*
X28321627Y-196505315D01*
X28141649Y-196419565D01*
X27953669Y-196368657D01*
X27859944Y-196357356D01*
X27717025Y-196352684D01*
X27570736Y-196359903D01*
X27434844Y-196378184D01*
X27323114Y-196406696D01*
X27257005Y-196431773D01*
X27056439Y-196534010D01*
X26880224Y-196666010D01*
X26730477Y-196825634D01*
X26609318Y-197010739D01*
X26518866Y-197219187D01*
X26504547Y-197262980D01*
X26484761Y-197335844D01*
X26472805Y-197407322D01*
X26466764Y-197490885D01*
X26464724Y-197600000D01*
X26208456Y-197600000D01*
X26209665Y-197481287D01*
X26216892Y-197350114D01*
X26231999Y-197239067D01*
X26256951Y-197138132D01*
X26293712Y-197037295D01*
X26344249Y-196926541D01*
X26357089Y-196900844D01*
X26481589Y-196698696D01*
X26633628Y-196521729D01*
X26809636Y-196371823D01*
X27006042Y-196250861D01*
X27219275Y-196160725D01*
X27445762Y-196103295D01*
X27681934Y-196080453D01*
X27924219Y-196094081D01*
X27952752Y-196098104D01*
X28178478Y-196148158D01*
X28383837Y-196229231D01*
X28574249Y-196343935D01*
X28755132Y-196494885D01*
X28784913Y-196523940D01*
X28945439Y-196707891D01*
X29070059Y-196904919D01*
X29160541Y-197118286D01*
X29218648Y-197351252D01*
X29229080Y-197420259D01*
X29237084Y-197586371D01*
X29240535Y-197658003D01*
X29214239Y-197890302D01*
G36*
X24942941Y-198222255D02*
G01*
X24852785Y-198327434D01*
X24809094Y-198365485D01*
X24746195Y-198411095D01*
X24684600Y-198439781D01*
X24609283Y-198459705D01*
X24531329Y-198468967D01*
X24418276Y-198466619D01*
X24305941Y-198450276D01*
X24212792Y-198421706D01*
X24166924Y-198398346D01*
X24060509Y-198314342D01*
X23973289Y-198198191D01*
X23906600Y-198051964D01*
X23861779Y-197877732D01*
X23849484Y-197801356D01*
X23836482Y-197663482D01*
X23837998Y-197547802D01*
X24189697Y-197547802D01*
X24192197Y-197658843D01*
X24201250Y-197773359D01*
X24215890Y-197877223D01*
X24235151Y-197956308D01*
X24245795Y-197982909D01*
X24283099Y-198048793D01*
X24325245Y-198097962D01*
X24358571Y-198120334D01*
X24425111Y-198143004D01*
X24493708Y-198145931D01*
X24554685Y-198130658D01*
X24598366Y-198098731D01*
X24615077Y-198051694D01*
X24614629Y-198049321D01*
X24601331Y-198019360D01*
X24571760Y-197962368D01*
X24528881Y-197883798D01*
X24475656Y-197789104D01*
X24415052Y-197683738D01*
X24215027Y-197339702D01*
X24198892Y-197425889D01*
X24194716Y-197454362D01*
X24189697Y-197547802D01*
X23837998Y-197547802D01*
X23838268Y-197527178D01*
X23854570Y-197373464D01*
X23872779Y-197268883D01*
X23915128Y-197125434D01*
X24372053Y-197125434D01*
X24376125Y-197153967D01*
X24390655Y-197194906D01*
X24417835Y-197253656D01*
X24459859Y-197335619D01*
X24518921Y-197446196D01*
X24567438Y-197536263D01*
X24624124Y-197641045D01*
X24665921Y-197716164D01*
X24695189Y-197764330D01*
X24714288Y-197788254D01*
X24725578Y-197790645D01*
X24731418Y-197774212D01*
X24734167Y-197741666D01*
X24736185Y-197695716D01*
X24738146Y-197634984D01*
X24733451Y-197472686D01*
X24714163Y-197332535D01*
X24681276Y-197218397D01*
X24635785Y-197134136D01*
X24578683Y-197083617D01*
X24544564Y-197068352D01*
X24472173Y-197052645D01*
X24414080Y-197063197D01*
X24378145Y-197099389D01*
X24376246Y-197103908D01*
X24372053Y-197125434D01*
X23915128Y-197125434D01*
X23922002Y-197102151D01*
X23992347Y-196966970D01*
X24084604Y-196861996D01*
X24199562Y-196785884D01*
X24258500Y-196759197D01*
X24316567Y-196741437D01*
X24381189Y-196733741D01*
X24468539Y-196732925D01*
X24579434Y-196739819D01*
X24679519Y-196762242D01*
X24766009Y-196804584D01*
X24851492Y-196871396D01*
X24899538Y-196920506D01*
X24982214Y-197044339D01*
X25040721Y-197197138D01*
X25075312Y-197379678D01*
X25086238Y-197592731D01*
X25084805Y-197634984D01*
X25081480Y-197733041D01*
X25056836Y-197926483D01*
X25021390Y-198051694D01*
X25010807Y-198089080D01*
X24942941Y-198222255D01*
G37*
X24942941Y-198222255D02*
X24852785Y-198327434D01*
X24809094Y-198365485D01*
X24746195Y-198411095D01*
X24684600Y-198439781D01*
X24609283Y-198459705D01*
X24531329Y-198468967D01*
X24418276Y-198466619D01*
X24305941Y-198450276D01*
X24212792Y-198421706D01*
X24166924Y-198398346D01*
X24060509Y-198314342D01*
X23973289Y-198198191D01*
X23906600Y-198051964D01*
X23861779Y-197877732D01*
X23849484Y-197801356D01*
X23836482Y-197663482D01*
X23837998Y-197547802D01*
X24189697Y-197547802D01*
X24192197Y-197658843D01*
X24201250Y-197773359D01*
X24215890Y-197877223D01*
X24235151Y-197956308D01*
X24245795Y-197982909D01*
X24283099Y-198048793D01*
X24325245Y-198097962D01*
X24358571Y-198120334D01*
X24425111Y-198143004D01*
X24493708Y-198145931D01*
X24554685Y-198130658D01*
X24598366Y-198098731D01*
X24615077Y-198051694D01*
X24614629Y-198049321D01*
X24601331Y-198019360D01*
X24571760Y-197962368D01*
X24528881Y-197883798D01*
X24475656Y-197789104D01*
X24415052Y-197683738D01*
X24215027Y-197339702D01*
X24198892Y-197425889D01*
X24194716Y-197454362D01*
X24189697Y-197547802D01*
X23837998Y-197547802D01*
X23838268Y-197527178D01*
X23854570Y-197373464D01*
X23872779Y-197268883D01*
X23915128Y-197125434D01*
X24372053Y-197125434D01*
X24376125Y-197153967D01*
X24390655Y-197194906D01*
X24417835Y-197253656D01*
X24459859Y-197335619D01*
X24518921Y-197446196D01*
X24567438Y-197536263D01*
X24624124Y-197641045D01*
X24665921Y-197716164D01*
X24695189Y-197764330D01*
X24714288Y-197788254D01*
X24725578Y-197790645D01*
X24731418Y-197774212D01*
X24734167Y-197741666D01*
X24736185Y-197695716D01*
X24738146Y-197634984D01*
X24733451Y-197472686D01*
X24714163Y-197332535D01*
X24681276Y-197218397D01*
X24635785Y-197134136D01*
X24578683Y-197083617D01*
X24544564Y-197068352D01*
X24472173Y-197052645D01*
X24414080Y-197063197D01*
X24378145Y-197099389D01*
X24376246Y-197103908D01*
X24372053Y-197125434D01*
X23915128Y-197125434D01*
X23922002Y-197102151D01*
X23992347Y-196966970D01*
X24084604Y-196861996D01*
X24199562Y-196785884D01*
X24258500Y-196759197D01*
X24316567Y-196741437D01*
X24381189Y-196733741D01*
X24468539Y-196732925D01*
X24579434Y-196739819D01*
X24679519Y-196762242D01*
X24766009Y-196804584D01*
X24851492Y-196871396D01*
X24899538Y-196920506D01*
X24982214Y-197044339D01*
X25040721Y-197197138D01*
X25075312Y-197379678D01*
X25086238Y-197592731D01*
X25084805Y-197634984D01*
X25081480Y-197733041D01*
X25056836Y-197926483D01*
X25021390Y-198051694D01*
X25010807Y-198089080D01*
X24942941Y-198222255D01*
G36*
X27335087Y-197137553D02*
G01*
X27439475Y-197167928D01*
X27464117Y-197180196D01*
X27561800Y-197254078D01*
X27636905Y-197354228D01*
X27685124Y-197473486D01*
X27702154Y-197604694D01*
X27688536Y-197728345D01*
X27642881Y-197848191D01*
X27567214Y-197946141D01*
X27463723Y-198018395D01*
X27380352Y-198050937D01*
X27248419Y-198068493D01*
X27109070Y-198047792D01*
X27086973Y-198039670D01*
X27031448Y-198008947D01*
X26971639Y-197966241D01*
X26917095Y-197919399D01*
X26877365Y-197876272D01*
X26862000Y-197844709D01*
X26864706Y-197837249D01*
X26892090Y-197812301D01*
X26939444Y-197785935D01*
X27016888Y-197751013D01*
X27086663Y-197812275D01*
X27106578Y-197828406D01*
X27184451Y-197867673D01*
X27259213Y-197871845D01*
X27325937Y-197843996D01*
X27379697Y-197787197D01*
X27415565Y-197704520D01*
X27428616Y-197599038D01*
X27428177Y-197576958D01*
X27410986Y-197471618D01*
X27370310Y-197392865D01*
X27308245Y-197343534D01*
X27226890Y-197326461D01*
X27173913Y-197339854D01*
X27113678Y-197375036D01*
X27064922Y-197421783D01*
X27058361Y-197429280D01*
X27038765Y-197436991D01*
X27006758Y-197427060D01*
X26952388Y-197397323D01*
X26940859Y-197390489D01*
X26893686Y-197358572D01*
X26875227Y-197334377D01*
X26879557Y-197310874D01*
X26925953Y-197250711D01*
X27008378Y-197191970D01*
X27110240Y-197151947D01*
X27222242Y-197133017D01*
X27335087Y-197137553D01*
G37*
X27335087Y-197137553D02*
X27439475Y-197167928D01*
X27464117Y-197180196D01*
X27561800Y-197254078D01*
X27636905Y-197354228D01*
X27685124Y-197473486D01*
X27702154Y-197604694D01*
X27688536Y-197728345D01*
X27642881Y-197848191D01*
X27567214Y-197946141D01*
X27463723Y-198018395D01*
X27380352Y-198050937D01*
X27248419Y-198068493D01*
X27109070Y-198047792D01*
X27086973Y-198039670D01*
X27031448Y-198008947D01*
X26971639Y-197966241D01*
X26917095Y-197919399D01*
X26877365Y-197876272D01*
X26862000Y-197844709D01*
X26864706Y-197837249D01*
X26892090Y-197812301D01*
X26939444Y-197785935D01*
X27016888Y-197751013D01*
X27086663Y-197812275D01*
X27106578Y-197828406D01*
X27184451Y-197867673D01*
X27259213Y-197871845D01*
X27325937Y-197843996D01*
X27379697Y-197787197D01*
X27415565Y-197704520D01*
X27428616Y-197599038D01*
X27428177Y-197576958D01*
X27410986Y-197471618D01*
X27370310Y-197392865D01*
X27308245Y-197343534D01*
X27226890Y-197326461D01*
X27173913Y-197339854D01*
X27113678Y-197375036D01*
X27064922Y-197421783D01*
X27058361Y-197429280D01*
X27038765Y-197436991D01*
X27006758Y-197427060D01*
X26952388Y-197397323D01*
X26940859Y-197390489D01*
X26893686Y-197358572D01*
X26875227Y-197334377D01*
X26879557Y-197310874D01*
X26925953Y-197250711D01*
X27008378Y-197191970D01*
X27110240Y-197151947D01*
X27222242Y-197133017D01*
X27335087Y-197137553D01*
G36*
X25928098Y-198013730D02*
G01*
X25850979Y-198226239D01*
X25741960Y-198426151D01*
X25601565Y-198609450D01*
X25430318Y-198772122D01*
X25358665Y-198826800D01*
X25148814Y-198953934D01*
X24922036Y-199046757D01*
X24682701Y-199103333D01*
X24629245Y-199109587D01*
X24497718Y-199113928D01*
X24351603Y-199107309D01*
X24206088Y-199090687D01*
X24076363Y-199065024D01*
X23989193Y-199039403D01*
X23783462Y-198952963D01*
X23587535Y-198835367D01*
X23408404Y-198691903D01*
X23253060Y-198527855D01*
X23128497Y-198348509D01*
X23121923Y-198336967D01*
X23030753Y-198136409D01*
X22971660Y-197920000D01*
X22944543Y-197693698D01*
X22946503Y-197598975D01*
X23207932Y-197598975D01*
X23222905Y-197800620D01*
X23271467Y-197998686D01*
X23354299Y-198189023D01*
X23472085Y-198367478D01*
X23511618Y-198414097D01*
X23645288Y-198539843D01*
X23802582Y-198651041D01*
X23972303Y-198740458D01*
X24143253Y-198800863D01*
X24260214Y-198825598D01*
X24479243Y-198842623D01*
X24695157Y-198821992D01*
X24903936Y-198764254D01*
X25101557Y-198669958D01*
X25108876Y-198665561D01*
X25200350Y-198599920D01*
X25300572Y-198512322D01*
X25398995Y-198413314D01*
X25485076Y-198313441D01*
X25548267Y-198223249D01*
X25632679Y-198050690D01*
X25694064Y-197845751D01*
X25719198Y-197634606D01*
X25707517Y-197422433D01*
X25658456Y-197214411D01*
X25633123Y-197147282D01*
X25550390Y-196987160D01*
X25441458Y-196831978D01*
X25313615Y-196690242D01*
X25174147Y-196570458D01*
X25030339Y-196481134D01*
X24974013Y-196454950D01*
X24772769Y-196387319D01*
X24563972Y-196353993D01*
X24353455Y-196354622D01*
X24147052Y-196388856D01*
X23950595Y-196456346D01*
X23769918Y-196556741D01*
X23612983Y-196682385D01*
X23470259Y-196839647D01*
X23357710Y-197014089D01*
X23276017Y-197201558D01*
X23225863Y-197397904D01*
X23207932Y-197598975D01*
X22946503Y-197598975D01*
X22949306Y-197463459D01*
X22985850Y-197235241D01*
X23054077Y-197014999D01*
X23153888Y-196808692D01*
X23220353Y-196710982D01*
X23317359Y-196595134D01*
X23428792Y-196481493D01*
X23544068Y-196380779D01*
X23652602Y-196303708D01*
X23722761Y-196263945D01*
X23934872Y-196172319D01*
X24162551Y-196111587D01*
X24398289Y-196082853D01*
X24634579Y-196087219D01*
X24863914Y-196125788D01*
X24885476Y-196131460D01*
X25065418Y-196197626D01*
X25245551Y-196294696D01*
X25417123Y-196416554D01*
X25571384Y-196557078D01*
X25699584Y-196710151D01*
X25816833Y-196902756D01*
X25907082Y-197118025D01*
X25962808Y-197340772D01*
X25984536Y-197566982D01*
X25981016Y-197634606D01*
X25972791Y-197792639D01*
X25928098Y-198013730D01*
G37*
X25928098Y-198013730D02*
X25850979Y-198226239D01*
X25741960Y-198426151D01*
X25601565Y-198609450D01*
X25430318Y-198772122D01*
X25358665Y-198826800D01*
X25148814Y-198953934D01*
X24922036Y-199046757D01*
X24682701Y-199103333D01*
X24629245Y-199109587D01*
X24497718Y-199113928D01*
X24351603Y-199107309D01*
X24206088Y-199090687D01*
X24076363Y-199065024D01*
X23989193Y-199039403D01*
X23783462Y-198952963D01*
X23587535Y-198835367D01*
X23408404Y-198691903D01*
X23253060Y-198527855D01*
X23128497Y-198348509D01*
X23121923Y-198336967D01*
X23030753Y-198136409D01*
X22971660Y-197920000D01*
X22944543Y-197693698D01*
X22946503Y-197598975D01*
X23207932Y-197598975D01*
X23222905Y-197800620D01*
X23271467Y-197998686D01*
X23354299Y-198189023D01*
X23472085Y-198367478D01*
X23511618Y-198414097D01*
X23645288Y-198539843D01*
X23802582Y-198651041D01*
X23972303Y-198740458D01*
X24143253Y-198800863D01*
X24260214Y-198825598D01*
X24479243Y-198842623D01*
X24695157Y-198821992D01*
X24903936Y-198764254D01*
X25101557Y-198669958D01*
X25108876Y-198665561D01*
X25200350Y-198599920D01*
X25300572Y-198512322D01*
X25398995Y-198413314D01*
X25485076Y-198313441D01*
X25548267Y-198223249D01*
X25632679Y-198050690D01*
X25694064Y-197845751D01*
X25719198Y-197634606D01*
X25707517Y-197422433D01*
X25658456Y-197214411D01*
X25633123Y-197147282D01*
X25550390Y-196987160D01*
X25441458Y-196831978D01*
X25313615Y-196690242D01*
X25174147Y-196570458D01*
X25030339Y-196481134D01*
X24974013Y-196454950D01*
X24772769Y-196387319D01*
X24563972Y-196353993D01*
X24353455Y-196354622D01*
X24147052Y-196388856D01*
X23950595Y-196456346D01*
X23769918Y-196556741D01*
X23612983Y-196682385D01*
X23470259Y-196839647D01*
X23357710Y-197014089D01*
X23276017Y-197201558D01*
X23225863Y-197397904D01*
X23207932Y-197598975D01*
X22946503Y-197598975D01*
X22949306Y-197463459D01*
X22985850Y-197235241D01*
X23054077Y-197014999D01*
X23153888Y-196808692D01*
X23220353Y-196710982D01*
X23317359Y-196595134D01*
X23428792Y-196481493D01*
X23544068Y-196380779D01*
X23652602Y-196303708D01*
X23722761Y-196263945D01*
X23934872Y-196172319D01*
X24162551Y-196111587D01*
X24398289Y-196082853D01*
X24634579Y-196087219D01*
X24863914Y-196125788D01*
X24885476Y-196131460D01*
X25065418Y-196197626D01*
X25245551Y-196294696D01*
X25417123Y-196416554D01*
X25571384Y-196557078D01*
X25699584Y-196710151D01*
X25816833Y-196902756D01*
X25907082Y-197118025D01*
X25962808Y-197340772D01*
X25984536Y-197566982D01*
X25981016Y-197634606D01*
X25972791Y-197792639D01*
X25928098Y-198013730D01*
G36*
X28211332Y-197138433D02*
G01*
X28330981Y-197174047D01*
X28433280Y-197239869D01*
X28512411Y-197333898D01*
X28513931Y-197336398D01*
X28549251Y-197404936D01*
X28568911Y-197474717D01*
X28578269Y-197564501D01*
X28579597Y-197606835D01*
X28565242Y-197746736D01*
X28520464Y-197862318D01*
X28445027Y-197954034D01*
X28338695Y-198022334D01*
X28323988Y-198028916D01*
X28194244Y-198064942D01*
X28065441Y-198062801D01*
X27941914Y-198023137D01*
X27827998Y-197946592D01*
X27790081Y-197911448D01*
X27754834Y-197874078D01*
X27741231Y-197852736D01*
X27744755Y-197845796D01*
X27773096Y-197822496D01*
X27820557Y-197794786D01*
X27899883Y-197754317D01*
X27967775Y-197813928D01*
X28003904Y-197841518D01*
X28081404Y-197872549D01*
X28157933Y-197864544D01*
X28233179Y-197817499D01*
X28264231Y-197786901D01*
X28285977Y-197752001D01*
X28297588Y-197704710D01*
X28304160Y-197631687D01*
X28305949Y-197566390D01*
X28294410Y-197468778D01*
X28262338Y-197399575D01*
X28208372Y-197354847D01*
X28132889Y-197329439D01*
X28060737Y-197338519D01*
X27988507Y-197385023D01*
X27921809Y-197443585D01*
X27831679Y-197393211D01*
X27809064Y-197380299D01*
X27768257Y-197352581D01*
X27754405Y-197330461D01*
X27761191Y-197306135D01*
X27777964Y-197281844D01*
X27834173Y-197230000D01*
X27907960Y-197183771D01*
X27985462Y-197152643D01*
X28080151Y-197135030D01*
X28211332Y-197138433D01*
G37*
X28211332Y-197138433D02*
X28330981Y-197174047D01*
X28433280Y-197239869D01*
X28512411Y-197333898D01*
X28513931Y-197336398D01*
X28549251Y-197404936D01*
X28568911Y-197474717D01*
X28578269Y-197564501D01*
X28579597Y-197606835D01*
X28565242Y-197746736D01*
X28520464Y-197862318D01*
X28445027Y-197954034D01*
X28338695Y-198022334D01*
X28323988Y-198028916D01*
X28194244Y-198064942D01*
X28065441Y-198062801D01*
X27941914Y-198023137D01*
X27827998Y-197946592D01*
X27790081Y-197911448D01*
X27754834Y-197874078D01*
X27741231Y-197852736D01*
X27744755Y-197845796D01*
X27773096Y-197822496D01*
X27820557Y-197794786D01*
X27899883Y-197754317D01*
X27967775Y-197813928D01*
X28003904Y-197841518D01*
X28081404Y-197872549D01*
X28157933Y-197864544D01*
X28233179Y-197817499D01*
X28264231Y-197786901D01*
X28285977Y-197752001D01*
X28297588Y-197704710D01*
X28304160Y-197631687D01*
X28305949Y-197566390D01*
X28294410Y-197468778D01*
X28262338Y-197399575D01*
X28208372Y-197354847D01*
X28132889Y-197329439D01*
X28060737Y-197338519D01*
X27988507Y-197385023D01*
X27921809Y-197443585D01*
X27831679Y-197393211D01*
X27809064Y-197380299D01*
X27768257Y-197352581D01*
X27754405Y-197330461D01*
X27761191Y-197306135D01*
X27777964Y-197281844D01*
X27834173Y-197230000D01*
X27907960Y-197183771D01*
X27985462Y-197152643D01*
X28080151Y-197135030D01*
X28211332Y-197138433D01*
G04 #@! TD*
M02*
